<svg width="34" height="34" viewBox="0 0 34 34" fill="none" xmlns="http://www.w3.org/2000/svg">
<path d="M22.4507 20.0748C22.3163 19.9404 22.2314 19.7566 22.2314 19.5444L22.2314 11.7097L14.3967 11.7097C13.9866 11.7097 13.6472 11.3703 13.6472 10.9602C13.6472 10.55 13.9866 10.2106 14.3967 10.2106L22.981 10.2106C23.3911 10.2106 23.7305 10.55 23.7305 10.9602L23.7305 19.5444C23.7305 19.9546 23.3911 20.294 22.981 20.294C22.7759 20.301 22.585 20.2091 22.4507 20.0748Z" fill="#63D9B9"/>
<path d="M10.4299 23.5113C10.14 23.2214 10.14 22.7406 10.4299 22.4507L22.3305 10.55C22.6204 10.2601 23.1013 10.2601 23.3912 10.55C23.6811 10.84 23.6811 11.3208 23.3912 11.6107L11.4906 23.5113C11.2006 23.8012 10.7198 23.8012 10.4299 23.5113Z" fill="#63D9B9"/>
</svg>
