<svg width="36" height="36" viewBox="0 0 36 36" fill="none" xmlns="http://www.w3.org/2000/svg">
<path d="M14.3552 28.2302C14.0702 28.2302 13.7852 28.1252 13.5602 27.9002L4.45516 18.7952C4.02016 18.3602 4.02016 17.6402 4.45516 17.2052L13.5602 8.10018C13.9952 7.66518 14.7152 7.66518 15.1502 8.10018C15.5852 8.53518 15.5852 9.25518 15.1502 9.69018L6.84016 18.0002L15.1502 26.3102C15.5852 26.7452 15.5852 27.4652 15.1502 27.9002C14.9402 28.1252 14.6402 28.2302 14.3552 28.2302Z" fill="#FEFEFE"/>
<path d="M30.7499 19.125H5.50488C4.88988 19.125 4.37988 18.615 4.37988 18C4.37988 17.385 4.88988 16.875 5.50488 16.875H30.7499C31.3649 16.875 31.8749 17.385 31.8749 18C31.8749 18.615 31.3649 19.125 30.7499 19.125Z" fill="#FEFEFE"/>
</svg>
