<svg width="64" height="52" viewBox="0 0 64 52" fill="none" xmlns="http://www.w3.org/2000/svg">
<path d="M36.8 3.19995H27.2C25.433 3.19995 24 4.63295 24 6.39995V16C24 17.767 25.433 19.2 27.2 19.2H36.8C38.567 19.2 40 17.767 40 16V6.39995C40 4.63295 38.567 3.19995 36.8 3.19995ZM20.8 8.79995H12.325C11.375 6.45595 9.084 4.79995 6.4 4.79995C2.866 4.79995 0 7.66495 0 11.2C0 14.735 2.866 17.6 6.4 17.6C9.084 17.6 11.375 15.944 12.325 13.6H20.298C14.761 16.852 10.712 22.332 9.344 28.8H14.284C15.414 24.639 17.961 21.079 21.388 18.644C21.018 17.836 20.8 16.945 20.8 16V8.79995ZM16 32H6.4C4.633 32 3.2 33.433 3.2 35.2V44.8C3.2 46.567 4.633 48 6.4 48H16C17.767 48 19.2 46.567 19.2 44.8V35.2C19.2 33.433 17.767 32 16 32ZM57.6 4.79995C54.916 4.79995 52.625 6.45595 51.675 8.79995H43.2V16C43.2 16.945 42.981 17.836 42.612 18.644C46.039 21.079 48.586 24.639 49.716 28.8H54.656C53.288 22.332 49.239 16.852 43.702 13.6H51.675C52.625 15.944 54.916 17.6 57.6 17.6C61.134 17.6 64 14.735 64 11.2C64 7.66495 61.134 4.79995 57.6 4.79995ZM57.6 32H48C46.233 32 44.8 33.433 44.8 35.2V44.8C44.8 46.567 46.233 48 48 48H57.6C59.367 48 60.8 46.567 60.8 44.8V35.2C60.8 33.433 59.367 32 57.6 32Z" fill="#FEFEFE"/>
</svg>
