<svg width="24" height="24" viewBox="0 0 24 24" fill="none" xmlns="http://www.w3.org/2000/svg">
<path d="M3 3V21.8889C3 22.1836 3.11706 22.4662 3.32544 22.6746C3.53381 22.8829 3.81643 23 4.11111 23H23V20.7778H5.22222V3H3Z" fill="white"/>
<path d="M16.8803 15.8607C16.9833 15.9601 17.1056 16.039 17.2402 16.0928C17.3749 16.1466 17.5193 16.1743 17.665 16.1743C17.8108 16.1743 17.9552 16.1466 18.0898 16.0928C18.2245 16.039 18.3468 15.9601 18.4498 15.8607L24 10.5125L22.4304 9L17.665 13.592L15.1197 11.1393C15.0167 11.0399 14.8944 10.961 14.7598 10.9072C14.6251 10.8534 14.4807 10.8257 14.335 10.8257C14.1892 10.8257 14.0448 10.8534 13.9101 10.9072C13.7755 10.961 13.6532 11.0399 13.5502 11.1393L8 16.4875L9.56958 18L14.335 13.408L16.8803 15.8607Z" fill="white"/>
</svg>
