<svg width="37" height="36" viewBox="0 0 37 36" fill="none" xmlns="http://www.w3.org/2000/svg">
<path d="M12.5 8.625C11.885 8.625 11.375 8.115 11.375 7.5V3C11.375 2.385 11.885 1.875 12.5 1.875C13.115 1.875 13.625 2.385 13.625 3V7.5C13.625 8.115 13.115 8.625 12.5 8.625Z" fill="#010101"/>
<path d="M24.5 8.625C23.885 8.625 23.375 8.115 23.375 7.5V3C23.375 2.385 23.885 1.875 24.5 1.875C25.115 1.875 25.625 2.385 25.625 3V7.5C25.625 8.115 25.115 8.625 24.5 8.625Z" fill="#010101"/>
<path d="M31.25 14.7599H5.75C5.135 14.7599 4.625 14.2499 4.625 13.6349C4.625 13.0199 5.135 12.5099 5.75 12.5099H31.25C31.865 12.5099 32.375 13.0199 32.375 13.6349C32.375 14.2499 31.865 14.7599 31.25 14.7599Z" fill="#010101"/>
<path d="M24.5 34.125H12.5C7.025 34.125 3.875 30.975 3.875 25.5V12.75C3.875 7.275 7.025 4.125 12.5 4.125H24.5C29.975 4.125 33.125 7.275 33.125 12.75V25.5C33.125 30.975 29.975 34.125 24.5 34.125ZM12.5 6.375C8.21 6.375 6.125 8.46 6.125 12.75V25.5C6.125 29.79 8.21 31.875 12.5 31.875H24.5C28.79 31.875 30.875 29.79 30.875 25.5V12.75C30.875 8.46 28.79 6.375 24.5 6.375H12.5Z" fill="#010101"/>
<path d="M13.25 21.75C13.055 21.75 12.86 21.705 12.68 21.63C12.5 21.555 12.335 21.45 12.185 21.315C12.05 21.165 11.945 21 11.87 20.82C11.795 20.64 11.75 20.445 11.75 20.25C11.75 19.86 11.915 19.47 12.185 19.185C12.335 19.05 12.5 18.945 12.68 18.87C12.95 18.75 13.25 18.72 13.55 18.78C13.64 18.795 13.73 18.825 13.82 18.87C13.91 18.9 14 18.945 14.09 19.005C14.165 19.065 14.24 19.125 14.315 19.185C14.375 19.26 14.45 19.335 14.495 19.41C14.555 19.5 14.6 19.59 14.63 19.68C14.675 19.77 14.705 19.86 14.72 19.95C14.735 20.055 14.75 20.145 14.75 20.25C14.75 20.64 14.585 21.03 14.315 21.315C14.03 21.585 13.64 21.75 13.25 21.75Z" fill="#010101"/>
<path d="M18.5 21.75C18.11 21.75 17.72 21.585 17.435 21.315C17.375 21.24 17.315 21.165 17.255 21.09C17.195 21 17.15 20.91 17.12 20.82C17.075 20.73 17.045 20.64 17.03 20.55C17.015 20.445 17 20.355 17 20.25C17 20.055 17.045 19.86 17.12 19.68C17.195 19.5 17.3 19.335 17.435 19.185C17.855 18.765 18.53 18.63 19.07 18.87C19.265 18.945 19.415 19.05 19.565 19.185C19.835 19.47 20 19.86 20 20.25C20 20.355 19.985 20.445 19.97 20.55C19.955 20.64 19.925 20.73 19.88 20.82C19.85 20.91 19.805 21 19.745 21.09C19.685 21.165 19.625 21.24 19.565 21.315C19.415 21.45 19.265 21.555 19.07 21.63C18.89 21.705 18.695 21.75 18.5 21.75Z" fill="#010101"/>
<path d="M13.25 27C13.055 27 12.86 26.955 12.68 26.88C12.5 26.805 12.335 26.7 12.185 26.565C12.05 26.415 11.945 26.265 11.87 26.07C11.795 25.89 11.75 25.695 11.75 25.5C11.75 25.11 11.915 24.72 12.185 24.435C12.335 24.3 12.5 24.195 12.68 24.12C13.235 23.88 13.895 24.015 14.315 24.435C14.375 24.51 14.45 24.585 14.495 24.66C14.555 24.75 14.6 24.84 14.63 24.93C14.675 25.02 14.705 25.11 14.72 25.215C14.735 25.305 14.75 25.41 14.75 25.5C14.75 25.89 14.585 26.28 14.315 26.565C14.03 26.835 13.64 27 13.25 27Z" fill="#010101"/>
</svg>
