<svg width="316" height="214" viewBox="0 0 316 214" fill="none" xmlns="http://www.w3.org/2000/svg">
<rect x="38.8102" y="9.5" width="0.962733" height="177" fill="#717171"/>
<rect x="75.9957" y="9.5" width="0.962733" height="177" fill="#717171"/>
<rect x="113.181" y="9.5" width="0.962733" height="177" fill="#717171"/>
<rect x="150.367" y="9.5" width="0.962733" height="177" fill="#717171"/>
<rect x="188" y="10" width="0.962733" height="177" fill="#717171"/>
<rect x="224.738" y="9.5" width="0.962733" height="177" fill="#717171"/>
<rect x="261.924" y="9.5" width="0.962733" height="177" fill="#717171"/>
<rect x="299.109" y="9.5" width="0.962733" height="177" fill="#717171"/>
<path d="M35.8169 209V201.248H35.6369L34.0049 204.236H32.9489L34.9529 200.6H36.7889V209H35.8169ZM41.9885 209.168C41.0365 209.168 40.2765 208.888 39.7085 208.328C39.1485 207.76 38.8685 206.912 38.8685 205.784V203.816C38.8685 202.696 39.1485 201.852 39.7085 201.284C40.2765 200.716 41.0365 200.432 41.9885 200.432C42.9485 200.432 43.7085 200.716 44.2685 201.284C44.8365 201.852 45.1205 202.696 45.1205 203.816V205.784C45.1205 206.912 44.8365 207.76 44.2685 208.328C43.7085 208.888 42.9485 209.168 41.9885 209.168ZM41.9885 208.292C42.7085 208.292 43.2485 208.076 43.6085 207.644C43.9685 207.212 44.1485 206.608 44.1485 205.832V203.756C44.1485 202.98 43.9645 202.38 43.5965 201.956C43.2285 201.524 42.6925 201.308 41.9885 201.308C41.2845 201.308 40.7485 201.524 40.3805 201.956C40.0205 202.388 39.8405 202.988 39.8405 203.756V205.832C39.8405 206.616 40.0205 207.224 40.3805 207.656C40.7405 208.08 41.2765 208.292 41.9885 208.292ZM50.076 209.168C49.124 209.168 48.364 208.888 47.796 208.328C47.236 207.76 46.956 206.912 46.956 205.784V203.816C46.956 202.696 47.236 201.852 47.796 201.284C48.364 200.716 49.124 200.432 50.076 200.432C51.036 200.432 51.796 200.716 52.356 201.284C52.924 201.852 53.208 202.696 53.208 203.816V205.784C53.208 206.912 52.924 207.76 52.356 208.328C51.796 208.888 51.036 209.168 50.076 209.168ZM50.076 208.292C50.796 208.292 51.336 208.076 51.696 207.644C52.056 207.212 52.236 206.608 52.236 205.832V203.756C52.236 202.98 52.052 202.38 51.684 201.956C51.316 201.524 50.78 201.308 50.076 201.308C49.372 201.308 48.836 201.524 48.468 201.956C48.108 202.388 47.928 202.988 47.928 203.756V205.832C47.928 206.616 48.108 207.224 48.468 207.656C48.828 208.08 49.364 208.292 50.076 208.292Z" fill="#FEFEFE"/>
<path d="M67.9785 209V208.124C67.9785 207.524 68.0825 207.044 68.2905 206.684C68.5065 206.324 68.8025 206.036 69.1785 205.82C69.5625 205.596 70.0185 205.404 70.5465 205.244L71.2065 205.04C71.5665 204.928 71.8825 204.792 72.1545 204.632C72.4265 204.464 72.6385 204.256 72.7905 204.008C72.9425 203.752 73.0185 203.44 73.0185 203.072V203.024C73.0185 202.496 72.8345 202.08 72.4665 201.776C72.0985 201.464 71.6265 201.308 71.0505 201.308C70.4425 201.308 69.9465 201.472 69.5625 201.8C69.1785 202.12 68.9865 202.608 68.9865 203.264V203.432H68.0265V203.276C68.0265 202.668 68.1585 202.152 68.4225 201.728C68.6865 201.304 69.0465 200.984 69.5025 200.768C69.9585 200.544 70.4745 200.432 71.0505 200.432C71.6265 200.432 72.1345 200.54 72.5745 200.756C73.0225 200.972 73.3705 201.272 73.6185 201.656C73.8665 202.04 73.9905 202.488 73.9905 203V203.108C73.9905 203.652 73.8825 204.104 73.6665 204.464C73.4505 204.816 73.1505 205.104 72.7665 205.328C72.3905 205.552 71.9465 205.744 71.4345 205.904L70.7865 206.108C70.3785 206.236 70.0385 206.372 69.7665 206.516C69.5025 206.652 69.3025 206.828 69.1665 207.044C69.0305 207.26 68.9625 207.552 68.9625 207.92V208.124H73.9185V209H67.9785ZM78.813 209.168C77.861 209.168 77.101 208.888 76.533 208.328C75.973 207.76 75.693 206.912 75.693 205.784V203.816C75.693 202.696 75.973 201.852 76.533 201.284C77.101 200.716 77.861 200.432 78.813 200.432C79.773 200.432 80.533 200.716 81.093 201.284C81.661 201.852 81.945 202.696 81.945 203.816V205.784C81.945 206.912 81.661 207.76 81.093 208.328C80.533 208.888 79.773 209.168 78.813 209.168ZM78.813 208.292C79.533 208.292 80.073 208.076 80.433 207.644C80.793 207.212 80.973 206.608 80.973 205.832V203.756C80.973 202.98 80.789 202.38 80.421 201.956C80.053 201.524 79.517 201.308 78.813 201.308C78.109 201.308 77.573 201.524 77.205 201.956C76.845 202.388 76.665 202.988 76.665 203.756V205.832C76.665 206.616 76.845 207.224 77.205 207.656C77.565 208.08 78.101 208.292 78.813 208.292ZM86.9005 209.168C85.9485 209.168 85.1885 208.888 84.6205 208.328C84.0605 207.76 83.7805 206.912 83.7805 205.784V203.816C83.7805 202.696 84.0605 201.852 84.6205 201.284C85.1885 200.716 85.9485 200.432 86.9005 200.432C87.8605 200.432 88.6205 200.716 89.1805 201.284C89.7485 201.852 90.0325 202.696 90.0325 203.816V205.784C90.0325 206.912 89.7485 207.76 89.1805 208.328C88.6205 208.888 87.8605 209.168 86.9005 209.168ZM86.9005 208.292C87.6205 208.292 88.1605 208.076 88.5205 207.644C88.8805 207.212 89.0605 206.608 89.0605 205.832V203.756C89.0605 202.98 88.8765 202.38 88.5085 201.956C88.1405 201.524 87.6045 201.308 86.9005 201.308C86.1965 201.308 85.6605 201.524 85.2925 201.956C84.9325 202.388 84.7525 202.988 84.7525 203.756V205.832C84.7525 206.616 84.9325 207.224 85.2925 207.656C85.6525 208.08 86.1885 208.292 86.9005 208.292Z" fill="#FEFEFE"/>
<path d="M107.588 209.168C106.996 209.168 106.464 209.056 105.992 208.832C105.528 208.608 105.16 208.284 104.888 207.86C104.624 207.436 104.492 206.924 104.492 206.324V206.096H105.464V206.312C105.464 206.928 105.66 207.412 106.052 207.764C106.444 208.116 106.956 208.292 107.588 208.292C108.228 208.292 108.724 208.128 109.076 207.8C109.436 207.464 109.616 207.044 109.616 206.54V206.444C109.616 206.076 109.528 205.78 109.352 205.556C109.176 205.324 108.936 205.156 108.632 205.052C108.336 204.94 108.008 204.884 107.648 204.884H106.28V203.672L109.484 201.62V201.476H104.696V200.6H110.516V201.956L107.384 203.972V204.116H107.984C108.456 204.116 108.888 204.204 109.28 204.38C109.68 204.548 109.996 204.804 110.228 205.148C110.468 205.484 110.588 205.908 110.588 206.42V206.552C110.588 207.08 110.464 207.54 110.216 207.932C109.968 208.324 109.62 208.628 109.172 208.844C108.724 209.06 108.196 209.168 107.588 209.168ZM115.434 209.168C114.482 209.168 113.722 208.888 113.154 208.328C112.594 207.76 112.314 206.912 112.314 205.784V203.816C112.314 202.696 112.594 201.852 113.154 201.284C113.722 200.716 114.482 200.432 115.434 200.432C116.394 200.432 117.154 200.716 117.714 201.284C118.282 201.852 118.566 202.696 118.566 203.816V205.784C118.566 206.912 118.282 207.76 117.714 208.328C117.154 208.888 116.394 209.168 115.434 209.168ZM115.434 208.292C116.154 208.292 116.694 208.076 117.054 207.644C117.414 207.212 117.594 206.608 117.594 205.832V203.756C117.594 202.98 117.41 202.38 117.042 201.956C116.674 201.524 116.138 201.308 115.434 201.308C114.73 201.308 114.194 201.524 113.826 201.956C113.466 202.388 113.286 202.988 113.286 203.756V205.832C113.286 206.616 113.466 207.224 113.826 207.656C114.186 208.08 114.722 208.292 115.434 208.292ZM123.522 209.168C122.57 209.168 121.81 208.888 121.242 208.328C120.682 207.76 120.402 206.912 120.402 205.784V203.816C120.402 202.696 120.682 201.852 121.242 201.284C121.81 200.716 122.57 200.432 123.522 200.432C124.482 200.432 125.242 200.716 125.802 201.284C126.37 201.852 126.654 202.696 126.654 203.816V205.784C126.654 206.912 126.37 207.76 125.802 208.328C125.242 208.888 124.482 209.168 123.522 209.168ZM123.522 208.292C124.242 208.292 124.782 208.076 125.142 207.644C125.502 207.212 125.682 206.608 125.682 205.832V203.756C125.682 202.98 125.498 202.38 125.13 201.956C124.762 201.524 124.226 201.308 123.522 201.308C122.818 201.308 122.282 201.524 121.914 201.956C121.554 202.388 121.374 202.988 121.374 203.756V205.832C121.374 206.616 121.554 207.224 121.914 207.656C122.274 208.08 122.81 208.292 123.522 208.292Z" fill="#FEFEFE"/>
<path d="M145.326 209V207.284H140.946V206.132L144.474 200.6H146.298V206.408H147.738V207.284H146.298V209H145.326ZM141.918 206.408H145.326V201.188H145.158L141.918 206.264V206.408ZM152.302 209.168C151.35 209.168 150.59 208.888 150.022 208.328C149.462 207.76 149.182 206.912 149.182 205.784V203.816C149.182 202.696 149.462 201.852 150.022 201.284C150.59 200.716 151.35 200.432 152.302 200.432C153.262 200.432 154.022 200.716 154.582 201.284C155.15 201.852 155.434 202.696 155.434 203.816V205.784C155.434 206.912 155.15 207.76 154.582 208.328C154.022 208.888 153.262 209.168 152.302 209.168ZM152.302 208.292C153.022 208.292 153.562 208.076 153.922 207.644C154.282 207.212 154.462 206.608 154.462 205.832V203.756C154.462 202.98 154.278 202.38 153.91 201.956C153.542 201.524 153.006 201.308 152.302 201.308C151.598 201.308 151.062 201.524 150.694 201.956C150.334 202.388 150.154 202.988 150.154 203.756V205.832C150.154 206.616 150.334 207.224 150.694 207.656C151.054 208.08 151.59 208.292 152.302 208.292ZM160.389 209.168C159.437 209.168 158.677 208.888 158.109 208.328C157.549 207.76 157.269 206.912 157.269 205.784V203.816C157.269 202.696 157.549 201.852 158.109 201.284C158.677 200.716 159.437 200.432 160.389 200.432C161.349 200.432 162.109 200.716 162.669 201.284C163.237 201.852 163.521 202.696 163.521 203.816V205.784C163.521 206.912 163.237 207.76 162.669 208.328C162.109 208.888 161.349 209.168 160.389 209.168ZM160.389 208.292C161.109 208.292 161.649 208.076 162.009 207.644C162.369 207.212 162.549 206.608 162.549 205.832V203.756C162.549 202.98 162.365 202.38 161.997 201.956C161.629 201.524 161.093 201.308 160.389 201.308C159.685 201.308 159.149 201.524 158.781 201.956C158.421 202.388 158.241 202.988 158.241 203.756V205.832C158.241 206.616 158.421 207.224 158.781 207.656C159.141 208.08 159.677 208.292 160.389 208.292Z" fill="#FEFEFE"/>
<path d="M180.795 209.168C180.179 209.168 179.647 209.052 179.199 208.82C178.751 208.58 178.403 208.252 178.155 207.836C177.907 207.412 177.783 206.924 177.783 206.372V206.228H178.755V206.336C178.755 206.968 178.939 207.452 179.307 207.788C179.675 208.124 180.163 208.292 180.771 208.292C181.411 208.292 181.911 208.112 182.271 207.752C182.631 207.392 182.811 206.9 182.811 206.276V206.168C182.811 205.568 182.635 205.092 182.283 204.74C181.939 204.38 181.491 204.2 180.939 204.2C180.619 204.2 180.355 204.252 180.147 204.356C179.939 204.452 179.775 204.576 179.655 204.728C179.535 204.872 179.435 205.012 179.355 205.148H178.035V200.6H183.555V201.476H179.007V204.38H179.175C179.263 204.22 179.383 204.064 179.535 203.912C179.695 203.76 179.907 203.632 180.171 203.528C180.435 203.424 180.763 203.372 181.155 203.372C181.643 203.372 182.083 203.484 182.475 203.708C182.875 203.932 183.191 204.252 183.423 204.668C183.663 205.084 183.783 205.58 183.783 206.156V206.288C183.783 206.856 183.663 207.356 183.423 207.788C183.183 208.22 182.839 208.56 182.391 208.808C181.943 209.048 181.411 209.168 180.795 209.168ZM188.595 209.168C187.643 209.168 186.883 208.888 186.315 208.328C185.755 207.76 185.475 206.912 185.475 205.784V203.816C185.475 202.696 185.755 201.852 186.315 201.284C186.883 200.716 187.643 200.432 188.595 200.432C189.555 200.432 190.315 200.716 190.875 201.284C191.443 201.852 191.727 202.696 191.727 203.816V205.784C191.727 206.912 191.443 207.76 190.875 208.328C190.315 208.888 189.555 209.168 188.595 209.168ZM188.595 208.292C189.315 208.292 189.855 208.076 190.215 207.644C190.575 207.212 190.755 206.608 190.755 205.832V203.756C190.755 202.98 190.571 202.38 190.203 201.956C189.835 201.524 189.299 201.308 188.595 201.308C187.891 201.308 187.355 201.524 186.987 201.956C186.627 202.388 186.447 202.988 186.447 203.756V205.832C186.447 206.616 186.627 207.224 186.987 207.656C187.347 208.08 187.883 208.292 188.595 208.292ZM196.682 209.168C195.73 209.168 194.97 208.888 194.402 208.328C193.842 207.76 193.562 206.912 193.562 205.784V203.816C193.562 202.696 193.842 201.852 194.402 201.284C194.97 200.716 195.73 200.432 196.682 200.432C197.642 200.432 198.402 200.716 198.962 201.284C199.53 201.852 199.814 202.696 199.814 203.816V205.784C199.814 206.912 199.53 207.76 198.962 208.328C198.402 208.888 197.642 209.168 196.682 209.168ZM196.682 208.292C197.402 208.292 197.942 208.076 198.302 207.644C198.662 207.212 198.842 206.608 198.842 205.832V203.756C198.842 202.98 198.658 202.38 198.29 201.956C197.922 201.524 197.386 201.308 196.682 201.308C195.978 201.308 195.442 201.524 195.074 201.956C194.714 202.388 194.534 202.988 194.534 203.756V205.832C194.534 206.616 194.714 207.224 195.074 207.656C195.434 208.08 195.97 208.292 196.682 208.292Z" fill="#FEFEFE"/>
<path d="M217.501 209.168C216.925 209.168 216.409 209.056 215.953 208.832C215.505 208.6 215.149 208.272 214.885 207.848C214.629 207.424 214.501 206.92 214.501 206.336V203.408C214.501 202.776 214.625 202.24 214.873 201.8C215.121 201.36 215.469 201.024 215.917 200.792C216.373 200.552 216.913 200.432 217.537 200.432C218.153 200.432 218.677 200.544 219.109 200.768C219.549 200.984 219.881 201.284 220.105 201.668C220.337 202.044 220.453 202.48 220.453 202.976H219.469C219.469 202.48 219.309 202.08 218.989 201.776C218.669 201.464 218.185 201.308 217.537 201.308C216.881 201.308 216.373 201.488 216.013 201.848C215.653 202.2 215.473 202.688 215.473 203.312V204.476H215.641C215.785 204.236 216.025 204.016 216.361 203.816C216.697 203.608 217.165 203.504 217.765 203.504C218.269 203.504 218.729 203.616 219.145 203.84C219.561 204.064 219.893 204.38 220.141 204.788C220.389 205.196 220.513 205.68 220.513 206.24V206.384C220.513 206.952 220.381 207.444 220.117 207.86C219.861 208.276 219.505 208.6 219.049 208.832C218.593 209.056 218.077 209.168 217.501 209.168ZM217.501 208.292C218.109 208.292 218.601 208.12 218.977 207.776C219.353 207.432 219.541 206.964 219.541 206.372V206.276C219.541 205.876 219.453 205.532 219.277 205.244C219.109 204.956 218.873 204.732 218.569 204.572C218.265 204.404 217.909 204.32 217.501 204.32C217.101 204.32 216.749 204.404 216.445 204.572C216.141 204.732 215.901 204.956 215.725 205.244C215.557 205.532 215.473 205.876 215.473 206.276V206.372C215.473 206.964 215.661 207.432 216.037 207.776C216.413 208.12 216.901 208.292 217.501 208.292ZM225.369 209.168C224.417 209.168 223.657 208.888 223.089 208.328C222.529 207.76 222.249 206.912 222.249 205.784V203.816C222.249 202.696 222.529 201.852 223.089 201.284C223.657 200.716 224.417 200.432 225.369 200.432C226.329 200.432 227.089 200.716 227.649 201.284C228.217 201.852 228.501 202.696 228.501 203.816V205.784C228.501 206.912 228.217 207.76 227.649 208.328C227.089 208.888 226.329 209.168 225.369 209.168ZM225.369 208.292C226.089 208.292 226.629 208.076 226.989 207.644C227.349 207.212 227.529 206.608 227.529 205.832V203.756C227.529 202.98 227.345 202.38 226.977 201.956C226.609 201.524 226.073 201.308 225.369 201.308C224.665 201.308 224.129 201.524 223.761 201.956C223.401 202.388 223.221 202.988 223.221 203.756V205.832C223.221 206.616 223.401 207.224 223.761 207.656C224.121 208.08 224.657 208.292 225.369 208.292ZM233.456 209.168C232.504 209.168 231.744 208.888 231.176 208.328C230.616 207.76 230.336 206.912 230.336 205.784V203.816C230.336 202.696 230.616 201.852 231.176 201.284C231.744 200.716 232.504 200.432 233.456 200.432C234.416 200.432 235.176 200.716 235.736 201.284C236.304 201.852 236.588 202.696 236.588 203.816V205.784C236.588 206.912 236.304 207.76 235.736 208.328C235.176 208.888 234.416 209.168 233.456 209.168ZM233.456 208.292C234.176 208.292 234.716 208.076 235.076 207.644C235.436 207.212 235.616 206.608 235.616 205.832V203.756C235.616 202.98 235.432 202.38 235.064 201.956C234.696 201.524 234.16 201.308 233.456 201.308C232.752 201.308 232.216 201.524 231.848 201.956C231.488 202.388 231.308 202.988 231.308 203.756V205.832C231.308 206.616 231.488 207.224 231.848 207.656C232.208 208.08 232.744 208.292 233.456 208.292Z" fill="#FEFEFE"/>
<path d="M252.214 209V208.7C252.214 208.42 252.238 208.184 252.286 207.992C252.334 207.8 252.426 207.572 252.562 207.308L255.766 201.608V201.476H250.774V200.6H256.786V201.752L253.438 207.752C253.342 207.92 253.274 208.072 253.234 208.208C253.202 208.344 253.186 208.516 253.186 208.724V209H252.214ZM261.31 209.168C260.358 209.168 259.598 208.888 259.03 208.328C258.47 207.76 258.19 206.912 258.19 205.784V203.816C258.19 202.696 258.47 201.852 259.03 201.284C259.598 200.716 260.358 200.432 261.31 200.432C262.27 200.432 263.03 200.716 263.59 201.284C264.158 201.852 264.442 202.696 264.442 203.816V205.784C264.442 206.912 264.158 207.76 263.59 208.328C263.03 208.888 262.27 209.168 261.31 209.168ZM261.31 208.292C262.03 208.292 262.57 208.076 262.93 207.644C263.29 207.212 263.47 206.608 263.47 205.832V203.756C263.47 202.98 263.286 202.38 262.918 201.956C262.55 201.524 262.014 201.308 261.31 201.308C260.606 201.308 260.07 201.524 259.702 201.956C259.342 202.388 259.162 202.988 259.162 203.756V205.832C259.162 206.616 259.342 207.224 259.702 207.656C260.062 208.08 260.598 208.292 261.31 208.292ZM269.398 209.168C268.446 209.168 267.686 208.888 267.118 208.328C266.558 207.76 266.278 206.912 266.278 205.784V203.816C266.278 202.696 266.558 201.852 267.118 201.284C267.686 200.716 268.446 200.432 269.398 200.432C270.358 200.432 271.118 200.716 271.678 201.284C272.246 201.852 272.53 202.696 272.53 203.816V205.784C272.53 206.912 272.246 207.76 271.678 208.328C271.118 208.888 270.358 209.168 269.398 209.168ZM269.398 208.292C270.118 208.292 270.658 208.076 271.018 207.644C271.378 207.212 271.558 206.608 271.558 205.832V203.756C271.558 202.98 271.374 202.38 271.006 201.956C270.638 201.524 270.102 201.308 269.398 201.308C268.694 201.308 268.158 201.524 267.79 201.956C267.43 202.388 267.25 202.988 267.25 203.756V205.832C267.25 206.616 267.43 207.224 267.79 207.656C268.15 208.08 268.686 208.292 269.398 208.292Z" fill="#FEFEFE"/>
<path d="M289.732 209.168C289.084 209.168 288.52 209.072 288.04 208.88C287.568 208.68 287.2 208.404 286.936 208.052C286.68 207.692 286.552 207.272 286.552 206.792V206.66C286.552 206.244 286.64 205.9 286.816 205.628C286.992 205.356 287.204 205.148 287.452 205.004C287.708 204.852 287.944 204.756 288.16 204.716V204.56C287.944 204.496 287.72 204.392 287.488 204.248C287.264 204.104 287.076 203.908 286.924 203.66C286.78 203.412 286.708 203.108 286.708 202.748V202.616C286.708 202.16 286.836 201.772 287.092 201.452C287.356 201.124 287.716 200.872 288.172 200.696C288.628 200.52 289.148 200.432 289.732 200.432C290.324 200.432 290.844 200.52 291.292 200.696C291.748 200.872 292.104 201.124 292.36 201.452C292.624 201.772 292.756 202.16 292.756 202.616V202.748C292.756 203.108 292.684 203.412 292.54 203.66C292.396 203.908 292.212 204.104 291.988 204.248C291.764 204.392 291.54 204.496 291.316 204.56V204.716C291.54 204.756 291.776 204.852 292.024 205.004C292.272 205.148 292.48 205.356 292.648 205.628C292.824 205.9 292.912 206.244 292.912 206.66V206.792C292.912 207.272 292.784 207.692 292.528 208.052C292.272 208.404 291.904 208.68 291.424 208.88C290.952 209.072 290.388 209.168 289.732 209.168ZM289.732 208.292C290.412 208.292 290.948 208.16 291.34 207.896C291.74 207.632 291.94 207.248 291.94 206.744V206.648C291.94 206.144 291.744 205.76 291.352 205.496C290.96 205.232 290.42 205.1 289.732 205.1C289.052 205.1 288.516 205.232 288.124 205.496C287.732 205.76 287.536 206.144 287.536 206.648V206.744C287.536 207.248 287.732 207.632 288.124 207.896C288.524 208.16 289.06 208.292 289.732 208.292ZM289.732 204.224C290.372 204.224 290.872 204.104 291.232 203.864C291.6 203.616 291.784 203.268 291.784 202.82V202.724C291.784 202.268 291.6 201.92 291.232 201.68C290.864 201.432 290.364 201.308 289.732 201.308C289.1 201.308 288.6 201.432 288.232 201.68C287.864 201.92 287.68 202.268 287.68 202.724V202.82C287.68 203.268 287.864 203.616 288.232 203.864C288.6 204.104 289.1 204.224 289.732 204.224ZM297.717 209.168C296.765 209.168 296.005 208.888 295.437 208.328C294.877 207.76 294.597 206.912 294.597 205.784V203.816C294.597 202.696 294.877 201.852 295.437 201.284C296.005 200.716 296.765 200.432 297.717 200.432C298.677 200.432 299.437 200.716 299.997 201.284C300.565 201.852 300.849 202.696 300.849 203.816V205.784C300.849 206.912 300.565 207.76 299.997 208.328C299.437 208.888 298.677 209.168 297.717 209.168ZM297.717 208.292C298.437 208.292 298.977 208.076 299.337 207.644C299.697 207.212 299.877 206.608 299.877 205.832V203.756C299.877 202.98 299.693 202.38 299.325 201.956C298.957 201.524 298.421 201.308 297.717 201.308C297.013 201.308 296.477 201.524 296.109 201.956C295.749 202.388 295.569 202.988 295.569 203.756V205.832C295.569 206.616 295.749 207.224 296.109 207.656C296.469 208.08 297.005 208.292 297.717 208.292ZM305.804 209.168C304.852 209.168 304.092 208.888 303.524 208.328C302.964 207.76 302.684 206.912 302.684 205.784V203.816C302.684 202.696 302.964 201.852 303.524 201.284C304.092 200.716 304.852 200.432 305.804 200.432C306.764 200.432 307.524 200.716 308.084 201.284C308.652 201.852 308.936 202.696 308.936 203.816V205.784C308.936 206.912 308.652 207.76 308.084 208.328C307.524 208.888 306.764 209.168 305.804 209.168ZM305.804 208.292C306.524 208.292 307.064 208.076 307.424 207.644C307.784 207.212 307.964 206.608 307.964 205.832V203.756C307.964 202.98 307.78 202.38 307.412 201.956C307.044 201.524 306.508 201.308 305.804 201.308C305.1 201.308 304.564 201.524 304.196 201.956C303.836 202.388 303.656 202.988 303.656 203.756V205.832C303.656 206.616 303.836 207.224 304.196 207.656C304.556 208.08 305.092 208.292 305.804 208.292Z" fill="#FEFEFE"/>
<path d="M0.3 22.5L2.892 14.1H4.668L7.26 22.5H6.216L5.568 20.376H1.992L1.344 22.5H0.3ZM2.244 19.464H5.304L3.864 14.712H3.696L2.244 19.464ZM8.91859 22.5V14.1H12.1346C12.6386 14.1 13.0866 14.2 13.4786 14.4C13.8786 14.592 14.1946 14.868 14.4266 15.228C14.6586 15.588 14.7746 16.024 14.7746 16.536V16.692C14.7746 17.196 14.6546 17.632 14.4146 18C14.1826 18.36 13.8666 18.636 13.4666 18.828C13.0666 19.02 12.6226 19.116 12.1346 19.116H9.92659V22.5H8.91859ZM9.92659 18.204H12.0266C12.5626 18.204 12.9866 18.072 13.2986 17.808C13.6106 17.536 13.7666 17.156 13.7666 16.668V16.548C13.7666 16.06 13.6106 15.684 13.2986 15.42C12.9946 15.148 12.5706 15.012 12.0266 15.012H9.92659V18.204ZM16.5256 22.5V14.1H19.9216C20.4416 14.1 20.8976 14.192 21.2896 14.376C21.6896 14.552 22.0016 14.808 22.2256 15.144C22.4496 15.472 22.5616 15.868 22.5616 16.332V16.464C22.5616 17.016 22.4296 17.452 22.1656 17.772C21.9016 18.092 21.5896 18.308 21.2296 18.42V18.588C21.5176 18.596 21.7536 18.692 21.9376 18.876C22.1296 19.052 22.2256 19.32 22.2256 19.68V22.5H21.2296V19.8C21.2296 19.56 21.1616 19.376 21.0256 19.248C20.8976 19.12 20.7016 19.056 20.4376 19.056H17.5336V22.5H16.5256ZM17.5336 18.144H19.8256C20.3776 18.144 20.8016 18.012 21.0976 17.748C21.4016 17.476 21.5536 17.1 21.5536 16.62V16.536C21.5536 16.056 21.4056 15.684 21.1096 15.42C20.8136 15.148 20.3856 15.012 19.8256 15.012H17.5336V18.144Z" fill="#FEFEFE"/>
<path d="M0.96 77.5V69.1H2.88L5.112 76.864H5.268L7.5 69.1H9.42V77.5H8.448V69.76H8.28L6.06 77.5H4.32L2.1 69.76H1.932V77.5H0.96ZM11.0828 77.5L13.6748 69.1H15.4508L18.0428 77.5H16.9988L16.3508 75.376H12.7748L12.1268 77.5H11.0828ZM13.0268 74.464H16.0868L14.6468 69.712H14.4788L13.0268 74.464ZM19.7014 77.5V69.1H23.0974C23.6174 69.1 24.0734 69.192 24.4654 69.376C24.8654 69.552 25.1774 69.808 25.4014 70.144C25.6254 70.472 25.7374 70.868 25.7374 71.332V71.464C25.7374 72.016 25.6054 72.452 25.3414 72.772C25.0774 73.092 24.7654 73.308 24.4054 73.42V73.588C24.6934 73.596 24.9294 73.692 25.1134 73.876C25.3054 74.052 25.4014 74.32 25.4014 74.68V77.5H24.4054V74.8C24.4054 74.56 24.3374 74.376 24.2014 74.248C24.0734 74.12 23.8774 74.056 23.6134 74.056H20.7094V77.5H19.7014ZM20.7094 73.144H23.0014C23.5534 73.144 23.9774 73.012 24.2734 72.748C24.5774 72.476 24.7294 72.1 24.7294 71.62V71.536C24.7294 71.056 24.5814 70.684 24.2854 70.42C23.9894 70.148 23.5614 70.012 23.0014 70.012H20.7094V73.144Z" fill="#FEFEFE"/>
<path d="M0.96 132.5V124.1H6.036V125.012H1.968V127.832H5.712V128.744H1.968V132.5H0.96ZM7.84047 132.5V124.1H13.0125V125.012H8.84847V127.82H12.6765V128.732H8.84847V131.588H13.0725V132.5H7.84047ZM14.6062 132.5V131.6H15.7822V125H14.6062V124.1H18.8182C19.3062 124.1 19.7382 124.188 20.1142 124.364C20.4982 124.54 20.7942 124.788 21.0022 125.108C21.2182 125.42 21.3262 125.788 21.3262 126.212V126.308C21.3262 126.7 21.2502 127.024 21.0982 127.28C20.9462 127.528 20.7662 127.724 20.5582 127.868C20.3502 128.004 20.1462 128.104 19.9462 128.168V128.336C20.1462 128.384 20.3542 128.48 20.5702 128.624C20.7862 128.76 20.9662 128.956 21.1102 129.212C21.2622 129.468 21.3382 129.792 21.3382 130.184V130.304C21.3382 130.76 21.2262 131.156 21.0022 131.492C20.7862 131.82 20.4862 132.072 20.1022 132.248C19.7262 132.416 19.2942 132.5 18.8062 132.5H14.6062ZM16.7902 131.588H18.6982C19.2262 131.588 19.6302 131.464 19.9102 131.216C20.1902 130.968 20.3302 130.632 20.3302 130.208V130.1C20.3302 129.676 20.1902 129.34 19.9102 129.092C19.6302 128.844 19.2262 128.72 18.6982 128.72H16.7902V131.588ZM16.7902 127.808H18.7342C19.2142 127.808 19.5982 127.688 19.8862 127.448C20.1742 127.2 20.3182 126.876 20.3182 126.476V126.356C20.3182 125.948 20.1742 125.624 19.8862 125.384C19.6062 125.136 19.2222 125.012 18.7342 125.012H16.7902V127.808Z" fill="#FEFEFE"/>
<path d="M3.156 187.668C2.332 187.668 1.68 187.436 1.2 186.972C0.728 186.508 0.492 185.844 0.492 184.98V184.332H1.488V184.98C1.488 185.5 1.624 185.924 1.896 186.252C2.176 186.58 2.592 186.744 3.144 186.744C3.704 186.744 4.1 186.584 4.332 186.264C4.564 185.936 4.68 185.508 4.68 184.98V180.012H3.204V179.1H6.6V180.012H5.688V184.98C5.688 185.852 5.472 186.52 5.04 186.984C4.608 187.44 3.98 187.668 3.156 187.668ZM7.45 187.5L10.042 179.1H11.818L14.41 187.5H13.366L12.718 185.376H9.142L8.494 187.5H7.45ZM9.394 184.464H12.454L11.014 179.712H10.846L9.394 184.464ZM16.0686 187.5V179.1H18.0246L20.9526 186.864H21.1086V179.1H22.1046V187.5H20.1486L17.2326 179.724H17.0646V187.5H16.0686Z" fill="#FEFEFE"/>
<path d="M48 132.5C80.1384 132.5 76.341 72.5 108.479 72.5C140.618 72.5 136.815 88.4998 168.953 88.4998C201.091 88.4998 196.141 114.786 228.28 114.786C260.418 114.786 265.862 128.289 298 128.289" stroke="#EF6315" stroke-width="5.81515" stroke-linecap="round"/>
<path d="M48 114.5C79.3861 114.5 83.3955 72.7061 114.782 72.7061C146.168 72.7061 140.965 39.5 172.351 39.5C203.737 39.5 203.137 86.4468 234.523 86.4468C265.909 86.4468 267.614 110.109 299 110.109" stroke="#63D9B9" stroke-opacity="0.1" stroke-width="34" stroke-linecap="round"/>
<path d="M48 114.5C79.3861 114.5 83.3955 72.7061 114.782 72.7061C146.168 72.7061 140.964 39.5 172.351 39.5C203.737 39.5 203.137 86.4468 234.523 86.4468C265.909 86.4468 267.614 110.109 299 110.109" stroke="#63D9B9" stroke-width="5.81515" stroke-linecap="round"/>
<circle cx="170" cy="39" r="6.5" fill="#63D9B9" stroke="#4E4E4E" stroke-width="2"/>
<rect x="126.5" y="0.5" width="89" height="32" rx="4" fill="#010101"/>
<path d="M138.75 19.5L140.91 12.5H142.39L144.55 19.5H143.68L143.14 17.73H140.16L139.62 19.5H138.75ZM140.37 16.97H142.92L141.72 13.01H141.58L140.37 16.97ZM147.083 19.5L145.333 14.61H146.173L147.643 18.91H147.783L149.253 14.61H150.093L148.343 19.5H147.083ZM153.669 19.64C153.175 19.64 152.742 19.5367 152.369 19.33C151.995 19.1167 151.705 18.82 151.499 18.44C151.292 18.06 151.189 17.62 151.189 17.12V17C151.189 16.4933 151.292 16.05 151.499 15.67C151.705 15.29 151.992 14.9967 152.359 14.79C152.725 14.5767 153.145 14.47 153.619 14.47C154.079 14.47 154.485 14.57 154.839 14.77C155.192 14.9633 155.469 15.2433 155.669 15.61C155.869 15.9767 155.969 16.4067 155.969 16.9V17.26H151.979C151.999 17.7867 152.169 18.2 152.489 18.5C152.809 18.7933 153.209 18.94 153.689 18.94C154.109 18.94 154.432 18.8433 154.659 18.65C154.885 18.4567 155.059 18.2267 155.179 17.96L155.859 18.29C155.759 18.4967 155.619 18.7033 155.439 18.91C155.265 19.1167 155.035 19.29 154.749 19.43C154.469 19.57 154.109 19.64 153.669 19.64ZM151.989 16.61H155.169C155.142 16.1567 154.985 15.8033 154.699 15.55C154.419 15.2967 154.059 15.17 153.619 15.17C153.172 15.17 152.805 15.2967 152.519 15.55C152.232 15.8033 152.055 16.1567 151.989 16.61ZM157.747 19.5V14.61H158.517V15.21H158.657C158.743 14.9967 158.877 14.84 159.057 14.74C159.237 14.64 159.473 14.59 159.767 14.59H160.347V15.31H159.717C159.363 15.31 159.077 15.41 158.857 15.61C158.643 15.8033 158.537 16.1067 158.537 16.52V19.5H157.747ZM163.25 19.64C162.91 19.64 162.6 19.58 162.32 19.46C162.04 19.34 161.82 19.1667 161.66 18.94C161.5 18.7133 161.42 18.4367 161.42 18.11C161.42 17.7767 161.5 17.5033 161.66 17.29C161.82 17.07 162.04 16.9067 162.32 16.8C162.6 16.6867 162.914 16.63 163.26 16.63H164.91V16.27C164.91 15.9233 164.807 15.65 164.6 15.45C164.4 15.25 164.1 15.15 163.7 15.15C163.307 15.15 163 15.2467 162.78 15.44C162.56 15.6267 162.41 15.88 162.33 16.2L161.59 15.96C161.67 15.6867 161.797 15.44 161.97 15.22C162.144 14.9933 162.374 14.8133 162.66 14.68C162.954 14.54 163.304 14.47 163.71 14.47C164.337 14.47 164.824 14.6333 165.17 14.96C165.517 15.28 165.69 15.7333 165.69 16.32V18.53C165.69 18.73 165.784 18.83 165.97 18.83H166.42V19.5H165.73C165.51 19.5 165.334 19.44 165.2 19.32C165.067 19.1933 165 19.0267 165 18.82V18.77H164.88C164.807 18.8967 164.707 19.03 164.58 19.17C164.46 19.3033 164.294 19.4133 164.08 19.5C163.867 19.5933 163.59 19.64 163.25 19.64ZM163.34 18.96C163.807 18.96 164.184 18.8233 164.47 18.55C164.764 18.27 164.91 17.88 164.91 17.38V17.27H163.29C162.977 17.27 162.717 17.34 162.51 17.48C162.31 17.6133 162.21 17.8167 162.21 18.09C162.21 18.3633 162.314 18.5767 162.52 18.73C162.734 18.8833 163.007 18.96 163.34 18.96ZM167.526 17.08V16.94C167.526 16.4267 167.629 15.9867 167.836 15.62C168.042 15.2533 168.322 14.97 168.676 14.77C169.029 14.57 169.416 14.47 169.836 14.47C170.349 14.47 170.742 14.57 171.016 14.77C171.296 14.9633 171.502 15.18 171.636 15.42H171.776V14.61H172.526V20.64C172.526 20.9067 172.452 21.1167 172.306 21.27C172.159 21.4233 171.946 21.5 171.666 21.5H168.346V20.8H171.456C171.656 20.8 171.756 20.7 171.756 20.5V18.64H171.616C171.536 18.7867 171.422 18.93 171.276 19.07C171.129 19.21 170.939 19.3267 170.706 19.42C170.472 19.5067 170.182 19.55 169.836 19.55C169.416 19.55 169.029 19.45 168.676 19.25C168.322 19.05 168.042 18.7667 167.836 18.4C167.629 18.0267 167.526 17.5867 167.526 17.08ZM170.046 18.85C170.552 18.85 170.962 18.69 171.276 18.37C171.596 18.05 171.756 17.61 171.756 17.05V16.97C171.756 16.4033 171.596 15.9633 171.276 15.65C170.962 15.33 170.552 15.17 170.046 15.17C169.546 15.17 169.132 15.33 168.806 15.65C168.486 15.9633 168.326 16.4033 168.326 16.97V17.05C168.326 17.61 168.486 18.05 168.806 18.37C169.132 18.69 169.546 18.85 170.046 18.85ZM176.822 19.64C176.328 19.64 175.895 19.5367 175.522 19.33C175.148 19.1167 174.858 18.82 174.652 18.44C174.445 18.06 174.342 17.62 174.342 17.12V17C174.342 16.4933 174.445 16.05 174.652 15.67C174.858 15.29 175.145 14.9967 175.512 14.79C175.878 14.5767 176.298 14.47 176.772 14.47C177.232 14.47 177.638 14.57 177.992 14.77C178.345 14.9633 178.622 15.2433 178.822 15.61C179.022 15.9767 179.122 16.4067 179.122 16.9V17.26H175.132C175.152 17.7867 175.322 18.2 175.642 18.5C175.962 18.7933 176.362 18.94 176.842 18.94C177.262 18.94 177.585 18.8433 177.812 18.65C178.038 18.4567 178.212 18.2267 178.332 17.96L179.012 18.29C178.912 18.4967 178.772 18.7033 178.592 18.91C178.418 19.1167 178.188 19.29 177.902 19.43C177.622 19.57 177.262 19.64 176.822 19.64ZM175.142 16.61H178.322C178.295 16.1567 178.138 15.8033 177.852 15.55C177.572 15.2967 177.212 15.17 176.772 15.17C176.325 15.17 175.958 15.2967 175.672 15.55C175.385 15.8033 175.208 16.1567 175.142 16.61ZM187.008 19.5V18.07H183.358V17.11L186.298 12.5H187.818V17.34H189.018V18.07H187.818V19.5H187.008ZM184.168 17.34H187.008V12.99H186.868L184.168 17.22V17.34ZM192.798 19.64C192.258 19.64 191.788 19.56 191.388 19.4C190.995 19.2333 190.688 19.0033 190.468 18.71C190.255 18.41 190.148 18.06 190.148 17.66V17.55C190.148 17.2033 190.221 16.9167 190.368 16.69C190.515 16.4633 190.691 16.29 190.898 16.17C191.111 16.0433 191.308 15.9633 191.488 15.93V15.8C191.308 15.7467 191.121 15.66 190.928 15.54C190.741 15.42 190.585 15.2567 190.458 15.05C190.338 14.8433 190.278 14.59 190.278 14.29V14.18C190.278 13.8 190.385 13.4767 190.598 13.21C190.818 12.9367 191.118 12.7267 191.498 12.58C191.878 12.4333 192.311 12.36 192.798 12.36C193.291 12.36 193.725 12.4333 194.098 12.58C194.478 12.7267 194.775 12.9367 194.988 13.21C195.208 13.4767 195.318 13.8 195.318 14.18V14.29C195.318 14.59 195.258 14.8433 195.138 15.05C195.018 15.2567 194.865 15.42 194.678 15.54C194.491 15.66 194.305 15.7467 194.118 15.8V15.93C194.305 15.9633 194.501 16.0433 194.708 16.17C194.915 16.29 195.088 16.4633 195.228 16.69C195.375 16.9167 195.448 17.2033 195.448 17.55V17.66C195.448 18.06 195.341 18.41 195.128 18.71C194.915 19.0033 194.608 19.2333 194.208 19.4C193.815 19.56 193.345 19.64 192.798 19.64ZM192.798 18.91C193.365 18.91 193.811 18.8 194.138 18.58C194.471 18.36 194.638 18.04 194.638 17.62V17.54C194.638 17.12 194.475 16.8 194.148 16.58C193.821 16.36 193.371 16.25 192.798 16.25C192.231 16.25 191.785 16.36 191.458 16.58C191.131 16.8 190.968 17.12 190.968 17.54V17.62C190.968 18.04 191.131 18.36 191.458 18.58C191.791 18.8 192.238 18.91 192.798 18.91ZM192.798 15.52C193.331 15.52 193.748 15.42 194.048 15.22C194.355 15.0133 194.508 14.7233 194.508 14.35V14.27C194.508 13.89 194.355 13.6 194.048 13.4C193.741 13.1933 193.325 13.09 192.798 13.09C192.271 13.09 191.855 13.1933 191.548 13.4C191.241 13.6 191.088 13.89 191.088 14.27V14.35C191.088 14.7233 191.241 15.0133 191.548 15.22C191.855 15.42 192.271 15.52 192.798 15.52ZM199.518 19.64C198.725 19.64 198.092 19.4067 197.618 18.94C197.152 18.4667 196.918 17.76 196.918 16.82V15.18C196.918 14.2467 197.152 13.5433 197.618 13.07C198.092 12.5967 198.725 12.36 199.518 12.36C200.318 12.36 200.952 12.5967 201.418 13.07C201.892 13.5433 202.128 14.2467 202.128 15.18V16.82C202.128 17.76 201.892 18.4667 201.418 18.94C200.952 19.4067 200.318 19.64 199.518 19.64ZM199.518 18.91C200.118 18.91 200.568 18.73 200.868 18.37C201.168 18.01 201.318 17.5067 201.318 16.86V15.13C201.318 14.4833 201.165 13.9833 200.858 13.63C200.552 13.27 200.105 13.09 199.518 13.09C198.932 13.09 198.485 13.27 198.178 13.63C197.878 13.99 197.728 14.49 197.728 15.13V16.86C197.728 17.5133 197.878 18.02 198.178 18.38C198.478 18.7333 198.925 18.91 199.518 18.91Z" fill="#FEFEFE"/>
</svg>
