<svg width="16" height="16" viewBox="0 0 16 16" fill="none" xmlns="http://www.w3.org/2000/svg">
<path d="M7.39992 15.1666H4.59992C1.99325 15.1666 0.833252 14.0066 0.833252 11.4V8.59998C0.833252 5.99331 1.99325 4.83331 4.59992 4.83331H7.39992C10.0066 4.83331 11.1666 5.99331 11.1666 8.59998V11.4C11.1666 14.0066 10.0066 15.1666 7.39992 15.1666ZM4.59992 5.83331C2.53325 5.83331 1.83325 6.53331 1.83325 8.59998V11.4C1.83325 13.4666 2.53325 14.1666 4.59992 14.1666H7.39992C9.46659 14.1666 10.1666 13.4666 10.1666 11.4V8.59998C10.1666 6.53331 9.46659 5.83331 7.39992 5.83331H4.59992Z" fill="#C7F1E6"/>
<path d="M11.3999 11.1666H10.6666C10.3933 11.1666 10.1666 10.94 10.1666 10.6666V8.59998C10.1666 6.53331 9.46659 5.83331 7.39992 5.83331H5.33325C5.05992 5.83331 4.83325 5.60665 4.83325 5.33331V4.59998C4.83325 1.99331 5.99325 0.833313 8.59992 0.833313H11.3999C14.0066 0.833313 15.1666 1.99331 15.1666 4.59998V7.39998C15.1666 10.0066 14.0066 11.1666 11.3999 11.1666ZM11.1666 10.1666H11.3999C13.4666 10.1666 14.1666 9.46665 14.1666 7.39998V4.59998C14.1666 2.53331 13.4666 1.83331 11.3999 1.83331H8.59992C6.53325 1.83331 5.83325 2.53331 5.83325 4.59998V4.83331H7.39992C10.0066 4.83331 11.1666 5.99331 11.1666 8.59998V10.1666Z" fill="#C7F1E6"/>
</svg>
