<svg width="16" height="16" viewBox="0 0 16 16" fill="none" xmlns="http://www.w3.org/2000/svg">
<path d="M9.83333 15.1667H6.83333V10.3333H6.19999C5.81333 10.3333 5.5 10.02 5.5 9.63334V8.36666C5.5 7.97999 5.81333 7.66667 6.19999 7.66667H6.83333V6C6.83333 4.62 7.95333 3.5 9.33333 3.5H11.1333C11.52 3.5 11.8333 3.81333 11.8333 4.19999V5.80001C11.8333 6.18667 11.52 6.5 11.1333 6.5H9.83333V7.66667H11.0867C11.3 7.66667 11.4933 7.76 11.6267 7.92C11.76 8.08 11.8133 8.29333 11.7733 8.5L11.52 9.76666C11.4533 10.0933 11.1667 10.3267 10.8333 10.3267H9.83333V15.1667ZM7.83333 14.1667H8.83333V9.33333H10.5933L10.7267 8.66667H8.84001V6.19999C8.84001 5.81333 9.15333 5.5 9.54 5.5H10.84V4.5H9.33333C8.50667 4.5 7.83333 5.17333 7.83333 6V8.66667H6.5V9.33333H7.83333V14.1667Z" fill="#FEFEFE"/>
<path d="M10.0002 15.1668H6.00016C2.38016 15.1668 0.833496 13.6202 0.833496 10.0002V6.00016C0.833496 2.38016 2.38016 0.833496 6.00016 0.833496H10.0002C13.6202 0.833496 15.1668 2.38016 15.1668 6.00016V10.0002C15.1668 13.6202 13.6202 15.1668 10.0002 15.1668ZM6.00016 1.8335C2.92683 1.8335 1.8335 2.92683 1.8335 6.00016V10.0002C1.8335 13.0735 2.92683 14.1668 6.00016 14.1668H10.0002C13.0735 14.1668 14.1668 13.0735 14.1668 10.0002V6.00016C14.1668 2.92683 13.0735 1.8335 10.0002 1.8335H6.00016Z" fill="#FEFEFE"/>
</svg>
