<svg width="48" height="48" viewBox="0 0 48 48" fill="none" xmlns="http://www.w3.org/2000/svg">
<circle cx="24" cy="24" r="24" fill="#0F0F0F"/>
<path d="M25.05 28.25H23.17C21.84 28.25 20.75 27.13 20.75 25.75C20.75 25.34 21.09 25 21.5 25C21.91 25 22.25 25.34 22.25 25.75C22.25 26.3 22.66 26.75 23.17 26.75H25.05C25.44 26.75 25.75 26.4 25.75 25.97C25.75 25.43 25.6 25.35 25.26 25.23L22.25 24.18C21.61 23.95 20.75 23.49 20.75 22.02C20.75 20.77 21.74 19.74 22.95 19.74H24.83C26.16 19.74 27.25 20.86 27.25 22.24C27.25 22.65 26.91 22.99 26.5 22.99C26.09 22.99 25.75 22.65 25.75 22.24C25.75 21.69 25.34 21.24 24.83 21.24H22.95C22.56 21.24 22.25 21.59 22.25 22.02C22.25 22.56 22.4 22.64 22.74 22.76L25.75 23.81C26.39 24.04 27.25 24.5 27.25 25.97C27.25 27.23 26.26 28.25 25.05 28.25Z" fill="#FEFEFE"/>
<path d="M24 29.25C23.59 29.25 23.25 28.91 23.25 28.5V19.5C23.25 19.09 23.59 18.75 24 18.75C24.41 18.75 24.75 19.09 24.75 19.5V28.5C24.75 28.91 24.41 29.25 24 29.25Z" fill="#FEFEFE"/>
<path d="M24 34.75C18.07 34.75 13.25 29.93 13.25 24C13.25 18.07 18.07 13.25 24 13.25C24.41 13.25 24.75 13.59 24.75 14C24.75 14.41 24.41 14.75 24 14.75C18.9 14.75 14.75 18.9 14.75 24C14.75 29.1 18.9 33.25 24 33.25C29.1 33.25 33.25 29.1 33.25 24C33.25 23.59 33.59 23.25 34 23.25C34.41 23.25 34.75 23.59 34.75 24C34.75 29.93 29.93 34.75 24 34.75Z" fill="#FEFEFE"/>
<path d="M34 18.75C33.59 18.75 33.25 18.41 33.25 18V14.75H30C29.59 14.75 29.25 14.41 29.25 14C29.25 13.59 29.59 13.25 30 13.25H34C34.41 13.25 34.75 13.59 34.75 14V18C34.75 18.41 34.41 18.75 34 18.75Z" fill="#FEFEFE"/>
<path d="M28.9999 19.75C28.8099 19.75 28.6199 19.68 28.4699 19.53C28.1799 19.24 28.1799 18.76 28.4699 18.47L33.4699 13.47C33.7599 13.18 34.2399 13.18 34.5299 13.47C34.8199 13.76 34.8199 14.24 34.5299 14.53L29.5299 19.53C29.3799 19.68 29.1899 19.75 28.9999 19.75Z" fill="#FEFEFE"/>
</svg>
