<svg width="400" height="260" viewBox="0 0 400 260" fill="none" xmlns="http://www.w3.org/2000/svg">
<g clip-path="url(#clip0_438_28943)">
<rect width="400" height="260" rx="8" fill="#4E4E4E" fill-opacity="0.8"/>
<path opacity="0.0344828" d="M86.881 113.493C55.9904 87.573 30.4815 61.2266 14.2073 39.6015C6.06546 28.7826 0.269361 19.1902 -2.74742 11.4539C-4.25597 7.58524 -5.05009 4.23007 -5.12154 1.447C-5.19274 -1.32773 -4.54629 -3.46971 -3.24467 -5.02091C-1.9431 -6.57199 0.0537138 -7.57993 2.79843 -7.99166C5.55167 -8.40461 8.99426 -8.2059 13.0662 -7.39202C21.2089 -5.76447 31.662 -1.72212 43.7304 4.41735C67.8528 16.6891 98.2286 37.2355 129.119 63.1558C160.01 89.0759 185.518 115.422 201.792 137.047C209.934 147.866 215.731 157.459 218.748 165.195C220.256 169.064 221.05 172.42 221.121 175.203C221.192 177.977 220.546 180.119 219.245 181.67C217.943 183.221 215.946 184.23 213.201 184.641C210.448 185.054 207.006 184.855 202.934 184.041C194.791 182.414 184.338 178.371 172.269 172.231C148.147 159.959 117.771 139.413 86.881 113.493Z" stroke="url(#paint0_linear_438_28943)" stroke-width="2"/>
<path opacity="0.0689655" d="M84.7678 110.39C56.2538 81.8762 33.1382 53.4068 18.8107 30.4457C11.6428 18.9583 6.70474 8.89727 4.37371 0.927399C3.20807 -3.05798 2.70939 -6.4696 2.88078 -9.24831C3.05168 -12.0187 3.88236 -14.0962 5.31422 -15.528C6.74602 -16.9598 8.82309 -17.7898 11.5932 -17.9608C14.372 -18.1322 17.7842 -17.6342 21.7696 -16.4685C29.7395 -14.1375 39.8006 -9.19947 51.2879 -2.03154C74.249 12.2959 102.718 35.4116 131.232 63.9255C159.746 92.4393 182.861 120.908 197.189 143.869C204.357 155.357 209.295 165.418 211.626 173.388C212.792 177.374 213.29 180.786 213.119 183.565C212.948 186.335 212.118 188.412 210.686 189.844C209.254 191.276 207.177 192.106 204.406 192.277C201.628 192.449 198.216 191.95 194.231 190.784C186.261 188.453 176.199 183.515 164.712 176.347C141.75 162.019 113.282 138.904 84.7678 110.39Z" stroke="url(#paint1_linear_438_28943)" stroke-width="2"/>
<path opacity="0.103448" d="M82.8315 107.109C56.9113 76.2185 36.3648 45.8428 24.0931 21.7203C17.9536 9.65188 13.9113 -0.801209 12.2837 -8.94392C11.4699 -13.0157 11.2704 -16.4578 11.6833 -19.211C12.095 -21.956 13.1036 -23.9531 14.6548 -25.2548C16.206 -26.5563 18.3475 -27.2021 21.122 -27.131C23.9051 -27.0596 27.2609 -26.2661 31.1296 -24.7575C38.866 -21.7407 48.4584 -15.9446 59.2773 -7.80276C80.9023 8.47137 107.249 33.9803 133.169 64.8709C159.089 95.7613 179.635 126.137 191.907 150.259C198.046 162.328 202.089 172.781 203.717 180.924C204.531 184.996 204.729 188.438 204.316 191.192C203.905 193.936 202.897 195.933 201.346 197.235C199.795 198.536 197.653 199.183 194.878 199.112C192.095 199.04 188.74 198.246 184.871 196.738C177.134 193.721 167.542 187.924 156.723 179.782C135.098 163.508 108.752 138 82.8315 107.109Z" stroke="url(#paint2_linear_438_28943)" stroke-width="2"/>
<path opacity="0.137931" d="M81.0867 103.668C57.9574 70.6357 40.1365 38.5848 30.0139 13.4845C24.9496 0.926966 21.8337 -9.83867 20.922 -18.0922C20.4662 -22.2195 20.5675 -25.6659 21.2188 -28.3726C21.8682 -31.0712 23.047 -32.9729 24.7057 -34.1343C26.3644 -35.2957 28.554 -35.7525 31.3118 -35.4398C34.0781 -35.1261 37.3519 -34.0431 41.0745 -32.2031C48.5185 -28.5235 57.5692 -21.9134 67.6373 -12.8597C87.7617 5.23729 111.785 32.9454 134.914 65.9776C158.043 99.0095 175.864 131.06 185.986 156.16C191.051 168.718 194.167 179.484 195.079 187.738C195.534 191.865 195.432 195.312 194.781 198.019C194.132 200.717 192.954 202.618 191.295 203.78C189.636 204.941 187.446 205.398 184.688 205.086C181.922 204.772 178.649 203.688 174.926 201.848C167.482 198.169 158.431 191.558 148.363 182.504C128.238 164.407 104.216 136.7 81.0867 103.668Z" stroke="url(#paint3_linear_438_28943)" stroke-width="2"/>
<path opacity="0.172414" d="M79.5467 100.083C59.3843 65.1611 44.4247 31.679 36.5282 5.79199C32.5777 -7.15917 30.4119 -18.1554 30.2231 -26.457C30.1286 -30.6083 30.5299 -34.0327 31.4147 -36.6724C32.2968 -39.3041 33.6368 -41.0958 35.3905 -42.1083C37.1441 -43.1207 39.3652 -43.3849 42.0852 -42.833C44.8136 -42.2794 47.9807 -40.9153 51.5286 -38.7578C58.6236 -34.4434 67.0638 -27.0697 76.3045 -17.1729C94.7751 2.60918 116.292 32.3056 136.454 67.2279C156.616 102.15 171.576 135.632 179.472 161.518C183.423 174.47 185.589 185.467 185.778 193.768C185.872 197.92 185.47 201.345 184.585 203.984C183.703 206.616 182.364 208.407 180.61 209.42C178.857 210.432 176.635 210.697 173.915 210.145C171.186 209.591 168.02 208.226 164.472 206.069C157.377 201.755 148.937 194.38 139.696 184.483C121.225 164.701 99.709 135.005 79.5467 100.083Z" stroke="url(#paint4_linear_438_28943)" stroke-width="2"/>
<path opacity="0.206897" d="M78.223 96.3732C61.181 59.8266 49.1965 25.168 43.5863 -1.30868C40.7795 -14.5549 39.5804 -25.698 40.1158 -33.9845C40.3835 -38.1282 41.0818 -41.5046 42.1932 -44.0572C43.3013 -46.602 44.7924 -48.2701 46.6277 -49.1259C48.4628 -49.9816 50.6985 -50.0512 53.3601 -49.2644C56.0299 -48.4751 59.0659 -46.8401 62.4124 -44.3816C69.1043 -39.4653 76.8697 -31.384 85.2127 -20.7194C101.889 0.597174 120.735 32.0559 137.777 68.6026C154.819 105.149 166.803 139.807 172.414 166.284C175.22 179.53 176.42 190.674 175.885 198.96C175.617 203.104 174.918 206.481 173.806 209.033C172.698 211.578 171.208 213.246 169.373 214.102C167.537 214.957 165.301 215.027 162.639 214.241C159.97 213.451 156.934 211.816 153.588 209.357C146.896 204.441 139.13 196.359 130.787 185.694C114.111 164.378 95.2649 132.92 78.223 96.3732Z" stroke="url(#paint5_linear_438_28943)" stroke-width="2"/>
<path opacity="0.241379" d="M77.1264 92.5577C63.3345 54.6648 54.4163 19.0936 51.135 -7.77132C49.4934 -21.2117 49.27 -32.417 50.5256 -40.6253C51.1535 -44.7299 52.1433 -48.0326 53.473 -50.4785C54.7987 -52.9171 56.4295 -54.4489 58.3323 -55.1415C60.2351 -55.834 62.4683 -55.7085 65.0512 -54.6927C67.642 -53.6737 70.5241 -51.7803 73.6435 -49.0395C79.8815 -43.5587 86.913 -34.8313 94.2948 -23.4802C109.05 -0.791318 125.083 32.1903 138.874 70.0832C152.666 107.976 161.584 143.546 164.866 170.411C166.507 183.852 166.731 195.058 165.475 203.266C164.847 207.371 163.857 210.674 162.527 213.12C161.201 215.558 159.571 217.09 157.668 217.782C155.766 218.475 153.532 218.35 150.949 217.334C148.358 216.315 145.477 214.421 142.357 211.68C136.119 206.199 129.088 197.471 121.706 186.12C106.951 163.431 90.9182 130.45 77.1264 92.5577Z" stroke="url(#paint6_linear_438_28943)" stroke-width="2"/>
<path opacity="0.275862" d="M76.264 88.6571C65.8272 49.7063 60.0432 13.4933 59.1158 -13.5554C58.6519 -27.0877 59.4059 -38.2698 61.3721 -46.3375C62.3554 -50.3717 63.6293 -53.5756 65.1671 -55.8964C66.7003 -58.2101 68.4584 -59.5939 70.4144 -60.118C72.3702 -60.642 74.584 -60.3224 77.0685 -59.0853C79.5607 -57.8444 82.2667 -55.7071 85.1354 -52.7048C90.872 -46.7011 97.1161 -37.3942 103.48 -25.4429C116.202 -1.55438 129.299 32.6991 139.736 71.6498C150.173 110.6 155.957 146.813 156.884 173.861C157.348 187.394 156.594 198.577 154.628 206.644C153.645 210.679 152.37 213.883 150.832 216.204C149.299 218.517 147.541 219.901 145.586 220.425C143.63 220.949 141.415 220.63 138.931 219.393C136.438 218.152 133.733 216.014 130.865 213.012C125.128 207.008 118.884 197.7 112.519 185.749C99.7981 161.86 86.7008 127.608 76.264 88.6571Z" stroke="url(#paint7_linear_438_28943)" stroke-width="2"/>
<path opacity="0.310345" d="M75.6438 84.6913C68.6415 44.9792 66.0356 8.39976 67.4693 -18.6268C68.1865 -32.1481 69.9123 -43.2219 72.5741 -51.0875C73.9052 -55.0207 75.4535 -58.1013 77.1877 -60.2792C78.9168 -62.4506 80.7888 -63.6759 82.783 -64.0275C84.7771 -64.3791 86.9546 -63.8677 89.3218 -62.4188C91.6964 -60.9654 94.2058 -58.6003 96.8019 -55.3595C101.993 -48.8787 107.403 -39.0629 112.701 -26.6024C123.292 -1.69607 133.354 33.5686 140.356 73.2807C147.359 112.993 149.964 149.571 148.531 176.598C147.814 190.119 146.088 201.194 143.426 209.059C142.095 212.993 140.546 216.074 138.812 218.251C137.083 220.422 135.211 221.648 133.217 222C131.223 222.351 129.045 221.84 126.677 220.391C124.303 218.938 121.794 216.572 119.198 213.332C114.007 206.851 108.598 197.034 103.299 184.573C92.7082 159.667 82.6461 124.403 75.6438 84.6913Z" stroke="url(#paint8_linear_438_28943)" stroke-width="2"/>
<path opacity="0.344828" d="M75.2699 80.6821C71.7553 40.5108 72.3475 3.8435 76.1312 -22.9553C78.0242 -36.3626 80.7085 -47.2439 84.0458 -54.8475C85.7146 -58.6497 87.5255 -61.5837 89.4429 -63.6022C91.3546 -65.6145 93.3263 -66.672 95.3436 -66.8485C97.3607 -67.025 99.4854 -66.3257 101.717 -64.676C103.956 -63.0212 106.25 -60.4464 108.554 -56.9917C113.161 -50.083 117.694 -39.8332 121.886 -26.9583C130.266 -1.2237 137.216 34.7837 140.731 74.9551C144.245 115.126 143.653 151.793 139.869 178.591C137.976 191.999 135.292 202.881 131.955 210.485C130.286 214.287 128.474 217.221 126.557 219.239C124.645 221.252 122.674 222.309 120.657 222.486C118.64 222.662 116.514 221.963 114.282 220.313C112.044 218.659 109.751 216.084 107.447 212.629C102.84 205.72 98.3069 195.47 94.1145 182.595C85.7348 156.86 78.7844 120.853 75.2699 80.6821Z" stroke="url(#paint9_linear_438_28943)" stroke-width="2"/>
<path opacity="0.37931" d="M75.1445 76.6509C75.1445 36.3261 78.9302 -0.150072 85.0352 -26.5171C88.0895 -39.7084 91.712 -50.3143 95.6992 -57.5981C97.6931 -61.2405 99.7528 -64.0055 101.839 -65.8491C103.919 -67.6872 105.975 -68.5688 108 -68.5688C110.025 -68.5688 112.08 -67.687 114.16 -65.8491C116.246 -64.0055 118.307 -61.2406 120.301 -57.5981C124.288 -50.3143 127.911 -39.7084 130.965 -26.5171C137.07 -0.150072 140.855 36.3261 140.855 76.6509C140.855 116.975 137.07 153.451 130.965 179.818C127.911 193.009 124.288 203.616 120.301 210.9C118.307 214.542 116.246 217.307 114.16 219.151C112.081 220.989 110.025 221.871 108 221.871C105.975 221.871 103.919 220.989 101.839 219.151C99.7528 217.307 97.6931 214.542 95.6992 210.9C91.7119 203.616 88.0895 193.009 85.0352 179.818C78.9303 153.451 75.1445 116.975 75.1445 76.6509Z" stroke="url(#paint10_linear_438_28943)" stroke-width="2"/>
<path opacity="0.413793" d="M75.2699 72.6196C78.7844 32.4483 85.7348 -3.55912 94.1145 -29.2937C98.3069 -42.1686 102.84 -52.4185 107.447 -59.3271C109.751 -62.7818 112.044 -65.3567 114.282 -67.0115C116.514 -68.6614 118.64 -69.3604 120.657 -69.1839C122.674 -69.0074 124.645 -67.9499 126.557 -65.9377C128.474 -63.9192 130.286 -60.9852 131.955 -57.1829C135.292 -49.5793 137.976 -38.698 139.869 -25.2907C143.653 1.50808 144.245 38.1754 140.731 78.3467C137.216 118.518 130.266 154.525 121.886 180.259C117.694 193.134 113.161 203.385 108.554 210.293C106.25 213.748 103.956 216.323 101.717 217.978C99.4855 219.627 97.3607 220.327 95.3436 220.15C93.3263 219.974 91.3546 218.916 89.4429 216.904C87.5255 214.886 85.7146 211.951 84.0458 208.149C80.7085 200.546 78.0242 189.664 76.1313 176.256C72.3476 149.457 71.7554 112.791 75.2699 72.6196Z" stroke="url(#paint11_linear_438_28943)" stroke-width="2"/>
<path opacity="0.448276" d="M75.6437 68.6104C82.646 28.8982 92.7082 -6.36642 103.299 -31.2727C108.598 -43.7333 114.007 -53.549 119.198 -60.0298C121.794 -63.2706 124.303 -65.6359 126.677 -67.0893C129.045 -68.5383 131.223 -69.0495 133.217 -68.6978C135.211 -68.3462 137.083 -67.1209 138.811 -64.9497C140.546 -62.7718 142.095 -59.6911 143.426 -55.7578C146.088 -47.8922 147.814 -36.8184 148.531 -23.2971C149.964 3.72941 147.359 40.3088 140.356 80.021C133.354 119.733 123.292 154.997 112.701 179.903C107.403 192.364 101.993 202.18 96.8018 208.661C94.2057 211.902 91.6962 214.267 89.3217 215.72C86.9545 217.169 84.7769 217.681 82.7828 217.329C80.7887 216.978 78.9166 215.752 77.1876 213.581C75.4534 211.403 73.9051 208.322 72.574 204.389C69.9121 196.524 68.1865 185.449 67.4693 171.928C66.0357 144.901 68.6414 108.322 75.6437 68.6104Z" stroke="url(#paint12_linear_438_28943)" stroke-width="2"/>
<path opacity="0.482759" d="M76.264 64.6454C86.7008 25.6947 99.7982 -8.55879 112.519 -32.4473C118.884 -44.3986 125.128 -53.7056 130.865 -59.7092C133.733 -62.7114 136.438 -64.8491 138.93 -66.09C141.415 -67.3272 143.63 -67.6465 145.586 -67.1224C147.541 -66.5983 149.299 -65.2146 150.832 -62.901C152.37 -60.5803 153.645 -57.3762 154.628 -53.3419C156.594 -45.2743 157.348 -34.0921 156.884 -20.5598C155.957 6.48884 150.173 42.7019 139.736 81.6527C129.299 120.603 116.202 154.856 103.481 178.744C97.1162 190.696 90.872 200.004 85.1354 206.007C82.2667 209.01 79.5606 211.147 77.0685 212.388C74.5841 213.625 72.3701 213.945 70.4143 213.421C68.4584 212.896 66.7002 211.513 65.167 209.199C63.6292 206.878 62.3553 203.674 61.3721 199.64C59.4059 191.572 58.6521 180.39 59.116 166.857C60.0434 139.808 65.8272 103.596 76.264 64.6454Z" stroke="url(#paint13_linear_438_28943)" stroke-width="2"/>
<path opacity="0.517241" d="M77.1261 60.7441C90.9179 22.8512 106.951 -10.1304 121.706 -32.8193C129.088 -44.1704 136.119 -52.8977 142.357 -58.3786C145.476 -61.1193 148.358 -63.0131 150.948 -64.0321C153.531 -65.048 155.765 -65.1731 157.668 -64.4805C159.571 -63.788 161.201 -62.2563 162.527 -59.8179C163.856 -57.372 164.847 -54.069 165.475 -49.9643C166.73 -41.756 166.507 -30.5507 164.866 -17.1104C161.584 9.75453 152.666 45.3257 138.874 83.2186C125.082 121.111 109.05 154.092 94.2948 176.781C86.9129 188.132 79.8813 196.86 73.6432 202.341C70.5238 205.082 67.6417 206.975 65.0509 207.994C62.4681 209.01 60.2347 209.136 58.332 208.443C56.4292 207.751 54.7984 206.219 53.4727 203.78C52.143 201.334 51.1532 198.032 50.5253 193.927C49.2697 185.719 49.4934 174.513 51.135 161.072C54.4163 134.207 63.3342 98.6369 77.1261 60.7441Z" stroke="url(#paint14_linear_438_28943)" stroke-width="2"/>
<path opacity="0.551724" d="M78.2229 56.9289C95.2649 20.3822 114.111 -11.0765 130.788 -32.3931C139.131 -43.0577 146.896 -51.1389 153.588 -56.0552C156.934 -58.5137 159.97 -60.1491 162.639 -60.9384C165.301 -61.7254 167.537 -61.6553 169.373 -60.7995C171.208 -59.9438 172.698 -58.2759 173.806 -55.7312C174.918 -53.1787 175.617 -49.802 175.884 -45.6582C176.42 -37.3717 175.221 -26.2285 172.414 -12.9823C166.804 13.4943 154.819 48.1529 137.777 84.6995C120.735 121.246 101.889 152.704 85.213 174.021C76.8699 184.685 69.1043 192.767 62.4123 197.684C59.0659 200.142 56.0298 201.777 53.36 202.566C50.6985 203.353 48.4627 203.284 46.6276 202.428C44.7924 201.572 43.3012 199.904 42.1931 197.359C41.0817 194.807 40.3835 191.43 40.1157 187.287C39.5803 179 40.7798 167.856 43.5866 154.61C49.1969 128.133 61.181 93.4754 78.2229 56.9289Z" stroke="url(#paint15_linear_438_28943)" stroke-width="2"/>
<path opacity="0.586207" d="M79.5462 53.2186C99.7086 18.2964 121.225 -11.4001 139.696 -31.1821C148.936 -41.079 157.377 -48.4527 164.472 -52.7671C168.019 -54.9245 171.186 -56.2892 173.914 -56.8428C176.634 -57.3948 178.856 -57.1301 180.61 -56.1176C182.363 -55.1051 183.703 -53.3137 184.585 -50.6822C185.469 -48.0425 185.872 -44.6177 185.777 -40.4663C185.588 -32.1647 183.423 -21.1684 179.472 -8.21729C171.576 17.6697 156.616 51.1518 136.454 86.0741C116.291 120.996 94.775 150.692 76.3045 170.474C67.0636 180.371 58.6232 187.745 51.5281 192.06C47.9802 194.217 44.8131 195.581 42.0847 196.135C39.3648 196.687 37.1435 196.423 35.39 195.41C33.6364 194.398 32.2963 192.606 31.4142 189.974C30.5294 187.335 30.1282 183.91 30.2226 179.759C30.4114 171.457 32.5776 160.461 36.5282 147.509C44.4247 121.622 59.3839 88.1408 79.5462 53.2186Z" stroke="url(#paint16_linear_438_28943)" stroke-width="2"/>
<path opacity="0.62069" d="M81.0863 49.6343C104.216 16.6022 128.239 -11.106 148.363 -29.2029C158.431 -38.2567 167.482 -44.8668 174.926 -48.5464C178.648 -50.3864 181.921 -51.4699 184.688 -51.7836C187.446 -52.0964 189.636 -51.6391 191.295 -50.4776C192.953 -49.3162 194.131 -47.4148 194.781 -44.7164C195.432 -42.0097 195.534 -38.5628 195.078 -34.4355C194.167 -26.1819 191.051 -15.4163 185.986 -2.85874C175.864 22.2415 158.043 54.2924 134.914 87.3245C111.784 120.356 87.7617 148.064 67.6374 166.161C57.5691 175.215 48.5181 181.826 41.074 185.505C37.3515 187.345 34.0776 188.428 31.3114 188.742C28.5537 189.055 26.3639 188.598 24.7053 187.436C23.0465 186.275 21.8677 184.373 21.2183 181.675C20.567 178.968 20.4658 175.522 20.9216 171.394C21.8333 163.141 24.9497 152.375 30.014 139.817C40.1367 114.717 57.957 82.6663 81.0863 49.6343Z" stroke="url(#paint17_linear_438_28943)" stroke-width="2"/>
<path opacity="0.655172" d="M82.8314 46.1925C108.752 15.302 135.098 -10.207 156.723 -26.4812C167.542 -34.623 177.134 -40.4191 184.871 -43.4359C188.739 -44.9444 192.095 -45.7386 194.878 -45.81C197.652 -45.8812 199.794 -45.2348 201.346 -43.9331C202.897 -42.6316 203.905 -40.6348 204.316 -37.89C204.729 -35.1368 204.531 -31.6942 203.717 -27.6223C202.089 -19.4796 198.047 -9.02646 191.907 3.04188C179.636 27.1644 159.089 57.5401 133.169 88.4307C107.249 119.321 80.9028 144.83 59.2778 161.104C48.4587 169.246 38.866 175.042 31.1295 178.059C27.2608 179.568 23.905 180.361 21.1219 180.433C18.3475 180.504 16.2058 179.858 14.6547 178.556C13.1035 177.255 12.0949 175.258 11.6832 172.513C11.2703 169.759 11.4698 166.317 12.2836 162.246C13.9112 154.103 17.954 143.649 24.0936 131.581C36.3653 107.458 56.9113 77.083 82.8314 46.1925Z" stroke="url(#paint18_linear_438_28943)" stroke-width="2"/>
<path opacity="0.689655" d="M84.7676 42.9118C113.281 14.3979 141.751 -8.7178 164.712 -23.0453C176.199 -30.2132 186.26 -35.1512 194.23 -37.4822C198.216 -38.6479 201.627 -39.1466 204.406 -38.9752C207.176 -38.8043 209.254 -37.9736 210.686 -36.5417C212.117 -35.1099 212.948 -33.0329 213.118 -30.2627C213.29 -27.484 212.792 -24.0718 211.626 -20.0863C209.295 -12.1164 204.357 -2.05539 197.189 9.43194C182.862 32.3931 159.746 60.8625 131.232 89.3764C102.718 117.89 74.2495 141.005 51.2884 155.333C39.8009 162.501 29.7394 167.439 21.7694 169.77C17.784 170.936 14.3718 171.434 11.593 171.263C8.82301 171.092 6.74578 170.262 5.31402 168.83C3.88217 167.398 3.05149 165.321 2.88058 162.55C2.70916 159.772 3.2079 156.36 4.37351 152.375C6.70455 144.405 11.6431 134.343 18.8112 122.856C33.1386 99.8945 56.2538 71.4256 84.7676 42.9118Z" stroke="url(#paint19_linear_438_28943)" stroke-width="2"/>
<path opacity="0.724138" d="M86.8811 39.8081C117.772 13.8878 148.147 -6.65861 172.27 -18.9304C184.338 -25.0698 194.791 -29.1122 202.934 -30.7397C207.006 -31.5536 210.448 -31.753 213.201 -31.3401C215.946 -30.9284 217.943 -29.9198 219.245 -28.3686C220.546 -26.8175 221.192 -24.676 221.121 -21.9014C221.05 -19.1183 220.256 -15.7626 218.748 -11.8938C215.731 -4.15746 209.935 5.43494 201.793 16.2538C185.519 37.8789 160.01 64.2253 129.119 90.1456C98.2289 116.066 67.8536 136.612 43.7312 148.883C31.6627 155.023 21.2091 159.066 13.0663 160.693C8.99443 161.507 5.55178 161.706 2.79856 161.293C0.0539695 160.881 -1.94301 159.873 -3.24454 158.322C-4.54615 156.771 -5.1926 154.629 -5.12141 151.854C-5.05 149.071 -4.25581 145.716 -2.74728 141.848C0.269511 134.111 6.0662 124.518 14.2082 113.699C30.4823 92.0742 55.9907 65.7282 86.8811 39.8081Z" stroke="url(#paint20_linear_438_28943)" stroke-width="2"/>
<path opacity="0.758621" d="M89.1549 36.8958C122.187 13.7664 154.238 -4.05438 179.338 -14.177C191.896 -19.2413 202.661 -22.3572 210.915 -23.2689C215.042 -23.7248 218.489 -23.6234 221.195 -22.9721C223.894 -22.3228 225.796 -21.1439 226.957 -19.4852C228.118 -17.8265 228.575 -15.6369 228.263 -12.8791C227.949 -10.1128 226.866 -6.83897 225.026 -3.11646C221.346 4.32754 214.736 13.3783 205.682 23.4464C187.585 43.5708 159.877 67.5937 126.845 90.723C93.8132 113.852 61.7629 131.673 36.6627 141.795C24.105 146.86 13.3388 149.976 5.08514 150.888C0.957835 151.344 -2.48904 151.241 -5.19578 150.59C-7.89405 149.941 -9.79557 148.763 -10.957 147.104C-12.1184 145.445 -12.5757 143.255 -12.263 140.497C-11.9493 137.731 -10.8657 134.458 -9.02574 130.735C-5.34614 123.291 1.26455 114.24 10.3185 104.172C28.4154 84.0476 56.123 60.025 89.1549 36.8958Z" stroke="url(#paint21_linear_438_28943)" stroke-width="2"/>
<path opacity="0.793103" d="M91.5724 34.1883C126.495 14.0259 159.977 -0.933683 185.864 -8.83016C198.815 -12.7807 209.811 -14.9465 218.113 -15.1353C222.264 -15.2298 225.688 -14.8285 228.328 -13.9437C230.96 -13.0616 232.752 -11.7216 233.764 -9.9679C234.776 -8.21432 235.041 -5.9932 234.489 -3.27319C233.935 -0.544754 232.571 2.62226 230.414 6.17024C226.099 13.2652 218.725 21.7054 208.829 30.9461C189.047 49.4167 159.35 70.9332 124.428 91.0956C89.5058 111.258 56.0242 126.217 30.1373 134.114C17.186 138.064 6.18914 140.23 -2.11256 140.419C-6.26389 140.514 -9.68875 140.112 -12.3284 139.227C-14.9598 138.345 -16.7514 137.005 -17.7639 135.252C-18.7763 133.498 -19.041 131.276 -18.4891 128.556C-17.9355 125.828 -16.5707 122.662 -14.4133 119.114C-10.099 112.019 -2.72457 103.578 7.17246 94.3373C26.9545 75.8668 56.6503 54.3506 91.5724 34.1883Z" stroke="url(#paint22_linear_438_28943)" stroke-width="2"/>
<path opacity="0.827586" d="M94.1146 31.6971C130.661 14.6551 165.32 2.67063 191.796 -2.9396C205.043 -5.74636 216.186 -6.94551 224.472 -6.4101C228.616 -6.14236 231.992 -5.44412 234.545 -4.3327C237.09 -3.22458 238.758 -1.73345 239.614 0.101776C240.469 1.93692 240.539 4.17262 239.752 6.83418C238.963 9.50398 237.328 12.54 234.869 15.8865C229.953 22.5784 221.872 30.3438 211.207 38.6868C189.891 55.363 158.432 74.2095 121.885 91.2515C85.3388 108.293 50.6808 120.278 24.2042 125.888C10.9578 128.695 -0.18594 129.894 -8.47251 129.359C-12.6163 129.091 -15.9931 128.392 -18.5456 127.28C-21.0901 126.172 -22.7581 124.682 -23.6139 122.847C-24.4697 121.012 -24.5397 118.775 -23.7528 116.114C-22.9635 113.444 -21.328 110.408 -18.8696 107.062C-13.9532 100.37 -5.87128 92.6045 4.79348 84.2613C26.11 67.5853 57.5681 48.739 94.1146 31.6971Z" stroke="url(#paint23_linear_438_28943)" stroke-width="2"/>
<path opacity="0.862069" d="M96.7627 29.433C134.656 15.6411 170.227 6.72293 197.092 3.44164C210.532 1.80004 221.737 1.57665 229.946 2.83223C234.05 3.4601 237.353 4.44995 239.799 5.77962C242.237 7.10532 243.769 8.73615 244.462 10.639C245.154 12.5417 245.029 14.775 244.013 17.3578C242.994 19.9487 241.101 22.8307 238.36 25.9501C232.879 32.1881 224.152 39.2197 212.801 46.6014C190.112 61.3562 157.13 77.3892 119.237 91.1811C81.3444 104.973 45.7739 113.891 18.9091 117.172C5.46847 118.814 -5.73744 119.037 -13.9458 117.782C-18.0505 117.154 -21.3535 116.163 -23.7994 114.834C-26.2377 113.508 -27.7695 111.878 -28.462 109.975C-29.1546 108.072 -29.0294 105.838 -28.0135 103.255C-26.9946 100.665 -25.1007 97.7833 -22.36 94.664C-16.8792 88.4259 -8.15113 81.3942 3.20019 74.0124C25.889 59.2576 58.8699 43.2249 96.7627 29.433Z" stroke="url(#paint24_linear_438_28943)" stroke-width="2"/>
<path opacity="0.896552" d="M99.4962 27.4037C138.447 16.9669 174.66 11.1828 201.709 10.2555C215.241 9.79153 226.423 10.5456 234.491 12.5118C238.525 13.495 241.729 14.769 244.05 16.3067C246.363 17.8399 247.747 19.5981 248.271 21.554C248.795 23.5099 248.476 25.7237 247.239 28.2082C245.998 30.7004 243.86 33.4064 240.858 36.2751C234.854 42.0117 225.547 48.2558 213.596 54.6201C189.708 67.3413 155.454 80.4388 116.503 90.8756C77.5529 101.312 41.3405 107.096 14.2919 108.024C0.759392 108.488 -10.4234 107.734 -18.4911 105.767C-22.5254 104.784 -25.7295 103.509 -28.0502 101.972C-30.3636 100.439 -31.7475 98.681 -32.2716 96.7253C-32.7957 94.7693 -32.4764 92.5548 -31.2392 90.0702C-29.9983 87.578 -27.8606 84.8728 -24.8584 82.0042C-18.8547 76.2675 -9.54705 70.0234 2.40445 63.6589C26.2929 50.9377 60.5457 37.8405 99.4962 27.4037Z" stroke="url(#paint25_linear_438_28943)" stroke-width="2"/>
<path opacity="0.931035" d="M102.295 25.616C142.007 18.6137 178.586 16.0078 205.613 17.4414C219.134 18.1587 230.208 19.8844 238.073 22.5463C242.007 23.8774 245.087 25.4257 247.265 27.1599C249.436 28.8889 250.662 30.761 251.013 32.7552C251.365 34.7492 250.854 36.9268 249.405 39.294C247.951 41.6686 245.586 44.178 242.345 46.7741C235.865 51.9656 226.049 57.3748 213.588 62.6733C188.682 73.2641 153.417 83.3263 113.705 90.3286C73.9932 97.3309 37.4145 99.9366 10.388 98.503C-3.13351 97.7858 -14.208 96.0602 -22.0737 93.3983C-26.0069 92.0672 -29.0877 90.518 -31.2656 88.7837C-33.4366 87.0549 -34.662 85.1835 -35.0137 83.1895C-35.3653 81.1953 -34.8542 79.017 -33.4052 76.6496C-31.9518 74.2752 -29.5864 71.7666 -26.3457 69.1705C-19.8648 63.9789 -10.0484 58.5697 2.41236 53.2711C27.3186 42.6804 62.5826 32.6183 102.295 25.616Z" stroke="url(#paint26_linear_438_28943)" stroke-width="2"/>
<path opacity="0.965517" d="M105.136 24.0746C145.308 20.56 181.975 21.1522 208.774 24.9359C222.181 26.8289 233.062 29.5132 240.666 32.8505C244.468 34.5193 247.402 36.3302 249.421 38.2476C251.433 40.1593 252.49 42.131 252.667 44.1483C252.843 46.1654 252.144 48.2901 250.494 50.522C248.84 52.7609 246.265 55.0546 242.81 57.3584C235.901 61.9653 225.652 66.4984 212.777 70.6908C187.042 79.0705 151.035 86.0209 110.863 89.5355C70.6922 93.05 34.0256 92.4577 7.22687 88.6741C-6.18065 86.7811 -17.0626 84.0969 -24.6663 80.7596C-28.4686 79.0907 -31.4027 77.2789 -33.4211 75.3614C-35.4332 73.4499 -36.4908 71.4788 -36.6674 69.4617C-36.8439 67.4445 -36.1448 65.3191 -34.495 63.087C-32.8402 60.8482 -30.2652 58.5553 -26.8105 56.2516C-19.9018 51.6446 -9.65128 47.1116 3.22383 42.9192C28.9584 34.5395 64.9651 27.5891 105.136 24.0746Z" stroke="url(#paint27_linear_438_28943)" stroke-width="2"/>
<path d="M108 22.7817C148.325 22.7817 184.801 26.5674 211.168 32.6724C224.359 35.7267 234.965 39.3492 242.249 43.3364C245.891 45.3303 248.656 47.39 250.5 49.4761C252.338 51.5559 253.22 53.6123 253.22 55.6372C253.22 57.662 252.338 59.7177 250.5 61.7974C248.656 63.8834 245.891 65.9441 242.249 67.938C234.965 71.9252 224.359 75.5478 211.168 78.6021C184.801 84.707 148.325 88.4927 108 88.4927C67.6754 88.4927 31.2 84.7069 4.83301 78.6021C-8.3585 75.5477 -18.9651 71.9253 -26.249 67.938C-29.8914 65.9441 -32.6564 63.8834 -34.5 61.7974C-36.3378 59.7178 -37.2197 57.662 -37.2197 55.6372C-37.2197 53.6123 -36.3381 51.5559 -34.5 49.4761C-32.6564 47.39 -29.8913 45.3303 -26.249 43.3364C-18.9651 39.3491 -8.3585 35.7267 4.83301 32.6724C31.2 26.5675 67.6754 22.7817 108 22.7817Z" stroke="url(#paint28_linear_438_28943)" stroke-width="2"/>
<rect width="400" height="64" transform="translate(0 196)" fill="#949494"/>
<path d="M24.6 236L29.784 219.2H33.336L38.52 236H36.432L35.136 231.752H27.984L26.688 236H24.6ZM28.488 229.928H34.608L31.728 220.424H31.392L28.488 229.928ZM46.5092 236.336C45.3732 236.336 44.3492 236.096 43.4372 235.616C42.5412 235.12 41.8292 234.416 41.3012 233.504C40.7892 232.592 40.5332 231.512 40.5332 230.264V230C40.5332 228.736 40.7892 227.656 41.3012 226.76C41.8292 225.848 42.5412 225.152 43.4372 224.672C44.3492 224.176 45.3732 223.928 46.5092 223.928C47.6292 223.928 48.5812 224.136 49.3652 224.552C50.1652 224.968 50.7892 225.52 51.2372 226.208C51.7012 226.896 51.9972 227.632 52.1252 228.416L50.2772 228.8C50.1972 228.224 50.0052 227.696 49.7012 227.216C49.4132 226.736 49.0052 226.352 48.4772 226.064C47.9492 225.776 47.3012 225.632 46.5332 225.632C45.7492 225.632 45.0452 225.808 44.4212 226.16C43.8132 226.512 43.3252 227.016 42.9572 227.672C42.6052 228.328 42.4292 229.112 42.4292 230.024V230.24C42.4292 231.152 42.6052 231.936 42.9572 232.592C43.3252 233.248 43.8132 233.752 44.4212 234.104C45.0452 234.456 45.7492 234.632 46.5332 234.632C47.7012 234.632 48.5892 234.328 49.1972 233.72C49.8212 233.112 50.2052 232.36 50.3492 231.464L52.2212 231.872C52.0452 232.64 51.7252 233.368 51.2612 234.056C50.7972 234.744 50.1652 235.296 49.3652 235.712C48.5812 236.128 47.6292 236.336 46.5092 236.336ZM60.8529 236.336C59.7169 236.336 58.6929 236.096 57.7809 235.616C56.8849 235.12 56.1729 234.416 55.6449 233.504C55.1329 232.592 54.8769 231.512 54.8769 230.264V230C54.8769 228.736 55.1329 227.656 55.6449 226.76C56.1729 225.848 56.8849 225.152 57.7809 224.672C58.6929 224.176 59.7169 223.928 60.8529 223.928C61.9729 223.928 62.9249 224.136 63.7089 224.552C64.5089 224.968 65.1329 225.52 65.5809 226.208C66.0449 226.896 66.3409 227.632 66.4689 228.416L64.6209 228.8C64.5409 228.224 64.3489 227.696 64.0449 227.216C63.7569 226.736 63.3489 226.352 62.8209 226.064C62.2929 225.776 61.6449 225.632 60.8769 225.632C60.0929 225.632 59.3889 225.808 58.7649 226.16C58.1569 226.512 57.6689 227.016 57.3009 227.672C56.9489 228.328 56.7729 229.112 56.7729 230.024V230.24C56.7729 231.152 56.9489 231.936 57.3009 232.592C57.6689 233.248 58.1569 233.752 58.7649 234.104C59.3889 234.456 60.0929 234.632 60.8769 234.632C62.0449 234.632 62.9329 234.328 63.5409 233.72C64.1649 233.112 64.5489 232.36 64.6929 231.464L66.5649 231.872C66.3889 232.64 66.0689 233.368 65.6049 234.056C65.1409 234.744 64.5089 235.296 63.7089 235.712C62.9249 236.128 61.9729 236.336 60.8529 236.336ZM74.2847 236.216C73.4367 236.216 72.6527 236.032 71.9327 235.664C71.2287 235.296 70.6687 234.752 70.2527 234.032C69.8527 233.296 69.6527 232.408 69.6527 231.368V224.264H71.5487V231.224C71.5487 232.392 71.8367 233.24 72.4127 233.768C73.0047 234.296 73.7967 234.56 74.7887 234.56C75.9087 234.56 76.8287 234.192 77.5487 233.456C78.2687 232.72 78.6287 231.624 78.6287 230.168V224.264H80.5247V236H78.6767V234.008H78.3407C78.0847 234.568 77.6447 235.08 77.0207 235.544C76.3967 235.992 75.4847 236.216 74.2847 236.216ZM84.492 236V224.264H86.34V225.704H86.676C86.884 225.192 87.204 224.816 87.636 224.576C88.068 224.336 88.636 224.216 89.34 224.216H90.732V225.944H89.22C88.372 225.944 87.684 226.184 87.156 226.664C86.644 227.128 86.388 227.856 86.388 228.848V236H84.492ZM96.7404 236.336C95.9244 236.336 95.1804 236.192 94.5084 235.904C93.8364 235.616 93.3084 235.2 92.9244 234.656C92.5404 234.112 92.3484 233.448 92.3484 232.664C92.3484 231.864 92.5404 231.208 92.9244 230.696C93.3084 230.168 93.8364 229.776 94.5084 229.52C95.1804 229.248 95.9324 229.112 96.7644 229.112H100.724V228.248C100.724 227.416 100.476 226.76 99.9804 226.28C99.5004 225.8 98.7804 225.56 97.8204 225.56C96.8764 225.56 96.1404 225.792 95.6124 226.256C95.0844 226.704 94.7244 227.312 94.5324 228.08L92.7564 227.504C92.9484 226.848 93.2524 226.256 93.6684 225.728C94.0844 225.184 94.6364 224.752 95.3244 224.432C96.0284 224.096 96.8684 223.928 97.8444 223.928C99.3484 223.928 100.516 224.32 101.348 225.104C102.18 225.872 102.596 226.96 102.596 228.368V233.672C102.596 234.152 102.82 234.392 103.268 234.392H104.348V236H102.692C102.164 236 101.74 235.856 101.42 235.568C101.1 235.264 100.94 234.864 100.94 234.368V234.248H100.652C100.476 234.552 100.236 234.872 99.9324 235.208C99.6444 235.528 99.2444 235.792 98.7324 236C98.2204 236.224 97.5564 236.336 96.7404 236.336ZM96.9564 234.704C98.0764 234.704 98.9804 234.376 99.6684 233.72C100.372 233.048 100.724 232.112 100.724 230.912V230.648H96.8364C96.0844 230.648 95.4604 230.816 94.9644 231.152C94.4844 231.472 94.2444 231.96 94.2444 232.616C94.2444 233.272 94.4924 233.784 94.9884 234.152C95.5004 234.52 96.1564 234.704 96.9564 234.704ZM112.017 236.336C110.881 236.336 109.857 236.096 108.945 235.616C108.049 235.12 107.337 234.416 106.809 233.504C106.297 232.592 106.041 231.512 106.041 230.264V230C106.041 228.736 106.297 227.656 106.809 226.76C107.337 225.848 108.049 225.152 108.945 224.672C109.857 224.176 110.881 223.928 112.017 223.928C113.137 223.928 114.089 224.136 114.873 224.552C115.673 224.968 116.297 225.52 116.745 226.208C117.209 226.896 117.505 227.632 117.633 228.416L115.785 228.8C115.705 228.224 115.513 227.696 115.209 227.216C114.921 226.736 114.513 226.352 113.985 226.064C113.457 225.776 112.809 225.632 112.041 225.632C111.257 225.632 110.553 225.808 109.929 226.16C109.321 226.512 108.833 227.016 108.465 227.672C108.113 228.328 107.937 229.112 107.937 230.024V230.24C107.937 231.152 108.113 231.936 108.465 232.592C108.833 233.248 109.321 233.752 109.929 234.104C110.553 234.456 111.257 234.632 112.041 234.632C113.209 234.632 114.097 234.328 114.705 233.72C115.329 233.112 115.713 232.36 115.857 231.464L117.729 231.872C117.553 232.64 117.233 233.368 116.769 234.056C116.305 234.744 115.673 235.296 114.873 235.712C114.089 236.128 113.137 236.336 112.017 236.336ZM122.377 240.8V239.12H129.097C129.561 239.12 129.793 238.88 129.793 238.4V234.128H129.457C129.297 234.464 129.049 234.8 128.713 235.136C128.393 235.456 127.969 235.72 127.441 235.928C126.913 236.12 126.249 236.216 125.449 236.216C124.601 236.216 123.817 236.032 123.097 235.664C122.393 235.296 121.833 234.752 121.417 234.032C121.017 233.312 120.817 232.432 120.817 231.392V224.264H122.713V231.248C122.713 232.4 123.001 233.24 123.577 233.768C124.169 234.296 124.961 234.56 125.953 234.56C127.073 234.56 127.993 234.192 128.713 233.456C129.433 232.72 129.793 231.624 129.793 230.168V224.264H131.689V238.736C131.689 239.376 131.505 239.88 131.137 240.248C130.785 240.616 130.265 240.8 129.577 240.8H122.377ZM145.42 236.336C144.604 236.336 143.86 236.192 143.188 235.904C142.516 235.616 141.988 235.2 141.604 234.656C141.22 234.112 141.028 233.448 141.028 232.664C141.028 231.864 141.22 231.208 141.604 230.696C141.988 230.168 142.516 229.776 143.188 229.52C143.86 229.248 144.612 229.112 145.444 229.112H149.404V228.248C149.404 227.416 149.156 226.76 148.66 226.28C148.18 225.8 147.46 225.56 146.5 225.56C145.556 225.56 144.82 225.792 144.292 226.256C143.764 226.704 143.404 227.312 143.212 228.08L141.436 227.504C141.628 226.848 141.932 226.256 142.348 225.728C142.764 225.184 143.316 224.752 144.004 224.432C144.708 224.096 145.548 223.928 146.524 223.928C148.028 223.928 149.196 224.32 150.028 225.104C150.86 225.872 151.276 226.96 151.276 228.368V233.672C151.276 234.152 151.5 234.392 151.948 234.392H153.028V236H151.372C150.844 236 150.42 235.856 150.1 235.568C149.78 235.264 149.62 234.864 149.62 234.368V234.248H149.332C149.156 234.552 148.916 234.872 148.612 235.208C148.324 235.528 147.924 235.792 147.412 236C146.9 236.224 146.236 236.336 145.42 236.336ZM145.636 234.704C146.756 234.704 147.66 234.376 148.348 233.72C149.052 233.048 149.404 232.112 149.404 230.912V230.648H145.516C144.764 230.648 144.14 230.816 143.644 231.152C143.164 231.472 142.924 231.96 142.924 232.616C142.924 233.272 143.172 233.784 143.668 234.152C144.18 234.52 144.836 234.704 145.636 234.704ZM155.625 236V224.264H157.473V226.256H157.809C158.065 225.696 158.497 225.192 159.105 224.744C159.729 224.28 160.641 224.048 161.841 224.048C162.721 224.048 163.505 224.232 164.193 224.6C164.897 224.968 165.457 225.512 165.873 226.232C166.289 226.952 166.497 227.84 166.497 228.896V236H164.601V229.04C164.601 227.872 164.305 227.024 163.713 226.496C163.137 225.968 162.353 225.704 161.361 225.704C160.225 225.704 159.297 226.072 158.577 226.808C157.873 227.544 157.521 228.64 157.521 230.096V236H155.625ZM175.312 236.336C174.304 236.336 173.376 236.096 172.528 235.616C171.68 235.136 171.008 234.44 170.512 233.528C170.016 232.616 169.768 231.536 169.768 230.288V229.976C169.768 228.728 170.016 227.656 170.512 226.76C171.008 225.848 171.672 225.152 172.504 224.672C173.352 224.176 174.288 223.928 175.312 223.928C176.128 223.928 176.816 224.04 177.376 224.264C177.952 224.472 178.416 224.744 178.768 225.08C179.12 225.4 179.392 225.744 179.584 226.112H179.92V219.2H181.816V236H179.968V234.056H179.632C179.312 234.648 178.816 235.176 178.144 235.64C177.472 236.104 176.528 236.336 175.312 236.336ZM175.816 234.656C177.032 234.656 178.016 234.272 178.768 233.504C179.536 232.72 179.92 231.632 179.92 230.24V230.024C179.92 228.632 179.536 227.552 178.768 226.784C178.016 226 177.032 225.608 175.816 225.608C174.616 225.608 173.624 226 172.84 226.784C172.072 227.552 171.688 228.632 171.688 230.024V230.24C171.688 231.632 172.072 232.72 172.84 233.504C173.624 234.272 174.616 234.656 175.816 234.656ZM191.953 236V224.264H193.801V225.704H194.137C194.345 225.192 194.665 224.816 195.097 224.576C195.529 224.336 196.097 224.216 196.801 224.216H198.193V225.944H196.681C195.833 225.944 195.145 226.184 194.617 226.664C194.105 227.128 193.849 227.856 193.849 228.848V236H191.953ZM205.954 236.336C204.77 236.336 203.73 236.088 202.834 235.592C201.938 235.08 201.242 234.368 200.746 233.456C200.25 232.544 200.002 231.488 200.002 230.288V230C200.002 228.784 200.25 227.72 200.746 226.808C201.242 225.896 201.93 225.192 202.81 224.696C203.69 224.184 204.698 223.928 205.834 223.928C206.938 223.928 207.914 224.168 208.762 224.648C209.61 225.112 210.274 225.784 210.754 226.664C211.234 227.544 211.474 228.576 211.474 229.76V230.624H201.898C201.946 231.888 202.354 232.88 203.122 233.6C203.89 234.304 204.85 234.656 206.002 234.656C207.01 234.656 207.786 234.424 208.33 233.96C208.874 233.496 209.29 232.944 209.578 232.304L211.21 233.096C210.97 233.592 210.634 234.088 210.202 234.584C209.786 235.08 209.234 235.496 208.546 235.832C207.874 236.168 207.01 236.336 205.954 236.336ZM201.922 229.064H209.554C209.49 227.976 209.114 227.128 208.426 226.52C207.754 225.912 206.89 225.608 205.834 225.608C204.762 225.608 203.882 225.912 203.194 226.52C202.506 227.128 202.082 227.976 201.922 229.064ZM214.781 236V219.2H216.677V236H214.781ZM220.664 236V224.264H222.56V236H220.664ZM221.624 222.44C221.208 222.44 220.856 222.304 220.568 222.032C220.296 221.76 220.16 221.416 220.16 221C220.16 220.568 220.296 220.216 220.568 219.944C220.856 219.672 221.208 219.536 221.624 219.536C222.04 219.536 222.384 219.672 222.656 219.944C222.928 220.216 223.064 220.568 223.064 221C223.064 221.416 222.928 221.76 222.656 222.032C222.384 222.304 222.04 222.44 221.624 222.44ZM230.147 236.336C229.331 236.336 228.587 236.192 227.915 235.904C227.243 235.616 226.715 235.2 226.331 234.656C225.947 234.112 225.755 233.448 225.755 232.664C225.755 231.864 225.947 231.208 226.331 230.696C226.715 230.168 227.243 229.776 227.915 229.52C228.587 229.248 229.339 229.112 230.171 229.112H234.131V228.248C234.131 227.416 233.883 226.76 233.387 226.28C232.907 225.8 232.187 225.56 231.227 225.56C230.283 225.56 229.547 225.792 229.019 226.256C228.491 226.704 228.131 227.312 227.939 228.08L226.163 227.504C226.355 226.848 226.659 226.256 227.075 225.728C227.491 225.184 228.043 224.752 228.731 224.432C229.435 224.096 230.275 223.928 231.251 223.928C232.755 223.928 233.923 224.32 234.755 225.104C235.587 225.872 236.003 226.96 236.003 228.368V233.672C236.003 234.152 236.227 234.392 236.675 234.392H237.755V236H236.099C235.571 236 235.147 235.856 234.827 235.568C234.507 235.264 234.347 234.864 234.347 234.368V234.248H234.059C233.883 234.552 233.643 234.872 233.339 235.208C233.051 235.528 232.651 235.792 232.139 236C231.627 236.224 230.963 236.336 230.147 236.336ZM230.363 234.704C231.483 234.704 232.387 234.376 233.075 233.72C233.779 233.048 234.131 232.112 234.131 230.912V230.648H230.243C229.491 230.648 228.867 230.816 228.371 231.152C227.891 231.472 227.651 231.96 227.651 232.616C227.651 233.272 227.899 233.784 228.395 234.152C228.907 234.52 229.563 234.704 230.363 234.704ZM246.855 236.336C245.639 236.336 244.687 236.104 243.999 235.64C243.327 235.176 242.839 234.648 242.535 234.056H242.199V236H240.351V219.2H242.247V226.112H242.583C242.775 225.744 243.047 225.4 243.399 225.08C243.751 224.744 244.207 224.472 244.767 224.264C245.343 224.04 246.039 223.928 246.855 223.928C247.879 223.928 248.807 224.176 249.639 224.672C250.487 225.152 251.159 225.848 251.655 226.76C252.151 227.656 252.399 228.728 252.399 229.976V230.288C252.399 231.536 252.143 232.616 251.631 233.528C251.135 234.44 250.463 235.136 249.615 235.616C248.783 236.096 247.863 236.336 246.855 236.336ZM246.351 234.656C247.567 234.656 248.551 234.272 249.303 233.504C250.071 232.72 250.455 231.632 250.455 230.24V230.024C250.455 228.632 250.071 227.552 249.303 226.784C248.551 226 247.567 225.608 246.351 225.608C245.151 225.608 244.159 226 243.375 226.784C242.607 227.552 242.223 228.632 242.223 230.024V230.24C242.223 231.632 242.607 232.72 243.375 233.504C244.159 234.272 245.151 234.656 246.351 234.656ZM255.797 236V224.264H257.693V236H255.797ZM256.757 222.44C256.341 222.44 255.989 222.304 255.701 222.032C255.429 221.76 255.293 221.416 255.293 221C255.293 220.568 255.429 220.216 255.701 219.944C255.989 219.672 256.341 219.536 256.757 219.536C257.173 219.536 257.517 219.672 257.789 219.944C258.061 220.216 258.197 220.568 258.197 221C258.197 221.416 258.061 221.76 257.789 222.032C257.517 222.304 257.173 222.44 256.757 222.44ZM261.68 236V219.2H263.576V236H261.68ZM267.562 236V224.264H269.458V236H267.562ZM268.522 222.44C268.106 222.44 267.754 222.304 267.466 222.032C267.194 221.76 267.058 221.416 267.058 221C267.058 220.568 267.194 220.216 267.466 219.944C267.754 219.672 268.106 219.536 268.522 219.536C268.938 219.536 269.282 219.672 269.554 219.944C269.826 220.216 269.962 220.568 269.962 221C269.962 221.416 269.826 221.76 269.554 222.032C269.282 222.304 268.938 222.44 268.522 222.44ZM277.765 236C277.093 236 276.573 235.816 276.205 235.448C275.853 235.08 275.677 234.576 275.677 233.936V225.92H272.149V224.264H275.677V220.088H277.573V224.264H281.413V225.92H277.573V233.648C277.573 234.128 277.805 234.368 278.269 234.368H280.885V236H277.765ZM285.9 240.8V239.12H292.62C293.084 239.12 293.316 238.88 293.316 238.4V234.128H292.98C292.82 234.464 292.572 234.8 292.236 235.136C291.916 235.456 291.492 235.72 290.964 235.928C290.436 236.12 289.772 236.216 288.972 236.216C288.124 236.216 287.34 236.032 286.62 235.664C285.916 235.296 285.356 234.752 284.94 234.032C284.54 233.312 284.34 232.432 284.34 231.392V224.264H286.236V231.248C286.236 232.4 286.524 233.24 287.1 233.768C287.692 234.296 288.484 234.56 289.476 234.56C290.596 234.56 291.516 234.192 292.236 233.456C292.956 232.72 293.316 231.624 293.316 230.168V224.264H295.212V238.736C295.212 239.376 295.028 239.88 294.66 240.248C294.308 240.616 293.788 240.8 293.1 240.8H285.9Z" fill="white"/>
<path d="M360.91 236.67C360.72 236.67 360.53 236.6 360.38 236.45C360.09 236.16 360.09 235.68 360.38 235.39L366.9 228.87C367.38 228.39 367.38 227.61 366.9 227.13L360.38 220.61C360.09 220.32 360.09 219.84 360.38 219.55C360.67 219.26 361.15 219.26 361.44 219.55L367.96 226.07C368.47 226.58 368.76 227.27 368.76 228C368.76 228.73 368.48 229.42 367.96 229.93L361.44 236.45C361.29 236.59 361.1 236.67 360.91 236.67Z" fill="#FEFEFE"/>
</g>
<defs>
<linearGradient id="paint0_linear_438_28943" x1="86.2381" y1="114.259" x2="129.762" y2="62.3899" gradientUnits="userSpaceOnUse">
<stop stop-color="#F42A8B"/>
<stop offset="1" stop-color="#1F89DB"/>
</linearGradient>
<linearGradient id="paint1_linear_438_28943" x1="84.0605" y1="111.097" x2="131.939" y2="63.2185" gradientUnits="userSpaceOnUse">
<stop stop-color="#F42A8B"/>
<stop offset="1" stop-color="#1F89DB"/>
</linearGradient>
<linearGradient id="paint2_linear_438_28943" x1="82.0654" y1="107.752" x2="133.935" y2="64.2282" gradientUnits="userSpaceOnUse">
<stop stop-color="#F42A8B"/>
<stop offset="1" stop-color="#1F89DB"/>
</linearGradient>
<linearGradient id="paint3_linear_438_28943" x1="80.2674" y1="104.241" x2="135.733" y2="65.404" gradientUnits="userSpaceOnUse">
<stop stop-color="#F42A8B"/>
<stop offset="1" stop-color="#1F89DB"/>
</linearGradient>
<linearGradient id="paint4_linear_438_28943" x1="78.6806" y1="100.583" x2="137.32" y2="66.7279" gradientUnits="userSpaceOnUse">
<stop stop-color="#F42A8B"/>
<stop offset="1" stop-color="#1F89DB"/>
</linearGradient>
<linearGradient id="paint5_linear_438_28943" x1="77.3166" y1="96.7957" x2="138.683" y2="68.1799" gradientUnits="userSpaceOnUse">
<stop stop-color="#F42A8B"/>
<stop offset="1" stop-color="#1F89DB"/>
</linearGradient>
<linearGradient id="paint6_linear_438_28943" x1="76.1866" y1="92.8995" x2="139.814" y2="69.7411" gradientUnits="userSpaceOnUse">
<stop stop-color="#F42A8B"/>
<stop offset="1" stop-color="#1F89DB"/>
</linearGradient>
<linearGradient id="paint7_linear_438_28943" x1="75.2981" y1="88.9157" x2="140.702" y2="71.3909" gradientUnits="userSpaceOnUse">
<stop stop-color="#F42A8B"/>
<stop offset="1" stop-color="#1F89DB"/>
</linearGradient>
<linearGradient id="paint8_linear_438_28943" x1="74.659" y1="84.8648" x2="141.341" y2="73.1069" gradientUnits="userSpaceOnUse">
<stop stop-color="#F42A8B"/>
<stop offset="1" stop-color="#1F89DB"/>
</linearGradient>
<linearGradient id="paint9_linear_438_28943" x1="74.2737" y1="80.7691" x2="141.727" y2="74.8677" gradientUnits="userSpaceOnUse">
<stop stop-color="#F42A8B"/>
<stop offset="1" stop-color="#1F89DB"/>
</linearGradient>
<linearGradient id="paint10_linear_438_28943" x1="74.1445" y1="76.6507" x2="141.855" y2="76.6507" gradientUnits="userSpaceOnUse">
<stop stop-color="#F42A8B"/>
<stop offset="1" stop-color="#1F89DB"/>
</linearGradient>
<linearGradient id="paint11_linear_438_28943" x1="74.2737" y1="72.5323" x2="141.727" y2="78.4337" gradientUnits="userSpaceOnUse">
<stop stop-color="#F42A8B"/>
<stop offset="1" stop-color="#1F89DB"/>
</linearGradient>
<linearGradient id="paint12_linear_438_28943" x1="74.6589" y1="68.4366" x2="141.341" y2="80.1944" gradientUnits="userSpaceOnUse">
<stop stop-color="#F42A8B"/>
<stop offset="1" stop-color="#1F89DB"/>
</linearGradient>
<linearGradient id="paint13_linear_438_28943" x1="75.2981" y1="64.3864" x2="140.702" y2="81.9112" gradientUnits="userSpaceOnUse">
<stop stop-color="#F42A8B"/>
<stop offset="1" stop-color="#1F89DB"/>
</linearGradient>
<linearGradient id="paint14_linear_438_28943" x1="76.1864" y1="60.4019" x2="139.814" y2="83.5603" gradientUnits="userSpaceOnUse">
<stop stop-color="#F42A8B"/>
<stop offset="1" stop-color="#1F89DB"/>
</linearGradient>
<linearGradient id="paint15_linear_438_28943" x1="77.3167" y1="56.5061" x2="138.683" y2="85.1219" gradientUnits="userSpaceOnUse">
<stop stop-color="#F42A8B"/>
<stop offset="1" stop-color="#1F89DB"/>
</linearGradient>
<linearGradient id="paint16_linear_438_28943" x1="78.6803" y1="52.7185" x2="137.319" y2="86.5738" gradientUnits="userSpaceOnUse">
<stop stop-color="#F42A8B"/>
<stop offset="1" stop-color="#1F89DB"/>
</linearGradient>
<linearGradient id="paint17_linear_438_28943" x1="80.2672" y1="49.0606" x2="135.733" y2="87.8978" gradientUnits="userSpaceOnUse">
<stop stop-color="#F42A8B"/>
<stop offset="1" stop-color="#1F89DB"/>
</linearGradient>
<linearGradient id="paint18_linear_438_28943" x1="82.0655" y1="45.5496" x2="133.935" y2="89.0731" gradientUnits="userSpaceOnUse">
<stop stop-color="#F42A8B"/>
<stop offset="1" stop-color="#1F89DB"/>
</linearGradient>
<linearGradient id="paint19_linear_438_28943" x1="84.0606" y1="42.2046" x2="131.939" y2="90.0832" gradientUnits="userSpaceOnUse">
<stop stop-color="#F42A8B"/>
<stop offset="1" stop-color="#1F89DB"/>
</linearGradient>
<linearGradient id="paint20_linear_438_28943" x1="86.2385" y1="39.0419" x2="129.762" y2="90.9113" gradientUnits="userSpaceOnUse">
<stop stop-color="#F42A8B"/>
<stop offset="1" stop-color="#1F89DB"/>
</linearGradient>
<linearGradient id="paint21_linear_438_28943" x1="88.5815" y1="36.0765" x2="127.419" y2="91.5418" gradientUnits="userSpaceOnUse">
<stop stop-color="#F42A8B"/>
<stop offset="1" stop-color="#1F89DB"/>
</linearGradient>
<linearGradient id="paint22_linear_438_28943" x1="91.0725" y1="33.3222" x2="124.928" y2="91.9613" gradientUnits="userSpaceOnUse">
<stop stop-color="#F42A8B"/>
<stop offset="1" stop-color="#1F89DB"/>
</linearGradient>
<linearGradient id="paint23_linear_438_28943" x1="93.6921" y1="30.7907" x2="122.308" y2="92.1574" gradientUnits="userSpaceOnUse">
<stop stop-color="#F42A8B"/>
<stop offset="1" stop-color="#1F89DB"/>
</linearGradient>
<linearGradient id="paint24_linear_438_28943" x1="96.4208" y1="28.4933" x2="119.579" y2="92.1204" gradientUnits="userSpaceOnUse">
<stop stop-color="#F42A8B"/>
<stop offset="1" stop-color="#1F89DB"/>
</linearGradient>
<linearGradient id="paint25_linear_438_28943" x1="99.2376" y1="26.4377" x2="116.762" y2="91.8412" gradientUnits="userSpaceOnUse">
<stop stop-color="#F42A8B"/>
<stop offset="1" stop-color="#1F89DB"/>
</linearGradient>
<linearGradient id="paint26_linear_438_28943" x1="102.121" y1="24.6311" x2="113.879" y2="91.3131" gradientUnits="userSpaceOnUse">
<stop stop-color="#F42A8B"/>
<stop offset="1" stop-color="#1F89DB"/>
</linearGradient>
<linearGradient id="paint27_linear_438_28943" x1="105.049" y1="23.0784" x2="110.951" y2="90.5313" gradientUnits="userSpaceOnUse">
<stop stop-color="#F42A8B"/>
<stop offset="1" stop-color="#1F89DB"/>
</linearGradient>
<linearGradient id="paint28_linear_438_28943" x1="108" y1="21.7817" x2="108" y2="89.4924" gradientUnits="userSpaceOnUse">
<stop stop-color="#F42A8B"/>
<stop offset="1" stop-color="#1F89DB"/>
</linearGradient>
<clipPath id="clip0_438_28943">
<rect width="400" height="260" rx="8" fill="white"/>
</clipPath>
</defs>
</svg>
