<svg width="229" height="107" viewBox="0 0 229 107" fill="none" xmlns="http://www.w3.org/2000/svg">
<path d="M4 11.5H225C226.933 11.5 228.5 13.067 228.5 15V92.7207C228.5 94.6537 226.933 96.2207 225 96.2207H121.751L121.601 96.4199L114.857 105.367C114.223 106.209 112.942 106.151 112.386 105.256L106.925 96.457L106.778 96.2207H4C2.067 96.2207 0.5 94.6537 0.5 92.7207V15C0.5 13.067 2.067 11.5 4 11.5Z" fill="url(#paint0_linear_438_34217)" stroke="url(#paint1_linear_438_34217)"/>
<path d="M77.8023 45V33.496H87.2263C87.6103 33.496 87.9623 33.592 88.2823 33.784C88.6023 33.976 88.8529 34.232 89.0343 34.552C89.2263 34.8613 89.3223 35.2027 89.3223 35.576V38.808C89.3223 39.192 89.2263 39.544 89.0343 39.864C88.8529 40.1733 88.6023 40.424 88.2823 40.616C87.9623 40.7973 87.6103 40.888 87.2263 40.888L79.5303 40.904V45H77.8023ZM79.9303 39.144H87.1943C87.3009 39.144 87.3916 39.1067 87.4663 39.032C87.5409 38.9573 87.5783 38.8667 87.5783 38.76V35.624C87.5783 35.5173 87.5409 35.4267 87.4663 35.352C87.3916 35.2667 87.3009 35.224 87.1943 35.224H79.9303C79.8236 35.224 79.7276 35.2667 79.6423 35.352C79.5676 35.4267 79.5303 35.5173 79.5303 35.624V38.76C79.5303 38.8667 79.5676 38.9573 79.6423 39.032C79.7276 39.1067 79.8236 39.144 79.9303 39.144ZM92.4745 45C92.0905 45 91.7385 44.904 91.4185 44.712C91.1092 44.52 90.8585 44.2693 90.6665 43.96C90.4852 43.6507 90.3945 43.304 90.3945 42.92V39.496H98.0905V37.848C98.0905 37.7413 98.0532 37.6507 97.9785 37.576C97.9038 37.4907 97.8132 37.448 97.7065 37.448H90.3945V35.72H97.7545C98.1385 35.72 98.4852 35.816 98.7945 36.008C99.1145 36.1893 99.3652 36.44 99.5465 36.76C99.7385 37.08 99.8345 37.4267 99.8345 37.8V45H92.4745ZM92.5225 43.272H98.0905V41.112H92.1225V42.872C92.1225 42.9787 92.1598 43.0747 92.2345 43.16C92.3198 43.2347 92.4158 43.272 92.5225 43.272ZM102.976 48.552V46.808H108.656C108.763 46.808 108.853 46.7653 108.928 46.68C109.013 46.6053 109.056 46.5147 109.056 46.408V45H103.424C103.051 45 102.704 44.9093 102.384 44.728C102.064 44.536 101.808 44.28 101.616 43.96C101.435 43.64 101.344 43.2933 101.344 42.92V35.752H103.072V42.872C103.072 42.9787 103.109 43.0747 103.184 43.16C103.269 43.2347 103.365 43.272 103.472 43.272H108.656C108.763 43.272 108.853 43.2347 108.928 43.16C109.013 43.0747 109.056 42.9787 109.056 42.872V35.752H110.784V46.472C110.784 46.856 110.688 47.2027 110.496 47.512C110.315 47.832 110.064 48.0827 109.744 48.264C109.435 48.456 109.088 48.552 108.704 48.552H102.976ZM114.177 45C113.793 45 113.447 44.904 113.137 44.712C112.828 44.52 112.577 44.2693 112.385 43.96C112.193 43.6507 112.097 43.304 112.097 42.92V37.8C112.097 37.416 112.193 37.0693 112.385 36.76C112.577 36.4507 112.828 36.2 113.137 36.008C113.447 35.816 113.793 35.72 114.177 35.72H121.505V37.448H114.225C114.119 37.448 114.023 37.4907 113.937 37.576C113.863 37.6507 113.825 37.7413 113.825 37.848V42.872C113.825 42.9787 113.863 43.0747 113.937 43.16C114.023 43.2347 114.119 43.272 114.225 43.272H121.537V45H114.177ZM125.318 45C124.934 45 124.588 44.904 124.278 44.712C123.969 44.52 123.718 44.2693 123.526 43.96C123.334 43.6507 123.238 43.304 123.238 42.92V32.68H124.966V42.872C124.966 42.9787 125.004 43.0747 125.078 43.16C125.164 43.2347 125.26 43.272 125.366 43.272H127.046V45H125.318ZM128.457 45V35.72H130.185V45H128.457ZM128.457 34.408V32.68H130.185V34.408H128.457ZM133.88 45C133.496 45 133.15 44.904 132.84 44.712C132.531 44.52 132.28 44.2693 132.088 43.96C131.896 43.6507 131.8 43.304 131.8 42.92V37.8C131.8 37.416 131.896 37.0693 132.088 36.76C132.28 36.4507 132.531 36.2 132.84 36.008C133.15 35.816 133.496 35.72 133.88 35.72H141.208V37.448H133.928C133.822 37.448 133.726 37.4907 133.64 37.576C133.566 37.6507 133.528 37.7413 133.528 37.848V42.872C133.528 42.9787 133.566 43.0747 133.64 43.16C133.726 43.2347 133.822 43.272 133.928 43.272H141.24V45H133.88ZM142.614 45V32.68H144.342V39.496H146.422L149.894 35.72H151.878V36.04L147.958 40.36L151.878 44.68V45H149.894L146.422 41.224H144.342V45H142.614Z" fill="#FEFEFE"/>
<path d="M34.1834 76V67.6H39.3554V68.512H35.1914V71.32H39.0194V72.232H35.1914V75.088H39.4154V76H34.1834ZM41.3812 76V70.132H42.3052V70.864H42.4732C42.5852 70.656 42.7692 70.464 43.0252 70.288C43.2812 70.112 43.6412 70.024 44.1052 70.024C44.5612 70.024 44.9292 70.124 45.2092 70.324C45.4972 70.524 45.7052 70.768 45.8332 71.056H46.0012C46.1372 70.768 46.3412 70.524 46.6132 70.324C46.8932 70.124 47.2812 70.024 47.7772 70.024C48.1692 70.024 48.5132 70.104 48.8092 70.264C49.1052 70.424 49.3372 70.656 49.5052 70.96C49.6812 71.256 49.7692 71.612 49.7692 72.028V76H48.8212V72.112C48.8212 71.72 48.7052 71.412 48.4732 71.188C48.2492 70.956 47.9332 70.84 47.5252 70.84C47.0932 70.84 46.7372 70.98 46.4572 71.26C46.1852 71.54 46.0492 71.944 46.0492 72.472V76H45.1012V72.112C45.1012 71.72 44.9852 71.412 44.7532 71.188C44.5292 70.956 44.2132 70.84 43.8052 70.84C43.3732 70.84 43.0172 70.98 42.7372 71.26C42.4652 71.54 42.3292 71.944 42.3292 72.472V76H41.3812ZM53.9054 76.168C53.4974 76.168 53.1254 76.096 52.7894 75.952C52.4534 75.808 52.1894 75.6 51.9974 75.328C51.8054 75.056 51.7094 74.724 51.7094 74.332C51.7094 73.932 51.8054 73.604 51.9974 73.348C52.1894 73.084 52.4534 72.888 52.7894 72.76C53.1254 72.624 53.5014 72.556 53.9174 72.556H55.8974V72.124C55.8974 71.708 55.7734 71.38 55.5254 71.14C55.2854 70.9 54.9254 70.78 54.4454 70.78C53.9734 70.78 53.6054 70.896 53.3414 71.128C53.0774 71.352 52.8974 71.656 52.8014 72.04L51.9134 71.752C52.0094 71.424 52.1614 71.128 52.3694 70.864C52.5774 70.592 52.8534 70.376 53.1974 70.216C53.5494 70.048 53.9694 69.964 54.4574 69.964C55.2094 69.964 55.7934 70.16 56.2094 70.552C56.6254 70.936 56.8334 71.48 56.8334 72.184V74.836C56.8334 75.076 56.9454 75.196 57.1694 75.196H57.7094V76H56.8814C56.6174 76 56.4054 75.928 56.2454 75.784C56.0854 75.632 56.0054 75.432 56.0054 75.184V75.124H55.8614C55.7734 75.276 55.6534 75.436 55.5014 75.604C55.3574 75.764 55.1574 75.896 54.9014 76C54.6454 76.112 54.3134 76.168 53.9054 76.168ZM54.0134 75.352C54.5734 75.352 55.0254 75.188 55.3694 74.86C55.7214 74.524 55.8974 74.056 55.8974 73.456V73.324H53.9534C53.5774 73.324 53.2654 73.408 53.0174 73.576C52.7774 73.736 52.6574 73.98 52.6574 74.308C52.6574 74.636 52.7814 74.892 53.0294 75.076C53.2854 75.26 53.6134 75.352 54.0134 75.352ZM59.4077 76V70.132H60.3557V76H59.4077ZM59.8877 69.22C59.6797 69.22 59.5037 69.152 59.3597 69.016C59.2237 68.88 59.1557 68.708 59.1557 68.5C59.1557 68.284 59.2237 68.108 59.3597 67.972C59.5037 67.836 59.6797 67.768 59.8877 67.768C60.0957 67.768 60.2677 67.836 60.4037 67.972C60.5397 68.108 60.6077 68.284 60.6077 68.5C60.6077 68.708 60.5397 68.88 60.4037 69.016C60.2677 69.152 60.0957 69.22 59.8877 69.22ZM62.7491 76V67.6H63.6971V76H62.7491ZM66.6065 76.168C66.3745 76.168 66.1785 76.092 66.0185 75.94C65.8665 75.788 65.7905 75.592 65.7905 75.352C65.7905 75.112 65.8665 74.916 66.0185 74.764C66.1785 74.612 66.3745 74.536 66.6065 74.536C66.8465 74.536 67.0425 74.612 67.1945 74.764C67.3465 74.916 67.4225 75.112 67.4225 75.352C67.4225 75.592 67.3465 75.788 67.1945 75.94C67.0425 76.092 66.8465 76.168 66.6065 76.168ZM66.6065 71.596C66.3745 71.596 66.1785 71.52 66.0185 71.368C65.8665 71.216 65.7905 71.02 65.7905 70.78C65.7905 70.54 65.8665 70.344 66.0185 70.192C66.1785 70.04 66.3745 69.964 66.6065 69.964C66.8465 69.964 67.0425 70.04 67.1945 70.192C67.3465 70.344 67.4225 70.54 67.4225 70.78C67.4225 71.02 67.3465 71.216 67.1945 71.368C67.0425 71.52 66.8465 71.596 66.6065 71.596ZM72.9717 76V67.6H73.9797V71.332H77.9157V67.6H78.9237V76H77.9157V72.244H73.9797V76H72.9717ZM83.9707 76.168C83.3787 76.168 82.8587 76.044 82.4107 75.796C81.9627 75.54 81.6147 75.184 81.3667 74.728C81.1187 74.272 80.9947 73.744 80.9947 73.144V73C80.9947 72.392 81.1187 71.86 81.3667 71.404C81.6147 70.948 81.9587 70.596 82.3987 70.348C82.8387 70.092 83.3427 69.964 83.9107 69.964C84.4627 69.964 84.9507 70.084 85.3747 70.324C85.7987 70.556 86.1307 70.892 86.3707 71.332C86.6107 71.772 86.7307 72.288 86.7307 72.88V73.312H81.9427C81.9667 73.944 82.1707 74.44 82.5547 74.8C82.9387 75.152 83.4187 75.328 83.9947 75.328C84.4987 75.328 84.8867 75.212 85.1587 74.98C85.4307 74.748 85.6387 74.472 85.7827 74.152L86.5987 74.548C86.4787 74.796 86.3107 75.044 86.0947 75.292C85.8867 75.54 85.6107 75.748 85.2667 75.916C84.9307 76.084 84.4987 76.168 83.9707 76.168ZM81.9547 72.532H85.7707C85.7387 71.988 85.5507 71.564 85.2067 71.26C84.8707 70.956 84.4387 70.804 83.9107 70.804C83.3747 70.804 82.9347 70.956 82.5907 71.26C82.2467 71.564 82.0347 71.988 81.9547 72.532ZM88.7843 76V67.6H89.7323V76H88.7843ZM92.1257 76V67.6H93.0737V76H92.1257ZM98.1791 76.168C97.5871 76.168 97.0631 76.044 96.6071 75.796C96.1591 75.548 95.8071 75.2 95.5511 74.752C95.3031 74.296 95.1791 73.76 95.1791 73.144V72.988C95.1791 72.38 95.3031 71.848 95.5511 71.392C95.8071 70.936 96.1591 70.584 96.6071 70.336C97.0631 70.088 97.5871 69.964 98.1791 69.964C98.7711 69.964 99.2911 70.088 99.7391 70.336C100.195 70.584 100.547 70.936 100.795 71.392C101.051 71.848 101.179 72.38 101.179 72.988V73.144C101.179 73.76 101.051 74.296 100.795 74.752C100.547 75.2 100.195 75.548 99.7391 75.796C99.2911 76.044 98.7711 76.168 98.1791 76.168ZM98.1791 75.316C98.8031 75.316 99.2991 75.12 99.6671 74.728C100.043 74.328 100.231 73.792 100.231 73.12V73.012C100.231 72.34 100.043 71.808 99.6671 71.416C99.2991 71.016 98.8031 70.816 98.1791 70.816C97.5631 70.816 97.0671 71.016 96.6911 71.416C96.3151 71.808 96.1271 72.34 96.1271 73.012V73.12C96.1271 73.792 96.3151 74.328 96.6911 74.728C97.0671 75.12 97.5631 75.316 98.1791 75.316ZM108.673 78.4C107.601 78.4 106.653 78.192 105.829 77.776C105.013 77.36 104.373 76.76 103.909 75.976C103.445 75.184 103.213 74.224 103.213 73.096V72.844C103.213 71.724 103.433 70.772 103.873 69.988C104.313 69.196 104.925 68.592 105.709 68.176C106.501 67.76 107.417 67.552 108.457 67.552H108.709C109.701 67.552 110.573 67.756 111.325 68.164C112.077 68.564 112.665 69.136 113.089 69.88C113.513 70.624 113.725 71.516 113.725 72.556V72.964C113.725 73.98 113.537 74.74 113.161 75.244C112.793 75.748 112.269 76 111.589 76H111.193C110.865 76 110.617 75.928 110.449 75.784C110.281 75.632 110.197 75.432 110.197 75.184V75.064H110.029C109.965 75.232 109.861 75.4 109.717 75.568C109.581 75.728 109.393 75.864 109.153 75.976C108.921 76.088 108.621 76.144 108.253 76.144C107.781 76.144 107.357 76.016 106.981 75.76C106.605 75.504 106.309 75.152 106.093 74.704C105.885 74.256 105.781 73.756 105.781 73.204V72.988C105.781 72.42 105.885 71.916 106.093 71.476C106.301 71.036 106.589 70.688 106.957 70.432C107.325 70.176 107.745 70.048 108.217 70.048C108.577 70.048 108.873 70.1 109.105 70.204C109.337 70.3 109.521 70.424 109.657 70.576C109.793 70.728 109.901 70.88 109.981 71.032H110.149V70.192H111.073V74.848C111.073 74.968 111.093 75.052 111.133 75.1C111.181 75.148 111.261 75.172 111.373 75.172H111.517C111.965 75.172 112.285 75 112.477 74.656C112.677 74.304 112.777 73.724 112.777 72.916V72.58C112.777 71.692 112.613 70.94 112.285 70.324C111.957 69.7 111.489 69.224 110.881 68.896C110.273 68.568 109.545 68.404 108.697 68.404H108.493C107.621 68.404 106.861 68.572 106.213 68.908C105.565 69.244 105.061 69.744 104.701 70.408C104.341 71.072 104.161 71.896 104.161 72.88V73.072C104.161 74.048 104.349 74.872 104.725 75.544C105.109 76.208 105.645 76.708 106.333 77.044C107.021 77.38 107.817 77.548 108.721 77.548H111.073V78.4H108.673ZM108.433 75.292C108.937 75.292 109.349 75.104 109.669 74.728C109.989 74.352 110.149 73.828 110.149 73.156V73.036C110.149 72.364 109.989 71.84 109.669 71.464C109.349 71.08 108.937 70.888 108.433 70.888C107.929 70.888 107.517 71.08 107.197 71.464C106.877 71.848 106.717 72.368 106.717 73.024V73.168C106.717 73.816 106.877 74.332 107.197 74.716C107.517 75.1 107.929 75.292 108.433 75.292ZM116.001 78.4V70.132H116.925V71.104H117.093C117.245 70.808 117.489 70.544 117.825 70.312C118.169 70.08 118.645 69.964 119.253 69.964C119.757 69.964 120.217 70.088 120.633 70.336C121.057 70.576 121.393 70.92 121.641 71.368C121.897 71.816 122.025 72.356 122.025 72.988V73.144C122.025 73.768 121.901 74.308 121.653 74.764C121.405 75.22 121.069 75.568 120.645 75.808C120.229 76.048 119.765 76.168 119.253 76.168C118.845 76.168 118.497 76.112 118.209 76C117.929 75.896 117.701 75.76 117.525 75.592C117.349 75.424 117.213 75.252 117.117 75.076H116.949V78.4H116.001ZM119.001 75.328C119.609 75.328 120.101 75.136 120.477 74.752C120.861 74.36 121.053 73.816 121.053 73.12V73.012C121.053 72.316 120.861 71.776 120.477 71.392C120.101 71 119.609 70.804 119.001 70.804C118.401 70.804 117.905 71 117.513 71.392C117.129 71.776 116.937 72.316 116.937 73.012V73.12C116.937 73.816 117.129 74.36 117.513 74.752C117.905 75.136 118.401 75.328 119.001 75.328ZM125.924 76.168C125.516 76.168 125.144 76.096 124.808 75.952C124.472 75.808 124.208 75.6 124.016 75.328C123.824 75.056 123.728 74.724 123.728 74.332C123.728 73.932 123.824 73.604 124.016 73.348C124.208 73.084 124.472 72.888 124.808 72.76C125.144 72.624 125.52 72.556 125.936 72.556H127.916V72.124C127.916 71.708 127.792 71.38 127.544 71.14C127.304 70.9 126.944 70.78 126.464 70.78C125.992 70.78 125.624 70.896 125.36 71.128C125.096 71.352 124.916 71.656 124.82 72.04L123.932 71.752C124.028 71.424 124.18 71.128 124.388 70.864C124.596 70.592 124.872 70.376 125.216 70.216C125.568 70.048 125.988 69.964 126.476 69.964C127.228 69.964 127.812 70.16 128.228 70.552C128.644 70.936 128.852 71.48 128.852 72.184V74.836C128.852 75.076 128.964 75.196 129.188 75.196H129.728V76H128.9C128.636 76 128.424 75.928 128.264 75.784C128.104 75.632 128.024 75.432 128.024 75.184V75.124H127.88C127.792 75.276 127.672 75.436 127.52 75.604C127.376 75.764 127.176 75.896 126.92 76C126.664 76.112 126.332 76.168 125.924 76.168ZM126.032 75.352C126.592 75.352 127.044 75.188 127.388 74.86C127.74 74.524 127.916 74.056 127.916 73.456V73.324H125.972C125.596 73.324 125.284 73.408 125.036 73.576C124.796 73.736 124.676 73.98 124.676 74.308C124.676 74.636 124.8 74.892 125.048 75.076C125.304 75.26 125.632 75.352 126.032 75.352ZM131.982 78.4V77.56H135.342C135.574 77.56 135.69 77.44 135.69 77.2V75.064H135.522C135.442 75.232 135.318 75.4 135.15 75.568C134.99 75.728 134.778 75.86 134.514 75.964C134.25 76.06 133.918 76.108 133.518 76.108C133.094 76.108 132.702 76.016 132.342 75.832C131.99 75.648 131.71 75.376 131.502 75.016C131.302 74.656 131.202 74.216 131.202 73.696V70.132H132.15V73.624C132.15 74.2 132.294 74.62 132.582 74.884C132.878 75.148 133.274 75.28 133.77 75.28C134.33 75.28 134.79 75.096 135.15 74.728C135.51 74.36 135.69 73.812 135.69 73.084V70.132H136.638V77.368C136.638 77.688 136.546 77.94 136.362 78.124C136.186 78.308 135.926 78.4 135.582 78.4H131.982ZM141.722 76.168C141.154 76.168 140.642 76.048 140.186 75.808C139.738 75.56 139.382 75.208 139.118 74.752C138.862 74.296 138.734 73.756 138.734 73.132V73C138.734 72.368 138.862 71.828 139.118 71.38C139.382 70.924 139.738 70.576 140.186 70.336C140.642 70.088 141.154 69.964 141.722 69.964C142.282 69.964 142.758 70.068 143.15 70.276C143.55 70.484 143.862 70.76 144.086 71.104C144.318 71.448 144.466 71.816 144.53 72.208L143.606 72.4C143.566 72.112 143.47 71.848 143.318 71.608C143.174 71.368 142.97 71.176 142.706 71.032C142.442 70.888 142.118 70.816 141.734 70.816C141.342 70.816 140.99 70.904 140.678 71.08C140.374 71.256 140.13 71.508 139.946 71.836C139.77 72.164 139.682 72.556 139.682 73.012V73.12C139.682 73.576 139.77 73.968 139.946 74.296C140.13 74.624 140.374 74.876 140.678 75.052C140.99 75.228 141.342 75.316 141.734 75.316C142.318 75.316 142.762 75.164 143.066 74.86C143.378 74.556 143.57 74.18 143.642 73.732L144.578 73.936C144.49 74.32 144.33 74.684 144.098 75.028C143.866 75.372 143.55 75.648 143.15 75.856C142.758 76.064 142.282 76.168 141.722 76.168ZM146.594 76V67.6H147.542V76H146.594ZM149.935 76V70.132H150.883V76H149.935ZM150.415 69.22C150.207 69.22 150.031 69.152 149.887 69.016C149.751 68.88 149.683 68.708 149.683 68.5C149.683 68.284 149.751 68.108 149.887 67.972C150.031 67.836 150.207 67.768 150.415 67.768C150.623 67.768 150.795 67.836 150.931 67.972C151.067 68.108 151.135 68.284 151.135 68.5C151.135 68.708 151.067 68.88 150.931 69.016C150.795 69.152 150.623 69.22 150.415 69.22ZM155.976 76.168C155.408 76.168 154.896 76.048 154.44 75.808C153.992 75.56 153.636 75.208 153.372 74.752C153.116 74.296 152.988 73.756 152.988 73.132V73C152.988 72.368 153.116 71.828 153.372 71.38C153.636 70.924 153.992 70.576 154.44 70.336C154.896 70.088 155.408 69.964 155.976 69.964C156.536 69.964 157.012 70.068 157.404 70.276C157.804 70.484 158.116 70.76 158.34 71.104C158.572 71.448 158.72 71.816 158.784 72.208L157.86 72.4C157.82 72.112 157.724 71.848 157.572 71.608C157.428 71.368 157.224 71.176 156.96 71.032C156.696 70.888 156.372 70.816 155.988 70.816C155.596 70.816 155.244 70.904 154.932 71.08C154.628 71.256 154.384 71.508 154.2 71.836C154.024 72.164 153.936 72.556 153.936 73.012V73.12C153.936 73.576 154.024 73.968 154.2 74.296C154.384 74.624 154.628 74.876 154.932 75.052C155.244 75.228 155.596 75.316 155.988 75.316C156.572 75.316 157.016 75.164 157.32 74.86C157.632 74.556 157.824 74.18 157.896 73.732L158.832 73.936C158.744 74.32 158.584 74.684 158.352 75.028C158.12 75.372 157.804 75.648 157.404 75.856C157.012 76.064 156.536 76.168 155.976 76.168ZM160.848 76V67.6H161.796V72.544H161.964L164.652 70.132H165.972L162.72 72.988L166.068 76H164.76L161.964 73.444H161.796V76H160.848ZM168.221 76.168C167.989 76.168 167.793 76.092 167.633 75.94C167.481 75.788 167.405 75.592 167.405 75.352C167.405 75.112 167.481 74.916 167.633 74.764C167.793 74.612 167.989 74.536 168.221 74.536C168.461 74.536 168.657 74.612 168.809 74.764C168.961 74.916 169.037 75.112 169.037 75.352C169.037 75.592 168.961 75.788 168.809 75.94C168.657 76.092 168.461 76.168 168.221 76.168ZM173.759 76.168C173.191 76.168 172.679 76.048 172.223 75.808C171.775 75.56 171.419 75.208 171.155 74.752C170.899 74.296 170.771 73.756 170.771 73.132V73C170.771 72.368 170.899 71.828 171.155 71.38C171.419 70.924 171.775 70.576 172.223 70.336C172.679 70.088 173.191 69.964 173.759 69.964C174.319 69.964 174.795 70.068 175.187 70.276C175.587 70.484 175.899 70.76 176.122 71.104C176.355 71.448 176.503 71.816 176.567 72.208L175.643 72.4C175.603 72.112 175.507 71.848 175.355 71.608C175.211 71.368 175.007 71.176 174.743 71.032C174.479 70.888 174.155 70.816 173.771 70.816C173.379 70.816 173.027 70.904 172.715 71.08C172.411 71.256 172.167 71.508 171.983 71.836C171.807 72.164 171.719 72.556 171.719 73.012V73.12C171.719 73.576 171.807 73.968 171.983 74.296C172.167 74.624 172.411 74.876 172.715 75.052C173.027 75.228 173.379 75.316 173.771 75.316C174.355 75.316 174.799 75.164 175.103 74.86C175.415 74.556 175.607 74.18 175.679 73.732L176.615 73.936C176.527 74.32 176.367 74.684 176.135 75.028C175.903 75.372 175.587 75.648 175.187 75.856C174.795 76.064 174.319 76.168 173.759 76.168ZM181.342 76.168C180.75 76.168 180.226 76.044 179.77 75.796C179.322 75.548 178.97 75.2 178.714 74.752C178.466 74.296 178.342 73.76 178.342 73.144V72.988C178.342 72.38 178.466 71.848 178.714 71.392C178.97 70.936 179.322 70.584 179.77 70.336C180.226 70.088 180.75 69.964 181.342 69.964C181.934 69.964 182.454 70.088 182.902 70.336C183.358 70.584 183.71 70.936 183.958 71.392C184.214 71.848 184.342 72.38 184.342 72.988V73.144C184.342 73.76 184.214 74.296 183.958 74.752C183.71 75.2 183.358 75.548 182.902 75.796C182.454 76.044 181.934 76.168 181.342 76.168ZM181.342 75.316C181.966 75.316 182.462 75.12 182.83 74.728C183.206 74.328 183.394 73.792 183.394 73.12V73.012C183.394 72.34 183.206 71.808 182.83 71.416C182.462 71.016 181.966 70.816 181.342 70.816C180.726 70.816 180.23 71.016 179.854 71.416C179.478 71.808 179.29 72.34 179.29 73.012V73.12C179.29 73.792 179.478 74.328 179.854 74.728C180.23 75.12 180.726 75.316 181.342 75.316ZM186.448 76V70.132H187.372V70.864H187.54C187.652 70.656 187.836 70.464 188.092 70.288C188.348 70.112 188.708 70.024 189.172 70.024C189.628 70.024 189.996 70.124 190.276 70.324C190.564 70.524 190.772 70.768 190.9 71.056H191.068C191.204 70.768 191.408 70.524 191.68 70.324C191.96 70.124 192.348 70.024 192.844 70.024C193.236 70.024 193.58 70.104 193.876 70.264C194.172 70.424 194.404 70.656 194.572 70.96C194.748 71.256 194.836 71.612 194.836 72.028V76H193.888V72.112C193.888 71.72 193.772 71.412 193.54 71.188C193.316 70.956 193 70.84 192.592 70.84C192.16 70.84 191.804 70.98 191.524 71.26C191.252 71.54 191.116 71.944 191.116 72.472V76H190.168V72.112C190.168 71.72 190.052 71.412 189.82 71.188C189.596 70.956 189.28 70.84 188.872 70.84C188.44 70.84 188.084 70.98 187.804 71.26C187.532 71.54 187.396 71.944 187.396 72.472V76H186.448Z" fill="#FEFEFE"/>
<defs>
<linearGradient id="paint0_linear_438_34217" x1="114.5" y1="11" x2="114.5" y2="108" gradientUnits="userSpaceOnUse">
<stop stop-opacity="0.5"/>
<stop offset="1" stop-opacity="0.2"/>
</linearGradient>
<linearGradient id="paint1_linear_438_34217" x1="114.5" y1="11" x2="114.5" y2="108" gradientUnits="userSpaceOnUse">
<stop stop-color="#1F89DB"/>
<stop offset="1" stop-color="#F42A8B"/>
</linearGradient>
</defs>
</svg>
