<svg width="310" height="386" viewBox="0 0 310 386" fill="none" xmlns="http://www.w3.org/2000/svg">
<g clip-path="url(#clip0_438_28671)">
<path d="M0 16C0 7.16345 7.16344 0 16 0H294C302.837 0 310 7.16344 310 16V370C310 378.837 302.837 386 294 386H16C7.16345 386 0 378.837 0 370V16Z" fill="#CEA25D"/>
<path d="M41.5 285.875H26.5C21.025 285.875 17.875 282.725 17.875 277.25V266.75C17.875 261.275 21.025 258.125 26.5 258.125H41.5C46.975 258.125 50.125 261.275 50.125 266.75V277.25C50.125 282.725 46.975 285.875 41.5 285.875ZM26.5 260.375C22.21 260.375 20.125 262.46 20.125 266.75V277.25C20.125 281.54 22.21 283.625 26.5 283.625H41.5C45.79 283.625 47.875 281.54 47.875 277.25V266.75C47.875 262.46 45.79 260.375 41.5 260.375H26.5Z" fill="#FEFEFE"/>
<path d="M34 277.625C30.895 277.625 28.375 275.105 28.375 272C28.375 268.895 30.895 266.375 34 266.375C37.105 266.375 39.625 268.895 39.625 272C39.625 275.105 37.105 277.625 34 277.625ZM34 268.625C32.14 268.625 30.625 270.14 30.625 272C30.625 273.86 32.14 275.375 34 275.375C35.86 275.375 37.375 273.86 37.375 272C37.375 270.14 35.86 268.625 34 268.625Z" fill="#FEFEFE"/>
<path d="M22.75 270.125C22.135 270.125 21.625 269.615 21.625 269V266.75C21.625 264.065 23.815 261.875 26.5 261.875H28.75C29.365 261.875 29.875 262.385 29.875 263C29.875 263.615 29.365 264.125 28.75 264.125H26.5C25.06 264.125 23.875 265.31 23.875 266.75V269C23.875 269.615 23.365 270.125 22.75 270.125Z" fill="#FEFEFE"/>
<path d="M45.25 270.125C44.635 270.125 44.125 269.615 44.125 269V266.75C44.125 265.31 42.94 264.125 41.5 264.125H39.25C38.635 264.125 38.125 263.615 38.125 263C38.125 262.385 38.635 261.875 39.25 261.875H41.5C44.185 261.875 46.375 264.065 46.375 266.75V269C46.375 269.615 45.865 270.125 45.25 270.125Z" fill="#FEFEFE"/>
<path d="M28.75 282.125H26.5C23.815 282.125 21.625 279.935 21.625 277.25V275C21.625 274.385 22.135 273.875 22.75 273.875C23.365 273.875 23.875 274.385 23.875 275V277.25C23.875 278.69 25.06 279.875 26.5 279.875H28.75C29.365 279.875 29.875 280.385 29.875 281C29.875 281.615 29.365 282.125 28.75 282.125Z" fill="#FEFEFE"/>
<path d="M41.5 282.125H39.25C38.635 282.125 38.125 281.615 38.125 281C38.125 280.385 38.635 279.875 39.25 279.875H41.5C42.94 279.875 44.125 278.69 44.125 277.25V275C44.125 274.385 44.635 273.875 45.25 273.875C45.865 273.875 46.375 274.385 46.375 275V277.25C46.375 279.935 44.185 282.125 41.5 282.125Z" fill="#FEFEFE"/>
<path d="M16.504 322L21.304 305.2H25.864L30.64 322H27.976L26.872 318.04H20.296L19.192 322H16.504ZM20.944 315.64H26.224L23.776 306.808H23.392L20.944 315.64ZM37.5241 322.216C36.6281 322.216 35.8281 322.016 35.1241 321.616C34.4201 321.216 33.8681 320.648 33.4681 319.912C33.0681 319.176 32.8681 318.296 32.8681 317.272V310.168H35.3401V317.104C35.3401 318.128 35.5961 318.888 36.1081 319.384C36.6201 319.864 37.3321 320.104 38.2441 320.104C39.2521 320.104 40.0601 319.768 40.6681 319.096C41.2921 318.408 41.6041 317.424 41.6041 316.144V310.168H44.0761V322H41.6521V320.224H41.2681C41.0441 320.704 40.6441 321.16 40.0681 321.592C39.4921 322.008 38.6441 322.216 37.5241 322.216ZM52.1703 322C51.4503 322 50.8743 321.784 50.4423 321.352C50.0263 320.92 49.8183 320.344 49.8183 319.624V312.256H46.5543V310.168H49.8183V306.256H52.2903V310.168H55.8183V312.256H52.2903V319.192C52.2903 319.672 52.5143 319.912 52.9622 319.912H55.4343V322H52.1703ZM63.8446 322.336C62.6606 322.336 61.6046 322.096 60.6766 321.616C59.7646 321.12 59.0446 320.416 58.5166 319.504C57.9886 318.592 57.7246 317.512 57.7246 316.264V315.904C57.7246 314.656 57.9886 313.584 58.5166 312.688C59.0446 311.776 59.7646 311.072 60.6766 310.576C61.6046 310.08 62.6606 309.832 63.8446 309.832C65.0286 309.832 66.0846 310.08 67.0126 310.576C67.9406 311.072 68.6686 311.776 69.1966 312.688C69.7246 313.584 69.9886 314.656 69.9886 315.904V316.264C69.9886 317.512 69.7246 318.592 69.1966 319.504C68.6686 320.416 67.9406 321.12 67.0126 321.616C66.0846 322.096 65.0286 322.336 63.8446 322.336ZM63.8446 320.128C64.9326 320.128 65.8126 319.784 66.4846 319.096C67.1726 318.392 67.5166 317.424 67.5166 316.192V315.976C67.5166 314.744 67.1806 313.784 66.5086 313.096C65.8366 312.392 64.9486 312.04 63.8446 312.04C62.7726 312.04 61.8926 312.392 61.2046 313.096C60.5326 313.784 60.1966 314.744 60.1966 315.976V316.192C60.1966 317.424 60.5326 318.392 61.2046 319.096C61.8926 319.784 62.7726 320.128 63.8446 320.128ZM73.0662 322V310.168H75.4902V311.56H75.8742C76.0982 311.144 76.4582 310.776 76.9542 310.456C77.4502 310.136 78.1222 309.976 78.9702 309.976C79.8502 309.976 80.5542 310.16 81.0822 310.528C81.6262 310.88 82.0342 311.336 82.3062 311.896H82.6902C82.9622 311.352 83.3542 310.896 83.8662 310.528C84.3942 310.16 85.1382 309.976 86.0982 309.976C86.8662 309.976 87.5462 310.136 88.1382 310.456C88.7302 310.76 89.2022 311.224 89.5542 311.848C89.9062 312.456 90.0822 313.216 90.0822 314.128V322H87.6102V314.32C87.6102 313.6 87.4102 313.048 87.0102 312.664C86.6262 312.264 86.0742 312.064 85.3542 312.064C84.5862 312.064 83.9702 312.312 83.5062 312.808C83.0422 313.304 82.8102 314.016 82.8102 314.944V322H80.3382V314.32C80.3382 313.6 80.1382 313.048 79.7382 312.664C79.3542 312.264 78.8022 312.064 78.0822 312.064C77.3142 312.064 76.6982 312.312 76.2342 312.808C75.7702 313.304 75.5382 314.016 75.5382 314.944V322H73.0662ZM97.3163 322.336C96.4683 322.336 95.7083 322.192 95.0363 321.904C94.3803 321.616 93.8523 321.192 93.4523 320.632C93.0683 320.072 92.8763 319.392 92.8763 318.592C92.8763 317.776 93.0683 317.104 93.4523 316.576C93.8523 316.032 94.3883 315.624 95.0603 315.352C95.7483 315.08 96.5243 314.944 97.3883 314.944H100.988V314.176C100.988 313.488 100.78 312.936 100.364 312.52C99.9483 312.104 99.3083 311.896 98.4443 311.896C97.5963 311.896 96.9483 312.096 96.5003 312.496C96.0523 312.896 95.7563 313.416 95.6123 314.056L93.3083 313.312C93.5003 312.672 93.8043 312.096 94.2203 311.584C94.6523 311.056 95.2203 310.632 95.9243 310.312C96.6283 309.992 97.4763 309.832 98.4683 309.832C100.004 309.832 101.212 310.224 102.092 311.008C102.972 311.792 103.412 312.904 103.412 314.344V319.216C103.412 319.696 103.636 319.936 104.084 319.936H105.092V322H103.244C102.684 322 102.228 321.856 101.876 321.568C101.524 321.28 101.348 320.888 101.348 320.392V320.32H100.988C100.86 320.56 100.668 320.84 100.412 321.16C100.156 321.48 99.7803 321.76 99.2843 322C98.7883 322.224 98.1323 322.336 97.3163 322.336ZM97.6763 320.296C98.6683 320.296 99.4683 320.016 100.076 319.456C100.684 318.88 100.988 318.096 100.988 317.104V316.864H97.5323C96.8763 316.864 96.3483 317.008 95.9483 317.296C95.5483 317.568 95.3483 317.976 95.3483 318.52C95.3483 319.064 95.5563 319.496 95.9723 319.816C96.3883 320.136 96.9563 320.296 97.6763 320.296ZM111.116 322C110.396 322 109.82 321.784 109.388 321.352C108.972 320.92 108.764 320.344 108.764 319.624V312.256H105.5V310.168H108.764V306.256H111.236V310.168H114.764V312.256H111.236V319.192C111.236 319.672 111.46 319.912 111.908 319.912H114.38V322H111.116ZM122.67 322.336C121.47 322.336 120.422 322.088 119.526 321.592C118.63 321.08 117.926 320.368 117.414 319.456C116.918 318.528 116.67 317.456 116.67 316.24V315.952C116.67 314.72 116.918 313.648 117.414 312.736C117.91 311.808 118.598 311.096 119.478 310.6C120.374 310.088 121.406 309.832 122.574 309.832C123.71 309.832 124.702 310.088 125.55 310.6C126.414 311.096 127.086 311.792 127.566 312.688C128.046 313.584 128.286 314.632 128.286 315.832V316.768H119.19C119.222 317.808 119.566 318.64 120.222 319.264C120.894 319.872 121.726 320.176 122.718 320.176C123.646 320.176 124.342 319.968 124.806 319.552C125.286 319.136 125.654 318.656 125.91 318.112L127.95 319.168C127.726 319.616 127.398 320.088 126.966 320.584C126.55 321.08 125.998 321.496 125.31 321.832C124.622 322.168 123.742 322.336 122.67 322.336ZM119.214 314.872H125.766C125.702 313.976 125.382 313.28 124.806 312.784C124.23 312.272 123.478 312.016 122.55 312.016C121.622 312.016 120.862 312.272 120.27 312.784C119.694 313.28 119.342 313.976 119.214 314.872ZM136.158 322.336C135.182 322.336 134.278 322.096 133.446 321.616C132.614 321.136 131.942 320.448 131.43 319.552C130.934 318.64 130.686 317.544 130.686 316.264V315.904C130.686 314.64 130.934 313.552 131.43 312.64C131.926 311.728 132.59 311.032 133.422 310.552C134.254 310.072 135.166 309.832 136.158 309.832C136.926 309.832 137.566 309.928 138.078 310.12C138.606 310.312 139.038 310.56 139.374 310.864C139.71 311.152 139.966 311.456 140.142 311.776H140.526V305.2H142.997V322H140.574V320.32H140.19C139.886 320.832 139.422 321.296 138.798 321.712C138.19 322.128 137.31 322.336 136.158 322.336ZM136.854 320.176C137.926 320.176 138.806 319.832 139.494 319.144C140.198 318.456 140.55 317.472 140.55 316.192V315.976C140.55 314.712 140.206 313.736 139.518 313.048C138.83 312.36 137.942 312.016 136.854 312.016C135.798 312.016 134.918 312.36 134.214 313.048C133.526 313.736 133.182 314.712 133.182 315.976V316.192C133.182 317.472 133.526 318.456 134.214 319.144C134.918 319.832 135.798 320.176 136.854 320.176ZM156.01 322V307.552H150.85V305.2H163.762V307.552H158.602V322H156.01ZM167.769 322.336C166.921 322.336 166.161 322.192 165.489 321.904C164.833 321.616 164.305 321.192 163.905 320.632C163.521 320.072 163.329 319.392 163.329 318.592C163.329 317.776 163.521 317.104 163.905 316.576C164.305 316.032 164.841 315.624 165.513 315.352C166.201 315.08 166.977 314.944 167.841 314.944H171.441V314.176C171.441 313.488 171.233 312.936 170.817 312.52C170.401 312.104 169.761 311.896 168.897 311.896C168.049 311.896 167.401 312.096 166.953 312.496C166.505 312.896 166.209 313.416 166.065 314.056L163.761 313.312C163.953 312.672 164.257 312.096 164.673 311.584C165.105 311.056 165.673 310.632 166.377 310.312C167.081 309.992 167.929 309.832 168.921 309.832C170.457 309.832 171.665 310.224 172.545 311.008C173.425 311.792 173.865 312.904 173.865 314.344V319.216C173.865 319.696 174.089 319.936 174.537 319.936H175.545V322H173.697C173.137 322 172.681 321.856 172.329 321.568C171.977 321.28 171.801 320.888 171.801 320.392V320.32H171.441C171.313 320.56 171.121 320.84 170.865 321.16C170.609 321.48 170.233 321.76 169.737 322C169.241 322.224 168.585 322.336 167.769 322.336ZM168.129 320.296C169.121 320.296 169.921 320.016 170.529 319.456C171.137 318.88 171.441 318.096 171.441 317.104V316.864H167.985C167.329 316.864 166.801 317.008 166.401 317.296C166.001 317.568 165.801 317.976 165.801 318.52C165.801 319.064 166.009 319.496 166.425 319.816C166.841 320.136 167.409 320.296 168.129 320.296ZM176.941 322L181.453 316.024L177.037 310.168H179.941L183.037 314.416H183.421L186.517 310.168H189.445L185.005 316.024L189.517 322H186.565L183.421 317.656H183.037L179.893 322H176.941ZM23.992 354.336C21.944 354.336 20.32 353.76 19.12 352.608C17.92 351.44 17.32 349.76 17.32 347.568V343.632C17.32 341.44 17.92 339.768 19.12 338.616C20.32 337.448 21.944 336.864 23.992 336.864C26.008 336.864 27.56 337.424 28.648 338.544C29.752 339.664 30.304 341.192 30.304 343.128V343.272H27.736V343.056C27.736 341.92 27.424 340.992 26.8 340.272C26.192 339.552 25.256 339.192 23.992 339.192C22.712 339.192 21.712 339.584 20.992 340.368C20.272 341.136 19.912 342.208 19.912 343.584V347.616C19.912 348.976 20.272 350.048 20.992 350.832C21.712 351.616 22.712 352.008 23.992 352.008C25.256 352.008 26.192 351.648 26.8 350.928C27.424 350.192 27.736 349.264 27.736 348.144V347.736H30.304V348.072C30.304 350.008 29.752 351.536 28.648 352.656C27.56 353.776 26.008 354.336 23.992 354.336ZM36.9179 354.336C36.0699 354.336 35.3099 354.192 34.6379 353.904C33.9819 353.616 33.4539 353.192 33.0539 352.632C32.6699 352.072 32.4779 351.392 32.4779 350.592C32.4779 349.776 32.6699 349.104 33.0539 348.576C33.4539 348.032 33.9899 347.624 34.6619 347.352C35.3499 347.08 36.1259 346.944 36.9899 346.944H40.5899V346.176C40.5899 345.488 40.3819 344.936 39.9659 344.52C39.5499 344.104 38.9099 343.896 38.0459 343.896C37.1979 343.896 36.5499 344.096 36.1019 344.496C35.6539 344.896 35.3579 345.416 35.2139 346.056L32.9099 345.312C33.1019 344.672 33.4059 344.096 33.8219 343.584C34.2539 343.056 34.8219 342.632 35.5259 342.312C36.2299 341.992 37.0779 341.832 38.0699 341.832C39.6059 341.832 40.8139 342.224 41.6939 343.008C42.5739 343.792 43.0139 344.904 43.0139 346.344V351.216C43.0139 351.696 43.2379 351.936 43.6859 351.936H44.6939V354H42.8459C42.2859 354 41.8299 353.856 41.4779 353.568C41.1259 353.28 40.9499 352.888 40.9499 352.392V352.32H40.5899C40.4619 352.56 40.2699 352.84 40.0139 353.16C39.7579 353.48 39.3819 353.76 38.8859 354C38.3899 354.224 37.7339 354.336 36.9179 354.336ZM37.2779 352.296C38.2699 352.296 39.0699 352.016 39.6779 351.456C40.2859 350.88 40.5899 350.096 40.5899 349.104V348.864H37.1339C36.4779 348.864 35.9499 349.008 35.5499 349.296C35.1499 349.568 34.9499 349.976 34.9499 350.52C34.9499 351.064 35.1579 351.496 35.5739 351.816C35.9899 352.136 36.5579 352.296 37.2779 352.296ZM47.0974 354V337.2H49.5694V354H47.0974ZM58.7341 354.336C57.5981 354.336 56.5661 354.096 55.6381 353.616C54.7261 353.136 53.9981 352.44 53.4541 351.528C52.9261 350.616 52.6621 349.52 52.6621 348.24V347.928C52.6621 346.648 52.9261 345.56 53.4541 344.664C53.9981 343.752 54.7261 343.056 55.6381 342.576C56.5661 342.08 57.5981 341.832 58.7341 341.832C59.8701 341.832 60.8381 342.04 61.6381 342.456C62.4381 342.872 63.0781 343.424 63.5581 344.112C64.0541 344.8 64.3741 345.56 64.5181 346.392L62.1181 346.896C62.0381 346.368 61.8701 345.888 61.6141 345.456C61.3581 345.024 60.9981 344.68 60.5341 344.424C60.0701 344.168 59.4861 344.04 58.7821 344.04C58.0941 344.04 57.4701 344.2 56.9101 344.52C56.3661 344.824 55.9341 345.272 55.6141 345.864C55.2941 346.44 55.1341 347.144 55.1341 347.976V348.192C55.1341 349.024 55.2941 349.736 55.6141 350.328C55.9341 350.92 56.3661 351.368 56.9101 351.672C57.4701 351.976 58.0941 352.128 58.7821 352.128C59.8221 352.128 60.6141 351.864 61.1581 351.336C61.7021 350.792 62.0461 350.104 62.1901 349.272L64.5901 349.824C64.3981 350.64 64.0541 351.392 63.5581 352.08C63.0781 352.768 62.4381 353.32 61.6381 353.736C60.8381 354.136 59.8701 354.336 58.7341 354.336ZM71.9772 354.216C71.0812 354.216 70.2812 354.016 69.5772 353.616C68.8732 353.216 68.3212 352.648 67.9212 351.912C67.5212 351.176 67.3212 350.296 67.3212 349.272V342.168H69.7932V349.104C69.7932 350.128 70.0492 350.888 70.5612 351.384C71.0732 351.864 71.7852 352.104 72.6972 352.104C73.7052 352.104 74.5132 351.768 75.1212 351.096C75.7452 350.408 76.0572 349.424 76.0572 348.144V342.168H78.5292V354H76.1052V352.224H75.7212C75.4972 352.704 75.0972 353.16 74.5212 353.592C73.9452 354.008 73.0972 354.216 71.9772 354.216ZM82.1834 354V337.2H84.6554V354H82.1834ZM91.996 354.336C91.148 354.336 90.388 354.192 89.716 353.904C89.06 353.616 88.532 353.192 88.132 352.632C87.748 352.072 87.556 351.392 87.556 350.592C87.556 349.776 87.748 349.104 88.132 348.576C88.532 348.032 89.068 347.624 89.74 347.352C90.428 347.08 91.204 346.944 92.068 346.944H95.668V346.176C95.668 345.488 95.46 344.936 95.044 344.52C94.628 344.104 93.988 343.896 93.124 343.896C92.276 343.896 91.628 344.096 91.18 344.496C90.732 344.896 90.436 345.416 90.292 346.056L87.988 345.312C88.18 344.672 88.484 344.096 88.9 343.584C89.332 343.056 89.9 342.632 90.604 342.312C91.308 341.992 92.156 341.832 93.148 341.832C94.684 341.832 95.892 342.224 96.772 343.008C97.652 343.792 98.092 344.904 98.092 346.344V351.216C98.092 351.696 98.316 351.936 98.764 351.936H99.772V354H97.924C97.364 354 96.908 353.856 96.556 353.568C96.204 353.28 96.028 352.888 96.028 352.392V352.32H95.668C95.54 352.56 95.348 352.84 95.092 353.16C94.836 353.48 94.46 353.76 93.964 354C93.468 354.224 92.812 354.336 91.996 354.336ZM92.356 352.296C93.348 352.296 94.148 352.016 94.756 351.456C95.364 350.88 95.668 350.096 95.668 349.104V348.864H92.212C91.556 348.864 91.028 349.008 90.628 349.296C90.228 349.568 90.028 349.976 90.028 350.52C90.028 351.064 90.236 351.496 90.652 351.816C91.068 352.136 91.636 352.296 92.356 352.296ZM105.795 354C105.075 354 104.499 353.784 104.067 353.352C103.651 352.92 103.443 352.344 103.443 351.624V344.256H100.179V342.168H103.443V338.256H105.915V342.168H109.443V344.256H105.915V351.192C105.915 351.672 106.139 351.912 106.587 351.912H109.059V354H105.795ZM112.347 354V342.168H114.819V354H112.347ZM113.595 340.56C113.115 340.56 112.707 340.408 112.371 340.104C112.051 339.784 111.891 339.376 111.891 338.88C111.891 338.384 112.051 337.984 112.371 337.68C112.707 337.36 113.115 337.2 113.595 337.2C114.091 337.2 114.499 337.36 114.819 337.68C115.139 337.984 115.299 338.384 115.299 338.88C115.299 339.376 115.139 339.784 114.819 340.104C114.499 340.408 114.091 340.56 113.595 340.56ZM124.032 354.336C122.848 354.336 121.792 354.096 120.864 353.616C119.952 353.12 119.232 352.416 118.704 351.504C118.176 350.592 117.912 349.512 117.912 348.264V347.904C117.912 346.656 118.176 345.584 118.704 344.688C119.232 343.776 119.952 343.072 120.864 342.576C121.792 342.08 122.848 341.832 124.032 341.832C125.216 341.832 126.272 342.08 127.2 342.576C128.128 343.072 128.856 343.776 129.384 344.688C129.912 345.584 130.176 346.656 130.176 347.904V348.264C130.176 349.512 129.912 350.592 129.384 351.504C128.856 352.416 128.128 353.12 127.2 353.616C126.272 354.096 125.216 354.336 124.032 354.336ZM124.032 352.128C125.12 352.128 126 351.784 126.672 351.096C127.36 350.392 127.704 349.424 127.704 348.192V347.976C127.704 346.744 127.368 345.784 126.696 345.096C126.024 344.392 125.136 344.04 124.032 344.04C122.96 344.04 122.08 344.392 121.392 345.096C120.72 345.784 120.384 346.744 120.384 347.976V348.192C120.384 349.424 120.72 350.392 121.392 351.096C122.08 351.784 122.96 352.128 124.032 352.128ZM133.254 354V342.168H135.678V343.944H136.062C136.286 343.464 136.686 343.016 137.262 342.6C137.838 342.184 138.694 341.976 139.83 341.976C140.726 341.976 141.518 342.176 142.206 342.576C142.91 342.976 143.462 343.544 143.862 344.28C144.262 345 144.462 345.872 144.462 346.896V354H141.99V347.088C141.99 346.064 141.734 345.312 141.222 344.832C140.71 344.336 140.006 344.088 139.11 344.088C138.086 344.088 137.262 344.424 136.638 345.096C136.03 345.768 135.726 346.744 135.726 348.024V354H133.254ZM152.867 354.336C151.363 354.336 150.115 354 149.123 353.328C148.131 352.656 147.523 351.64 147.299 350.28L149.603 349.728C149.731 350.384 149.947 350.904 150.251 351.288C150.555 351.672 150.931 351.944 151.379 352.104C151.843 352.264 152.339 352.344 152.867 352.344C153.651 352.344 154.251 352.192 154.667 351.888C155.099 351.584 155.315 351.192 155.315 350.712C155.315 350.232 155.115 349.88 154.715 349.656C154.315 349.432 153.723 349.248 152.939 349.104L152.123 348.96C151.323 348.816 150.595 348.608 149.939 348.336C149.283 348.064 148.763 347.688 148.379 347.208C147.995 346.728 147.803 346.112 147.803 345.36C147.803 344.24 148.219 343.376 149.051 342.768C149.883 342.144 150.987 341.832 152.363 341.832C153.691 341.832 154.779 342.136 155.627 342.744C156.491 343.336 157.051 344.144 157.307 345.168L155.003 345.816C154.859 345.096 154.555 344.592 154.091 344.304C153.627 344 153.051 343.848 152.363 343.848C151.691 343.848 151.163 343.976 150.779 344.232C150.395 344.472 150.203 344.816 150.203 345.264C150.203 345.744 150.387 346.096 150.755 346.32C151.139 346.544 151.651 346.712 152.291 346.824L153.131 346.968C153.979 347.112 154.755 347.312 155.459 347.568C156.163 347.824 156.715 348.192 157.115 348.672C157.531 349.152 157.739 349.792 157.739 350.592C157.739 351.776 157.299 352.696 156.419 353.352C155.539 354.008 154.355 354.336 152.867 354.336Z" fill="#FEFEFE"/>
<path opacity="0.0344828" d="M172.122 74.8578C156.341 68.505 158.764 45.4494 175.521 42.5165L232.606 32.5244C242.347 30.8194 248.978 21.6927 247.59 11.9015L239.452 -45.4773C237.064 -62.3202 258.242 -71.7494 269.161 -58.7042L306.356 -14.2632C312.703 -6.67969 323.923 -5.50039 331.708 -11.5985L377.33 -47.3351C390.722 -57.8252 409.478 -44.1987 403.64 -28.2205L383.75 26.2125C380.356 35.501 384.945 45.807 394.119 49.5001L447.878 71.1423C463.659 77.4952 461.236 100.551 444.479 103.484L387.395 113.476C377.653 115.181 371.022 124.308 372.411 134.099L380.548 191.478C382.937 208.32 361.758 217.75 350.84 204.704L313.645 160.263C307.298 152.68 296.077 151.501 288.292 157.599L242.67 193.335C229.278 203.825 210.523 190.199 216.361 174.221L236.251 119.788C239.644 110.499 235.056 100.193 225.882 96.5001L172.122 74.8578Z" stroke="#FEFEFE" stroke-width="1.4151"/>
<path opacity="0.0689655" d="M174.599 68.0174C159.173 60.8474 162.799 37.9502 179.687 35.8983L235.548 29.1099C245.364 27.9169 252.464 19.1497 251.589 9.29931L246.615 -46.752C245.111 -63.6967 266.754 -72.0047 276.975 -58.4059L310.784 -13.4225C316.725 -5.51746 327.868 -3.75254 335.961 -9.43483L382.016 -41.769C395.939 -51.5434 413.955 -36.9543 407.289 -21.3037L385.236 30.4669C381.36 39.565 385.404 50.0971 394.372 54.2652L445.401 77.9833C460.827 85.1534 457.201 108.05 440.314 110.102L384.453 116.89C374.636 118.083 367.536 126.85 368.41 136.7L373.386 192.752C374.89 209.697 353.246 218.004 343.026 204.406L309.217 159.423C303.275 151.518 292.133 149.753 284.039 155.436L237.985 187.769C224.062 197.544 206.045 182.954 212.712 167.303L234.764 115.533C238.639 106.435 234.597 95.9027 225.629 91.7346L174.599 68.0174Z" stroke="#FEFEFE" stroke-width="1.4151"/>
<path opacity="0.103448" d="M177.409 61.4404C162.378 53.4729 167.198 30.7959 184.17 29.6306L238.632 25.8907C248.498 25.2132 256.046 16.8304 255.689 6.94793L253.715 -47.6077C253.1 -64.6079 275.148 -71.7716 284.643 -57.6568L315.113 -12.3612C320.633 -4.15574 331.668 -1.81027 340.048 -7.06124L386.307 -36.0476C400.722 -45.0802 417.95 -29.568 410.474 -14.2877L386.481 34.7486C382.135 43.6314 385.621 54.3598 394.359 58.9915L442.591 84.5597C457.621 92.5272 452.801 115.204 435.83 116.37L381.368 120.109C371.502 120.787 363.953 129.17 364.31 139.052L366.284 193.608C366.899 210.608 344.851 217.772 335.356 203.657L304.886 158.361C299.366 150.156 288.332 147.81 279.952 153.061L233.693 182.048C219.278 191.08 202.049 175.568 209.526 160.288L233.519 111.252C237.865 102.369 234.378 91.6403 225.641 87.0087L177.409 61.4404Z" stroke="#FEFEFE" stroke-width="1.4151"/>
<path opacity="0.137931" d="M180.529 55.1416C165.937 46.3984 171.937 24.0057 188.946 23.7302L241.848 22.8735C251.736 22.7133 259.712 14.736 259.873 4.84828L260.73 -48.0547C261.006 -65.0636 283.398 -71.0635 292.142 -56.4713L319.335 -11.0849C324.418 -2.60188 335.315 0.317844 343.958 -4.48728L390.201 -30.1964C405.069 -38.4624 421.462 -22.0697 413.196 -7.20152L387.487 39.0425C382.682 47.6856 385.602 58.5828 394.085 63.6654L439.472 90.8583C454.064 99.6016 448.064 121.994 431.055 122.27L378.152 123.127C368.265 123.287 360.287 131.264 360.127 141.152L359.27 194.054C358.994 211.064 336.601 217.064 327.858 202.471L300.665 157.085C295.582 148.602 284.685 145.682 276.042 150.487L229.799 176.196C214.93 184.462 198.538 168.069 206.804 153.201L232.512 106.958C237.318 98.315 234.398 87.4182 225.915 82.3355L180.529 55.1416Z" stroke="#FEFEFE" stroke-width="1.4151"/>
<path opacity="0.172414" d="M183.939 49.1369C169.823 39.6419 176.987 17.5939 193.988 18.209L245.182 20.0608C255.064 20.4184 263.448 12.8698 264.126 3.00392L267.635 -48.1045C268.801 -65.0755 291.477 -69.8953 299.444 -54.8656L323.437 -9.60324C328.069 -0.865808 338.799 2.62056 347.682 -1.72572L393.697 -24.241C408.977 -31.7169 424.49 -14.4891 415.457 -0.0741338L388.255 43.3361C383.005 51.716 385.35 62.7509 393.556 68.2705L436.061 96.8634C450.176 106.358 443.012 128.406 426.012 127.791L374.818 125.939C364.935 125.582 356.551 133.131 355.874 142.996L352.365 194.104C351.2 211.075 328.523 215.896 320.556 200.866L296.562 155.604C291.931 146.866 281.201 143.38 272.318 147.726L226.302 170.241C211.022 177.717 195.51 160.489 204.543 146.074L231.744 102.664C236.995 94.2844 234.649 83.2494 226.444 77.7298L183.939 49.1369Z" stroke="#FEFEFE" stroke-width="1.4151"/>
<path opacity="0.206897" d="M187.616 43.438C174.017 33.2173 182.325 11.5745 199.27 13.0784L248.623 17.4582C258.473 18.3324 267.24 11.2327 268.433 1.41575L274.41 -47.7686C276.462 -64.6559 299.36 -68.2832 306.53 -52.8566L327.413 -7.92562C331.581 1.04225 342.112 5.08505 351.211 1.20962L396.794 -18.2072C412.445 -24.8735 427.034 -6.85644 417.259 7.06626L388.79 47.6165C383.107 55.7101 384.873 66.8527 392.778 72.7942L432.385 102.563C445.983 112.784 437.676 134.426 420.731 132.923L371.378 128.542C361.528 127.668 352.76 134.767 351.567 144.584L345.591 193.77C343.539 210.657 320.641 214.283 313.471 198.857L292.588 153.926C288.42 144.958 277.888 140.915 268.79 144.79L223.207 164.207C207.556 170.874 192.966 152.857 202.741 138.935L231.21 98.3832C236.892 90.2896 235.128 79.1474 227.223 73.2059L187.616 43.438Z" stroke="#FEFEFE" stroke-width="1.4151"/>
<path opacity="0.241379" d="M191.537 38.0562C178.492 27.1378 187.921 5.95852 204.764 8.34723L252.155 15.0681C261.946 16.4568 271.074 9.82593 272.779 0.084861L281.031 -47.0634C283.964 -63.8201 307.021 -66.2441 313.373 -50.4633L331.248 -6.06026C334.941 3.11345 345.247 7.70187 354.535 4.30795L399.494 -12.1201C415.472 -17.9584 429.098 0.797766 418.608 14.1898L389.092 51.8711C382.994 59.6562 384.174 70.8759 391.757 77.223L428.463 107.944C441.508 118.863 432.078 140.042 415.235 137.653L367.844 130.932C358.053 129.544 348.926 136.174 347.221 145.915L338.968 193.064C336.035 209.82 312.979 212.244 306.626 196.464L288.752 152.061C285.059 142.887 274.753 138.298 265.464 141.692L220.506 158.12C204.528 163.959 190.901 145.203 201.392 131.81L230.907 94.1292C237.005 86.3441 235.826 75.1244 228.242 68.7773L191.537 38.0562Z" stroke="#FEFEFE" stroke-width="1.4151"/>
<path opacity="0.275862" d="M195.681 33.0008C183.225 21.4146 193.75 0.758724 210.445 4.02564L255.77 12.8945C265.475 14.7936 274.936 8.6496 277.149 -0.988869L287.481 -46.0021C291.287 -62.5823 314.438 -63.7962 319.957 -47.7048L334.937 -4.01705C338.145 5.33719 348.197 10.4586 357.65 7.55572L401.801 -6.00328C418.062 -10.9969 430.688 8.44631 419.512 21.2709L389.168 56.088C382.671 63.5432 383.262 74.8089 390.502 81.5442L424.319 113C436.775 124.586 426.25 145.242 409.556 141.975L364.23 133.106C354.525 131.207 345.064 137.351 342.852 146.99L332.519 192.004C328.713 208.584 305.562 209.797 300.044 193.706L285.062 150.018C281.854 140.664 271.802 135.542 262.349 138.446L218.2 152.004C201.938 156.998 189.312 137.556 200.488 124.731L230.832 89.9129C237.329 82.4577 236.738 71.1916 229.498 64.4563L195.681 33.0008Z" stroke="#FEFEFE" stroke-width="1.4151"/>
<path opacity="0.310345" d="M200.023 28.2802C188.191 16.058 199.782 -4.01876 216.283 0.117425L259.451 10.9382C269.043 13.3425 278.813 7.70148 281.527 -1.80775L293.74 -44.6025C298.408 -60.9608 321.591 -60.9607 326.26 -44.6023L338.473 -1.80844C341.187 7.70104 350.957 13.3421 360.55 10.9377L403.717 0.116587C420.218 -4.01938 431.809 16.0582 419.977 28.2803L389.022 60.2547C382.144 67.3597 382.143 78.6409 389.022 85.7458L419.977 117.72C431.809 129.942 420.218 150.019 403.717 145.883L360.549 135.062C350.957 132.658 341.187 138.299 338.473 147.808L326.26 190.603C321.591 206.961 298.409 206.961 293.74 190.602L281.527 147.809C278.813 138.299 269.043 132.658 259.45 135.062L216.283 145.883C199.782 150.019 188.191 129.942 200.023 117.72L230.978 85.7454C237.856 78.6404 237.857 67.3593 230.978 60.2543L200.023 28.2802Z" stroke="#FEFEFE" stroke-width="1.4151"/>
<path opacity="0.344828" d="M204.54 23.9016C193.364 11.0769 205.99 -8.36563 222.252 -3.37153L263.187 9.19946C272.64 12.1026 282.692 6.98113 285.9 -2.37316L299.791 -42.8799C305.309 -58.9716 328.46 -57.7581 332.266 -41.1778L341.847 0.558808C344.059 10.1971 353.52 16.3414 363.225 14.4423L405.251 6.21908C421.946 2.95226 432.47 23.6082 420.015 35.1944L388.659 64.3595C381.419 71.0947 380.828 82.3604 387.325 89.8156L415.46 122.098C426.637 134.923 414.01 154.366 397.748 149.372L356.812 136.801C347.359 133.898 337.308 139.02 334.1 148.374L320.209 188.881C314.691 204.972 291.54 203.758 287.734 187.179L278.153 145.442C275.941 135.804 266.48 129.659 256.775 131.558L214.749 139.782C198.055 143.048 187.53 122.393 199.986 110.806L231.341 81.6413C238.582 74.906 239.172 63.64 232.674 56.1847L204.54 23.9016Z" stroke="#FEFEFE" stroke-width="1.4151"/>
<path opacity="0.37931" d="M209.209 19.87C198.719 6.47793 212.346 -12.278 228.324 -6.43962L266.966 7.68022C276.254 11.074 286.56 6.48524 290.253 -2.68838L305.617 -40.8528C311.97 -56.6336 335.025 -54.2101 337.958 -37.4534L345.052 3.07173C346.757 12.8125 355.883 19.4434 365.674 18.0551L406.408 12.2782C423.251 9.88949 432.68 31.0681 419.635 41.9865L388.086 68.3917C380.503 74.7388 379.323 85.958 385.421 93.7431L410.791 126.131C421.281 139.523 407.654 158.279 391.676 152.44L353.034 138.32C343.746 134.927 333.44 139.515 329.747 148.689L314.383 186.853C308.03 202.634 284.974 200.211 282.041 183.454L274.948 142.929C273.243 133.188 264.116 126.557 254.325 127.946L213.592 133.722C196.749 136.111 187.319 114.933 200.365 104.014L231.914 77.6089C239.497 71.2619 240.677 60.0426 234.579 52.2575L209.209 19.87Z" stroke="#FEFEFE" stroke-width="1.4151"/>
<path opacity="0.413793" d="M214.005 16.1876C204.231 2.26492 218.82 -15.7514 234.471 -9.08477L270.774 6.37858C279.872 10.254 290.404 6.21141 294.572 -2.75645L311.203 -38.5402C318.373 -53.9668 341.271 -50.34 343.323 -33.4528L348.083 5.71859C349.276 15.5355 358.043 22.6349 367.893 21.7607L407.198 18.2726C424.143 16.7686 432.451 38.4116 418.853 48.6324L387.309 72.3404C379.404 78.2818 377.639 89.424 383.321 97.5176L405.995 129.813C415.77 143.736 401.181 161.752 385.53 155.086L349.226 139.622C340.128 135.746 329.596 139.79 325.428 148.757L308.796 184.54C301.626 199.967 278.728 196.341 276.676 179.454L271.917 140.282C270.724 130.465 261.957 123.365 252.107 124.239L212.801 127.728C195.856 129.232 187.549 107.588 201.147 97.3678L232.691 73.6604C240.596 67.7188 242.361 56.5761 236.679 48.4826L214.005 16.1876Z" stroke="#FEFEFE" stroke-width="1.4151"/>
<path opacity="0.448276" d="M218.906 12.8581C209.873 -1.55713 225.385 -18.7852 240.665 -11.3086L274.6 5.29461C283.483 9.64071 294.212 6.15432 298.843 -2.58304L316.537 -35.9616C324.505 -50.9917 347.181 -46.1715 348.346 -29.2001L350.935 8.49032C351.613 18.356 359.996 25.9048 369.879 25.5473L407.632 24.1813C424.633 23.5664 431.797 45.6145 417.682 55.1095L386.336 76.1953C378.13 81.7149 375.785 92.7494 381.035 101.129L401.095 133.143C410.127 147.558 394.615 164.786 379.335 157.309L345.4 140.706C336.517 136.36 325.788 139.846 321.157 148.584L303.463 181.962C295.495 196.992 272.819 192.172 271.654 175.201L269.066 137.511C268.389 127.645 260.004 120.096 250.122 120.453L212.368 121.819C195.368 122.434 188.204 100.386 202.318 90.8912L233.665 69.8046C241.87 64.285 244.216 53.2512 238.965 44.8714L218.906 12.8581Z" stroke="#FEFEFE" stroke-width="1.4151"/>
<path opacity="0.482759" d="M223.886 9.88129C215.62 -4.98693 232.013 -21.3802 246.882 -13.1142L278.43 4.42607C287.073 9.23122 297.97 6.31149 303.053 -2.17129L321.606 -33.1362C330.35 -47.7289 352.742 -41.7286 353.018 -24.7193L353.603 11.3728C353.763 21.2607 361.74 29.2377 371.628 29.3979L407.72 29.9827C424.729 30.2583 430.73 52.6512 416.137 61.3944L385.172 79.9477C376.689 85.0304 373.769 95.927 378.574 104.57L396.115 136.119C404.381 150.987 387.988 167.381 373.119 159.115L341.57 141.574C332.926 136.769 322.03 139.689 316.947 148.172L298.395 179.137C289.651 193.729 267.258 187.729 266.983 170.72L266.398 134.628C266.238 124.74 258.261 116.763 248.373 116.603L212.28 116.018C195.271 115.743 189.271 93.3493 203.864 84.606L234.828 66.0535C243.311 60.9708 246.231 50.0736 241.426 41.4304L223.886 9.88129Z" stroke="#FEFEFE" stroke-width="1.4151"/>
<path opacity="0.517241" d="M228.923 7.25657C221.447 -8.0239 238.676 -23.5367 253.091 -14.5039L282.254 3.77079C290.634 9.02173 301.668 6.67576 307.188 -1.52959L326.398 -30.0857C335.893 -44.2007 357.942 -37.0367 357.326 -20.0364L356.082 14.357C355.724 24.2397 363.273 32.6232 373.139 33.3007L407.474 35.6581C424.446 36.8235 429.266 59.4997 414.235 67.4673L383.828 83.5873C375.09 88.2191 371.604 98.9479 375.95 107.831L391.076 138.744C398.553 154.025 381.324 169.538 366.909 160.505L337.746 142.23C329.366 136.979 318.331 139.325 312.812 147.53L293.601 176.087C284.106 190.202 262.058 183.038 262.673 166.037L263.918 131.644C264.275 121.761 256.727 113.378 246.861 112.7L212.526 110.343C195.554 109.177 190.734 86.5013 205.764 78.5336L236.172 62.4136C244.909 57.7819 248.396 47.0531 244.05 38.1702L228.923 7.25657Z" stroke="#FEFEFE" stroke-width="1.4151"/>
<path opacity="0.551724" d="M233.996 4.98004C227.33 -10.6708 245.346 -25.26 259.269 -15.4852L286.06 3.32404C294.153 9.0064 305.296 7.24192 311.237 -0.663365L330.905 -26.8314C341.126 -40.43 362.769 -32.122 361.265 -15.1772L358.371 17.4295C357.496 27.2797 364.596 36.0468 374.413 37.2399L406.909 41.1887C423.796 43.2407 427.423 66.138 411.997 73.3081L382.311 87.1056C373.344 91.2736 369.3 101.805 373.176 110.903L386.004 141.02C392.671 156.671 374.655 171.26 360.732 161.485L333.94 142.675C325.847 136.993 314.705 138.759 308.763 146.664L289.095 172.832C278.875 186.431 257.232 178.122 258.736 161.177L261.629 128.571C262.503 118.72 255.404 109.953 245.587 108.76L213.091 104.812C196.204 102.76 192.577 79.8622 208.004 72.6922L237.689 58.8947C246.657 54.7265 250.7 44.1942 246.824 35.0961L233.996 4.98004Z" stroke="#FEFEFE" stroke-width="1.4151"/>
<path opacity="0.586207" d="M239.08 3.05028C233.242 -12.928 251.997 -26.5544 265.389 -16.0642L289.836 3.08472C297.621 9.18287 308.841 8.00399 315.188 0.420479L335.119 -23.3935C346.037 -36.4385 367.216 -27.0092 364.827 -10.1664L360.467 20.58C359.078 30.3711 365.709 39.4978 375.45 41.2028L406.039 46.5565C422.795 49.4894 425.219 72.5452 409.438 78.8981L380.631 90.4955C371.457 94.1885 366.869 104.494 370.262 113.783L380.92 142.95C386.758 158.929 368.003 172.555 354.611 162.065L330.164 142.916C322.379 136.818 311.16 137.997 304.813 145.581L284.881 169.394C273.963 182.439 252.784 173.01 255.173 156.167L259.533 125.421C260.922 115.63 254.291 106.504 244.55 104.799L213.961 99.4441C197.205 96.5111 194.781 73.4554 210.562 67.1024L239.369 55.5058C248.543 51.8128 253.131 41.5065 249.737 32.218L239.08 3.05028Z" stroke="#FEFEFE" stroke-width="1.4151"/>
<path opacity="0.62069" d="M244.154 1.46067C239.159 -14.8013 258.603 -27.4279 271.428 -16.2513L293.571 3.04699C301.026 9.5439 312.292 8.95322 319.027 1.7124L339.032 -19.7945C350.619 -32.25 371.274 -21.7253 368.008 -5.03063L362.367 23.7956C360.468 33.5006 366.612 42.9619 376.25 45.1743L404.879 51.7459C421.459 55.552 422.672 78.7027 406.581 84.2211L378.797 93.7491C369.442 96.957 364.32 107.008 367.223 116.462L375.847 144.54C380.841 160.802 361.397 173.429 348.573 162.252L326.429 142.954C318.974 136.457 307.708 137.047 300.973 144.288L280.968 165.795C269.382 178.251 248.726 167.726 251.993 151.031L257.633 122.205C259.532 112.5 253.388 103.039 243.75 100.826L215.121 94.2548C198.541 90.4489 197.328 67.2978 213.419 61.7796L241.204 52.2516C250.558 49.0438 255.68 38.9924 252.777 29.5391L244.154 1.46067Z" stroke="#FEFEFE" stroke-width="1.4151"/>
<path opacity="0.655172" d="M249.196 0.204664C245.059 -16.2963 265.137 -27.8881 277.359 -16.0556L297.255 3.20507C304.36 10.0834 315.64 10.0841 322.745 3.20591L342.641 -16.056C354.863 -27.888 374.94 -16.2967 370.804 0.204019L364.071 27.0649C361.667 36.6571 367.307 46.4269 376.816 49.1409L403.445 56.7401C419.804 61.4087 419.803 84.5919 403.445 89.2604L376.816 96.8593C367.307 99.5734 361.667 109.343 364.072 118.935L370.804 145.796C374.94 162.297 354.863 173.888 342.641 162.056L322.746 142.795C315.641 135.916 304.359 135.916 297.254 142.794L277.359 162.056C265.137 173.888 245.06 162.297 249.196 145.796L255.929 118.935C258.333 109.343 252.693 99.5733 243.183 96.8593L216.554 89.2602C200.196 84.5915 200.197 61.4083 216.555 56.7399L243.184 49.141C252.693 46.4269 258.333 36.6567 255.929 27.0644L249.196 0.204664Z" stroke="#FEFEFE" stroke-width="1.4151"/>
<path opacity="0.689655" d="M254.187 -0.734891C250.92 -17.4298 271.575 -27.9544 283.162 -15.4984L300.876 3.54671C307.612 10.7874 318.877 11.3774 326.333 4.88032L345.942 -12.209C358.767 -23.3849 378.209 -10.7588 373.215 5.50272L365.579 30.3669C362.676 39.8203 367.798 49.8718 377.152 53.0797L401.756 61.5169C417.848 67.0351 416.634 90.1867 400.053 93.9926L374.703 99.8117C365.064 102.024 358.92 111.486 360.819 121.191L365.814 146.717C369.081 163.412 348.426 173.936 336.839 161.481L319.124 142.436C312.388 135.195 301.122 134.604 293.667 141.101L274.059 158.19C261.234 169.367 241.791 156.74 246.785 140.478L254.421 115.614C257.324 106.161 252.203 96.1093 242.848 92.9014L218.245 84.4643C202.153 78.946 203.366 55.7951 219.946 51.989L245.297 46.17C254.935 43.9575 261.08 34.4965 259.181 24.7916L254.187 -0.734891Z" stroke="#FEFEFE" stroke-width="1.4151"/>
<path opacity="0.724138" d="M259.104 -1.3478C256.715 -18.1908 277.894 -27.62 288.812 -14.5747L304.427 4.0816C310.774 11.6651 321.994 12.8446 329.779 6.74655L348.931 -8.25643C362.323 -18.7465 381.079 -5.12004 375.241 10.858L366.891 33.7103C363.497 42.9987 368.086 53.3047 377.259 56.9977L399.828 66.0829C415.609 72.436 413.185 95.492 396.429 98.425L372.464 102.619C362.723 104.324 356.092 113.451 357.481 123.242L360.896 147.33C363.285 164.173 342.107 173.602 331.188 160.557L315.573 141.9C309.226 134.317 298.007 133.137 290.222 139.235L271.069 154.238C257.677 164.729 238.922 151.102 244.76 135.124L253.11 112.273C256.504 102.984 251.915 92.6783 242.742 88.9852L220.173 79.8988C204.392 73.5459 206.815 50.49 223.572 47.5571L247.536 43.3632C257.278 41.6582 263.908 32.531 262.52 22.7398L259.104 -1.3478Z" stroke="#FEFEFE" stroke-width="1.4151"/>
<path opacity="0.758621" d="M263.929 -1.654C262.425 -18.5989 284.069 -26.9071 294.29 -13.3083L307.897 4.7963C313.838 12.7014 324.98 14.4658 333.074 8.7835L351.609 -4.22921C365.532 -14.0041 383.55 0.585162 376.883 16.236L368.008 37.0721C364.132 46.1702 368.175 56.7021 377.143 60.8702L397.681 70.4155C413.107 77.5857 409.48 100.483 392.593 102.535L370.11 105.267C360.293 106.46 353.194 115.227 354.068 125.078L356.071 147.637C357.575 164.582 335.931 172.89 325.71 159.291L312.104 141.186C306.162 133.281 295.02 131.516 286.926 137.198L268.39 150.212C254.467 159.987 236.451 145.397 243.117 129.747L251.993 108.911C255.868 99.8126 251.825 89.2807 242.858 85.1126L222.32 75.5672C206.893 68.3972 210.52 45.4999 227.407 43.4477L249.89 40.715C259.706 39.5221 266.806 30.7553 265.932 20.905L263.929 -1.654Z" stroke="#FEFEFE" stroke-width="1.4151"/>
<path opacity="0.793103" d="M268.646 -1.66558C268.03 -18.666 290.079 -25.8301 299.574 -11.715L311.277 5.68135C316.796 13.8868 327.831 16.2327 336.211 10.9817L353.978 -0.150918C368.393 -9.18376 385.621 6.32876 378.144 21.6092L368.93 40.4418C364.584 49.3247 368.07 60.0537 376.807 64.6854L395.331 74.5052C410.362 82.4728 405.542 105.15 388.571 106.315L367.653 107.751C357.787 108.428 350.239 116.812 350.596 126.695L351.354 147.647C351.969 164.648 329.92 171.812 320.425 157.697L308.723 140.3C303.203 132.095 292.169 129.749 283.789 135L266.023 146.134C251.607 155.166 234.379 139.653 241.855 124.373L251.07 105.54C255.416 96.6571 251.93 85.9281 243.193 81.2964L224.669 71.4765C209.638 63.509 214.458 40.8327 231.43 39.6673L252.346 38.231C262.212 37.5536 269.761 29.1695 269.403 19.2868L268.646 -1.66558Z" stroke="#FEFEFE" stroke-width="1.4151"/>
<path opacity="0.827586" d="M273.235 -1.39413C273.511 -18.4034 295.904 -24.4035 304.647 -9.81081L314.559 6.73229C319.642 15.2152 330.539 18.1346 339.182 13.3294L356.037 3.95919C370.905 -4.30682 387.298 12.0861 379.032 26.9543L369.661 43.8095C364.856 52.4526 367.776 63.3494 376.259 68.4321L392.802 78.3446C407.395 87.0878 401.394 109.481 384.385 109.756L365.102 110.068C355.214 110.229 347.238 118.206 347.078 128.094L346.765 147.377C346.489 164.386 324.097 170.386 315.354 155.793L305.441 139.25C300.358 130.767 289.461 127.847 280.818 132.652L263.963 142.023C249.095 150.289 232.702 133.897 240.968 119.028L250.338 102.172C255.143 93.5291 252.224 82.6324 243.741 77.5497L227.198 67.6382C212.605 58.8949 218.606 36.5017 235.615 36.2261L254.897 35.9134C264.785 35.7532 272.762 27.7766 272.922 17.8888L273.235 -1.39413Z" stroke="#FEFEFE" stroke-width="1.4151"/>
<path opacity="0.862069" d="M277.681 -0.853117C278.846 -17.8247 301.522 -22.6446 309.49 -7.61431L317.735 7.93908C322.366 16.6764 333.096 20.1628 341.978 15.8167L357.792 8.07967C373.072 0.603126 388.584 17.8315 379.551 32.2467L370.205 47.1645C364.954 55.5444 367.299 66.579 375.505 72.0986L390.111 81.924C404.226 91.419 397.062 113.467 380.062 112.852L362.469 112.216C352.586 111.859 344.202 119.408 343.525 129.273L342.319 146.836C341.154 163.807 318.478 168.627 310.51 153.597L302.265 138.043C297.633 129.306 286.904 125.82 278.021 130.166L262.208 137.903C246.928 145.379 231.416 128.151 240.448 113.736L249.796 98.8187C255.047 90.439 252.701 79.4043 244.496 73.8846L229.889 64.0584C215.774 54.5635 222.938 32.5152 239.938 33.1302L257.531 33.7666C267.414 34.1241 275.797 26.575 276.475 16.7091L277.681 -0.853117Z" stroke="#FEFEFE" stroke-width="1.4151"/>
<path opacity="0.896552" d="M281.967 -0.0574314C284.019 -16.9447 306.918 -20.5714 314.088 -5.14476L320.798 9.29477C324.966 18.2626 335.498 22.3057 344.596 18.4305L359.246 12.1899C374.897 5.5233 389.486 23.5399 379.711 37.4627L370.562 50.4948C364.88 58.5884 366.644 69.7306 374.55 75.6721L387.278 85.2392C400.877 95.4599 392.569 117.103 375.624 115.599L359.763 114.191C349.913 113.317 341.146 120.417 339.953 130.234L338.033 146.04C335.981 162.927 313.083 166.554 305.913 151.127L299.202 136.688C295.034 127.72 284.502 123.677 275.404 127.552L260.754 133.793C245.104 140.459 230.514 122.443 240.288 108.52L249.438 95.4878C255.121 87.3943 253.356 76.252 245.451 70.3105L232.722 60.7434C219.123 50.5227 227.431 28.8796 244.376 30.3835L260.237 31.7907C270.087 32.6648 278.854 25.5659 280.047 15.7491L281.967 -0.0574314Z" stroke="#FEFEFE" stroke-width="1.4151"/>
<path opacity="0.931035" d="M286.081 0.978123C289.014 -15.7786 312.071 -18.202 318.424 -2.4212L323.742 10.7896C327.435 19.9633 337.741 24.5522 347.03 21.1583L360.406 16.2704C376.385 10.4322 390.011 29.1875 379.521 42.5796L370.738 53.7914C364.641 61.5764 365.82 72.7959 373.403 79.143L384.325 88.2839C397.37 99.2023 387.941 120.381 371.098 117.992L356.997 115.992C347.206 114.604 338.079 121.235 336.374 130.976L333.919 145.004C330.986 161.761 307.929 164.184 301.576 148.403L296.258 135.193C292.565 126.019 282.259 121.43 272.971 124.824L259.594 129.712C243.616 135.55 229.989 116.795 240.479 103.403L249.262 92.1908C255.36 84.4057 254.181 73.1863 246.597 66.8392L235.676 57.6983C222.631 46.7799 232.06 25.6015 248.902 27.9899L263.003 29.9898C272.794 31.3784 281.921 24.747 283.626 15.006L286.081 0.978123Z" stroke="#FEFEFE" stroke-width="1.4151"/>
<path opacity="0.965517" d="M290.01 2.23755C293.816 -14.3427 316.967 -15.556 322.485 0.535606L326.56 12.4168C329.767 21.7712 339.819 26.8932 349.273 23.99L361.28 20.3019C377.541 15.308 390.167 34.7507 378.991 47.5754L370.739 57.0447C364.242 64.4999 364.832 75.7656 372.073 82.5009L381.27 91.0558C393.726 102.642 383.201 123.298 366.506 120.031L354.18 117.619C344.474 115.72 335.013 121.865 332.801 131.503L329.99 143.745C326.184 160.325 303.034 161.539 297.515 145.447L293.441 133.566C290.233 124.212 280.181 119.09 270.728 121.993L258.721 125.68C242.459 130.674 229.832 111.231 241.009 98.4065L249.261 88.9372C255.758 81.4819 255.168 70.2162 247.927 63.481L238.73 54.9261C226.274 43.34 236.799 22.6838 253.494 25.9507L265.821 28.3635C275.526 30.2626 284.987 24.118 287.2 14.4795L290.01 2.23755Z" stroke="#FEFEFE" stroke-width="1.4151"/>
<path d="M293.74 3.70398C298.409 -12.6544 321.591 -12.6544 326.26 3.70398L329.246 14.1659C331.96 23.6751 341.73 29.3154 351.322 26.911L361.875 24.2655C378.376 20.1296 389.967 40.2064 378.135 52.4286L370.567 60.246C363.689 67.351 363.689 78.6322 370.567 85.7372L378.135 93.5536C389.967 105.776 378.376 125.853 361.875 121.717L351.322 119.071C341.73 116.667 331.96 122.308 329.246 131.817L326.26 142.278C321.591 158.637 298.409 158.637 293.74 142.278L290.755 131.817C288.041 122.308 278.271 116.667 268.679 119.071L258.125 121.717C241.624 125.852 230.033 105.776 241.865 93.5536L249.433 85.7372C256.311 78.6322 256.311 67.351 249.433 60.246L241.865 52.4286C230.033 40.2065 241.624 20.1299 258.125 24.2655L268.679 26.911C278.271 29.3153 288.041 23.6751 290.755 14.1659L293.74 3.70398Z" stroke="#FEFEFE" stroke-width="1.4151"/>
</g>
<defs>
<clipPath id="clip0_438_28671">
<path d="M0 16C0 7.16345 7.16344 0 16 0H294C302.837 0 310 7.16344 310 16V370C310 378.837 302.837 386 294 386H16C7.16345 386 0 378.837 0 370V16Z" fill="white"/>
</clipPath>
</defs>
</svg>
