<svg width="310" height="386" viewBox="0 0 310 386" fill="none" xmlns="http://www.w3.org/2000/svg">
<g clip-path="url(#clip0_438_28565)">
<path d="M0 16C0 7.16345 7.16344 0 16 0H294C302.837 0 310 7.16344 310 16V370C310 378.837 302.837 386 294 386H16C7.16345 386 0 378.837 0 370V16Z" fill="#FC0C0C"/>
<path d="M33.9998 272.125C33.6398 272.125 33.2798 272.08 32.9348 271.975C25.1498 269.83 19.5098 262.555 19.5098 254.665V248.08C19.5098 246.4 20.7248 244.585 22.2848 243.94L30.6398 240.52C32.8148 239.635 35.1998 239.635 37.3598 240.52L45.7148 243.94C47.2748 244.585 48.4898 246.4 48.4898 248.08V254.665C48.4898 262.54 42.8348 269.815 35.0648 271.975C34.7198 272.08 34.3598 272.125 33.9998 272.125ZM33.9998 242.125C33.1448 242.125 32.3048 242.29 31.4948 242.62L23.1398 246.04C22.4198 246.34 21.7598 247.315 21.7598 248.095V254.68C21.7598 261.565 26.7098 267.925 33.5348 269.815C33.8348 269.905 34.1648 269.905 34.4648 269.815C41.2898 267.925 46.2398 261.565 46.2398 254.68V248.095C46.2398 247.315 45.5798 246.34 44.8598 246.04L36.5048 242.62C35.6948 242.29 34.8548 242.125 33.9998 242.125Z" fill="#FEFEFE"/>
<path d="M34 257.875C31.72 257.875 29.875 256.03 29.875 253.75C29.875 251.47 31.72 249.625 34 249.625C36.28 249.625 38.125 251.47 38.125 253.75C38.125 256.03 36.28 257.875 34 257.875ZM34 251.875C32.965 251.875 32.125 252.715 32.125 253.75C32.125 254.785 32.965 255.625 34 255.625C35.035 255.625 35.875 254.785 35.875 253.75C35.875 252.715 35.035 251.875 34 251.875Z" fill="#FEFEFE"/>
<path d="M34 262.375C33.385 262.375 32.875 261.865 32.875 261.25V256.75C32.875 256.135 33.385 255.625 34 255.625C34.615 255.625 35.125 256.135 35.125 256.75V261.25C35.125 261.865 34.615 262.375 34 262.375Z" fill="#FEFEFE"/>
<path d="M23.464 306.336C22.2 306.336 21.08 306.112 20.104 305.664C19.128 305.216 18.36 304.56 17.8 303.696C17.256 302.816 16.984 301.752 16.984 300.504V299.904H19.552V300.504C19.552 301.688 19.904 302.576 20.608 303.168C21.328 303.76 22.28 304.056 23.464 304.056C24.664 304.056 25.568 303.808 26.176 303.312C26.784 302.8 27.088 302.144 27.088 301.344C27.088 300.816 26.944 300.384 26.656 300.048C26.368 299.712 25.96 299.448 25.432 299.256C24.904 299.048 24.272 298.856 23.536 298.68L22.648 298.464C21.576 298.208 20.64 297.896 19.84 297.528C19.056 297.144 18.448 296.64 18.016 296.016C17.584 295.392 17.368 294.592 17.368 293.616C17.368 292.624 17.608 291.776 18.088 291.072C18.584 290.368 19.264 289.824 20.128 289.44C20.992 289.056 22.008 288.864 23.176 288.864C24.344 288.864 25.384 289.064 26.296 289.464C27.224 289.864 27.952 290.456 28.48 291.24C29.008 292.024 29.272 293.008 29.272 294.192V295.056H26.704V294.192C26.704 293.472 26.552 292.888 26.248 292.44C25.96 291.992 25.552 291.664 25.024 291.456C24.496 291.248 23.88 291.144 23.176 291.144C22.152 291.144 21.352 291.36 20.776 291.792C20.216 292.208 19.936 292.792 19.936 293.544C19.936 294.056 20.056 294.48 20.296 294.816C20.552 295.136 20.92 295.4 21.4 295.608C21.88 295.816 22.48 296 23.2 296.16L24.088 296.376C25.176 296.616 26.136 296.928 26.968 297.312C27.8 297.68 28.456 298.184 28.936 298.824C29.416 299.464 29.656 300.288 29.656 301.296C29.656 302.304 29.4 303.184 28.888 303.936C28.392 304.688 27.68 305.28 26.752 305.712C25.824 306.128 24.728 306.336 23.464 306.336ZM37.873 306.336C36.673 306.336 35.625 306.088 34.729 305.592C33.833 305.08 33.129 304.368 32.617 303.456C32.121 302.528 31.873 301.456 31.873 300.24V299.952C31.873 298.72 32.121 297.648 32.617 296.736C33.113 295.808 33.801 295.096 34.681 294.6C35.577 294.088 36.609 293.832 37.777 293.832C38.913 293.832 39.905 294.088 40.753 294.6C41.617 295.096 42.289 295.792 42.769 296.688C43.249 297.584 43.489 298.632 43.489 299.832V300.768H34.393C34.425 301.808 34.769 302.64 35.425 303.264C36.097 303.872 36.929 304.176 37.921 304.176C38.849 304.176 39.545 303.968 40.009 303.552C40.489 303.136 40.857 302.656 41.113 302.112L43.153 303.168C42.929 303.616 42.601 304.088 42.169 304.584C41.753 305.08 41.201 305.496 40.513 305.832C39.825 306.168 38.945 306.336 37.873 306.336ZM34.417 298.872H40.969C40.905 297.976 40.585 297.28 40.009 296.784C39.433 296.272 38.681 296.016 37.753 296.016C36.825 296.016 36.065 296.272 35.473 296.784C34.897 297.28 34.545 297.976 34.417 298.872ZM51.9606 306.336C50.8246 306.336 49.7926 306.096 48.8646 305.616C47.9526 305.136 47.2246 304.44 46.6806 303.528C46.1526 302.616 45.8886 301.52 45.8886 300.24V299.928C45.8886 298.648 46.1526 297.56 46.6806 296.664C47.2246 295.752 47.9526 295.056 48.8646 294.576C49.7926 294.08 50.8246 293.832 51.9606 293.832C53.0966 293.832 54.0646 294.04 54.8646 294.456C55.6646 294.872 56.3046 295.424 56.7846 296.112C57.2806 296.8 57.6006 297.56 57.7446 298.392L55.3446 298.896C55.2646 298.368 55.0966 297.888 54.8406 297.456C54.5846 297.024 54.2246 296.68 53.7606 296.424C53.2966 296.168 52.7126 296.04 52.0086 296.04C51.3206 296.04 50.6966 296.2 50.1366 296.52C49.5926 296.824 49.1606 297.272 48.8406 297.864C48.5206 298.44 48.3606 299.144 48.3606 299.976V300.192C48.3606 301.024 48.5206 301.736 48.8406 302.328C49.1606 302.92 49.5926 303.368 50.1366 303.672C50.6966 303.976 51.3206 304.128 52.0086 304.128C53.0486 304.128 53.8406 303.864 54.3846 303.336C54.9286 302.792 55.2726 302.104 55.4166 301.272L57.8166 301.824C57.6246 302.64 57.2806 303.392 56.7846 304.08C56.3046 304.768 55.6646 305.32 54.8646 305.736C54.0646 306.136 53.0966 306.336 51.9606 306.336ZM65.2038 306.216C64.3078 306.216 63.5078 306.016 62.8038 305.616C62.0998 305.216 61.5478 304.648 61.1478 303.912C60.7478 303.176 60.5478 302.296 60.5478 301.272V294.168H63.0198V301.104C63.0198 302.128 63.2758 302.888 63.7878 303.384C64.2998 303.864 65.0118 304.104 65.9238 304.104C66.9318 304.104 67.7398 303.768 68.3478 303.096C68.9718 302.408 69.2838 301.424 69.2838 300.144V294.168H71.7558V306H69.3318V304.224H68.9478C68.7238 304.704 68.3238 305.16 67.7478 305.592C67.1718 306.008 66.3238 306.216 65.2038 306.216ZM75.4099 306V294.168H77.8339V295.56H78.2179C78.4099 295.064 78.7139 294.704 79.1299 294.48C79.5619 294.24 80.0899 294.12 80.7139 294.12H82.1299V296.352H80.6179C79.8179 296.352 79.1619 296.576 78.6499 297.024C78.1379 297.456 77.8819 298.128 77.8819 299.04V306H75.4099ZM89.6933 306.336C88.4933 306.336 87.4453 306.088 86.5493 305.592C85.6533 305.08 84.9493 304.368 84.4373 303.456C83.9413 302.528 83.6933 301.456 83.6933 300.24V299.952C83.6933 298.72 83.9413 297.648 84.4373 296.736C84.9333 295.808 85.6213 295.096 86.5013 294.6C87.3973 294.088 88.4293 293.832 89.5973 293.832C90.7333 293.832 91.7253 294.088 92.5733 294.6C93.4373 295.096 94.1093 295.792 94.5893 296.688C95.0693 297.584 95.3093 298.632 95.3093 299.832V300.768H86.2133C86.2453 301.808 86.5893 302.64 87.2453 303.264C87.9173 303.872 88.7493 304.176 89.7413 304.176C90.6693 304.176 91.3653 303.968 91.8293 303.552C92.3093 303.136 92.6773 302.656 92.9333 302.112L94.9733 303.168C94.7493 303.616 94.4213 304.088 93.9893 304.584C93.5733 305.08 93.0213 305.496 92.3333 305.832C91.6453 306.168 90.7653 306.336 89.6933 306.336ZM86.2373 298.872H92.7893C92.7253 297.976 92.4053 297.28 91.8293 296.784C91.2533 296.272 90.5013 296.016 89.5733 296.016C88.6453 296.016 87.8853 296.272 87.2933 296.784C86.7173 297.28 86.3653 297.976 86.2373 298.872ZM108.074 306.336C107.226 306.336 106.466 306.192 105.794 305.904C105.138 305.616 104.61 305.192 104.21 304.632C103.826 304.072 103.634 303.392 103.634 302.592C103.634 301.776 103.826 301.104 104.21 300.576C104.61 300.032 105.146 299.624 105.818 299.352C106.506 299.08 107.282 298.944 108.146 298.944H111.746V298.176C111.746 297.488 111.538 296.936 111.122 296.52C110.706 296.104 110.066 295.896 109.202 295.896C108.354 295.896 107.706 296.096 107.258 296.496C106.81 296.896 106.514 297.416 106.37 298.056L104.066 297.312C104.258 296.672 104.562 296.096 104.978 295.584C105.41 295.056 105.978 294.632 106.682 294.312C107.386 293.992 108.234 293.832 109.226 293.832C110.762 293.832 111.97 294.224 112.85 295.008C113.73 295.792 114.17 296.904 114.17 298.344V303.216C114.17 303.696 114.394 303.936 114.842 303.936H115.85V306H114.002C113.442 306 112.986 305.856 112.634 305.568C112.282 305.28 112.106 304.888 112.106 304.392V304.32H111.746C111.618 304.56 111.426 304.84 111.17 305.16C110.914 305.48 110.538 305.76 110.042 306C109.546 306.224 108.89 306.336 108.074 306.336ZM108.434 304.296C109.426 304.296 110.226 304.016 110.834 303.456C111.442 302.88 111.746 302.096 111.746 301.104V300.864H108.29C107.634 300.864 107.106 301.008 106.706 301.296C106.306 301.568 106.106 301.976 106.106 302.52C106.106 303.064 106.314 303.496 106.73 303.816C107.146 304.136 107.714 304.296 108.434 304.296ZM118.254 306V294.168H120.678V295.944H121.062C121.286 295.464 121.686 295.016 122.262 294.6C122.838 294.184 123.694 293.976 124.83 293.976C125.726 293.976 126.518 294.176 127.206 294.576C127.91 294.976 128.462 295.544 128.862 296.28C129.262 297 129.462 297.872 129.462 298.896V306H126.99V299.088C126.99 298.064 126.734 297.312 126.222 296.832C125.71 296.336 125.006 296.088 124.11 296.088C123.086 296.088 122.262 296.424 121.638 297.096C121.03 297.768 120.726 298.744 120.726 300.024V306H118.254ZM137.915 306.336C136.939 306.336 136.035 306.096 135.203 305.616C134.371 305.136 133.699 304.448 133.187 303.552C132.691 302.64 132.443 301.544 132.443 300.264V299.904C132.443 298.64 132.691 297.552 133.187 296.64C133.683 295.728 134.347 295.032 135.179 294.552C136.011 294.072 136.923 293.832 137.915 293.832C138.683 293.832 139.323 293.928 139.835 294.12C140.363 294.312 140.795 294.56 141.131 294.864C141.467 295.152 141.723 295.456 141.899 295.776H142.283V289.2H144.755V306H142.331V304.32H141.947C141.643 304.832 141.179 305.296 140.555 305.712C139.947 306.128 139.067 306.336 137.915 306.336ZM138.611 304.176C139.683 304.176 140.563 303.832 141.251 303.144C141.955 302.456 142.307 301.472 142.307 300.192V299.976C142.307 298.712 141.963 297.736 141.275 297.048C140.587 296.36 139.699 296.016 138.611 296.016C137.555 296.016 136.675 296.36 135.971 297.048C135.283 297.736 134.939 298.712 134.939 299.976V300.192C134.939 301.472 135.283 302.456 135.971 303.144C136.675 303.832 137.555 304.176 138.611 304.176ZM23.992 338.336C21.944 338.336 20.32 337.76 19.12 336.608C17.92 335.44 17.32 333.76 17.32 331.568V327.632C17.32 325.44 17.92 323.768 19.12 322.616C20.32 321.448 21.944 320.864 23.992 320.864C26.008 320.864 27.56 321.424 28.648 322.544C29.752 323.664 30.304 325.192 30.304 327.128V327.272H27.736V327.056C27.736 325.92 27.424 324.992 26.8 324.272C26.192 323.552 25.256 323.192 23.992 323.192C22.712 323.192 21.712 323.584 20.992 324.368C20.272 325.136 19.912 326.208 19.912 327.584V331.616C19.912 332.976 20.272 334.048 20.992 334.832C21.712 335.616 22.712 336.008 23.992 336.008C25.256 336.008 26.192 335.648 26.8 334.928C27.424 334.192 27.736 333.264 27.736 332.144V331.736H30.304V332.072C30.304 334.008 29.752 335.536 28.648 336.656C27.56 337.776 26.008 338.336 23.992 338.336ZM38.7899 338.336C37.6059 338.336 36.5499 338.096 35.6219 337.616C34.7099 337.12 33.9899 336.416 33.4619 335.504C32.9339 334.592 32.6699 333.512 32.6699 332.264V331.904C32.6699 330.656 32.9339 329.584 33.4619 328.688C33.9899 327.776 34.7099 327.072 35.6219 326.576C36.5499 326.08 37.6059 325.832 38.7899 325.832C39.9739 325.832 41.0299 326.08 41.9579 326.576C42.8859 327.072 43.6139 327.776 44.1419 328.688C44.6699 329.584 44.9339 330.656 44.9339 331.904V332.264C44.9339 333.512 44.6699 334.592 44.1419 335.504C43.6139 336.416 42.8859 337.12 41.9579 337.616C41.0299 338.096 39.9739 338.336 38.7899 338.336ZM38.7899 336.128C39.8779 336.128 40.7579 335.784 41.4299 335.096C42.1179 334.392 42.4619 333.424 42.4619 332.192V331.976C42.4619 330.744 42.1259 329.784 41.4539 329.096C40.7819 328.392 39.8939 328.04 38.7899 328.04C37.7179 328.04 36.8379 328.392 36.1499 329.096C35.4779 329.784 35.1419 330.744 35.1419 331.976V332.192C35.1419 333.424 35.4779 334.392 36.1499 335.096C36.8379 335.784 37.7179 336.128 38.7899 336.128ZM48.0115 338V326.168H50.4355V327.56H50.8195C51.0435 327.144 51.4035 326.776 51.8995 326.456C52.3955 326.136 53.0675 325.976 53.9155 325.976C54.7955 325.976 55.4995 326.16 56.0275 326.528C56.5715 326.88 56.9795 327.336 57.2515 327.896H57.6355C57.9075 327.352 58.2995 326.896 58.8115 326.528C59.3395 326.16 60.0835 325.976 61.0435 325.976C61.8115 325.976 62.4915 326.136 63.0835 326.456C63.6755 326.76 64.1475 327.224 64.4995 327.848C64.8515 328.456 65.0275 329.216 65.0275 330.128V338H62.5555V330.32C62.5555 329.6 62.3555 329.048 61.9555 328.664C61.5715 328.264 61.0195 328.064 60.2995 328.064C59.5315 328.064 58.9155 328.312 58.4515 328.808C57.9875 329.304 57.7555 330.016 57.7555 330.944V338H55.2835V330.32C55.2835 329.6 55.0835 329.048 54.6835 328.664C54.2995 328.264 53.7475 328.064 53.0275 328.064C52.2595 328.064 51.6435 328.312 51.1795 328.808C50.7155 329.304 50.4835 330.016 50.4835 330.944V338H48.0115ZM68.5896 342.8V326.168H71.0136V327.872H71.3976C71.7016 327.344 72.1576 326.872 72.7656 326.456C73.3896 326.04 74.2776 325.832 75.4296 325.832C76.4216 325.832 77.3256 326.072 78.1416 326.552C78.9736 327.032 79.6376 327.728 80.1336 328.64C80.6456 329.536 80.9016 330.624 80.9016 331.904V332.264C80.9016 333.544 80.6536 334.64 80.1576 335.552C79.6616 336.448 78.9976 337.136 78.1656 337.616C77.3336 338.096 76.4216 338.336 75.4296 338.336C74.6616 338.336 74.0136 338.24 73.4856 338.048C72.9576 337.856 72.5336 337.616 72.2136 337.328C71.8936 337.024 71.6376 336.712 71.4456 336.392H71.0616V342.8H68.5896ZM74.7096 336.176C75.7976 336.176 76.6856 335.832 77.3736 335.144C78.0616 334.456 78.4056 333.472 78.4056 332.192V331.976C78.4056 330.712 78.0536 329.736 77.3496 329.048C76.6616 328.36 75.7816 328.016 74.7096 328.016C73.6536 328.016 72.7736 328.36 72.0696 329.048C71.3816 329.736 71.0376 330.712 71.0376 331.976V332.192C71.0376 333.472 71.3816 334.456 72.0696 335.144C72.7736 335.832 73.6536 336.176 74.7096 336.176ZM83.9646 338V321.2H86.4366V338H83.9646ZM90.1053 338V326.168H92.5773V338H90.1053ZM91.3533 324.56C90.8733 324.56 90.4653 324.408 90.1293 324.104C89.8093 323.784 89.6493 323.376 89.6493 322.88C89.6493 322.384 89.8093 321.984 90.1293 321.68C90.4653 321.36 90.8733 321.2 91.3533 321.2C91.8493 321.2 92.2573 321.36 92.5773 321.68C92.8973 321.984 93.0573 322.384 93.0573 322.88C93.0573 323.376 92.8973 323.784 92.5773 324.104C92.2573 324.408 91.8493 324.56 91.3533 324.56ZM99.9179 338.336C99.0699 338.336 98.3099 338.192 97.6379 337.904C96.9819 337.616 96.4539 337.192 96.0539 336.632C95.6699 336.072 95.4779 335.392 95.4779 334.592C95.4779 333.776 95.6699 333.104 96.0539 332.576C96.4539 332.032 96.9899 331.624 97.6619 331.352C98.3499 331.08 99.1259 330.944 99.9899 330.944H103.59V330.176C103.59 329.488 103.382 328.936 102.966 328.52C102.55 328.104 101.91 327.896 101.046 327.896C100.198 327.896 99.5499 328.096 99.1019 328.496C98.6539 328.896 98.3579 329.416 98.2139 330.056L95.9099 329.312C96.1019 328.672 96.4059 328.096 96.8219 327.584C97.2539 327.056 97.8219 326.632 98.5259 326.312C99.2299 325.992 100.078 325.832 101.07 325.832C102.606 325.832 103.814 326.224 104.694 327.008C105.574 327.792 106.014 328.904 106.014 330.344V335.216C106.014 335.696 106.238 335.936 106.686 335.936H107.694V338H105.846C105.286 338 104.83 337.856 104.478 337.568C104.126 337.28 103.95 336.888 103.95 336.392V336.32H103.59C103.462 336.56 103.27 336.84 103.014 337.16C102.758 337.48 102.382 337.76 101.886 338C101.39 338.224 100.734 338.336 99.9179 338.336ZM100.278 336.296C101.27 336.296 102.07 336.016 102.678 335.456C103.286 334.88 103.59 334.096 103.59 333.104V332.864H100.134C99.4779 332.864 98.9499 333.008 98.5499 333.296C98.1499 333.568 97.9499 333.976 97.9499 334.52C97.9499 335.064 98.1579 335.496 98.5739 335.816C98.9899 336.136 99.5579 336.296 100.278 336.296ZM110.097 338V326.168H112.521V327.944H112.905C113.129 327.464 113.529 327.016 114.105 326.6C114.681 326.184 115.537 325.976 116.673 325.976C117.569 325.976 118.361 326.176 119.049 326.576C119.753 326.976 120.305 327.544 120.705 328.28C121.105 329 121.305 329.872 121.305 330.896V338H118.833V331.088C118.833 330.064 118.577 329.312 118.065 328.832C117.553 328.336 116.849 328.088 115.953 328.088C114.929 328.088 114.105 328.424 113.481 329.096C112.873 329.768 112.569 330.744 112.569 332.024V338H110.097ZM128.975 338C128.255 338 127.679 337.784 127.247 337.352C126.831 336.92 126.623 336.344 126.623 335.624V328.256H123.359V326.168H126.623V322.256H129.095V326.168H132.623V328.256H129.095V335.192C129.095 335.672 129.319 335.912 129.767 335.912H132.239V338H128.975Z" fill="#FEFEFE"/>
<path opacity="0.0344828" d="M172.122 74.8578C156.341 68.505 158.764 45.4494 175.521 42.5165L232.606 32.5244C242.347 30.8194 248.978 21.6927 247.59 11.9015L239.452 -45.4773C237.064 -62.3202 258.242 -71.7494 269.161 -58.7042L306.356 -14.2632C312.703 -6.67969 323.923 -5.50039 331.708 -11.5985L377.33 -47.3351C390.722 -57.8252 409.478 -44.1987 403.64 -28.2205L383.75 26.2125C380.356 35.501 384.945 45.807 394.119 49.5001L447.878 71.1423C463.659 77.4952 461.236 100.551 444.479 103.484L387.395 113.476C377.653 115.181 371.022 124.308 372.411 134.099L380.548 191.478C382.937 208.32 361.758 217.75 350.84 204.704L313.645 160.263C307.298 152.68 296.077 151.501 288.292 157.599L242.67 193.335C229.278 203.825 210.523 190.199 216.361 174.221L236.251 119.788C239.644 110.499 235.056 100.193 225.882 96.5001L172.122 74.8578Z" stroke="#FEFEFE" stroke-width="1.4151"/>
<path opacity="0.0689655" d="M174.599 68.0174C159.173 60.8474 162.799 37.9502 179.687 35.8983L235.548 29.1099C245.364 27.9169 252.464 19.1497 251.589 9.29931L246.615 -46.752C245.111 -63.6967 266.754 -72.0047 276.975 -58.4059L310.784 -13.4225C316.725 -5.51746 327.868 -3.75254 335.961 -9.43483L382.016 -41.769C395.939 -51.5434 413.955 -36.9543 407.289 -21.3037L385.236 30.4669C381.36 39.565 385.404 50.0971 394.372 54.2652L445.401 77.9833C460.827 85.1534 457.201 108.05 440.314 110.102L384.453 116.89C374.636 118.083 367.536 126.85 368.41 136.7L373.386 192.752C374.89 209.697 353.246 218.004 343.026 204.406L309.217 159.423C303.275 151.518 292.133 149.753 284.039 155.436L237.985 187.769C224.062 197.544 206.045 182.954 212.712 167.303L234.764 115.533C238.639 106.435 234.597 95.9027 225.629 91.7346L174.599 68.0174Z" stroke="#FEFEFE" stroke-width="1.4151"/>
<path opacity="0.103448" d="M177.409 61.4404C162.378 53.4729 167.198 30.7959 184.17 29.6306L238.632 25.8907C248.498 25.2132 256.046 16.8304 255.689 6.94793L253.715 -47.6077C253.1 -64.6079 275.148 -71.7716 284.643 -57.6568L315.113 -12.3612C320.633 -4.15574 331.668 -1.81027 340.048 -7.06124L386.307 -36.0476C400.722 -45.0802 417.95 -29.568 410.474 -14.2877L386.481 34.7486C382.135 43.6314 385.621 54.3598 394.359 58.9915L442.591 84.5597C457.621 92.5272 452.801 115.204 435.83 116.37L381.368 120.109C371.502 120.787 363.953 129.17 364.31 139.052L366.284 193.608C366.899 210.608 344.851 217.772 335.356 203.657L304.886 158.361C299.366 150.156 288.332 147.81 279.952 153.061L233.693 182.048C219.278 191.08 202.049 175.568 209.526 160.288L233.519 111.252C237.865 102.369 234.378 91.6403 225.641 87.0087L177.409 61.4404Z" stroke="#FEFEFE" stroke-width="1.4151"/>
<path opacity="0.137931" d="M180.529 55.1416C165.937 46.3984 171.937 24.0057 188.946 23.7302L241.848 22.8735C251.736 22.7133 259.712 14.736 259.873 4.84828L260.73 -48.0547C261.006 -65.0636 283.398 -71.0635 292.142 -56.4713L319.335 -11.0849C324.418 -2.60188 335.315 0.317844 343.958 -4.48728L390.201 -30.1964C405.069 -38.4624 421.462 -22.0697 413.196 -7.20152L387.487 39.0425C382.682 47.6856 385.602 58.5828 394.085 63.6654L439.472 90.8583C454.064 99.6016 448.064 121.994 431.055 122.27L378.152 123.127C368.265 123.287 360.287 131.264 360.127 141.152L359.27 194.054C358.994 211.064 336.601 217.064 327.858 202.471L300.665 157.085C295.582 148.602 284.685 145.682 276.042 150.487L229.799 176.196C214.93 184.462 198.538 168.069 206.804 153.201L232.512 106.958C237.318 98.315 234.398 87.4182 225.915 82.3355L180.529 55.1416Z" stroke="#FEFEFE" stroke-width="1.4151"/>
<path opacity="0.172414" d="M183.939 49.1369C169.823 39.6419 176.987 17.5939 193.988 18.209L245.182 20.0608C255.064 20.4184 263.448 12.8698 264.126 3.00392L267.635 -48.1045C268.801 -65.0755 291.477 -69.8953 299.444 -54.8656L323.437 -9.60324C328.069 -0.865808 338.799 2.62056 347.682 -1.72572L393.697 -24.241C408.977 -31.7169 424.49 -14.4891 415.457 -0.0741338L388.255 43.3361C383.005 51.716 385.35 62.7509 393.556 68.2705L436.061 96.8634C450.176 106.358 443.012 128.406 426.012 127.791L374.818 125.939C364.935 125.582 356.551 133.131 355.874 142.996L352.365 194.104C351.2 211.075 328.523 215.896 320.556 200.866L296.562 155.604C291.931 146.866 281.201 143.38 272.318 147.726L226.302 170.241C211.022 177.717 195.51 160.489 204.543 146.074L231.744 102.664C236.995 94.2844 234.649 83.2494 226.444 77.7298L183.939 49.1369Z" stroke="#FEFEFE" stroke-width="1.4151"/>
<path opacity="0.206897" d="M187.616 43.438C174.017 33.2173 182.325 11.5745 199.27 13.0784L248.623 17.4582C258.473 18.3324 267.24 11.2327 268.433 1.41575L274.41 -47.7686C276.462 -64.6559 299.36 -68.2832 306.53 -52.8566L327.413 -7.92562C331.581 1.04225 342.112 5.08505 351.211 1.20962L396.794 -18.2072C412.445 -24.8735 427.034 -6.85644 417.259 7.06626L388.79 47.6165C383.107 55.7101 384.873 66.8527 392.778 72.7942L432.385 102.563C445.983 112.784 437.676 134.426 420.731 132.923L371.378 128.542C361.528 127.668 352.76 134.767 351.567 144.584L345.591 193.77C343.539 210.657 320.641 214.283 313.471 198.857L292.588 153.926C288.42 144.958 277.888 140.915 268.79 144.79L223.207 164.207C207.556 170.874 192.966 152.857 202.741 138.935L231.21 98.3832C236.892 90.2896 235.128 79.1474 227.223 73.2059L187.616 43.438Z" stroke="#FEFEFE" stroke-width="1.4151"/>
<path opacity="0.241379" d="M191.537 38.0562C178.492 27.1378 187.921 5.95852 204.764 8.34723L252.155 15.0681C261.946 16.4568 271.074 9.82593 272.779 0.084861L281.031 -47.0634C283.964 -63.8201 307.021 -66.2441 313.373 -50.4633L331.248 -6.06026C334.941 3.11345 345.247 7.70187 354.535 4.30795L399.494 -12.1201C415.472 -17.9584 429.098 0.797766 418.608 14.1898L389.092 51.8711C382.994 59.6562 384.174 70.8759 391.757 77.223L428.463 107.944C441.508 118.863 432.078 140.042 415.235 137.653L367.844 130.932C358.053 129.544 348.926 136.174 347.221 145.915L338.968 193.064C336.035 209.82 312.979 212.244 306.626 196.464L288.752 152.061C285.059 142.887 274.753 138.298 265.464 141.692L220.506 158.12C204.528 163.959 190.901 145.203 201.392 131.81L230.907 94.1292C237.005 86.3441 235.826 75.1244 228.242 68.7773L191.537 38.0562Z" stroke="#FEFEFE" stroke-width="1.4151"/>
<path opacity="0.275862" d="M195.681 33.0008C183.225 21.4146 193.75 0.758724 210.445 4.02564L255.77 12.8945C265.475 14.7936 274.936 8.6496 277.149 -0.988869L287.481 -46.0021C291.287 -62.5823 314.438 -63.7962 319.957 -47.7048L334.937 -4.01705C338.145 5.33719 348.197 10.4586 357.65 7.55572L401.801 -6.00328C418.062 -10.9969 430.688 8.44631 419.512 21.2709L389.168 56.088C382.671 63.5432 383.262 74.8089 390.502 81.5442L424.319 113C436.775 124.586 426.25 145.242 409.556 141.975L364.23 133.106C354.525 131.207 345.064 137.351 342.852 146.99L332.519 192.004C328.713 208.584 305.562 209.797 300.044 193.706L285.062 150.018C281.854 140.664 271.802 135.542 262.349 138.446L218.2 152.004C201.938 156.998 189.312 137.556 200.488 124.731L230.832 89.9129C237.329 82.4577 236.738 71.1916 229.498 64.4563L195.681 33.0008Z" stroke="#FEFEFE" stroke-width="1.4151"/>
<path opacity="0.310345" d="M200.023 28.2802C188.191 16.058 199.782 -4.01876 216.283 0.117425L259.451 10.9382C269.043 13.3425 278.813 7.70148 281.527 -1.80775L293.74 -44.6025C298.408 -60.9608 321.591 -60.9607 326.26 -44.6023L338.473 -1.80844C341.187 7.70104 350.957 13.3421 360.55 10.9377L403.717 0.116587C420.218 -4.01938 431.809 16.0582 419.977 28.2803L389.022 60.2547C382.144 67.3597 382.143 78.6409 389.022 85.7458L419.977 117.72C431.809 129.942 420.218 150.019 403.717 145.883L360.549 135.062C350.957 132.658 341.187 138.299 338.473 147.808L326.26 190.603C321.591 206.961 298.409 206.961 293.74 190.602L281.527 147.809C278.813 138.299 269.043 132.658 259.45 135.062L216.283 145.883C199.782 150.019 188.191 129.942 200.023 117.72L230.978 85.7454C237.856 78.6404 237.857 67.3593 230.978 60.2543L200.023 28.2802Z" stroke="#FEFEFE" stroke-width="1.4151"/>
<path opacity="0.344828" d="M204.54 23.9016C193.364 11.0769 205.99 -8.36563 222.252 -3.37153L263.187 9.19946C272.64 12.1026 282.692 6.98113 285.9 -2.37316L299.791 -42.8799C305.309 -58.9716 328.46 -57.7581 332.266 -41.1778L341.847 0.558808C344.059 10.1971 353.52 16.3414 363.225 14.4423L405.251 6.21908C421.946 2.95226 432.47 23.6082 420.015 35.1944L388.659 64.3595C381.419 71.0947 380.828 82.3604 387.325 89.8156L415.46 122.098C426.637 134.923 414.01 154.366 397.748 149.372L356.812 136.801C347.359 133.898 337.308 139.02 334.1 148.374L320.209 188.881C314.691 204.972 291.54 203.758 287.734 187.179L278.153 145.442C275.941 135.804 266.48 129.659 256.775 131.558L214.749 139.782C198.055 143.048 187.53 122.393 199.986 110.806L231.341 81.6413C238.582 74.906 239.172 63.64 232.674 56.1847L204.54 23.9016Z" stroke="#FEFEFE" stroke-width="1.4151"/>
<path opacity="0.37931" d="M209.209 19.87C198.719 6.47793 212.346 -12.278 228.324 -6.43962L266.966 7.68022C276.254 11.074 286.56 6.48524 290.253 -2.68838L305.617 -40.8528C311.97 -56.6336 335.025 -54.2101 337.958 -37.4534L345.052 3.07173C346.757 12.8125 355.883 19.4434 365.674 18.0551L406.408 12.2782C423.251 9.88949 432.68 31.0681 419.635 41.9865L388.086 68.3917C380.503 74.7388 379.323 85.958 385.421 93.7431L410.791 126.131C421.281 139.523 407.654 158.279 391.676 152.44L353.034 138.32C343.746 134.927 333.44 139.515 329.747 148.689L314.383 186.853C308.03 202.634 284.974 200.211 282.041 183.454L274.948 142.929C273.243 133.188 264.116 126.557 254.325 127.946L213.592 133.722C196.749 136.111 187.319 114.933 200.365 104.014L231.914 77.6089C239.497 71.2619 240.677 60.0426 234.579 52.2575L209.209 19.87Z" stroke="#FEFEFE" stroke-width="1.4151"/>
<path opacity="0.413793" d="M214.005 16.1876C204.231 2.26492 218.82 -15.7514 234.471 -9.08477L270.774 6.37858C279.872 10.254 290.404 6.21141 294.572 -2.75645L311.203 -38.5402C318.373 -53.9668 341.271 -50.34 343.323 -33.4528L348.083 5.71859C349.276 15.5355 358.043 22.6349 367.893 21.7607L407.198 18.2726C424.143 16.7686 432.451 38.4116 418.853 48.6324L387.309 72.3404C379.404 78.2818 377.639 89.424 383.321 97.5176L405.995 129.813C415.77 143.736 401.181 161.752 385.53 155.086L349.226 139.622C340.128 135.746 329.596 139.79 325.428 148.757L308.796 184.54C301.626 199.967 278.728 196.341 276.676 179.454L271.917 140.282C270.724 130.465 261.957 123.365 252.107 124.239L212.801 127.728C195.856 129.232 187.549 107.588 201.147 97.3678L232.691 73.6604C240.596 67.7188 242.361 56.5761 236.679 48.4826L214.005 16.1876Z" stroke="#FEFEFE" stroke-width="1.4151"/>
<path opacity="0.448276" d="M218.906 12.8581C209.873 -1.55713 225.385 -18.7852 240.665 -11.3086L274.6 5.29461C283.483 9.64071 294.212 6.15432 298.843 -2.58304L316.537 -35.9616C324.505 -50.9917 347.181 -46.1715 348.346 -29.2001L350.935 8.49032C351.613 18.356 359.996 25.9048 369.879 25.5473L407.632 24.1813C424.633 23.5664 431.797 45.6145 417.682 55.1095L386.336 76.1953C378.13 81.7149 375.785 92.7494 381.035 101.129L401.095 133.143C410.127 147.558 394.615 164.786 379.335 157.309L345.4 140.706C336.517 136.36 325.788 139.846 321.157 148.584L303.463 181.962C295.495 196.992 272.819 192.172 271.654 175.201L269.066 137.511C268.389 127.645 260.004 120.096 250.122 120.453L212.368 121.819C195.368 122.434 188.204 100.386 202.318 90.8912L233.665 69.8046C241.87 64.285 244.216 53.2512 238.965 44.8714L218.906 12.8581Z" stroke="#FEFEFE" stroke-width="1.4151"/>
<path opacity="0.482759" d="M223.886 9.88129C215.62 -4.98693 232.013 -21.3802 246.882 -13.1142L278.43 4.42607C287.073 9.23122 297.97 6.31149 303.053 -2.17129L321.606 -33.1362C330.35 -47.7289 352.742 -41.7286 353.018 -24.7193L353.603 11.3728C353.763 21.2607 361.74 29.2377 371.628 29.3979L407.72 29.9827C424.729 30.2583 430.73 52.6512 416.137 61.3944L385.172 79.9477C376.689 85.0304 373.769 95.927 378.574 104.57L396.115 136.119C404.381 150.987 387.988 167.381 373.119 159.115L341.57 141.574C332.926 136.769 322.03 139.689 316.947 148.172L298.395 179.137C289.651 193.729 267.258 187.729 266.983 170.72L266.398 134.628C266.238 124.74 258.261 116.763 248.373 116.603L212.28 116.018C195.271 115.743 189.271 93.3493 203.864 84.606L234.828 66.0535C243.311 60.9708 246.231 50.0736 241.426 41.4304L223.886 9.88129Z" stroke="#FEFEFE" stroke-width="1.4151"/>
<path opacity="0.517241" d="M228.923 7.25657C221.447 -8.0239 238.676 -23.5367 253.091 -14.5039L282.254 3.77079C290.634 9.02173 301.668 6.67576 307.188 -1.52959L326.398 -30.0857C335.893 -44.2007 357.942 -37.0367 357.326 -20.0364L356.082 14.357C355.724 24.2397 363.273 32.6232 373.139 33.3007L407.474 35.6581C424.446 36.8235 429.266 59.4997 414.235 67.4673L383.828 83.5873C375.09 88.2191 371.604 98.9479 375.95 107.831L391.076 138.744C398.553 154.025 381.324 169.538 366.909 160.505L337.746 142.23C329.366 136.979 318.331 139.325 312.812 147.53L293.601 176.087C284.106 190.202 262.058 183.038 262.673 166.037L263.918 131.644C264.275 121.761 256.727 113.378 246.861 112.7L212.526 110.343C195.554 109.177 190.734 86.5013 205.764 78.5336L236.172 62.4136C244.909 57.7819 248.396 47.0531 244.05 38.1702L228.923 7.25657Z" stroke="#FEFEFE" stroke-width="1.4151"/>
<path opacity="0.551724" d="M233.996 4.98004C227.33 -10.6708 245.346 -25.26 259.269 -15.4852L286.06 3.32404C294.153 9.0064 305.296 7.24192 311.237 -0.663365L330.905 -26.8314C341.126 -40.43 362.769 -32.122 361.265 -15.1772L358.371 17.4295C357.496 27.2797 364.596 36.0468 374.413 37.2399L406.909 41.1887C423.796 43.2407 427.423 66.138 411.997 73.3081L382.311 87.1056C373.344 91.2736 369.3 101.805 373.176 110.903L386.004 141.02C392.671 156.671 374.655 171.26 360.732 161.485L333.94 142.675C325.847 136.993 314.705 138.759 308.763 146.664L289.095 172.832C278.875 186.431 257.232 178.122 258.736 161.177L261.629 128.571C262.503 118.72 255.404 109.953 245.587 108.76L213.091 104.812C196.204 102.76 192.577 79.8622 208.004 72.6922L237.689 58.8947C246.657 54.7265 250.7 44.1942 246.824 35.0961L233.996 4.98004Z" stroke="#FEFEFE" stroke-width="1.4151"/>
<path opacity="0.586207" d="M239.08 3.05028C233.242 -12.928 251.997 -26.5544 265.389 -16.0642L289.836 3.08472C297.621 9.18287 308.841 8.00399 315.188 0.420479L335.119 -23.3935C346.037 -36.4385 367.216 -27.0092 364.827 -10.1664L360.467 20.58C359.078 30.3711 365.709 39.4978 375.45 41.2028L406.039 46.5565C422.795 49.4894 425.219 72.5452 409.438 78.8981L380.631 90.4955C371.457 94.1885 366.869 104.494 370.262 113.783L380.92 142.95C386.758 158.929 368.003 172.555 354.611 162.065L330.164 142.916C322.379 136.818 311.16 137.997 304.813 145.581L284.881 169.394C273.963 182.439 252.784 173.01 255.173 156.167L259.533 125.421C260.922 115.63 254.291 106.504 244.55 104.799L213.961 99.4441C197.205 96.5111 194.781 73.4554 210.562 67.1024L239.369 55.5058C248.543 51.8128 253.131 41.5065 249.737 32.218L239.08 3.05028Z" stroke="#FEFEFE" stroke-width="1.4151"/>
<path opacity="0.62069" d="M244.154 1.46067C239.159 -14.8013 258.603 -27.4279 271.428 -16.2513L293.571 3.04699C301.026 9.5439 312.292 8.95322 319.027 1.7124L339.032 -19.7945C350.619 -32.25 371.274 -21.7253 368.008 -5.03063L362.367 23.7956C360.468 33.5006 366.612 42.9619 376.25 45.1743L404.879 51.7459C421.459 55.552 422.672 78.7027 406.581 84.2211L378.797 93.7491C369.442 96.957 364.32 107.008 367.223 116.462L375.847 144.54C380.841 160.802 361.397 173.429 348.573 162.252L326.429 142.954C318.974 136.457 307.708 137.047 300.973 144.288L280.968 165.795C269.382 178.251 248.726 167.726 251.993 151.031L257.633 122.205C259.532 112.5 253.388 103.039 243.75 100.826L215.121 94.2548C198.541 90.4489 197.328 67.2978 213.419 61.7796L241.204 52.2516C250.558 49.0438 255.68 38.9924 252.777 29.5391L244.154 1.46067Z" stroke="#FEFEFE" stroke-width="1.4151"/>
<path opacity="0.655172" d="M249.196 0.204664C245.059 -16.2963 265.137 -27.8881 277.359 -16.0556L297.255 3.20507C304.36 10.0834 315.64 10.0841 322.745 3.20591L342.641 -16.056C354.863 -27.888 374.94 -16.2967 370.804 0.204019L364.071 27.0649C361.667 36.6571 367.307 46.4269 376.816 49.1409L403.445 56.7401C419.804 61.4087 419.803 84.5919 403.445 89.2604L376.816 96.8593C367.307 99.5734 361.667 109.343 364.072 118.935L370.804 145.796C374.94 162.297 354.863 173.888 342.641 162.056L322.746 142.795C315.641 135.916 304.359 135.916 297.254 142.794L277.359 162.056C265.137 173.888 245.06 162.297 249.196 145.796L255.929 118.935C258.333 109.343 252.693 99.5733 243.183 96.8593L216.554 89.2602C200.196 84.5915 200.197 61.4083 216.555 56.7399L243.184 49.141C252.693 46.4269 258.333 36.6567 255.929 27.0644L249.196 0.204664Z" stroke="#FEFEFE" stroke-width="1.4151"/>
<path opacity="0.689655" d="M254.187 -0.73483C250.92 -17.4297 271.575 -27.9544 283.162 -15.4984L300.876 3.54677C307.612 10.7875 318.877 11.3774 326.333 4.88038L345.942 -12.2089C358.767 -23.3849 378.209 -10.7588 373.215 5.50278L365.579 30.367C362.676 39.8204 367.798 49.8719 377.152 53.0798L401.756 61.517C417.848 67.0352 416.634 90.1868 400.053 93.9927L374.703 99.8117C365.064 102.024 358.92 111.486 360.819 121.191L365.814 146.717C369.081 163.412 348.426 173.936 336.839 161.481L319.124 142.436C312.388 135.195 301.122 134.604 293.667 141.101L274.059 158.19C261.234 169.367 241.791 156.74 246.785 140.479L254.421 115.614C257.324 106.161 252.203 96.1093 242.848 92.9015L218.245 84.4643C202.153 78.9461 203.366 55.7951 219.946 51.989L245.297 46.17C254.935 43.9576 261.08 34.4966 259.181 24.7917L254.187 -0.73483Z" stroke="#FEFEFE" stroke-width="1.4151"/>
<path opacity="0.724138" d="M259.104 -1.34774C256.715 -18.1907 277.894 -27.6199 288.812 -14.5746L304.427 4.08166C310.774 11.6651 321.994 12.8447 329.779 6.74661L348.931 -8.25637C362.323 -18.7464 381.079 -5.11998 375.241 10.858L366.891 33.7104C363.497 42.9988 368.086 53.3048 377.259 56.9978L399.828 66.0829C415.609 72.436 413.185 95.4921 396.429 98.425L372.464 102.619C362.723 104.324 356.092 113.451 357.481 123.242L360.896 147.33C363.285 164.173 342.107 173.602 331.188 160.557L315.573 141.9C309.226 134.317 298.007 133.137 290.222 139.236L271.069 154.239C257.677 164.729 238.922 151.102 244.76 135.124L253.11 112.273C256.504 102.984 251.915 92.6784 242.742 88.9853L220.173 79.8988C204.392 73.546 206.815 50.4901 223.572 47.5571L247.536 43.3632C257.278 41.6582 263.908 32.5311 262.52 22.7399L259.104 -1.34774Z" stroke="#FEFEFE" stroke-width="1.4151"/>
<path opacity="0.758621" d="M263.929 -1.65394C262.425 -18.5988 284.069 -26.9071 294.29 -13.3083L307.897 4.79636C313.838 12.7015 324.98 14.4659 333.074 8.78356L351.609 -4.22915C365.532 -14.004 383.55 0.585223 376.883 16.236L368.008 37.0721C364.132 46.1703 368.175 56.7021 377.143 60.8702L397.681 70.4156C413.107 77.5857 409.48 100.483 392.593 102.535L370.11 105.267C360.293 106.46 353.194 115.227 354.068 125.078L356.071 147.637C357.575 164.582 335.931 172.89 325.71 159.291L312.104 141.187C306.162 133.281 295.02 131.516 286.926 137.198L268.39 150.212C254.467 159.987 236.451 145.398 243.117 129.747L251.993 108.911C255.868 99.8126 251.825 89.2808 242.858 85.1127L222.32 75.5673C206.893 68.3973 210.52 45.5 227.407 43.4478L249.89 40.7151C259.706 39.5221 266.806 30.7554 265.932 20.9051L263.929 -1.65394Z" stroke="#FEFEFE" stroke-width="1.4151"/>
<path opacity="0.793103" d="M268.646 -1.66552C268.03 -18.6659 290.079 -25.83 299.574 -11.7149L311.277 5.68141C316.796 13.8868 327.831 16.2327 336.211 10.9818L353.978 -0.150857C368.393 -9.18369 385.621 6.32883 378.144 21.6093L368.93 40.4419C364.584 49.3248 368.07 60.0538 376.807 64.6855L395.331 74.5053C410.362 82.4729 405.542 105.15 388.571 106.315L367.653 107.751C357.787 108.428 350.239 116.812 350.596 126.695L351.354 147.647C351.969 164.648 329.92 171.812 320.425 157.697L308.723 140.3C303.203 132.095 292.169 129.749 283.789 135L266.023 146.134C251.607 155.166 234.379 139.653 241.855 124.373L251.07 105.54C255.416 96.6571 251.93 85.9281 243.193 81.2964L224.669 71.4766C209.638 63.5091 214.458 40.8327 231.43 39.6674L252.346 38.2311C262.212 37.5536 269.761 29.1696 269.403 19.2869L268.646 -1.66552Z" stroke="#FEFEFE" stroke-width="1.4151"/>
<path opacity="0.827586" d="M273.235 -1.39407C273.511 -18.4033 295.904 -24.4034 304.647 -9.81074L314.559 6.73235C319.642 15.2152 330.539 18.1346 339.182 13.3295L356.037 3.95925C370.905 -4.30676 387.298 12.0861 379.032 26.9544L369.661 43.8095C364.856 52.4526 367.776 63.3494 376.259 68.4322L392.802 78.3446C407.395 87.0879 401.394 109.481 384.385 109.756L365.102 110.069C355.214 110.229 347.238 118.206 347.078 128.094L346.765 147.377C346.489 164.386 324.097 170.386 315.354 155.793L305.441 139.25C300.358 130.767 289.461 127.847 280.818 132.652L263.963 142.023C249.095 150.289 232.702 133.897 240.968 119.029L250.338 102.172C255.143 93.5292 252.224 82.6324 243.741 77.5498L227.198 67.6383C212.605 58.895 218.606 36.5017 235.615 36.2262L254.897 35.9134C264.785 35.7533 272.762 27.7767 272.922 17.8889L273.235 -1.39407Z" stroke="#FEFEFE" stroke-width="1.4151"/>
<path opacity="0.862069" d="M277.681 -0.853117C278.846 -17.8247 301.522 -22.6446 309.49 -7.61431L317.735 7.93908C322.366 16.6764 333.096 20.1628 341.978 15.8167L357.792 8.07967C373.072 0.603126 388.584 17.8315 379.551 32.2467L370.205 47.1645C364.954 55.5444 367.299 66.579 375.505 72.0986L390.111 81.924C404.226 91.419 397.062 113.467 380.062 112.852L362.469 112.216C352.586 111.859 344.202 119.408 343.525 129.273L342.319 146.836C341.154 163.807 318.478 168.627 310.51 153.597L302.265 138.043C297.633 129.306 286.904 125.82 278.021 130.166L262.208 137.903C246.928 145.379 231.416 128.151 240.448 113.736L249.796 98.8187C255.047 90.439 252.701 79.4043 244.496 73.8846L229.889 64.0584C215.774 54.5635 222.938 32.5152 239.938 33.1302L257.531 33.7666C267.414 34.1241 275.797 26.575 276.475 16.7091L277.681 -0.853117Z" stroke="#FEFEFE" stroke-width="1.4151"/>
<path opacity="0.896552" d="M281.967 -0.0574314C284.019 -16.9447 306.918 -20.5714 314.088 -5.14476L320.798 9.29477C324.966 18.2626 335.498 22.3057 344.596 18.4305L359.246 12.1899C374.897 5.5233 389.486 23.5399 379.711 37.4627L370.562 50.4948C364.88 58.5884 366.644 69.7306 374.55 75.6721L387.278 85.2392C400.877 95.4599 392.569 117.103 375.624 115.599L359.763 114.191C349.913 113.317 341.146 120.417 339.953 130.234L338.033 146.04C335.981 162.927 313.083 166.554 305.913 151.127L299.202 136.688C295.034 127.72 284.502 123.677 275.404 127.552L260.754 133.793C245.104 140.459 230.514 122.443 240.288 108.52L249.438 95.4878C255.121 87.3943 253.356 76.252 245.451 70.3105L232.722 60.7434C219.123 50.5227 227.431 28.8796 244.376 30.3835L260.237 31.7907C270.087 32.6648 278.854 25.5659 280.047 15.7491L281.967 -0.0574314Z" stroke="#FEFEFE" stroke-width="1.4151"/>
<path opacity="0.931035" d="M286.081 0.978184C289.014 -15.7786 312.071 -18.2019 318.424 -2.42113L323.742 10.7897C327.435 19.9634 337.741 24.5523 347.03 21.1583L360.406 16.2704C376.385 10.4322 390.011 29.1876 379.521 42.5796L370.738 53.7915C364.641 61.5765 365.82 72.7959 373.403 79.143L384.325 88.2839C397.37 99.2023 387.941 120.381 371.098 117.992L356.997 115.992C347.206 114.604 338.079 121.235 336.374 130.976L333.919 145.004C330.986 161.761 307.929 164.184 301.576 148.403L296.258 135.193C292.565 126.019 282.259 121.43 272.971 124.824L259.594 129.712C243.616 135.55 229.989 116.795 240.479 103.403L249.262 92.1908C255.36 84.4057 254.181 73.1863 246.597 66.8393L235.676 57.6984C222.631 46.78 232.06 25.6016 248.902 27.99L263.003 29.9899C272.794 31.3785 281.921 24.7471 283.626 15.006L286.081 0.978184Z" stroke="#FEFEFE" stroke-width="1.4151"/>
<path opacity="0.965517" d="M290.01 2.23761C293.816 -14.3427 316.967 -15.556 322.485 0.535668L326.56 12.4168C329.767 21.7712 339.819 26.8933 349.273 23.9901L361.28 20.3019C377.541 15.308 390.167 34.7508 378.991 47.5754L370.739 57.0447C364.242 64.5 364.832 75.7657 372.073 82.501L381.27 91.0558C393.726 102.642 383.201 123.298 366.506 120.031L354.18 117.619C344.474 115.72 335.013 121.865 332.801 131.503L329.99 143.745C326.184 160.326 303.034 161.539 297.515 145.447L293.441 133.566C290.233 124.212 280.181 119.09 270.728 121.993L258.721 125.68C242.459 130.674 229.832 111.231 241.009 98.4066L249.261 88.9373C255.758 81.482 255.168 70.2163 247.927 63.481L238.73 54.9262C226.274 43.34 236.799 22.6838 253.494 25.9507L265.821 28.3636C275.526 30.2626 284.987 24.118 287.2 14.4796L290.01 2.23761Z" stroke="#FEFEFE" stroke-width="1.4151"/>
<path d="M293.74 3.70398C298.409 -12.6544 321.591 -12.6544 326.26 3.70398L329.246 14.1659C331.96 23.6751 341.73 29.3154 351.322 26.911L361.875 24.2655C378.376 20.1296 389.967 40.2064 378.135 52.4286L370.567 60.246C363.689 67.351 363.689 78.6322 370.567 85.7372L378.135 93.5536C389.967 105.776 378.376 125.853 361.875 121.717L351.322 119.071C341.73 116.667 331.96 122.308 329.246 131.817L326.26 142.278C321.591 158.637 298.409 158.637 293.74 142.278L290.755 131.817C288.041 122.308 278.271 116.667 268.679 119.071L258.125 121.717C241.624 125.852 230.033 105.776 241.865 93.5536L249.433 85.7372C256.311 78.6322 256.311 67.351 249.433 60.246L241.865 52.4286C230.033 40.2065 241.624 20.1299 258.125 24.2655L268.679 26.911C278.271 29.3153 288.041 23.6751 290.755 14.1659L293.74 3.70398Z" stroke="#FEFEFE" stroke-width="1.4151"/>
</g>
<defs>
<clipPath id="clip0_438_28565">
<path d="M0 16C0 7.16345 7.16344 0 16 0H294C302.837 0 310 7.16344 310 16V370C310 378.837 302.837 386 294 386H16C7.16345 386 0 378.837 0 370V16Z" fill="white"/>
</clipPath>
</defs>
</svg>
