<svg width="310" height="386" viewBox="0 0 310 386" fill="none" xmlns="http://www.w3.org/2000/svg">
<g clip-path="url(#clip0_438_28636)">
<path d="M0 16C0 7.16345 7.16344 0 16 0H294C302.837 0 310 7.16344 310 16V370C310 378.837 302.837 386 294 386H16C7.16345 386 0 378.837 0 370V16Z" fill="#51ABFB"/>
<path d="M31.8397 288.065C30.2197 288.065 28.5847 287.6 27.3247 286.655L20.9047 281.855C19.2097 280.595 17.8896 277.94 17.8896 275.81V264.695C17.8896 262.4 19.5697 259.955 21.7297 259.145L29.1997 256.34C30.6847 255.785 33.0097 255.785 34.4947 256.34L41.9497 259.145C43.7047 259.805 45.1897 261.56 45.6697 263.51C45.7447 263.84 45.6697 264.2 45.4597 264.47C45.2497 264.74 44.9197 264.905 44.5747 264.905L32.7097 264.92C30.8047 265.04 30.3397 265.355 30.3397 268.13V276.275C30.3397 279.14 30.7147 279.5 33.6247 279.5H42.5047C42.9697 279.5 43.3896 279.785 43.5546 280.22C43.7197 280.655 43.5997 281.15 43.2547 281.465C43.0897 281.6 42.9547 281.735 42.7897 281.855L36.3697 286.67C35.0797 287.6 33.4597 288.065 31.8397 288.065ZM31.8397 258.185C31.1647 258.185 30.4747 258.275 29.9797 258.47L22.5097 261.275C21.2497 261.755 20.1247 263.36 20.1247 264.725V275.84C20.1247 277.25 21.1147 279.23 22.2397 280.07L28.6597 284.87C30.3847 286.145 33.2797 286.145 35.0047 284.87L39.1597 281.765H33.6097C29.4697 281.765 28.0747 280.385 28.0747 276.29V268.145C28.0747 264.95 28.8397 262.925 32.6347 262.685L33.6097 262.67H42.8347C42.3847 262.025 41.7847 261.515 41.1547 261.275L33.6997 258.47C33.1897 258.275 32.5147 258.185 31.8397 258.185Z" fill="#FEFEFE"/>
<path d="M48.9997 271.955H29.1997C28.5847 271.955 28.0747 271.445 28.0747 270.83C28.0747 270.215 28.5847 269.705 29.1997 269.705H48.9997C49.6147 269.705 50.1247 270.215 50.1247 270.83C50.1247 271.445 49.6147 271.955 48.9997 271.955Z" fill="#FEFEFE"/>
<path d="M44.5897 281.75H33.6097C29.4697 281.75 28.0747 280.37 28.0747 276.275V268.13C28.0747 264.935 28.8397 262.91 32.6347 262.67L33.6097 262.655H44.5897C48.7297 262.655 50.1247 264.035 50.1247 268.13V276.455C50.0947 280.415 48.6997 281.75 44.5897 281.75ZM33.6097 264.905L32.6947 264.92C30.7897 265.04 30.3247 265.355 30.3247 268.13V276.275C30.3247 279.14 30.6997 279.5 33.6097 279.5H44.5897C47.4547 279.5 47.8447 279.125 47.8747 276.455V268.145C47.8747 265.28 47.4997 264.92 44.5897 264.92H33.6097V264.905Z" fill="#FEFEFE"/>
<path d="M34.9748 278.015H32.9648C32.3498 278.015 31.8398 277.505 31.8398 276.89C31.8398 276.275 32.3498 275.765 32.9648 275.765H34.9748C35.5898 275.765 36.0998 276.275 36.0998 276.89C36.0998 277.505 35.6048 278.015 34.9748 278.015Z" fill="#FEFEFE"/>
<path d="M43.03 278.015H38.125C37.51 278.015 37 277.505 37 276.89C37 276.275 37.51 275.765 38.125 275.765H43.03C43.645 275.765 44.155 276.275 44.155 276.89C44.155 277.505 43.66 278.015 43.03 278.015Z" fill="#FEFEFE"/>
<path d="M23.464 322.336C22.2 322.336 21.08 322.112 20.104 321.664C19.128 321.216 18.36 320.56 17.8 319.696C17.256 318.816 16.984 317.752 16.984 316.504V315.904H19.552V316.504C19.552 317.688 19.904 318.576 20.608 319.168C21.328 319.76 22.28 320.056 23.464 320.056C24.664 320.056 25.568 319.808 26.176 319.312C26.784 318.8 27.088 318.144 27.088 317.344C27.088 316.816 26.944 316.384 26.656 316.048C26.368 315.712 25.96 315.448 25.432 315.256C24.904 315.048 24.272 314.856 23.536 314.68L22.648 314.464C21.576 314.208 20.64 313.896 19.84 313.528C19.056 313.144 18.448 312.64 18.016 312.016C17.584 311.392 17.368 310.592 17.368 309.616C17.368 308.624 17.608 307.776 18.088 307.072C18.584 306.368 19.264 305.824 20.128 305.44C20.992 305.056 22.008 304.864 23.176 304.864C24.344 304.864 25.384 305.064 26.296 305.464C27.224 305.864 27.952 306.456 28.48 307.24C29.008 308.024 29.272 309.008 29.272 310.192V311.056H26.704V310.192C26.704 309.472 26.552 308.888 26.248 308.44C25.96 307.992 25.552 307.664 25.024 307.456C24.496 307.248 23.88 307.144 23.176 307.144C22.152 307.144 21.352 307.36 20.776 307.792C20.216 308.208 19.936 308.792 19.936 309.544C19.936 310.056 20.056 310.48 20.296 310.816C20.552 311.136 20.92 311.4 21.4 311.608C21.88 311.816 22.48 312 23.2 312.16L24.088 312.376C25.176 312.616 26.136 312.928 26.968 313.312C27.8 313.68 28.456 314.184 28.936 314.824C29.416 315.464 29.656 316.288 29.656 317.296C29.656 318.304 29.4 319.184 28.888 319.936C28.392 320.688 27.68 321.28 26.752 321.712C25.824 322.128 24.728 322.336 23.464 322.336ZM33.745 322L31.729 310.168H34.201L35.689 320.344H36.073L38.137 310.168H42.145L44.185 320.344H44.569L46.057 310.168H48.529L46.513 322H42.361L40.321 311.848H39.937L37.897 322H33.745ZM51.4568 322V310.168H53.9288V322H51.4568ZM52.7048 308.56C52.2248 308.56 51.8168 308.408 51.4808 308.104C51.1608 307.784 51.0008 307.376 51.0008 306.88C51.0008 306.384 51.1608 305.984 51.4808 305.68C51.8168 305.36 52.2248 305.2 52.7048 305.2C53.2008 305.2 53.6088 305.36 53.9288 305.68C54.2488 305.984 54.4088 306.384 54.4088 306.88C54.4088 307.376 54.2488 307.784 53.9288 308.104C53.6088 308.408 53.2008 308.56 52.7048 308.56ZM59.7334 322V312.256H56.4214V310.168H59.7334V307.576C59.7334 306.856 59.9494 306.28 60.3814 305.848C60.8134 305.416 61.3894 305.2 62.1094 305.2H65.1574V307.288H62.9014C62.4374 307.288 62.2054 307.528 62.2054 308.008V310.168H65.6134V312.256H62.2054V322H59.7334ZM72.2796 322C71.5596 322 70.9836 321.784 70.5516 321.352C70.1356 320.92 69.9276 320.344 69.9276 319.624V312.256H66.6636V310.168H69.9276V306.256H72.3996V310.168H75.9276V312.256H72.3996V319.192C72.3996 319.672 72.6236 319.912 73.0716 319.912H75.5436V322H72.2796ZM84.877 322V305.2H91.549C92.573 305.2 93.485 305.408 94.285 305.824C95.101 306.224 95.733 306.8 96.181 307.552C96.645 308.288 96.877 309.176 96.877 310.216V310.528C96.877 311.568 96.637 312.464 96.157 313.216C95.693 313.968 95.061 314.544 94.261 314.944C93.461 315.344 92.557 315.544 91.549 315.544H87.469V322H84.877ZM87.469 313.192H91.285C92.197 313.192 92.925 312.952 93.469 312.472C94.013 311.992 94.285 311.336 94.285 310.504V310.264C94.285 309.416 94.013 308.752 93.469 308.272C92.925 307.792 92.197 307.552 91.285 307.552H87.469V313.192ZM102.824 322.336C101.976 322.336 101.216 322.192 100.544 321.904C99.8881 321.616 99.3601 321.192 98.9601 320.632C98.5761 320.072 98.3841 319.392 98.3841 318.592C98.3841 317.776 98.5761 317.104 98.9601 316.576C99.3601 316.032 99.8961 315.624 100.568 315.352C101.256 315.08 102.032 314.944 102.896 314.944H106.496V314.176C106.496 313.488 106.288 312.936 105.872 312.52C105.456 312.104 104.816 311.896 103.952 311.896C103.104 311.896 102.456 312.096 102.008 312.496C101.56 312.896 101.264 313.416 101.12 314.056L98.8161 313.312C99.0081 312.672 99.3121 312.096 99.7281 311.584C100.16 311.056 100.728 310.632 101.432 310.312C102.136 309.992 102.984 309.832 103.976 309.832C105.512 309.832 106.72 310.224 107.6 311.008C108.48 311.792 108.92 312.904 108.92 314.344V319.216C108.92 319.696 109.144 319.936 109.592 319.936H110.6V322H108.752C108.192 322 107.736 321.856 107.384 321.568C107.032 321.28 106.856 320.888 106.856 320.392V320.32H106.496C106.368 320.56 106.176 320.84 105.92 321.16C105.664 321.48 105.288 321.76 104.792 322C104.296 322.224 103.64 322.336 102.824 322.336ZM103.184 320.296C104.176 320.296 104.976 320.016 105.584 319.456C106.192 318.88 106.496 318.096 106.496 317.104V316.864H103.04C102.384 316.864 101.856 317.008 101.456 317.296C101.056 317.568 100.856 317.976 100.856 318.52C100.856 319.064 101.064 319.496 101.48 319.816C101.896 320.136 102.464 320.296 103.184 320.296ZM114.067 326.8V324.64H120.667C121.115 324.64 121.339 324.4 121.339 323.92V320.272H120.955C120.811 320.592 120.587 320.904 120.283 321.208C119.995 321.496 119.603 321.736 119.107 321.928C118.611 322.12 117.987 322.216 117.235 322.216C116.339 322.216 115.539 322.016 114.835 321.616C114.131 321.216 113.579 320.648 113.179 319.912C112.779 319.176 112.579 318.304 112.579 317.296V310.168H115.051V317.104C115.051 318.128 115.307 318.888 115.819 319.384C116.331 319.864 117.043 320.104 117.955 320.104C118.963 320.104 119.771 319.768 120.379 319.096C121.003 318.424 121.315 317.448 121.315 316.168V310.168H123.787V324.424C123.787 325.144 123.571 325.72 123.139 326.152C122.723 326.584 122.147 326.8 121.411 326.8H114.067ZM127.441 322V310.168H129.865V311.56H130.249C130.473 311.144 130.833 310.776 131.329 310.456C131.825 310.136 132.497 309.976 133.345 309.976C134.225 309.976 134.929 310.16 135.457 310.528C136.001 310.88 136.409 311.336 136.681 311.896H137.065C137.337 311.352 137.729 310.896 138.241 310.528C138.769 310.16 139.513 309.976 140.473 309.976C141.241 309.976 141.921 310.136 142.513 310.456C143.105 310.76 143.577 311.224 143.929 311.848C144.281 312.456 144.457 313.216 144.457 314.128V322H141.985V314.32C141.985 313.6 141.785 313.048 141.385 312.664C141.001 312.264 140.449 312.064 139.729 312.064C138.961 312.064 138.345 312.312 137.881 312.808C137.417 313.304 137.185 314.016 137.185 314.944V322H134.713V314.32C134.713 313.6 134.513 313.048 134.113 312.664C133.729 312.264 133.177 312.064 132.457 312.064C131.689 312.064 131.073 312.312 130.609 312.808C130.145 313.304 129.913 314.016 129.913 314.944V322H127.441ZM153.443 322.336C152.243 322.336 151.195 322.088 150.299 321.592C149.403 321.08 148.699 320.368 148.187 319.456C147.691 318.528 147.443 317.456 147.443 316.24V315.952C147.443 314.72 147.691 313.648 148.187 312.736C148.683 311.808 149.371 311.096 150.251 310.6C151.147 310.088 152.179 309.832 153.347 309.832C154.483 309.832 155.475 310.088 156.323 310.6C157.187 311.096 157.859 311.792 158.339 312.688C158.819 313.584 159.059 314.632 159.059 315.832V316.768H149.963C149.995 317.808 150.339 318.64 150.995 319.264C151.667 319.872 152.499 320.176 153.491 320.176C154.419 320.176 155.115 319.968 155.579 319.552C156.059 319.136 156.427 318.656 156.683 318.112L158.723 319.168C158.499 319.616 158.171 320.088 157.739 320.584C157.323 321.08 156.771 321.496 156.083 321.832C155.395 322.168 154.515 322.336 153.443 322.336ZM149.987 314.872H156.539C156.475 313.976 156.155 313.28 155.579 312.784C155.003 312.272 154.251 312.016 153.323 312.016C152.395 312.016 151.635 312.272 151.043 312.784C150.467 313.28 150.115 313.976 149.987 314.872ZM162.035 322V310.168H164.459V311.944H164.843C165.067 311.464 165.467 311.016 166.043 310.6C166.619 310.184 167.475 309.976 168.611 309.976C169.507 309.976 170.299 310.176 170.987 310.576C171.691 310.976 172.243 311.544 172.643 312.28C173.043 313 173.243 313.872 173.243 314.896V322H170.771V315.088C170.771 314.064 170.515 313.312 170.003 312.832C169.491 312.336 168.787 312.088 167.891 312.088C166.867 312.088 166.043 312.424 165.419 313.096C164.811 313.768 164.507 314.744 164.507 316.024V322H162.035ZM180.912 322C180.192 322 179.616 321.784 179.184 321.352C178.768 320.92 178.56 320.344 178.56 319.624V312.256H175.296V310.168H178.56V306.256H181.032V310.168H184.56V312.256H181.032V319.192C181.032 319.672 181.256 319.912 181.704 319.912H184.176V322H180.912ZM24.064 354.336C22 354.336 20.36 353.76 19.144 352.608C17.928 351.44 17.32 349.76 17.32 347.568V343.632C17.32 341.44 17.928 339.768 19.144 338.616C20.36 337.448 22 336.864 24.064 336.864C26.128 336.864 27.768 337.448 28.984 338.616C30.216 339.768 30.832 341.44 30.832 343.632V347.568C30.832 349.76 30.216 351.44 28.984 352.608C27.768 353.76 26.128 354.336 24.064 354.336ZM24.064 352.008C25.392 352.008 26.416 351.624 27.136 350.856C27.856 350.072 28.216 349.008 28.216 347.664V343.536C28.216 342.192 27.856 341.136 27.136 340.368C26.416 339.584 25.392 339.192 24.064 339.192C22.768 339.192 21.752 339.584 21.016 340.368C20.28 341.136 19.912 342.192 19.912 343.536V347.664C19.912 349.008 20.28 350.072 21.016 350.856C21.752 351.624 22.768 352.008 24.064 352.008ZM33.9724 358.8V342.168H36.3964V343.872H36.7804C37.0844 343.344 37.5404 342.872 38.1484 342.456C38.7724 342.04 39.6604 341.832 40.8124 341.832C41.8044 341.832 42.7084 342.072 43.5244 342.552C44.3564 343.032 45.0204 343.728 45.5164 344.64C46.0284 345.536 46.2844 346.624 46.2844 347.904V348.264C46.2844 349.544 46.0364 350.64 45.5404 351.552C45.0444 352.448 44.3804 353.136 43.5484 353.616C42.7164 354.096 41.8044 354.336 40.8124 354.336C40.0444 354.336 39.3964 354.24 38.8684 354.048C38.3404 353.856 37.9164 353.616 37.5964 353.328C37.2764 353.024 37.0204 352.712 36.8284 352.392H36.4444V358.8H33.9724ZM40.0924 352.176C41.1804 352.176 42.0684 351.832 42.7564 351.144C43.4444 350.456 43.7884 349.472 43.7884 348.192V347.976C43.7884 346.712 43.4364 345.736 42.7324 345.048C42.0444 344.36 41.1644 344.016 40.0924 344.016C39.0364 344.016 38.1564 344.36 37.4524 345.048C36.7644 345.736 36.4204 346.712 36.4204 347.976V348.192C36.4204 349.472 36.7644 350.456 37.4524 351.144C38.1564 351.832 39.0364 352.176 40.0924 352.176ZM53.3421 354C52.6221 354 52.0461 353.784 51.6141 353.352C51.1981 352.92 50.9901 352.344 50.9901 351.624V344.256H47.7261V342.168H50.9901V338.256H53.4621V342.168H56.9901V344.256H53.4621V351.192C53.4621 351.672 53.6861 351.912 54.1341 351.912H56.6061V354H53.3421ZM59.8943 354V342.168H62.3663V354H59.8943ZM61.1423 340.56C60.6623 340.56 60.2543 340.408 59.9183 340.104C59.5983 339.784 59.4383 339.376 59.4383 338.88C59.4383 338.384 59.5983 337.984 59.9183 337.68C60.2543 337.36 60.6623 337.2 61.1423 337.2C61.6383 337.2 62.0463 337.36 62.3663 337.68C62.6863 337.984 62.8463 338.384 62.8463 338.88C62.8463 339.376 62.6863 339.784 62.3663 340.104C62.0463 340.408 61.6383 340.56 61.1423 340.56ZM71.5789 354.336C70.3949 354.336 69.3389 354.096 68.4109 353.616C67.4989 353.12 66.7789 352.416 66.2509 351.504C65.7229 350.592 65.4589 349.512 65.4589 348.264V347.904C65.4589 346.656 65.7229 345.584 66.2509 344.688C66.7789 343.776 67.4989 343.072 68.4109 342.576C69.3389 342.08 70.3949 341.832 71.5789 341.832C72.7629 341.832 73.8189 342.08 74.7469 342.576C75.6749 343.072 76.4029 343.776 76.9309 344.688C77.4589 345.584 77.7229 346.656 77.7229 347.904V348.264C77.7229 349.512 77.4589 350.592 76.9309 351.504C76.4029 352.416 75.6749 353.12 74.7469 353.616C73.8189 354.096 72.7629 354.336 71.5789 354.336ZM71.5789 352.128C72.6669 352.128 73.5469 351.784 74.2189 351.096C74.9069 350.392 75.2509 349.424 75.2509 348.192V347.976C75.2509 346.744 74.9149 345.784 74.2429 345.096C73.5709 344.392 72.6829 344.04 71.5789 344.04C70.5069 344.04 69.6269 344.392 68.9389 345.096C68.2669 345.784 67.9309 346.744 67.9309 347.976V348.192C67.9309 349.424 68.2669 350.392 68.9389 351.096C69.6269 351.784 70.5069 352.128 71.5789 352.128ZM80.8006 354V342.168H83.2246V343.944H83.6086C83.8326 343.464 84.2326 343.016 84.8086 342.6C85.3846 342.184 86.2406 341.976 87.3766 341.976C88.2726 341.976 89.0646 342.176 89.7526 342.576C90.4566 342.976 91.0086 343.544 91.4086 344.28C91.8086 345 92.0086 345.872 92.0086 346.896V354H89.5366V347.088C89.5366 346.064 89.2806 345.312 88.7686 344.832C88.2566 344.336 87.5526 344.088 86.6566 344.088C85.6326 344.088 84.8086 344.424 84.1846 345.096C83.5766 345.768 83.2726 346.744 83.2726 348.024V354H80.8006ZM100.414 354.336C98.9102 354.336 97.6622 354 96.6702 353.328C95.6782 352.656 95.0702 351.64 94.8462 350.28L97.1502 349.728C97.2782 350.384 97.4942 350.904 97.7982 351.288C98.1022 351.672 98.4782 351.944 98.9262 352.104C99.3902 352.264 99.8862 352.344 100.414 352.344C101.198 352.344 101.798 352.192 102.214 351.888C102.646 351.584 102.862 351.192 102.862 350.712C102.862 350.232 102.662 349.88 102.262 349.656C101.862 349.432 101.27 349.248 100.486 349.104L99.6702 348.96C98.8702 348.816 98.1422 348.608 97.4862 348.336C96.8302 348.064 96.3102 347.688 95.9262 347.208C95.5422 346.728 95.3502 346.112 95.3502 345.36C95.3502 344.24 95.7662 343.376 96.5982 342.768C97.4302 342.144 98.5342 341.832 99.9102 341.832C101.238 341.832 102.326 342.136 103.174 342.744C104.038 343.336 104.598 344.144 104.854 345.168L102.55 345.816C102.406 345.096 102.102 344.592 101.638 344.304C101.174 344 100.598 343.848 99.9102 343.848C99.2382 343.848 98.7102 343.976 98.3262 344.232C97.9422 344.472 97.7502 344.816 97.7502 345.264C97.7502 345.744 97.9342 346.096 98.3022 346.32C98.6862 346.544 99.1982 346.712 99.8382 346.824L100.678 346.968C101.526 347.112 102.302 347.312 103.006 347.568C103.71 347.824 104.262 348.192 104.662 348.672C105.078 349.152 105.286 349.792 105.286 350.592C105.286 351.776 104.846 352.696 103.966 353.352C103.086 354.008 101.902 354.336 100.414 354.336Z" fill="#FEFEFE"/>
<path opacity="0.0344828" d="M172.122 74.8576C156.341 68.5048 158.764 45.4492 175.521 42.5162L232.606 32.5242C242.347 30.8192 248.978 21.6924 247.59 11.9012L239.452 -45.4776C237.064 -62.3205 258.242 -71.7497 269.161 -58.7044L306.356 -14.2634C312.703 -6.67994 323.923 -5.50063 331.708 -11.5988L377.33 -47.3353C390.722 -57.8254 409.478 -44.199 403.64 -28.2208L383.75 26.2123C380.356 35.5008 384.945 45.8068 394.119 49.4998L447.878 71.1421C463.659 77.4949 461.236 100.551 444.479 103.483L387.395 113.476C377.653 115.181 371.022 124.307 372.411 134.098L380.548 191.477C382.937 208.32 361.758 217.749 350.84 204.704L313.645 160.263C307.298 152.68 296.077 151.5 288.292 157.598L242.67 193.335C229.278 203.825 210.523 190.199 216.361 174.22L236.251 119.787C239.644 110.499 235.056 100.193 225.882 96.4999L172.122 74.8576Z" stroke="#FEFEFE" stroke-width="1.4151"/>
<path opacity="0.0689655" d="M174.599 68.0172C159.173 60.8472 162.799 37.95 179.687 35.898L235.548 29.1097C245.364 27.9167 252.464 19.1494 251.589 9.29907L246.615 -46.7522C245.111 -63.697 266.754 -72.0049 276.975 -58.4061L310.784 -13.4228C316.725 -5.51771 327.868 -3.75279 335.961 -9.43508L382.016 -41.7692C395.939 -51.5437 413.955 -36.9546 407.289 -21.304L385.236 30.4666C381.36 39.5648 385.404 50.0968 394.372 54.2649L445.401 77.983C460.827 85.1532 457.201 108.05 440.314 110.102L384.453 116.89C374.636 118.082 367.536 126.85 368.41 136.7L373.386 192.751C374.89 209.696 353.246 218.004 343.026 204.405L309.217 159.423C303.275 151.518 292.133 149.753 284.039 155.435L237.985 187.768C224.062 197.543 206.045 182.954 212.712 167.303L234.764 115.532C238.639 106.434 234.597 95.9024 225.629 91.7343L174.599 68.0172Z" stroke="#FEFEFE" stroke-width="1.4151"/>
<path opacity="0.103448" d="M177.409 61.4402C162.378 53.4727 167.198 30.7957 184.17 29.6303L238.632 25.8904C248.498 25.213 256.046 16.8302 255.689 6.94768L253.715 -47.608C253.1 -64.6081 275.148 -71.7719 284.643 -57.657L315.113 -12.3614C320.633 -4.15599 331.668 -1.81051 340.048 -7.06149L386.307 -36.0478C400.722 -45.0804 417.95 -29.5682 410.474 -14.2879L386.481 34.7484C382.135 43.6311 385.621 54.3596 394.359 58.9912L442.591 84.5594C457.621 92.527 452.801 115.204 435.83 116.369L381.368 120.109C371.502 120.787 363.953 129.169 364.31 139.052L366.284 193.608C366.899 210.608 344.851 217.771 335.356 203.657L304.886 158.361C299.366 150.156 288.332 147.81 279.952 153.061L233.693 182.047C219.278 191.08 202.049 175.568 209.526 160.288L233.519 111.251C237.865 102.368 234.378 91.64 225.641 87.0084L177.409 61.4402Z" stroke="#FEFEFE" stroke-width="1.4151"/>
<path opacity="0.137931" d="M180.529 55.1414C165.937 46.3981 171.937 24.0054 188.946 23.7299L241.848 22.8733C251.736 22.7131 259.712 14.7358 259.873 4.84803L260.73 -48.055C261.006 -65.0638 283.398 -71.0638 292.142 -56.4716L319.335 -11.0851C324.418 -2.60212 335.315 0.3176 343.958 -4.48753L390.201 -30.1966C405.069 -38.4626 421.462 -22.0699 413.196 -7.20176L387.487 39.0422C382.682 47.6854 385.602 58.5825 394.085 63.6651L439.472 90.8581C454.064 99.6014 448.064 121.994 431.055 122.27L378.152 123.127C368.265 123.287 360.287 131.264 360.127 141.152L359.27 194.054C358.994 211.063 336.601 217.063 327.858 202.471L300.665 157.084C295.582 148.602 284.685 145.682 276.042 150.487L229.799 176.196C214.93 184.462 198.538 168.069 206.804 153.201L232.512 106.958C237.318 98.3147 234.398 87.418 225.915 82.3353L180.529 55.1414Z" stroke="#FEFEFE" stroke-width="1.4151"/>
<path opacity="0.172414" d="M183.939 49.1366C169.823 39.6416 176.987 17.5937 193.988 18.2087L245.182 20.0606C255.064 20.4181 263.448 12.8695 264.126 3.00368L267.635 -48.1048C268.801 -65.0758 291.477 -69.8955 299.444 -54.8659L323.437 -9.60348C328.069 -0.866052 338.799 2.62032 347.682 -1.72596L393.697 -24.2412C408.977 -31.7172 424.49 -14.4894 415.457 -0.074378L388.255 43.3358C383.005 51.7157 385.35 62.7507 393.556 68.2703L436.061 96.8632C450.176 106.358 443.012 128.406 426.012 127.791L374.818 125.939C364.935 125.582 356.551 133.13 355.874 142.996L352.365 194.104C351.2 211.075 328.523 215.896 320.556 200.866L296.562 155.603C291.931 146.866 281.201 143.38 272.318 147.726L226.302 170.241C211.022 177.717 195.51 160.488 204.543 146.073L231.744 102.664C236.995 94.2841 234.649 83.2492 226.444 77.7296L183.939 49.1366Z" stroke="#FEFEFE" stroke-width="1.4151"/>
<path opacity="0.206897" d="M187.616 43.4378C174.017 33.2171 182.325 11.5742 199.27 13.0782L248.623 17.4579C258.473 18.3322 267.24 11.2324 268.433 1.4155L274.41 -47.7688C276.462 -64.6562 299.36 -68.2835 306.53 -52.8568L327.413 -7.92586C331.581 1.04201 342.112 5.0848 351.211 1.20937L396.794 -18.2074C412.445 -24.8738 427.034 -6.85668 417.259 7.06601L388.79 47.6163C383.107 55.7099 384.873 66.8524 392.778 72.7939L432.385 102.563C445.983 112.783 437.676 134.426 420.731 132.922L371.378 128.542C361.528 127.667 352.76 134.767 351.567 144.584L345.591 193.769C343.539 210.657 320.641 214.283 313.471 198.856L292.588 153.925C288.42 144.958 277.888 140.915 268.79 144.79L223.207 164.207C207.556 170.874 192.966 152.857 202.741 138.934L231.21 98.383C236.892 90.2894 235.128 79.1471 227.223 73.2056L187.616 43.4378Z" stroke="#FEFEFE" stroke-width="1.4151"/>
<path opacity="0.241379" d="M191.537 38.056C178.492 27.1375 187.921 5.95828 204.764 8.34699L252.155 15.0679C261.946 16.4565 271.074 9.82569 272.779 0.0846168L281.031 -47.0636C283.964 -63.8203 307.021 -66.2443 313.373 -50.4636L331.248 -6.0605C334.941 3.11321 345.247 7.70163 354.535 4.30771L399.494 -12.1203C415.472 -17.9586 429.098 0.797522 418.608 14.1896L389.092 51.8709C382.994 59.656 384.174 70.8756 391.757 77.2227L428.463 107.944C441.508 118.862 432.078 140.042 415.235 137.653L367.844 130.932C358.053 129.543 348.926 136.174 347.221 145.915L338.968 193.063C336.035 209.82 312.979 212.244 306.626 196.463L288.752 152.06C285.059 142.887 274.753 138.298 265.464 141.692L220.506 158.12C204.528 163.958 190.901 145.202 201.392 131.81L230.907 94.1289C237.005 86.3438 235.826 75.1242 228.242 68.7771L191.537 38.056Z" stroke="#FEFEFE" stroke-width="1.4151"/>
<path opacity="0.275862" d="M195.681 33.0005C183.225 21.4143 193.75 0.75848 210.445 4.0254L255.77 12.8943C265.475 14.7934 274.936 8.64936 277.149 -0.989114L287.481 -46.0024C291.287 -62.5826 314.438 -63.7965 319.957 -47.705L334.937 -4.01729C338.145 5.33694 348.197 10.4584 357.65 7.55547L401.801 -6.00352C418.062 -10.9971 430.688 8.44606 419.512 21.2707L389.168 56.0878C382.671 63.5429 383.262 74.8086 390.502 81.544L424.319 113C436.775 124.586 426.25 145.242 409.556 141.975L364.23 133.106C354.525 131.207 345.064 137.351 342.852 146.99L332.519 192.004C328.713 208.584 305.562 209.797 300.044 193.706L285.062 150.018C281.854 140.664 271.802 135.542 262.349 138.445L218.2 152.004C201.938 156.998 189.312 137.555 200.488 124.731L230.832 89.9127C237.329 82.4574 236.738 71.1914 229.498 64.4561L195.681 33.0005Z" stroke="#FEFEFE" stroke-width="1.4151"/>
<path opacity="0.310345" d="M200.023 28.2799C188.191 16.0577 199.782 -4.019 216.283 0.117181L259.451 10.938C269.043 13.3422 278.813 7.70124 281.527 -1.808L293.74 -44.6027C298.408 -60.9611 321.591 -60.9609 326.26 -44.6025L338.473 -1.80868C341.187 7.7008 350.957 13.3419 360.55 10.9374L403.717 0.116343C420.218 -4.01963 431.809 16.0579 419.977 28.2801L389.022 60.2545C382.144 67.3595 382.143 78.6406 389.022 85.7456L419.977 117.72C431.809 129.942 420.218 150.019 403.717 145.882L360.549 135.062C350.957 132.657 341.187 138.298 338.473 147.808L326.26 190.602C321.591 206.961 298.409 206.961 293.74 190.602L281.527 147.808C278.813 138.299 269.043 132.658 259.45 135.062L216.283 145.882C199.782 150.019 188.191 129.942 200.023 117.72L230.978 85.7451C237.856 78.6402 237.857 67.359 230.978 60.2541L200.023 28.2799Z" stroke="#FEFEFE" stroke-width="1.4151"/>
<path opacity="0.344828" d="M204.54 23.9014C193.364 11.0767 205.99 -8.36588 222.252 -3.37177L263.187 9.19921C272.64 12.1024 282.692 6.98089 285.9 -2.3734L299.791 -42.8802C305.309 -58.9719 328.46 -57.7583 332.266 -41.1781L341.847 0.558564C344.059 10.1969 353.52 16.3412 363.225 14.4421L405.251 6.21883C421.946 2.95202 432.47 23.608 420.015 35.1941L388.659 64.3592C381.419 71.0945 380.828 82.3601 387.325 89.8154L415.46 122.098C426.637 134.923 414.01 154.366 397.748 149.372L356.812 136.801C347.359 133.898 337.308 139.019 334.1 148.374L320.209 188.881C314.691 204.972 291.54 203.758 287.734 187.178L278.153 145.442C275.941 135.803 266.48 129.659 256.775 131.558L214.749 139.781C198.055 143.048 187.53 122.392 199.986 110.806L231.341 81.6411C238.582 74.9058 239.172 63.6397 232.674 56.1844L204.54 23.9014Z" stroke="#FEFEFE" stroke-width="1.4151"/>
<path opacity="0.37931" d="M209.209 19.8698C198.719 6.47769 212.346 -12.2782 228.324 -6.43987L266.966 7.67998C276.254 11.0738 286.56 6.485 290.253 -2.68863L305.617 -40.853C311.97 -56.6338 335.025 -54.2104 337.958 -37.4536L345.052 3.07149C346.757 12.8123 355.883 19.4432 365.674 18.0548L406.408 12.2779C423.251 9.88925 432.68 31.0678 419.635 41.9862L388.086 68.3915C380.503 74.7385 379.323 85.9578 385.421 93.7429L410.791 126.13C421.281 139.522 407.654 158.278 391.676 152.44L353.034 138.32C343.746 134.926 333.44 139.515 329.747 148.689L314.383 186.853C308.03 202.634 284.974 200.211 282.041 183.454L274.948 142.929C273.243 133.188 264.116 126.557 254.325 127.945L213.592 133.722C196.749 136.111 187.319 114.932 200.365 104.014L231.914 77.6087C239.497 71.2616 240.677 60.0424 234.579 52.2573L209.209 19.8698Z" stroke="#FEFEFE" stroke-width="1.4151"/>
<path opacity="0.413793" d="M214.005 16.1874C204.231 2.26467 218.82 -15.7516 234.471 -9.08502L270.774 6.37833C279.872 10.2538 290.404 6.21117 294.572 -2.7567L311.203 -38.5404C318.373 -53.967 341.271 -50.3403 343.323 -33.453L348.083 5.71835C349.276 15.5353 358.043 22.6347 367.893 21.7605L407.198 18.2723C424.143 16.7684 432.451 38.4114 418.853 48.6321L387.309 72.3402C379.404 78.2816 377.639 89.4238 383.321 97.5173L405.995 129.813C415.77 143.736 401.181 161.752 385.53 155.085L349.226 139.621C340.128 135.746 329.596 139.789 325.428 148.757L308.796 184.54C301.626 199.967 278.728 196.341 276.676 179.453L271.917 140.281C270.724 130.465 261.957 123.365 252.107 124.239L212.801 127.728C195.856 129.232 187.549 107.588 201.147 97.3675L232.691 73.6601C240.596 67.7186 242.361 56.5759 236.679 48.4823L214.005 16.1874Z" stroke="#FEFEFE" stroke-width="1.4151"/>
<path opacity="0.448276" d="M218.906 12.858C209.873 -1.55725 225.385 -18.7853 240.665 -11.3087L274.6 5.29448C283.483 9.64059 294.212 6.1542 298.843 -2.58316L316.537 -35.9617C324.505 -50.9918 347.181 -46.1716 348.346 -29.2003L350.935 8.49019C351.613 18.3559 359.996 25.9047 369.879 25.5471L407.632 24.1812C424.633 23.5662 431.797 45.6143 417.682 55.1093L386.336 76.1952C378.13 81.7148 375.785 92.7493 381.035 101.129L401.095 133.142C410.127 147.558 394.615 164.786 379.335 157.309L345.4 140.706C336.517 136.36 325.788 139.846 321.157 148.584L303.463 181.962C295.495 196.992 272.819 192.172 271.654 175.201L269.066 137.511C268.389 127.645 260.004 120.096 250.122 120.453L212.368 121.819C195.368 122.434 188.204 100.386 202.318 90.8911L233.665 69.8045C241.87 64.2849 244.216 53.2511 238.965 44.8713L218.906 12.858Z" stroke="#FEFEFE" stroke-width="1.4151"/>
<path opacity="0.482759" d="M223.886 9.88117C215.62 -4.98705 232.013 -21.3803 246.882 -13.1143L278.43 4.42595C287.073 9.2311 297.97 6.31137 303.053 -2.17141L321.606 -33.1363C330.35 -47.729 352.742 -41.7287 353.018 -24.7194L353.603 11.3727C353.763 21.2606 361.74 29.2376 371.628 29.3977L407.72 29.9826C424.729 30.2581 430.73 52.651 416.137 61.3943L385.172 79.9476C376.689 85.0303 373.769 95.9268 378.574 104.57L396.115 136.119C404.381 150.987 387.988 167.38 373.119 159.115L341.57 141.574C332.926 136.769 322.03 139.689 316.947 148.172L298.395 179.137C289.651 193.729 267.258 187.729 266.983 170.72L266.398 134.628C266.238 124.74 258.261 116.763 248.373 116.603L212.28 116.018C195.271 115.743 189.271 93.3492 203.864 84.6059L234.828 66.0533C243.311 60.9707 246.231 50.0735 241.426 41.4303L223.886 9.88117Z" stroke="#FEFEFE" stroke-width="1.4151"/>
<path opacity="0.517241" d="M228.923 7.25645C221.447 -8.02402 238.676 -23.5369 253.091 -14.504L282.254 3.77066C290.634 9.0216 301.668 6.67564 307.188 -1.52971L326.398 -30.0859C335.893 -44.2008 357.942 -37.0369 357.326 -20.0365L356.082 14.3569C355.724 24.2395 363.273 32.6231 373.139 33.3005L407.474 35.658C424.446 36.8233 429.266 59.4996 414.235 67.4671L383.828 83.5872C375.09 88.219 371.604 98.9477 375.95 107.831L391.076 138.744C398.553 154.025 381.324 169.538 366.909 160.505L337.746 142.23C329.366 136.979 318.331 139.325 312.812 147.53L293.601 176.087C284.106 190.201 262.058 183.038 262.673 166.037L263.918 131.644C264.275 121.761 256.727 113.378 246.861 112.7L212.526 110.343C195.554 109.177 190.734 86.5011 205.764 78.5335L236.172 62.4134C244.909 57.7817 248.396 47.053 244.05 38.1701L228.923 7.25645Z" stroke="#FEFEFE" stroke-width="1.4151"/>
<path opacity="0.551724" d="M233.996 4.98004C227.33 -10.6708 245.346 -25.26 259.269 -15.4852L286.06 3.32404C294.153 9.0064 305.296 7.24192 311.237 -0.663365L330.905 -26.8314C341.126 -40.43 362.769 -32.122 361.265 -15.1772L358.371 17.4295C357.496 27.2797 364.596 36.0468 374.413 37.2399L406.909 41.1887C423.796 43.2407 427.423 66.138 411.997 73.3081L382.311 87.1056C373.344 91.2736 369.3 101.805 373.176 110.903L386.004 141.02C392.671 156.671 374.655 171.26 360.732 161.485L333.94 142.675C325.847 136.993 314.705 138.759 308.763 146.664L289.095 172.832C278.875 186.431 257.232 178.122 258.736 161.177L261.629 128.571C262.503 118.72 255.404 109.953 245.587 108.76L213.091 104.812C196.204 102.76 192.577 79.8622 208.004 72.6922L237.689 58.8947C246.657 54.7265 250.7 44.1942 246.824 35.0961L233.996 4.98004Z" stroke="#FEFEFE" stroke-width="1.4151"/>
<path opacity="0.586207" d="M239.08 3.05028C233.242 -12.928 251.997 -26.5544 265.389 -16.0642L289.836 3.08472C297.621 9.18287 308.841 8.00399 315.188 0.420479L335.119 -23.3935C346.037 -36.4385 367.216 -27.0092 364.827 -10.1664L360.467 20.58C359.078 30.3711 365.709 39.4978 375.45 41.2028L406.039 46.5565C422.795 49.4894 425.219 72.5452 409.438 78.8981L380.631 90.4955C371.457 94.1885 366.869 104.494 370.262 113.783L380.92 142.95C386.758 158.929 368.003 172.555 354.611 162.065L330.164 142.916C322.379 136.818 311.16 137.997 304.813 145.581L284.881 169.394C273.963 182.439 252.784 173.01 255.173 156.167L259.533 125.421C260.922 115.63 254.291 106.504 244.55 104.799L213.961 99.4441C197.205 96.5111 194.781 73.4554 210.562 67.1024L239.369 55.5058C248.543 51.8128 253.131 41.5065 249.737 32.218L239.08 3.05028Z" stroke="#FEFEFE" stroke-width="1.4151"/>
<path opacity="0.62069" d="M244.154 1.46067C239.159 -14.8013 258.603 -27.4279 271.428 -16.2513L293.571 3.04699C301.026 9.5439 312.292 8.95322 319.027 1.7124L339.032 -19.7945C350.619 -32.25 371.274 -21.7253 368.008 -5.03063L362.367 23.7956C360.468 33.5006 366.612 42.9619 376.25 45.1743L404.879 51.7459C421.459 55.552 422.672 78.7027 406.581 84.2211L378.797 93.7491C369.442 96.957 364.32 107.008 367.223 116.462L375.847 144.54C380.841 160.802 361.397 173.429 348.573 162.252L326.429 142.954C318.974 136.457 307.708 137.047 300.973 144.288L280.968 165.795C269.382 178.251 248.726 167.726 251.993 151.031L257.633 122.205C259.532 112.5 253.388 103.039 243.75 100.826L215.121 94.2548C198.541 90.4489 197.328 67.2978 213.419 61.7796L241.204 52.2516C250.558 49.0438 255.68 38.9924 252.777 29.5391L244.154 1.46067Z" stroke="#FEFEFE" stroke-width="1.4151"/>
<path opacity="0.655172" d="M249.196 0.204664C245.059 -16.2963 265.137 -27.8881 277.359 -16.0556L297.255 3.20507C304.36 10.0834 315.64 10.0841 322.745 3.20591L342.641 -16.056C354.863 -27.888 374.94 -16.2967 370.804 0.204019L364.071 27.0649C361.667 36.6571 367.307 46.4269 376.816 49.1409L403.445 56.7401C419.804 61.4087 419.803 84.5919 403.445 89.2604L376.816 96.8593C367.307 99.5734 361.667 109.343 364.072 118.935L370.804 145.796C374.94 162.297 354.863 173.888 342.641 162.056L322.746 142.795C315.641 135.916 304.359 135.916 297.254 142.794L277.359 162.056C265.137 173.888 245.06 162.297 249.196 145.796L255.929 118.935C258.333 109.343 252.693 99.5733 243.183 96.8593L216.554 89.2602C200.196 84.5915 200.197 61.4083 216.555 56.7399L243.184 49.141C252.693 46.4269 258.333 36.6567 255.929 27.0644L249.196 0.204664Z" stroke="#FEFEFE" stroke-width="1.4151"/>
<path opacity="0.689655" d="M254.187 -0.734891C250.92 -17.4298 271.575 -27.9544 283.162 -15.4984L300.876 3.54671C307.612 10.7874 318.877 11.3774 326.333 4.88032L345.942 -12.209C358.767 -23.3849 378.209 -10.7588 373.215 5.50272L365.579 30.3669C362.676 39.8203 367.798 49.8718 377.152 53.0797L401.756 61.5169C417.848 67.0351 416.634 90.1867 400.053 93.9926L374.703 99.8117C365.064 102.024 358.92 111.486 360.819 121.191L365.814 146.717C369.081 163.412 348.426 173.936 336.839 161.481L319.124 142.436C312.388 135.195 301.122 134.604 293.667 141.101L274.059 158.19C261.234 169.367 241.791 156.74 246.785 140.478L254.421 115.614C257.324 106.161 252.203 96.1093 242.848 92.9014L218.245 84.4643C202.153 78.946 203.366 55.7951 219.946 51.989L245.297 46.17C254.935 43.9575 261.08 34.4965 259.181 24.7916L254.187 -0.734891Z" stroke="#FEFEFE" stroke-width="1.4151"/>
<path opacity="0.724138" d="M259.104 -1.3478C256.715 -18.1908 277.894 -27.62 288.812 -14.5747L304.427 4.0816C310.774 11.6651 321.994 12.8446 329.779 6.74655L348.931 -8.25643C362.323 -18.7465 381.079 -5.12004 375.241 10.858L366.891 33.7103C363.497 42.9987 368.086 53.3047 377.259 56.9977L399.828 66.0829C415.609 72.436 413.185 95.492 396.429 98.425L372.464 102.619C362.723 104.324 356.092 113.451 357.481 123.242L360.896 147.33C363.285 164.173 342.107 173.602 331.188 160.557L315.573 141.9C309.226 134.317 298.007 133.137 290.222 139.235L271.069 154.238C257.677 164.729 238.922 151.102 244.76 135.124L253.11 112.273C256.504 102.984 251.915 92.6783 242.742 88.9852L220.173 79.8988C204.392 73.5459 206.815 50.49 223.572 47.5571L247.536 43.3632C257.278 41.6582 263.908 32.531 262.52 22.7398L259.104 -1.3478Z" stroke="#FEFEFE" stroke-width="1.4151"/>
<path opacity="0.758621" d="M263.929 -1.654C262.425 -18.5989 284.069 -26.9071 294.29 -13.3083L307.897 4.7963C313.838 12.7014 324.98 14.4658 333.074 8.7835L351.609 -4.22921C365.532 -14.0041 383.55 0.585162 376.883 16.236L368.008 37.0721C364.132 46.1702 368.175 56.7021 377.143 60.8702L397.681 70.4155C413.107 77.5857 409.48 100.483 392.593 102.535L370.11 105.267C360.293 106.46 353.194 115.227 354.068 125.078L356.071 147.637C357.575 164.582 335.931 172.89 325.71 159.291L312.104 141.186C306.162 133.281 295.02 131.516 286.926 137.198L268.39 150.212C254.467 159.987 236.451 145.397 243.117 129.747L251.993 108.911C255.868 99.8126 251.825 89.2807 242.858 85.1126L222.32 75.5672C206.893 68.3972 210.52 45.4999 227.407 43.4477L249.89 40.715C259.706 39.5221 266.806 30.7553 265.932 20.905L263.929 -1.654Z" stroke="#FEFEFE" stroke-width="1.4151"/>
<path opacity="0.793103" d="M268.646 -1.66558C268.03 -18.666 290.079 -25.8301 299.574 -11.715L311.277 5.68135C316.796 13.8868 327.831 16.2327 336.211 10.9817L353.978 -0.150918C368.393 -9.18376 385.621 6.32876 378.144 21.6092L368.93 40.4418C364.584 49.3247 368.07 60.0537 376.807 64.6854L395.331 74.5052C410.362 82.4728 405.542 105.15 388.571 106.315L367.653 107.751C357.787 108.428 350.239 116.812 350.596 126.695L351.354 147.647C351.969 164.648 329.92 171.812 320.425 157.697L308.723 140.3C303.203 132.095 292.169 129.749 283.789 135L266.023 146.134C251.607 155.166 234.379 139.653 241.855 124.373L251.07 105.54C255.416 96.6571 251.93 85.9281 243.193 81.2964L224.669 71.4765C209.638 63.509 214.458 40.8327 231.43 39.6673L252.346 38.231C262.212 37.5536 269.761 29.1695 269.403 19.2868L268.646 -1.66558Z" stroke="#FEFEFE" stroke-width="1.4151"/>
<path opacity="0.827586" d="M273.235 -1.39413C273.511 -18.4034 295.904 -24.4035 304.647 -9.81081L314.559 6.73229C319.642 15.2152 330.539 18.1346 339.182 13.3294L356.037 3.95919C370.905 -4.30682 387.298 12.0861 379.032 26.9543L369.661 43.8095C364.856 52.4526 367.776 63.3494 376.259 68.4321L392.802 78.3446C407.395 87.0878 401.394 109.481 384.385 109.756L365.102 110.068C355.214 110.229 347.238 118.206 347.078 128.094L346.765 147.377C346.489 164.386 324.097 170.386 315.354 155.793L305.441 139.25C300.358 130.767 289.461 127.847 280.818 132.652L263.963 142.023C249.095 150.289 232.702 133.897 240.968 119.028L250.338 102.172C255.143 93.5291 252.224 82.6324 243.741 77.5497L227.198 67.6382C212.605 58.8949 218.606 36.5017 235.615 36.2261L254.897 35.9134C264.785 35.7532 272.762 27.7766 272.922 17.8888L273.235 -1.39413Z" stroke="#FEFEFE" stroke-width="1.4151"/>
<path opacity="0.862069" d="M277.681 -0.853117C278.846 -17.8247 301.522 -22.6446 309.49 -7.61431L317.735 7.93908C322.366 16.6764 333.096 20.1628 341.978 15.8167L357.792 8.07967C373.072 0.603126 388.584 17.8315 379.551 32.2467L370.205 47.1645C364.954 55.5444 367.299 66.579 375.505 72.0986L390.111 81.924C404.226 91.419 397.062 113.467 380.062 112.852L362.469 112.216C352.586 111.859 344.202 119.408 343.525 129.273L342.319 146.836C341.154 163.807 318.478 168.627 310.51 153.597L302.265 138.043C297.633 129.306 286.904 125.82 278.021 130.166L262.208 137.903C246.928 145.379 231.416 128.151 240.448 113.736L249.796 98.8187C255.047 90.439 252.701 79.4043 244.496 73.8846L229.889 64.0584C215.774 54.5635 222.938 32.5152 239.938 33.1302L257.531 33.7666C267.414 34.1241 275.797 26.575 276.475 16.7091L277.681 -0.853117Z" stroke="#FEFEFE" stroke-width="1.4151"/>
<path opacity="0.896552" d="M281.967 -0.0574314C284.019 -16.9447 306.918 -20.5714 314.088 -5.14476L320.798 9.29477C324.966 18.2626 335.498 22.3057 344.596 18.4305L359.246 12.1899C374.897 5.5233 389.486 23.5399 379.711 37.4627L370.562 50.4948C364.88 58.5884 366.644 69.7306 374.55 75.6721L387.278 85.2392C400.877 95.4599 392.569 117.103 375.624 115.599L359.763 114.191C349.913 113.317 341.146 120.417 339.953 130.234L338.033 146.04C335.981 162.927 313.083 166.554 305.913 151.127L299.202 136.688C295.034 127.72 284.502 123.677 275.404 127.552L260.754 133.793C245.104 140.459 230.514 122.443 240.288 108.52L249.438 95.4878C255.121 87.3943 253.356 76.252 245.451 70.3105L232.722 60.7434C219.123 50.5227 227.431 28.8796 244.376 30.3835L260.237 31.7907C270.087 32.6648 278.854 25.5659 280.047 15.7491L281.967 -0.0574314Z" stroke="#FEFEFE" stroke-width="1.4151"/>
<path opacity="0.931035" d="M286.081 0.978123C289.014 -15.7786 312.071 -18.202 318.424 -2.4212L323.742 10.7896C327.435 19.9633 337.741 24.5522 347.03 21.1583L360.406 16.2704C376.385 10.4322 390.011 29.1875 379.521 42.5796L370.738 53.7914C364.641 61.5764 365.82 72.7959 373.403 79.143L384.325 88.2839C397.37 99.2023 387.941 120.381 371.098 117.992L356.997 115.992C347.206 114.604 338.079 121.235 336.374 130.976L333.919 145.004C330.986 161.761 307.929 164.184 301.576 148.403L296.258 135.193C292.565 126.019 282.259 121.43 272.971 124.824L259.594 129.712C243.616 135.55 229.989 116.795 240.479 103.403L249.262 92.1908C255.36 84.4057 254.181 73.1863 246.597 66.8392L235.676 57.6983C222.631 46.7799 232.06 25.6015 248.902 27.9899L263.003 29.9898C272.794 31.3784 281.921 24.747 283.626 15.006L286.081 0.978123Z" stroke="#FEFEFE" stroke-width="1.4151"/>
<path opacity="0.965517" d="M290.01 2.23755C293.816 -14.3427 316.967 -15.556 322.485 0.535606L326.56 12.4168C329.767 21.7712 339.819 26.8932 349.273 23.99L361.28 20.3019C377.541 15.308 390.167 34.7507 378.991 47.5754L370.739 57.0447C364.242 64.4999 364.832 75.7656 372.073 82.5009L381.27 91.0558C393.726 102.642 383.201 123.298 366.506 120.031L354.18 117.619C344.474 115.72 335.013 121.865 332.801 131.503L329.99 143.745C326.184 160.325 303.034 161.539 297.515 145.447L293.441 133.566C290.233 124.212 280.181 119.09 270.728 121.993L258.721 125.68C242.459 130.674 229.832 111.231 241.009 98.4065L249.261 88.9372C255.758 81.4819 255.168 70.2162 247.927 63.481L238.73 54.9261C226.274 43.34 236.799 22.6838 253.494 25.9507L265.821 28.3635C275.526 30.2626 284.987 24.118 287.2 14.4795L290.01 2.23755Z" stroke="#FEFEFE" stroke-width="1.4151"/>
<path d="M293.74 3.70398C298.409 -12.6544 321.591 -12.6544 326.26 3.70398L329.246 14.1659C331.96 23.6751 341.73 29.3154 351.322 26.911L361.875 24.2655C378.376 20.1296 389.967 40.2064 378.135 52.4286L370.567 60.246C363.689 67.351 363.689 78.6322 370.567 85.7372L378.135 93.5536C389.967 105.776 378.376 125.853 361.875 121.717L351.322 119.071C341.73 116.667 331.96 122.308 329.246 131.817L326.26 142.278C321.591 158.637 298.409 158.637 293.74 142.278L290.755 131.817C288.041 122.308 278.271 116.667 268.679 119.071L258.125 121.717C241.624 125.852 230.033 105.776 241.865 93.5536L249.433 85.7372C256.311 78.6322 256.311 67.351 249.433 60.246L241.865 52.4286C230.033 40.2065 241.624 20.1299 258.125 24.2655L268.679 26.911C278.271 29.3153 288.041 23.6751 290.755 14.1659L293.74 3.70398Z" stroke="#FEFEFE" stroke-width="1.4151"/>
</g>
<defs>
<clipPath id="clip0_438_28636">
<path d="M0 16C0 7.16345 7.16344 0 16 0H294C302.837 0 310 7.16344 310 16V370C310 378.837 302.837 386 294 386H16C7.16345 386 0 378.837 0 370V16Z" fill="white"/>
</clipPath>
</defs>
</svg>
