<svg width="310" height="386" viewBox="0 0 310 386" fill="none" xmlns="http://www.w3.org/2000/svg">
<g clip-path="url(#clip0_438_28600)">
<path d="M0 16C0 7.16345 7.16344 0 16 0H294C302.837 0 310 7.16344 310 16V370C310 378.837 302.837 386 294 386H16C7.16345 386 0 378.837 0 370V16Z" fill="#EF6315"/>
<path d="M28 262.625C27.385 262.625 26.875 262.115 26.875 261.5V257C26.875 256.385 27.385 255.875 28 255.875C28.615 255.875 29.125 256.385 29.125 257V261.5C29.125 262.115 28.615 262.625 28 262.625Z" fill="#FEFEFE"/>
<path d="M40 262.625C39.385 262.625 38.875 262.115 38.875 261.5V257C38.875 256.385 39.385 255.875 40 255.875C40.615 255.875 41.125 256.385 41.125 257V261.5C41.125 262.115 40.615 262.625 40 262.625Z" fill="#FEFEFE"/>
<path d="M28.75 275.75C28.555 275.75 28.36 275.705 28.18 275.63C27.985 275.555 27.835 275.45 27.685 275.315C27.415 275.03 27.25 274.655 27.25 274.25C27.25 274.055 27.295 273.86 27.37 273.68C27.445 273.5 27.55 273.335 27.685 273.185C27.835 273.05 27.985 272.945 28.18 272.87C28.72 272.645 29.395 272.765 29.815 273.185C30.085 273.47 30.25 273.86 30.25 274.25C30.25 274.34 30.235 274.445 30.22 274.55C30.205 274.64 30.175 274.73 30.13 274.82C30.1 274.91 30.055 275 29.995 275.09C29.95 275.165 29.875 275.24 29.815 275.315C29.53 275.585 29.14 275.75 28.75 275.75Z" fill="#FEFEFE"/>
<path d="M34 275.75C33.805 275.75 33.61 275.705 33.43 275.63C33.235 275.555 33.085 275.45 32.935 275.315C32.665 275.03 32.5 274.655 32.5 274.25C32.5 274.055 32.545 273.86 32.62 273.68C32.695 273.5 32.8 273.335 32.935 273.185C33.085 273.05 33.235 272.945 33.43 272.87C33.97 272.63 34.645 272.765 35.065 273.185C35.335 273.47 35.5 273.86 35.5 274.25C35.5 274.34 35.485 274.445 35.47 274.55C35.455 274.64 35.425 274.73 35.38 274.82C35.35 274.91 35.305 275 35.245 275.09C35.2 275.165 35.125 275.24 35.065 275.315C34.78 275.585 34.39 275.75 34 275.75Z" fill="#FEFEFE"/>
<path d="M39.25 275.75C39.055 275.75 38.86 275.705 38.68 275.63C38.485 275.555 38.335 275.45 38.185 275.315C38.125 275.24 38.065 275.165 38.005 275.09C37.945 275 37.9 274.91 37.87 274.82C37.825 274.73 37.795 274.64 37.78 274.55C37.765 274.445 37.75 274.34 37.75 274.25C37.75 273.86 37.915 273.47 38.185 273.185C38.335 273.05 38.485 272.945 38.68 272.87C39.235 272.63 39.895 272.765 40.315 273.185C40.585 273.47 40.75 273.86 40.75 274.25C40.75 274.34 40.735 274.445 40.72 274.55C40.705 274.64 40.675 274.73 40.63 274.82C40.6 274.91 40.555 275 40.495 275.09C40.45 275.165 40.375 275.24 40.315 275.315C40.03 275.585 39.64 275.75 39.25 275.75Z" fill="#FEFEFE"/>
<path d="M28.75 281C28.555 281 28.36 280.955 28.18 280.88C28 280.805 27.835 280.7 27.685 280.565C27.415 280.28 27.25 279.89 27.25 279.5C27.25 279.305 27.295 279.11 27.37 278.93C27.445 278.735 27.55 278.57 27.685 278.435C28.24 277.88 29.26 277.88 29.815 278.435C30.085 278.72 30.25 279.11 30.25 279.5C30.25 279.89 30.085 280.28 29.815 280.565C29.53 280.835 29.14 281 28.75 281Z" fill="#FEFEFE"/>
<path d="M34 281C33.61 281 33.22 280.835 32.935 280.565C32.665 280.28 32.5 279.89 32.5 279.5C32.5 279.305 32.545 279.11 32.62 278.93C32.695 278.735 32.8 278.57 32.935 278.435C33.49 277.88 34.51 277.88 35.065 278.435C35.2 278.57 35.305 278.735 35.38 278.93C35.455 279.11 35.5 279.305 35.5 279.5C35.5 279.89 35.335 280.28 35.065 280.565C34.78 280.835 34.39 281 34 281Z" fill="#FEFEFE"/>
<path d="M39.25 281C38.86 281 38.47 280.835 38.185 280.565C38.05 280.43 37.945 280.265 37.87 280.07C37.795 279.89 37.75 279.695 37.75 279.5C37.75 279.305 37.795 279.11 37.87 278.93C37.945 278.735 38.05 278.57 38.185 278.435C38.53 278.09 39.055 277.925 39.535 278.03C39.64 278.045 39.73 278.075 39.82 278.12C39.91 278.15 40 278.195 40.09 278.255C40.165 278.3 40.24 278.375 40.315 278.435C40.585 278.72 40.75 279.11 40.75 279.5C40.75 279.89 40.585 280.28 40.315 280.565C40.03 280.835 39.64 281 39.25 281Z" fill="#FEFEFE"/>
<path d="M46.75 268.76H21.25C20.635 268.76 20.125 268.25 20.125 267.635C20.125 267.02 20.635 266.51 21.25 266.51H46.75C47.365 266.51 47.875 267.02 47.875 267.635C47.875 268.25 47.365 268.76 46.75 268.76Z" fill="#FEFEFE"/>
<path d="M40 288.125H28C22.525 288.125 19.375 284.975 19.375 279.5V266.75C19.375 261.275 22.525 258.125 28 258.125H40C45.475 258.125 48.625 261.275 48.625 266.75V279.5C48.625 284.975 45.475 288.125 40 288.125ZM28 260.375C23.71 260.375 21.625 262.46 21.625 266.75V279.5C21.625 283.79 23.71 285.875 28 285.875H40C44.29 285.875 46.375 283.79 46.375 279.5V266.75C46.375 262.46 44.29 260.375 40 260.375H28Z" fill="#FEFEFE"/>
<path d="M17.752 322V305.2H28.336V307.552H20.344V312.376H27.664V314.728H20.344V319.648H28.456V322H17.752ZM33.3663 322V312.256H30.0543V310.168H33.3663V307.576C33.3663 306.856 33.5823 306.28 34.0143 305.848C34.4463 305.416 35.0223 305.2 35.7422 305.2H38.7903V307.288H36.5343C36.0703 307.288 35.8383 307.528 35.8383 308.008V310.168H38.5023V312.256H35.8383V322H33.3663ZM41.1423 322V312.256H38.5023V310.168H41.1423V307.576C41.1423 306.856 41.3503 306.28 41.7663 305.848C42.1983 305.416 42.7823 305.2 43.5182 305.2H46.5663V307.288H44.3103C43.8463 307.288 43.6143 307.528 43.6143 308.008V310.168H47.0223V312.256H43.6143V322H41.1423ZM54.5868 322.336C53.4028 322.336 52.3468 322.096 51.4188 321.616C50.5068 321.12 49.7868 320.416 49.2588 319.504C48.7308 318.592 48.4668 317.512 48.4668 316.264V315.904C48.4668 314.656 48.7308 313.584 49.2588 312.688C49.7868 311.776 50.5068 311.072 51.4188 310.576C52.3468 310.08 53.4028 309.832 54.5868 309.832C55.7708 309.832 56.8268 310.08 57.7548 310.576C58.6828 311.072 59.4108 311.776 59.9388 312.688C60.4668 313.584 60.7308 314.656 60.7308 315.904V316.264C60.7308 317.512 60.4668 318.592 59.9388 319.504C59.4108 320.416 58.6828 321.12 57.7548 321.616C56.8268 322.096 55.7708 322.336 54.5868 322.336ZM54.5868 320.128C55.6748 320.128 56.5548 319.784 57.2268 319.096C57.9148 318.392 58.2588 317.424 58.2588 316.192V315.976C58.2588 314.744 57.9228 313.784 57.2508 313.096C56.5788 312.392 55.6908 312.04 54.5868 312.04C53.5148 312.04 52.6348 312.392 51.9468 313.096C51.2748 313.784 50.9388 314.744 50.9388 315.976V316.192C50.9388 317.424 51.2748 318.392 51.9468 319.096C52.6348 319.784 53.5148 320.128 54.5868 320.128ZM63.8084 322V310.168H66.2324V311.56H66.6164C66.8084 311.064 67.1124 310.704 67.5284 310.48C67.9604 310.24 68.4884 310.12 69.1124 310.12H70.5284V312.352H69.0164C68.2164 312.352 67.5604 312.576 67.0484 313.024C66.5364 313.456 66.2804 314.128 66.2804 315.04V322H63.8084ZM77.5296 322C76.8096 322 76.2336 321.784 75.8016 321.352C75.3856 320.92 75.1776 320.344 75.1776 319.624V312.256H71.9136V310.168H75.1776V306.256H77.6496V310.168H81.1776V312.256H77.6496V319.192C77.6496 319.672 77.8736 319.912 78.3216 319.912H80.7936V322H77.5296ZM84.0818 322V305.2H86.5538V322H84.0818ZM95.6464 322.336C94.4464 322.336 93.3984 322.088 92.5024 321.592C91.6064 321.08 90.9024 320.368 90.3904 319.456C89.8944 318.528 89.6464 317.456 89.6464 316.24V315.952C89.6464 314.72 89.8944 313.648 90.3904 312.736C90.8864 311.808 91.5744 311.096 92.4544 310.6C93.3504 310.088 94.3824 309.832 95.5504 309.832C96.6864 309.832 97.6784 310.088 98.5264 310.6C99.3904 311.096 100.062 311.792 100.542 312.688C101.022 313.584 101.262 314.632 101.262 315.832V316.768H92.1664C92.1984 317.808 92.5424 318.64 93.1984 319.264C93.8704 319.872 94.7024 320.176 95.6944 320.176C96.6224 320.176 97.3184 319.968 97.7824 319.552C98.2624 319.136 98.6304 318.656 98.8864 318.112L100.926 319.168C100.702 319.616 100.374 320.088 99.9424 320.584C99.5264 321.08 98.9744 321.496 98.2864 321.832C97.5984 322.168 96.7184 322.336 95.6464 322.336ZM92.1904 314.872H98.7424C98.6784 313.976 98.3584 313.28 97.7824 312.784C97.2064 312.272 96.4544 312.016 95.5264 312.016C94.5984 312.016 93.8384 312.272 93.2464 312.784C92.6704 313.28 92.3184 313.976 92.1904 314.872ZM109.086 322.336C107.582 322.336 106.334 322 105.342 321.328C104.35 320.656 103.742 319.64 103.518 318.28L105.822 317.728C105.95 318.384 106.166 318.904 106.47 319.288C106.774 319.672 107.15 319.944 107.598 320.104C108.062 320.264 108.558 320.344 109.086 320.344C109.87 320.344 110.47 320.192 110.886 319.888C111.318 319.584 111.534 319.192 111.534 318.712C111.534 318.232 111.334 317.88 110.934 317.656C110.534 317.432 109.942 317.248 109.158 317.104L108.342 316.96C107.542 316.816 106.814 316.608 106.158 316.336C105.502 316.064 104.982 315.688 104.598 315.208C104.214 314.728 104.022 314.112 104.022 313.36C104.022 312.24 104.438 311.376 105.27 310.768C106.102 310.144 107.206 309.832 108.582 309.832C109.91 309.832 110.998 310.136 111.846 310.744C112.71 311.336 113.27 312.144 113.526 313.168L111.222 313.816C111.078 313.096 110.774 312.592 110.31 312.304C109.846 312 109.27 311.848 108.582 311.848C107.91 311.848 107.382 311.976 106.998 312.232C106.614 312.472 106.422 312.816 106.422 313.264C106.422 313.744 106.606 314.096 106.974 314.32C107.358 314.544 107.87 314.712 108.51 314.824L109.35 314.968C110.198 315.112 110.974 315.312 111.678 315.568C112.382 315.824 112.934 316.192 113.334 316.672C113.75 317.152 113.958 317.792 113.958 318.592C113.958 319.776 113.518 320.696 112.638 321.352C111.758 322.008 110.574 322.336 109.086 322.336ZM121.695 322.336C120.191 322.336 118.943 322 117.951 321.328C116.959 320.656 116.351 319.64 116.127 318.28L118.431 317.728C118.559 318.384 118.775 318.904 119.079 319.288C119.383 319.672 119.759 319.944 120.207 320.104C120.671 320.264 121.167 320.344 121.695 320.344C122.479 320.344 123.079 320.192 123.495 319.888C123.927 319.584 124.143 319.192 124.143 318.712C124.143 318.232 123.943 317.88 123.543 317.656C123.143 317.432 122.551 317.248 121.767 317.104L120.951 316.96C120.151 316.816 119.423 316.608 118.767 316.336C118.111 316.064 117.591 315.688 117.207 315.208C116.823 314.728 116.631 314.112 116.631 313.36C116.631 312.24 117.047 311.376 117.879 310.768C118.711 310.144 119.815 309.832 121.191 309.832C122.519 309.832 123.607 310.136 124.455 310.744C125.319 311.336 125.879 312.144 126.135 313.168L123.831 313.816C123.687 313.096 123.383 312.592 122.919 312.304C122.455 312 121.879 311.848 121.191 311.848C120.519 311.848 119.991 311.976 119.607 312.232C119.223 312.472 119.031 312.816 119.031 313.264C119.031 313.744 119.215 314.096 119.583 314.32C119.967 314.544 120.479 314.712 121.119 314.824L121.959 314.968C122.807 315.112 123.583 315.312 124.287 315.568C124.991 315.824 125.543 316.192 125.943 316.672C126.359 317.152 126.567 317.792 126.567 318.592C126.567 319.776 126.127 320.696 125.247 321.352C124.367 322.008 123.183 322.336 121.695 322.336ZM135.502 322V305.2H142.174C143.198 305.2 144.11 305.408 144.91 305.824C145.726 306.224 146.358 306.8 146.806 307.552C147.27 308.288 147.502 309.176 147.502 310.216V310.528C147.502 311.568 147.262 312.464 146.782 313.216C146.318 313.968 145.686 314.544 144.886 314.944C144.086 315.344 143.182 315.544 142.174 315.544H138.094V322H135.502ZM138.094 313.192H141.91C142.822 313.192 143.55 312.952 144.094 312.472C144.638 311.992 144.91 311.336 144.91 310.504V310.264C144.91 309.416 144.638 308.752 144.094 308.272C143.55 307.792 142.822 307.552 141.91 307.552H138.094V313.192ZM153.449 322.336C152.601 322.336 151.841 322.192 151.169 321.904C150.513 321.616 149.985 321.192 149.585 320.632C149.201 320.072 149.009 319.392 149.009 318.592C149.009 317.776 149.201 317.104 149.585 316.576C149.985 316.032 150.521 315.624 151.193 315.352C151.881 315.08 152.657 314.944 153.521 314.944H157.121V314.176C157.121 313.488 156.913 312.936 156.497 312.52C156.081 312.104 155.441 311.896 154.577 311.896C153.729 311.896 153.081 312.096 152.633 312.496C152.185 312.896 151.889 313.416 151.745 314.056L149.441 313.312C149.633 312.672 149.937 312.096 150.353 311.584C150.785 311.056 151.353 310.632 152.057 310.312C152.761 309.992 153.609 309.832 154.601 309.832C156.137 309.832 157.345 310.224 158.225 311.008C159.105 311.792 159.545 312.904 159.545 314.344V319.216C159.545 319.696 159.769 319.936 160.217 319.936H161.225V322H159.377C158.817 322 158.361 321.856 158.009 321.568C157.657 321.28 157.481 320.888 157.481 320.392V320.32H157.121C156.993 320.56 156.801 320.84 156.545 321.16C156.289 321.48 155.913 321.76 155.417 322C154.921 322.224 154.265 322.336 153.449 322.336ZM153.809 320.296C154.801 320.296 155.601 320.016 156.209 319.456C156.817 318.88 157.121 318.096 157.121 317.104V316.864H153.665C153.009 316.864 152.481 317.008 152.081 317.296C151.681 317.568 151.481 317.976 151.481 318.52C151.481 319.064 151.689 319.496 152.105 319.816C152.521 320.136 153.089 320.296 153.809 320.296ZM164.692 326.8V324.64H171.292C171.74 324.64 171.964 324.4 171.964 323.92V320.272H171.58C171.436 320.592 171.212 320.904 170.908 321.208C170.62 321.496 170.228 321.736 169.732 321.928C169.236 322.12 168.612 322.216 167.86 322.216C166.964 322.216 166.164 322.016 165.46 321.616C164.756 321.216 164.204 320.648 163.804 319.912C163.404 319.176 163.204 318.304 163.204 317.296V310.168H165.676V317.104C165.676 318.128 165.932 318.888 166.444 319.384C166.956 319.864 167.668 320.104 168.58 320.104C169.588 320.104 170.396 319.768 171.004 319.096C171.628 318.424 171.94 317.448 171.94 316.168V310.168H174.412V324.424C174.412 325.144 174.196 325.72 173.764 326.152C173.348 326.584 172.772 326.8 172.036 326.8H164.692ZM178.066 322V310.168H180.49V311.56H180.874C181.066 311.064 181.37 310.704 181.786 310.48C182.218 310.24 182.746 310.12 183.37 310.12H184.786V312.352H183.274C182.474 312.352 181.818 312.576 181.306 313.024C180.794 313.456 180.538 314.128 180.538 315.04V322H178.066ZM192.47 322.336C191.286 322.336 190.23 322.096 189.302 321.616C188.39 321.12 187.67 320.416 187.142 319.504C186.614 318.592 186.35 317.512 186.35 316.264V315.904C186.35 314.656 186.614 313.584 187.142 312.688C187.67 311.776 188.39 311.072 189.302 310.576C190.23 310.08 191.286 309.832 192.47 309.832C193.654 309.832 194.71 310.08 195.638 310.576C196.566 311.072 197.294 311.776 197.822 312.688C198.35 313.584 198.614 314.656 198.614 315.904V316.264C198.614 317.512 198.35 318.592 197.822 319.504C197.294 320.416 196.566 321.12 195.638 321.616C194.71 322.096 193.654 322.336 192.47 322.336ZM192.47 320.128C193.558 320.128 194.438 319.784 195.11 319.096C195.798 318.392 196.142 317.424 196.142 316.192V315.976C196.142 314.744 195.806 313.784 195.134 313.096C194.462 312.392 193.574 312.04 192.47 312.04C191.398 312.04 190.518 312.392 189.83 313.096C189.158 313.784 188.822 314.744 188.822 315.976V316.192C188.822 317.424 189.158 318.392 189.83 319.096C190.518 319.784 191.398 320.128 192.47 320.128ZM201.691 322V305.2H204.163V322H201.691ZM207.832 322V305.2H210.304V322H207.832ZM17.752 354V337.2H24.424C25.448 337.2 26.36 337.408 27.16 337.824C27.976 338.224 28.608 338.8 29.056 339.552C29.52 340.288 29.752 341.176 29.752 342.216V342.528C29.752 343.568 29.512 344.464 29.032 345.216C28.568 345.968 27.936 346.544 27.136 346.944C26.336 347.344 25.432 347.544 24.424 347.544H20.344V354H17.752ZM20.344 345.192H24.16C25.072 345.192 25.8 344.952 26.344 344.472C26.888 343.992 27.16 343.336 27.16 342.504V342.264C27.16 341.416 26.888 340.752 26.344 340.272C25.8 339.792 25.072 339.552 24.16 339.552H20.344V345.192ZM32.2849 354V342.168H34.7089V343.56H35.0929C35.2849 343.064 35.5889 342.704 36.0049 342.48C36.4369 342.24 36.9649 342.12 37.5889 342.12H39.0049V344.352H37.4929C36.6929 344.352 36.0369 344.576 35.5249 345.024C35.0129 345.456 34.7569 346.128 34.7569 347.04V354H32.2849ZM46.6883 354.336C45.5043 354.336 44.4483 354.096 43.5203 353.616C42.6083 353.12 41.8883 352.416 41.3603 351.504C40.8323 350.592 40.5683 349.512 40.5683 348.264V347.904C40.5683 346.656 40.8323 345.584 41.3603 344.688C41.8883 343.776 42.6083 343.072 43.5203 342.576C44.4483 342.08 45.5043 341.832 46.6883 341.832C47.8723 341.832 48.9283 342.08 49.8563 342.576C50.7843 343.072 51.5123 343.776 52.0403 344.688C52.5683 345.584 52.8323 346.656 52.8323 347.904V348.264C52.8323 349.512 52.5683 350.592 52.0403 351.504C51.5123 352.416 50.7843 353.12 49.8563 353.616C48.9283 354.096 47.8723 354.336 46.6883 354.336ZM46.6883 352.128C47.7763 352.128 48.6563 351.784 49.3283 351.096C50.0163 350.392 50.3603 349.424 50.3603 348.192V347.976C50.3603 346.744 50.0243 345.784 49.3523 345.096C48.6803 344.392 47.7923 344.04 46.6883 344.04C45.6163 344.04 44.7363 344.392 44.0483 345.096C43.3763 345.784 43.0403 346.744 43.0403 347.976V348.192C43.0403 349.424 43.3763 350.392 44.0483 351.096C44.7363 351.784 45.6163 352.128 46.6883 352.128ZM61.4059 354.336C60.2699 354.336 59.2379 354.096 58.3099 353.616C57.3979 353.136 56.6699 352.44 56.1259 351.528C55.5979 350.616 55.3339 349.52 55.3339 348.24V347.928C55.3339 346.648 55.5979 345.56 56.1259 344.664C56.6699 343.752 57.3979 343.056 58.3099 342.576C59.2379 342.08 60.2699 341.832 61.4059 341.832C62.5419 341.832 63.5099 342.04 64.3099 342.456C65.1099 342.872 65.7499 343.424 66.2299 344.112C66.7259 344.8 67.0459 345.56 67.1899 346.392L64.7899 346.896C64.7099 346.368 64.5419 345.888 64.2859 345.456C64.0299 345.024 63.6699 344.68 63.2059 344.424C62.7419 344.168 62.1579 344.04 61.4539 344.04C60.7659 344.04 60.1419 344.2 59.5819 344.52C59.0379 344.824 58.6059 345.272 58.2859 345.864C57.9659 346.44 57.8059 347.144 57.8059 347.976V348.192C57.8059 349.024 57.9659 349.736 58.2859 350.328C58.6059 350.92 59.0379 351.368 59.5819 351.672C60.1419 351.976 60.7659 352.128 61.4539 352.128C62.4939 352.128 63.2859 351.864 63.8299 351.336C64.3739 350.792 64.7179 350.104 64.8619 349.272L67.2619 349.824C67.0699 350.64 66.7259 351.392 66.2299 352.08C65.7499 352.768 65.1099 353.32 64.3099 353.736C63.5099 354.136 62.5419 354.336 61.4059 354.336ZM75.5371 354.336C74.3371 354.336 73.2891 354.088 72.3931 353.592C71.4971 353.08 70.7931 352.368 70.2811 351.456C69.7851 350.528 69.5371 349.456 69.5371 348.24V347.952C69.5371 346.72 69.7851 345.648 70.2811 344.736C70.7771 343.808 71.4651 343.096 72.3451 342.6C73.2411 342.088 74.2731 341.832 75.4411 341.832C76.5771 341.832 77.5691 342.088 78.4171 342.6C79.2811 343.096 79.9531 343.792 80.4331 344.688C80.9131 345.584 81.1531 346.632 81.1531 347.832V348.768H72.0571C72.0891 349.808 72.4331 350.64 73.0891 351.264C73.7611 351.872 74.5931 352.176 75.5851 352.176C76.5131 352.176 77.2091 351.968 77.6731 351.552C78.1531 351.136 78.5211 350.656 78.7771 350.112L80.8171 351.168C80.5931 351.616 80.2651 352.088 79.8331 352.584C79.4171 353.08 78.8651 353.496 78.1771 353.832C77.4891 354.168 76.6091 354.336 75.5371 354.336ZM72.0811 346.872H78.6331C78.5691 345.976 78.2491 345.28 77.6731 344.784C77.0971 344.272 76.3451 344.016 75.4171 344.016C74.4891 344.016 73.7291 344.272 73.1371 344.784C72.5611 345.28 72.2091 345.976 72.0811 346.872ZM88.9767 354.336C87.4727 354.336 86.2247 354 85.2327 353.328C84.2407 352.656 83.6327 351.64 83.4087 350.28L85.7127 349.728C85.8407 350.384 86.0567 350.904 86.3607 351.288C86.6647 351.672 87.0407 351.944 87.4887 352.104C87.9527 352.264 88.4487 352.344 88.9767 352.344C89.7607 352.344 90.3607 352.192 90.7767 351.888C91.2087 351.584 91.4247 351.192 91.4247 350.712C91.4247 350.232 91.2247 349.88 90.8247 349.656C90.4247 349.432 89.8327 349.248 89.0487 349.104L88.2327 348.96C87.4327 348.816 86.7047 348.608 86.0487 348.336C85.3927 348.064 84.8727 347.688 84.4887 347.208C84.1047 346.728 83.9127 346.112 83.9127 345.36C83.9127 344.24 84.3287 343.376 85.1607 342.768C85.9927 342.144 87.0967 341.832 88.4727 341.832C89.8007 341.832 90.8887 342.136 91.7367 342.744C92.6007 343.336 93.1607 344.144 93.4167 345.168L91.1127 345.816C90.9687 345.096 90.6647 344.592 90.2007 344.304C89.7367 344 89.1607 343.848 88.4727 343.848C87.8007 343.848 87.2727 343.976 86.8887 344.232C86.5047 344.472 86.3127 344.816 86.3127 345.264C86.3127 345.744 86.4967 346.096 86.8647 346.32C87.2487 346.544 87.7607 346.712 88.4007 346.824L89.2407 346.968C90.0887 347.112 90.8647 347.312 91.5687 347.568C92.2727 347.824 92.8247 348.192 93.2247 348.672C93.6407 349.152 93.8487 349.792 93.8487 350.592C93.8487 351.776 93.4087 352.696 92.5287 353.352C91.6487 354.008 90.4647 354.336 88.9767 354.336ZM101.586 354.336C100.082 354.336 98.8341 354 97.8421 353.328C96.8501 352.656 96.2421 351.64 96.0181 350.28L98.3221 349.728C98.4501 350.384 98.6661 350.904 98.9701 351.288C99.2741 351.672 99.6501 351.944 100.098 352.104C100.562 352.264 101.058 352.344 101.586 352.344C102.37 352.344 102.97 352.192 103.386 351.888C103.818 351.584 104.034 351.192 104.034 350.712C104.034 350.232 103.834 349.88 103.434 349.656C103.034 349.432 102.442 349.248 101.658 349.104L100.842 348.96C100.042 348.816 99.3141 348.608 98.6581 348.336C98.0021 348.064 97.4821 347.688 97.0981 347.208C96.7141 346.728 96.5221 346.112 96.5221 345.36C96.5221 344.24 96.9381 343.376 97.7701 342.768C98.6021 342.144 99.7061 341.832 101.082 341.832C102.41 341.832 103.498 342.136 104.346 342.744C105.21 343.336 105.77 344.144 106.026 345.168L103.722 345.816C103.578 345.096 103.274 344.592 102.81 344.304C102.346 344 101.77 343.848 101.082 343.848C100.41 343.848 99.8821 343.976 99.4981 344.232C99.1141 344.472 98.9221 344.816 98.9221 345.264C98.9221 345.744 99.1061 346.096 99.4741 346.32C99.8581 346.544 100.37 346.712 101.01 346.824L101.85 346.968C102.698 347.112 103.474 347.312 104.178 347.568C104.882 347.824 105.434 348.192 105.834 348.672C106.25 349.152 106.458 349.792 106.458 350.592C106.458 351.776 106.018 352.696 105.138 353.352C104.258 354.008 103.074 354.336 101.586 354.336ZM109.347 354V342.168H111.819V354H109.347ZM110.595 340.56C110.115 340.56 109.707 340.408 109.371 340.104C109.051 339.784 108.891 339.376 108.891 338.88C108.891 338.384 109.051 337.984 109.371 337.68C109.707 337.36 110.115 337.2 110.595 337.2C111.091 337.2 111.499 337.36 111.819 337.68C112.139 337.984 112.299 338.384 112.299 338.88C112.299 339.376 112.139 339.784 111.819 340.104C111.499 340.408 111.091 340.56 110.595 340.56ZM115.488 354V342.168H117.912V343.944H118.296C118.52 343.464 118.92 343.016 119.496 342.6C120.072 342.184 120.928 341.976 122.064 341.976C122.96 341.976 123.752 342.176 124.44 342.576C125.144 342.976 125.696 343.544 126.096 344.28C126.496 345 126.696 345.872 126.696 346.896V354H124.224V347.088C124.224 346.064 123.968 345.312 123.456 344.832C122.944 344.336 122.24 344.088 121.344 344.088C120.32 344.088 119.496 344.424 118.872 345.096C118.264 345.768 117.96 346.744 117.96 348.024V354H115.488ZM129.678 348.144V347.784C129.678 346.536 129.926 345.472 130.422 344.592C130.934 343.712 131.606 343.032 132.438 342.552C133.27 342.072 134.182 341.832 135.174 341.832C136.326 341.832 137.206 342.048 137.814 342.48C138.438 342.912 138.894 343.376 139.182 343.872H139.566V342.168H141.966V356.424C141.966 357.144 141.75 357.72 141.318 358.152C140.902 358.584 140.326 358.8 139.59 358.8H131.622V356.64H138.822C139.286 356.64 139.518 356.4 139.518 355.92V352.152H139.134C138.958 352.44 138.71 352.736 138.39 353.04C138.07 353.344 137.646 353.592 137.118 353.784C136.606 353.976 135.958 354.072 135.174 354.072C134.182 354.072 133.262 353.84 132.414 353.376C131.582 352.896 130.918 352.216 130.422 351.336C129.926 350.44 129.678 349.376 129.678 348.144ZM135.846 351.912C136.918 351.912 137.798 351.576 138.486 350.904C139.19 350.216 139.542 349.272 139.542 348.072V347.856C139.542 346.624 139.198 345.68 138.51 345.024C137.822 344.352 136.934 344.016 135.846 344.016C134.79 344.016 133.91 344.352 133.206 345.024C132.518 345.68 132.174 346.624 132.174 347.856V348.072C132.174 349.272 132.518 350.216 133.206 350.904C133.91 351.576 134.79 351.912 135.846 351.912Z" fill="#FEFEFE"/>
<path opacity="0.0344828" d="M172.122 74.8578C156.341 68.505 158.764 45.4494 175.521 42.5165L232.606 32.5244C242.347 30.8194 248.978 21.6927 247.59 11.9015L239.452 -45.4773C237.064 -62.3202 258.242 -71.7494 269.161 -58.7042L306.356 -14.2632C312.703 -6.67969 323.923 -5.50039 331.708 -11.5985L377.33 -47.3351C390.722 -57.8252 409.478 -44.1987 403.64 -28.2205L383.75 26.2125C380.356 35.501 384.945 45.807 394.119 49.5001L447.878 71.1423C463.659 77.4952 461.236 100.551 444.479 103.484L387.395 113.476C377.653 115.181 371.022 124.308 372.411 134.099L380.548 191.478C382.937 208.32 361.758 217.75 350.84 204.704L313.645 160.263C307.298 152.68 296.077 151.501 288.292 157.599L242.67 193.335C229.278 203.825 210.523 190.199 216.361 174.221L236.251 119.788C239.644 110.499 235.056 100.193 225.882 96.5001L172.122 74.8578Z" stroke="#FEFEFE" stroke-width="1.4151"/>
<path opacity="0.0689655" d="M174.599 68.0174C159.173 60.8474 162.799 37.9502 179.687 35.8983L235.548 29.1099C245.364 27.9169 252.464 19.1497 251.589 9.29931L246.615 -46.752C245.111 -63.6967 266.754 -72.0047 276.975 -58.4059L310.784 -13.4225C316.725 -5.51746 327.868 -3.75254 335.961 -9.43483L382.016 -41.769C395.939 -51.5434 413.955 -36.9543 407.289 -21.3037L385.236 30.4669C381.36 39.565 385.404 50.0971 394.372 54.2652L445.401 77.9833C460.827 85.1534 457.201 108.05 440.314 110.102L384.453 116.89C374.636 118.083 367.536 126.85 368.41 136.7L373.386 192.752C374.89 209.697 353.246 218.004 343.026 204.406L309.217 159.423C303.275 151.518 292.133 149.753 284.039 155.436L237.985 187.769C224.062 197.544 206.045 182.954 212.712 167.303L234.764 115.533C238.639 106.435 234.597 95.9027 225.629 91.7346L174.599 68.0174Z" stroke="#FEFEFE" stroke-width="1.4151"/>
<path opacity="0.103448" d="M177.409 61.4404C162.378 53.4729 167.198 30.7959 184.17 29.6306L238.632 25.8907C248.498 25.2132 256.046 16.8304 255.689 6.94793L253.715 -47.6077C253.1 -64.6079 275.148 -71.7716 284.643 -57.6568L315.113 -12.3612C320.633 -4.15574 331.668 -1.81027 340.048 -7.06124L386.307 -36.0476C400.722 -45.0802 417.95 -29.568 410.474 -14.2877L386.481 34.7486C382.135 43.6314 385.621 54.3598 394.359 58.9915L442.591 84.5597C457.621 92.5272 452.801 115.204 435.83 116.37L381.368 120.109C371.502 120.787 363.953 129.17 364.31 139.052L366.284 193.608C366.899 210.608 344.851 217.772 335.356 203.657L304.886 158.361C299.366 150.156 288.332 147.81 279.952 153.061L233.693 182.048C219.278 191.08 202.049 175.568 209.526 160.288L233.519 111.252C237.865 102.369 234.378 91.6403 225.641 87.0087L177.409 61.4404Z" stroke="#FEFEFE" stroke-width="1.4151"/>
<path opacity="0.137931" d="M180.529 55.1416C165.937 46.3984 171.937 24.0057 188.946 23.7302L241.848 22.8735C251.736 22.7133 259.712 14.736 259.873 4.84828L260.73 -48.0547C261.006 -65.0636 283.398 -71.0635 292.142 -56.4713L319.335 -11.0849C324.418 -2.60188 335.315 0.317844 343.958 -4.48728L390.201 -30.1964C405.069 -38.4624 421.462 -22.0697 413.196 -7.20152L387.487 39.0425C382.682 47.6856 385.602 58.5828 394.085 63.6654L439.472 90.8583C454.064 99.6016 448.064 121.994 431.055 122.27L378.152 123.127C368.265 123.287 360.287 131.264 360.127 141.152L359.27 194.054C358.994 211.064 336.601 217.064 327.858 202.471L300.665 157.085C295.582 148.602 284.685 145.682 276.042 150.487L229.799 176.196C214.93 184.462 198.538 168.069 206.804 153.201L232.512 106.958C237.318 98.315 234.398 87.4182 225.915 82.3355L180.529 55.1416Z" stroke="#FEFEFE" stroke-width="1.4151"/>
<path opacity="0.172414" d="M183.939 49.1369C169.823 39.6419 176.987 17.5939 193.988 18.209L245.182 20.0608C255.064 20.4184 263.448 12.8698 264.126 3.00392L267.635 -48.1045C268.801 -65.0755 291.477 -69.8953 299.444 -54.8656L323.437 -9.60324C328.069 -0.865808 338.799 2.62056 347.682 -1.72572L393.697 -24.241C408.977 -31.7169 424.49 -14.4891 415.457 -0.0741338L388.255 43.3361C383.005 51.716 385.35 62.7509 393.556 68.2705L436.061 96.8634C450.176 106.358 443.012 128.406 426.012 127.791L374.818 125.939C364.935 125.582 356.551 133.131 355.874 142.996L352.365 194.104C351.2 211.075 328.523 215.896 320.556 200.866L296.562 155.604C291.931 146.866 281.201 143.38 272.318 147.726L226.302 170.241C211.022 177.717 195.51 160.489 204.543 146.074L231.744 102.664C236.995 94.2844 234.649 83.2494 226.444 77.7298L183.939 49.1369Z" stroke="#FEFEFE" stroke-width="1.4151"/>
<path opacity="0.206897" d="M187.616 43.438C174.017 33.2173 182.325 11.5745 199.27 13.0784L248.623 17.4582C258.473 18.3324 267.24 11.2327 268.433 1.41575L274.41 -47.7686C276.462 -64.6559 299.36 -68.2832 306.53 -52.8566L327.413 -7.92562C331.581 1.04225 342.112 5.08505 351.211 1.20962L396.794 -18.2072C412.445 -24.8735 427.034 -6.85644 417.259 7.06626L388.79 47.6165C383.107 55.7101 384.873 66.8527 392.778 72.7942L432.385 102.563C445.983 112.784 437.676 134.426 420.731 132.923L371.378 128.542C361.528 127.668 352.76 134.767 351.567 144.584L345.591 193.77C343.539 210.657 320.641 214.283 313.471 198.857L292.588 153.926C288.42 144.958 277.888 140.915 268.79 144.79L223.207 164.207C207.556 170.874 192.966 152.857 202.741 138.935L231.21 98.3832C236.892 90.2896 235.128 79.1474 227.223 73.2059L187.616 43.438Z" stroke="#FEFEFE" stroke-width="1.4151"/>
<path opacity="0.241379" d="M191.537 38.0562C178.492 27.1378 187.921 5.95852 204.764 8.34723L252.155 15.0681C261.946 16.4568 271.074 9.82593 272.779 0.084861L281.031 -47.0634C283.964 -63.8201 307.021 -66.2441 313.373 -50.4633L331.248 -6.06026C334.941 3.11345 345.247 7.70187 354.535 4.30795L399.494 -12.1201C415.472 -17.9584 429.098 0.797766 418.608 14.1898L389.092 51.8711C382.994 59.6562 384.174 70.8759 391.757 77.223L428.463 107.944C441.508 118.863 432.078 140.042 415.235 137.653L367.844 130.932C358.053 129.544 348.926 136.174 347.221 145.915L338.968 193.064C336.035 209.82 312.979 212.244 306.626 196.464L288.752 152.061C285.059 142.887 274.753 138.298 265.464 141.692L220.506 158.12C204.528 163.959 190.901 145.203 201.392 131.81L230.907 94.1292C237.005 86.3441 235.826 75.1244 228.242 68.7773L191.537 38.0562Z" stroke="#FEFEFE" stroke-width="1.4151"/>
<path opacity="0.275862" d="M195.681 33.0008C183.225 21.4146 193.75 0.758724 210.445 4.02564L255.77 12.8945C265.475 14.7936 274.936 8.6496 277.149 -0.988869L287.481 -46.0021C291.287 -62.5823 314.438 -63.7962 319.957 -47.7048L334.937 -4.01705C338.145 5.33719 348.197 10.4586 357.65 7.55572L401.801 -6.00328C418.062 -10.9969 430.688 8.44631 419.512 21.2709L389.168 56.088C382.671 63.5432 383.262 74.8089 390.502 81.5442L424.319 113C436.775 124.586 426.25 145.242 409.556 141.975L364.23 133.106C354.525 131.207 345.064 137.351 342.852 146.99L332.519 192.004C328.713 208.584 305.562 209.797 300.044 193.706L285.062 150.018C281.854 140.664 271.802 135.542 262.349 138.446L218.2 152.004C201.938 156.998 189.312 137.556 200.488 124.731L230.832 89.9129C237.329 82.4577 236.738 71.1916 229.498 64.4563L195.681 33.0008Z" stroke="#FEFEFE" stroke-width="1.4151"/>
<path opacity="0.310345" d="M200.023 28.2802C188.191 16.058 199.782 -4.01876 216.283 0.117425L259.451 10.9382C269.043 13.3425 278.813 7.70148 281.527 -1.80775L293.74 -44.6025C298.408 -60.9608 321.591 -60.9607 326.26 -44.6023L338.473 -1.80844C341.187 7.70104 350.957 13.3421 360.55 10.9377L403.717 0.116587C420.218 -4.01938 431.809 16.0582 419.977 28.2803L389.022 60.2547C382.144 67.3597 382.143 78.6409 389.022 85.7458L419.977 117.72C431.809 129.942 420.218 150.019 403.717 145.883L360.549 135.062C350.957 132.658 341.187 138.299 338.473 147.808L326.26 190.603C321.591 206.961 298.409 206.961 293.74 190.602L281.527 147.809C278.813 138.299 269.043 132.658 259.45 135.062L216.283 145.883C199.782 150.019 188.191 129.942 200.023 117.72L230.978 85.7454C237.856 78.6404 237.857 67.3593 230.978 60.2543L200.023 28.2802Z" stroke="#FEFEFE" stroke-width="1.4151"/>
<path opacity="0.344828" d="M204.54 23.9016C193.364 11.0769 205.99 -8.36563 222.252 -3.37153L263.187 9.19946C272.64 12.1026 282.692 6.98113 285.9 -2.37316L299.791 -42.8799C305.309 -58.9716 328.46 -57.7581 332.266 -41.1778L341.847 0.558808C344.059 10.1971 353.52 16.3414 363.225 14.4423L405.251 6.21908C421.946 2.95226 432.47 23.6082 420.015 35.1944L388.659 64.3595C381.419 71.0947 380.828 82.3604 387.325 89.8156L415.46 122.098C426.637 134.923 414.01 154.366 397.748 149.372L356.812 136.801C347.359 133.898 337.308 139.02 334.1 148.374L320.209 188.881C314.691 204.972 291.54 203.758 287.734 187.179L278.153 145.442C275.941 135.804 266.48 129.659 256.775 131.558L214.749 139.782C198.055 143.048 187.53 122.393 199.986 110.806L231.341 81.6413C238.582 74.906 239.172 63.64 232.674 56.1847L204.54 23.9016Z" stroke="#FEFEFE" stroke-width="1.4151"/>
<path opacity="0.37931" d="M209.209 19.87C198.719 6.47793 212.346 -12.278 228.324 -6.43962L266.966 7.68022C276.254 11.074 286.56 6.48524 290.253 -2.68838L305.617 -40.8528C311.97 -56.6336 335.025 -54.2101 337.958 -37.4534L345.052 3.07173C346.757 12.8125 355.883 19.4434 365.674 18.0551L406.408 12.2782C423.251 9.88949 432.68 31.0681 419.635 41.9865L388.086 68.3917C380.503 74.7388 379.323 85.958 385.421 93.7431L410.791 126.131C421.281 139.523 407.654 158.279 391.676 152.44L353.034 138.32C343.746 134.927 333.44 139.515 329.747 148.689L314.383 186.853C308.03 202.634 284.974 200.211 282.041 183.454L274.948 142.929C273.243 133.188 264.116 126.557 254.325 127.946L213.592 133.722C196.749 136.111 187.319 114.933 200.365 104.014L231.914 77.6089C239.497 71.2619 240.677 60.0426 234.579 52.2575L209.209 19.87Z" stroke="#FEFEFE" stroke-width="1.4151"/>
<path opacity="0.413793" d="M214.005 16.1876C204.231 2.26492 218.82 -15.7514 234.471 -9.08477L270.774 6.37858C279.872 10.254 290.404 6.21141 294.572 -2.75645L311.203 -38.5402C318.373 -53.9668 341.271 -50.34 343.323 -33.4528L348.083 5.71859C349.276 15.5355 358.043 22.6349 367.893 21.7607L407.198 18.2726C424.143 16.7686 432.451 38.4116 418.853 48.6324L387.309 72.3404C379.404 78.2818 377.639 89.424 383.321 97.5176L405.995 129.813C415.77 143.736 401.181 161.752 385.53 155.086L349.226 139.622C340.128 135.746 329.596 139.79 325.428 148.757L308.796 184.54C301.626 199.967 278.728 196.341 276.676 179.454L271.917 140.282C270.724 130.465 261.957 123.365 252.107 124.239L212.801 127.728C195.856 129.232 187.549 107.588 201.147 97.3678L232.691 73.6604C240.596 67.7188 242.361 56.5761 236.679 48.4826L214.005 16.1876Z" stroke="#FEFEFE" stroke-width="1.4151"/>
<path opacity="0.448276" d="M218.906 12.8581C209.873 -1.55713 225.385 -18.7852 240.665 -11.3086L274.6 5.29461C283.483 9.64071 294.212 6.15432 298.843 -2.58304L316.537 -35.9616C324.505 -50.9917 347.181 -46.1715 348.346 -29.2001L350.935 8.49032C351.613 18.356 359.996 25.9048 369.879 25.5473L407.632 24.1813C424.633 23.5664 431.797 45.6145 417.682 55.1095L386.336 76.1953C378.13 81.7149 375.785 92.7494 381.035 101.129L401.095 133.143C410.127 147.558 394.615 164.786 379.335 157.309L345.4 140.706C336.517 136.36 325.788 139.846 321.157 148.584L303.463 181.962C295.495 196.992 272.819 192.172 271.654 175.201L269.066 137.511C268.389 127.645 260.004 120.096 250.122 120.453L212.368 121.819C195.368 122.434 188.204 100.386 202.318 90.8912L233.665 69.8046C241.87 64.285 244.216 53.2512 238.965 44.8714L218.906 12.8581Z" stroke="#FEFEFE" stroke-width="1.4151"/>
<path opacity="0.482759" d="M223.886 9.88129C215.62 -4.98693 232.013 -21.3802 246.882 -13.1142L278.43 4.42607C287.073 9.23122 297.97 6.31149 303.053 -2.17129L321.606 -33.1362C330.35 -47.7289 352.742 -41.7286 353.018 -24.7193L353.603 11.3728C353.763 21.2607 361.74 29.2377 371.628 29.3979L407.72 29.9827C424.729 30.2583 430.73 52.6512 416.137 61.3944L385.172 79.9477C376.689 85.0304 373.769 95.927 378.574 104.57L396.115 136.119C404.381 150.987 387.988 167.381 373.119 159.115L341.57 141.574C332.926 136.769 322.03 139.689 316.947 148.172L298.395 179.137C289.651 193.729 267.258 187.729 266.983 170.72L266.398 134.628C266.238 124.74 258.261 116.763 248.373 116.603L212.28 116.018C195.271 115.743 189.271 93.3493 203.864 84.606L234.828 66.0535C243.311 60.9708 246.231 50.0736 241.426 41.4304L223.886 9.88129Z" stroke="#FEFEFE" stroke-width="1.4151"/>
<path opacity="0.517241" d="M228.923 7.25657C221.447 -8.0239 238.676 -23.5367 253.091 -14.5039L282.254 3.77079C290.634 9.02173 301.668 6.67576 307.188 -1.52959L326.398 -30.0857C335.893 -44.2007 357.942 -37.0367 357.326 -20.0364L356.082 14.357C355.724 24.2397 363.273 32.6232 373.139 33.3007L407.474 35.6581C424.446 36.8235 429.266 59.4997 414.235 67.4673L383.828 83.5873C375.09 88.2191 371.604 98.9479 375.95 107.831L391.076 138.744C398.553 154.025 381.324 169.538 366.909 160.505L337.746 142.23C329.366 136.979 318.331 139.325 312.812 147.53L293.601 176.087C284.106 190.202 262.058 183.038 262.673 166.037L263.918 131.644C264.275 121.761 256.727 113.378 246.861 112.7L212.526 110.343C195.554 109.177 190.734 86.5013 205.764 78.5336L236.172 62.4136C244.909 57.7819 248.396 47.0531 244.05 38.1702L228.923 7.25657Z" stroke="#FEFEFE" stroke-width="1.4151"/>
<path opacity="0.551724" d="M233.996 4.98004C227.33 -10.6708 245.346 -25.26 259.269 -15.4852L286.06 3.32404C294.153 9.0064 305.296 7.24192 311.237 -0.663365L330.905 -26.8314C341.126 -40.43 362.769 -32.122 361.265 -15.1772L358.371 17.4295C357.496 27.2797 364.596 36.0468 374.413 37.2399L406.909 41.1887C423.796 43.2407 427.423 66.138 411.997 73.3081L382.311 87.1056C373.344 91.2736 369.3 101.805 373.176 110.903L386.004 141.02C392.671 156.671 374.655 171.26 360.732 161.485L333.94 142.675C325.847 136.993 314.705 138.759 308.763 146.664L289.095 172.832C278.875 186.431 257.232 178.122 258.736 161.177L261.629 128.571C262.503 118.72 255.404 109.953 245.587 108.76L213.091 104.812C196.204 102.76 192.577 79.8622 208.004 72.6922L237.689 58.8947C246.657 54.7265 250.7 44.1942 246.824 35.0961L233.996 4.98004Z" stroke="#FEFEFE" stroke-width="1.4151"/>
<path opacity="0.586207" d="M239.08 3.05028C233.242 -12.928 251.997 -26.5544 265.389 -16.0642L289.836 3.08472C297.621 9.18287 308.841 8.00399 315.188 0.420479L335.119 -23.3935C346.037 -36.4385 367.216 -27.0092 364.827 -10.1664L360.467 20.58C359.078 30.3711 365.709 39.4978 375.45 41.2028L406.039 46.5565C422.795 49.4894 425.219 72.5452 409.438 78.8981L380.631 90.4955C371.457 94.1885 366.869 104.494 370.262 113.783L380.92 142.95C386.758 158.929 368.003 172.555 354.611 162.065L330.164 142.916C322.379 136.818 311.16 137.997 304.813 145.581L284.881 169.394C273.963 182.439 252.784 173.01 255.173 156.167L259.533 125.421C260.922 115.63 254.291 106.504 244.55 104.799L213.961 99.4441C197.205 96.5111 194.781 73.4554 210.562 67.1024L239.369 55.5058C248.543 51.8128 253.131 41.5065 249.737 32.218L239.08 3.05028Z" stroke="#FEFEFE" stroke-width="1.4151"/>
<path opacity="0.62069" d="M244.154 1.46067C239.159 -14.8013 258.603 -27.4279 271.428 -16.2513L293.571 3.04699C301.026 9.5439 312.292 8.95322 319.027 1.7124L339.032 -19.7945C350.619 -32.25 371.274 -21.7253 368.008 -5.03063L362.367 23.7956C360.468 33.5006 366.612 42.9619 376.25 45.1743L404.879 51.7459C421.459 55.552 422.672 78.7027 406.581 84.2211L378.797 93.7491C369.442 96.957 364.32 107.008 367.223 116.462L375.847 144.54C380.841 160.802 361.397 173.429 348.573 162.252L326.429 142.954C318.974 136.457 307.708 137.047 300.973 144.288L280.968 165.795C269.382 178.251 248.726 167.726 251.993 151.031L257.633 122.205C259.532 112.5 253.388 103.039 243.75 100.826L215.121 94.2548C198.541 90.4489 197.328 67.2978 213.419 61.7796L241.204 52.2516C250.558 49.0438 255.68 38.9924 252.777 29.5391L244.154 1.46067Z" stroke="#FEFEFE" stroke-width="1.4151"/>
<path opacity="0.655172" d="M249.196 0.204664C245.059 -16.2963 265.137 -27.8881 277.359 -16.0556L297.255 3.20507C304.36 10.0834 315.64 10.0841 322.745 3.20591L342.641 -16.056C354.863 -27.888 374.94 -16.2967 370.804 0.204019L364.071 27.0649C361.667 36.6571 367.307 46.4269 376.816 49.1409L403.445 56.7401C419.804 61.4087 419.803 84.5919 403.445 89.2604L376.816 96.8593C367.307 99.5734 361.667 109.343 364.072 118.935L370.804 145.796C374.94 162.297 354.863 173.888 342.641 162.056L322.746 142.795C315.641 135.916 304.359 135.916 297.254 142.794L277.359 162.056C265.137 173.888 245.06 162.297 249.196 145.796L255.929 118.935C258.333 109.343 252.693 99.5733 243.183 96.8593L216.554 89.2602C200.196 84.5915 200.197 61.4083 216.555 56.7399L243.184 49.141C252.693 46.4269 258.333 36.6567 255.929 27.0644L249.196 0.204664Z" stroke="#FEFEFE" stroke-width="1.4151"/>
<path opacity="0.689655" d="M254.187 -0.734891C250.92 -17.4298 271.575 -27.9544 283.162 -15.4984L300.876 3.54671C307.612 10.7874 318.877 11.3774 326.333 4.88032L345.942 -12.209C358.767 -23.3849 378.209 -10.7588 373.215 5.50272L365.579 30.3669C362.676 39.8203 367.798 49.8718 377.152 53.0797L401.756 61.5169C417.848 67.0351 416.634 90.1867 400.053 93.9926L374.703 99.8117C365.064 102.024 358.92 111.486 360.819 121.191L365.814 146.717C369.081 163.412 348.426 173.936 336.839 161.481L319.124 142.436C312.388 135.195 301.122 134.604 293.667 141.101L274.059 158.19C261.234 169.367 241.791 156.74 246.785 140.478L254.421 115.614C257.324 106.161 252.203 96.1093 242.848 92.9014L218.245 84.4643C202.153 78.946 203.366 55.7951 219.946 51.989L245.297 46.17C254.935 43.9575 261.08 34.4965 259.181 24.7916L254.187 -0.734891Z" stroke="#FEFEFE" stroke-width="1.4151"/>
<path opacity="0.724138" d="M259.104 -1.3478C256.715 -18.1908 277.894 -27.62 288.812 -14.5747L304.427 4.0816C310.774 11.6651 321.994 12.8446 329.779 6.74655L348.931 -8.25643C362.323 -18.7465 381.079 -5.12004 375.241 10.858L366.891 33.7103C363.497 42.9987 368.086 53.3047 377.259 56.9977L399.828 66.0829C415.609 72.436 413.185 95.492 396.429 98.425L372.464 102.619C362.723 104.324 356.092 113.451 357.481 123.242L360.896 147.33C363.285 164.173 342.107 173.602 331.188 160.557L315.573 141.9C309.226 134.317 298.007 133.137 290.222 139.235L271.069 154.238C257.677 164.729 238.922 151.102 244.76 135.124L253.11 112.273C256.504 102.984 251.915 92.6783 242.742 88.9852L220.173 79.8988C204.392 73.5459 206.815 50.49 223.572 47.5571L247.536 43.3632C257.278 41.6582 263.908 32.531 262.52 22.7398L259.104 -1.3478Z" stroke="#FEFEFE" stroke-width="1.4151"/>
<path opacity="0.758621" d="M263.929 -1.654C262.425 -18.5989 284.069 -26.9071 294.29 -13.3083L307.897 4.7963C313.838 12.7014 324.98 14.4658 333.074 8.7835L351.609 -4.22921C365.532 -14.0041 383.55 0.585162 376.883 16.236L368.008 37.0721C364.132 46.1702 368.175 56.7021 377.143 60.8702L397.681 70.4155C413.107 77.5857 409.48 100.483 392.593 102.535L370.11 105.267C360.293 106.46 353.194 115.227 354.068 125.078L356.071 147.637C357.575 164.582 335.931 172.89 325.71 159.291L312.104 141.186C306.162 133.281 295.02 131.516 286.926 137.198L268.39 150.212C254.467 159.987 236.451 145.397 243.117 129.747L251.993 108.911C255.868 99.8126 251.825 89.2807 242.858 85.1126L222.32 75.5672C206.893 68.3972 210.52 45.4999 227.407 43.4477L249.89 40.715C259.706 39.5221 266.806 30.7553 265.932 20.905L263.929 -1.654Z" stroke="#FEFEFE" stroke-width="1.4151"/>
<path opacity="0.793103" d="M268.646 -1.66558C268.03 -18.666 290.079 -25.8301 299.574 -11.715L311.277 5.68135C316.796 13.8868 327.831 16.2327 336.211 10.9817L353.978 -0.150918C368.393 -9.18376 385.621 6.32876 378.144 21.6092L368.93 40.4418C364.584 49.3247 368.07 60.0537 376.807 64.6854L395.331 74.5052C410.362 82.4728 405.542 105.15 388.571 106.315L367.653 107.751C357.787 108.428 350.239 116.812 350.596 126.695L351.354 147.647C351.969 164.648 329.92 171.812 320.425 157.697L308.723 140.3C303.203 132.095 292.169 129.749 283.789 135L266.023 146.134C251.607 155.166 234.379 139.653 241.855 124.373L251.07 105.54C255.416 96.6571 251.93 85.9281 243.193 81.2964L224.669 71.4765C209.638 63.509 214.458 40.8327 231.43 39.6673L252.346 38.231C262.212 37.5536 269.761 29.1695 269.403 19.2868L268.646 -1.66558Z" stroke="#FEFEFE" stroke-width="1.4151"/>
<path opacity="0.827586" d="M273.235 -1.39413C273.511 -18.4034 295.904 -24.4035 304.647 -9.81081L314.559 6.73229C319.642 15.2152 330.539 18.1346 339.182 13.3294L356.037 3.95919C370.905 -4.30682 387.298 12.0861 379.032 26.9543L369.661 43.8095C364.856 52.4526 367.776 63.3494 376.259 68.4321L392.802 78.3446C407.395 87.0878 401.394 109.481 384.385 109.756L365.102 110.068C355.214 110.229 347.238 118.206 347.078 128.094L346.765 147.377C346.489 164.386 324.097 170.386 315.354 155.793L305.441 139.25C300.358 130.767 289.461 127.847 280.818 132.652L263.963 142.023C249.095 150.289 232.702 133.897 240.968 119.028L250.338 102.172C255.143 93.5291 252.224 82.6324 243.741 77.5497L227.198 67.6382C212.605 58.8949 218.606 36.5017 235.615 36.2261L254.897 35.9134C264.785 35.7532 272.762 27.7766 272.922 17.8888L273.235 -1.39413Z" stroke="#FEFEFE" stroke-width="1.4151"/>
<path opacity="0.862069" d="M277.681 -0.853117C278.846 -17.8247 301.522 -22.6446 309.49 -7.61431L317.735 7.93908C322.366 16.6764 333.096 20.1628 341.978 15.8167L357.792 8.07967C373.072 0.603126 388.584 17.8315 379.551 32.2467L370.205 47.1645C364.954 55.5444 367.299 66.579 375.505 72.0986L390.111 81.924C404.226 91.419 397.062 113.467 380.062 112.852L362.469 112.216C352.586 111.859 344.202 119.408 343.525 129.273L342.319 146.836C341.154 163.807 318.478 168.627 310.51 153.597L302.265 138.043C297.633 129.306 286.904 125.82 278.021 130.166L262.208 137.903C246.928 145.379 231.416 128.151 240.448 113.736L249.796 98.8187C255.047 90.439 252.701 79.4043 244.496 73.8846L229.889 64.0584C215.774 54.5635 222.938 32.5152 239.938 33.1302L257.531 33.7666C267.414 34.1241 275.797 26.575 276.475 16.7091L277.681 -0.853117Z" stroke="#FEFEFE" stroke-width="1.4151"/>
<path opacity="0.896552" d="M281.967 -0.0574314C284.019 -16.9447 306.918 -20.5714 314.088 -5.14476L320.798 9.29477C324.966 18.2626 335.498 22.3057 344.596 18.4305L359.246 12.1899C374.897 5.5233 389.486 23.5399 379.711 37.4627L370.562 50.4948C364.88 58.5884 366.644 69.7306 374.55 75.6721L387.278 85.2392C400.877 95.4599 392.569 117.103 375.624 115.599L359.763 114.191C349.913 113.317 341.146 120.417 339.953 130.234L338.033 146.04C335.981 162.927 313.083 166.554 305.913 151.127L299.202 136.688C295.034 127.72 284.502 123.677 275.404 127.552L260.754 133.793C245.104 140.459 230.514 122.443 240.288 108.52L249.438 95.4878C255.121 87.3943 253.356 76.252 245.451 70.3105L232.722 60.7434C219.123 50.5227 227.431 28.8796 244.376 30.3835L260.237 31.7907C270.087 32.6648 278.854 25.5659 280.047 15.7491L281.967 -0.0574314Z" stroke="#FEFEFE" stroke-width="1.4151"/>
<path opacity="0.931035" d="M286.081 0.978123C289.014 -15.7786 312.071 -18.202 318.424 -2.4212L323.742 10.7896C327.435 19.9633 337.741 24.5522 347.03 21.1583L360.406 16.2704C376.385 10.4322 390.011 29.1875 379.521 42.5796L370.738 53.7914C364.641 61.5764 365.82 72.7959 373.403 79.143L384.325 88.2839C397.37 99.2023 387.941 120.381 371.098 117.992L356.997 115.992C347.206 114.604 338.079 121.235 336.374 130.976L333.919 145.004C330.986 161.761 307.929 164.184 301.576 148.403L296.258 135.193C292.565 126.019 282.259 121.43 272.971 124.824L259.594 129.712C243.616 135.55 229.989 116.795 240.479 103.403L249.262 92.1908C255.36 84.4057 254.181 73.1863 246.597 66.8392L235.676 57.6983C222.631 46.7799 232.06 25.6015 248.902 27.9899L263.003 29.9898C272.794 31.3784 281.921 24.747 283.626 15.006L286.081 0.978123Z" stroke="#FEFEFE" stroke-width="1.4151"/>
<path opacity="0.965517" d="M290.01 2.23755C293.816 -14.3427 316.967 -15.556 322.485 0.535606L326.56 12.4168C329.767 21.7712 339.819 26.8932 349.273 23.99L361.28 20.3019C377.541 15.308 390.167 34.7507 378.991 47.5754L370.739 57.0447C364.242 64.4999 364.832 75.7656 372.073 82.5009L381.27 91.0558C393.726 102.642 383.201 123.298 366.506 120.031L354.18 117.619C344.474 115.72 335.013 121.865 332.801 131.503L329.99 143.745C326.184 160.325 303.034 161.539 297.515 145.447L293.441 133.566C290.233 124.212 280.181 119.09 270.728 121.993L258.721 125.68C242.459 130.674 229.832 111.231 241.009 98.4065L249.261 88.9372C255.758 81.4819 255.168 70.2162 247.927 63.481L238.73 54.9261C226.274 43.34 236.799 22.6838 253.494 25.9507L265.821 28.3635C275.526 30.2626 284.987 24.118 287.2 14.4795L290.01 2.23755Z" stroke="#FEFEFE" stroke-width="1.4151"/>
<path d="M293.74 3.70398C298.409 -12.6544 321.591 -12.6544 326.26 3.70398L329.246 14.1659C331.96 23.6751 341.73 29.3154 351.322 26.911L361.875 24.2655C378.376 20.1296 389.967 40.2064 378.135 52.4286L370.567 60.246C363.689 67.351 363.689 78.6322 370.567 85.7372L378.135 93.5536C389.967 105.776 378.376 125.853 361.875 121.717L351.322 119.071C341.73 116.667 331.96 122.308 329.246 131.817L326.26 142.278C321.591 158.637 298.409 158.637 293.74 142.278L290.755 131.817C288.041 122.308 278.271 116.667 268.679 119.071L258.125 121.717C241.624 125.852 230.033 105.776 241.865 93.5536L249.433 85.7372C256.311 78.6322 256.311 67.351 249.433 60.246L241.865 52.4286C230.033 40.2065 241.624 20.1299 258.125 24.2655L268.679 26.911C278.271 29.3153 288.041 23.6751 290.755 14.1659L293.74 3.70398Z" stroke="#FEFEFE" stroke-width="1.4151"/>
</g>
<defs>
<clipPath id="clip0_438_28600">
<path d="M0 16C0 7.16345 7.16344 0 16 0H294C302.837 0 310 7.16344 310 16V370C310 378.837 302.837 386 294 386H16C7.16345 386 0 378.837 0 370V16Z" fill="white"/>
</clipPath>
</defs>
</svg>
