<svg width="327" height="68" viewBox="0 0 327 68" fill="none" xmlns="http://www.w3.org/2000/svg">
<path d="M68.4442 40.224C67.1429 40.224 66.1029 39.856 65.3242 39.12C64.5562 38.3733 64.1722 37.2533 64.1722 35.76V33.04C64.1722 31.5787 64.5562 30.4693 65.3242 29.712C66.1029 28.9547 67.1429 28.576 68.4442 28.576C69.7562 28.576 70.7962 28.9547 71.5642 29.712C72.3429 30.4693 72.7322 31.5787 72.7322 33.04V35.76C72.7322 37.2533 72.3429 38.3733 71.5642 39.12C70.7962 39.856 69.7562 40.224 68.4442 40.224ZM68.4442 38.72C69.3295 38.72 69.9855 38.4693 70.4122 37.968C70.8389 37.456 71.0522 36.7413 71.0522 35.824V32.944C71.0522 32.0267 70.8229 31.3227 70.3642 30.832C69.9055 30.3307 69.2655 30.08 68.4442 30.08C67.6122 30.08 66.9722 30.336 66.5242 30.848C66.0762 31.3493 65.8522 32.048 65.8522 32.944V35.824C65.8522 36.7627 66.0655 37.4827 66.4922 37.984C66.9295 38.4747 67.5802 38.72 68.4442 38.72ZM77.8667 40V29.984H77.6107L75.7707 33.76H73.9947L76.4747 28.8H79.5467V40H77.8667Z" fill="white"/>
<rect x="106" y="10" width="51" height="48" rx="8" fill="#4E4E4E"/>
<path d="M126.64 40.224C125.338 40.224 124.298 39.856 123.52 39.12C122.752 38.3733 122.368 37.2533 122.368 35.76V33.04C122.368 31.5787 122.752 30.4693 123.52 29.712C124.298 28.9547 125.338 28.576 126.64 28.576C127.952 28.576 128.992 28.9547 129.76 29.712C130.538 30.4693 130.928 31.5787 130.928 33.04V35.76C130.928 37.2533 130.538 38.3733 129.76 39.12C128.992 39.856 127.952 40.224 126.64 40.224ZM126.64 38.72C127.525 38.72 128.181 38.4693 128.608 37.968C129.034 37.456 129.248 36.7413 129.248 35.824V32.944C129.248 32.0267 129.018 31.3227 128.56 30.832C128.101 30.3307 127.461 30.08 126.64 30.08C125.808 30.08 125.168 30.336 124.72 30.848C124.272 31.3493 124.048 32.048 124.048 32.944V35.824C124.048 36.7627 124.261 37.4827 124.688 37.984C125.125 38.4747 125.776 38.72 126.64 38.72ZM132.718 40V38.736C132.718 37.9573 132.851 37.3173 133.118 36.816C133.385 36.3147 133.763 35.9093 134.254 35.6C134.755 35.28 135.358 35.0133 136.062 34.8L137.038 34.496C137.475 34.3573 137.849 34.1867 138.158 33.984C138.478 33.7813 138.723 33.5307 138.894 33.232C139.065 32.9227 139.15 32.5653 139.15 32.16V32.096C139.15 31.4667 138.937 30.976 138.51 30.624C138.083 30.2613 137.523 30.08 136.83 30.08C136.115 30.08 135.534 30.272 135.086 30.656C134.649 31.04 134.43 31.6053 134.43 32.352V32.608H132.766V32.368C132.766 31.5573 132.942 30.8747 133.294 30.32C133.646 29.7547 134.131 29.3227 134.75 29.024C135.369 28.7253 136.062 28.576 136.83 28.576C137.598 28.576 138.281 28.72 138.878 29.008C139.486 29.296 139.961 29.7013 140.302 30.224C140.654 30.7467 140.83 31.36 140.83 32.064V32.208C140.83 32.9333 140.686 33.536 140.398 34.016C140.11 34.496 139.71 34.8907 139.198 35.2C138.697 35.5093 138.115 35.7707 137.454 35.984L136.51 36.272C136.009 36.4213 135.603 36.5867 135.294 36.768C134.995 36.9387 134.771 37.1467 134.622 37.392C134.483 37.6373 134.414 37.952 134.414 38.336V38.496H140.734V40H132.718Z" fill="white"/>
<path d="M187.569 40.224C186.268 40.224 185.228 39.856 184.449 39.12C183.681 38.3733 183.297 37.2533 183.297 35.76V33.04C183.297 31.5787 183.681 30.4693 184.449 29.712C185.228 28.9547 186.268 28.576 187.569 28.576C188.881 28.576 189.921 28.9547 190.689 29.712C191.468 30.4693 191.857 31.5787 191.857 33.04V35.76C191.857 37.2533 191.468 38.3733 190.689 39.12C189.921 39.856 188.881 40.224 187.569 40.224ZM187.569 38.72C188.455 38.72 189.111 38.4693 189.537 37.968C189.964 37.456 190.177 36.7413 190.177 35.824V32.944C190.177 32.0267 189.948 31.3227 189.489 30.832C189.031 30.3307 188.391 30.08 187.569 30.08C186.737 30.08 186.097 30.336 185.649 30.848C185.201 31.3493 184.977 32.048 184.977 32.944V35.824C184.977 36.7627 185.191 37.4827 185.617 37.984C186.055 38.4747 186.705 38.72 187.569 38.72ZM197.744 40.224C196.922 40.224 196.192 40.0747 195.552 39.776C194.912 39.4773 194.41 39.0453 194.048 38.48C193.696 37.9147 193.52 37.2427 193.52 36.464V36.176H195.2V36.432C195.2 37.136 195.429 37.696 195.888 38.112C196.357 38.5173 196.976 38.72 197.744 38.72C198.512 38.72 199.109 38.528 199.536 38.144C199.962 37.76 200.176 37.2747 200.176 36.688V36.544C200.176 36.128 200.074 35.792 199.872 35.536C199.669 35.28 199.397 35.0933 199.056 34.976C198.714 34.848 198.33 34.784 197.904 34.784H195.872V32.848L199.808 30.528V30.304H193.792V28.8H201.632V31.072L197.872 33.312V33.536H198.56C199.125 33.536 199.658 33.6427 200.16 33.856C200.661 34.0693 201.066 34.3947 201.376 34.832C201.696 35.2693 201.856 35.824 201.856 36.496V36.688C201.856 37.4027 201.685 38.0267 201.344 38.56C201.002 39.0827 200.522 39.4933 199.904 39.792C199.285 40.08 198.565 40.224 197.744 40.224Z" fill="white"/>
<path d="M248.382 40.224C247.08 40.224 246.04 39.856 245.262 39.12C244.494 38.3733 244.11 37.2533 244.11 35.76V33.04C244.11 31.5787 244.494 30.4693 245.262 29.712C246.04 28.9547 247.08 28.576 248.382 28.576C249.694 28.576 250.734 28.9547 251.502 29.712C252.28 30.4693 252.67 31.5787 252.67 33.04V35.76C252.67 37.2533 252.28 38.3733 251.502 39.12C250.734 39.856 249.694 40.224 248.382 40.224ZM248.382 38.72C249.267 38.72 249.923 38.4693 250.35 37.968C250.776 37.456 250.99 36.7413 250.99 35.824V32.944C250.99 32.0267 250.76 31.3227 250.302 30.832C249.843 30.3307 249.203 30.08 248.382 30.08C247.55 30.08 246.91 30.336 246.462 30.848C246.014 31.3493 245.79 32.048 245.79 32.944V35.824C245.79 36.7627 246.003 37.4827 246.43 37.984C246.867 38.4747 247.518 38.72 248.382 38.72ZM259.82 40V37.712H254.156V35.76L258.444 28.8H261.5V36.224H263.388V37.712H261.5V40H259.82ZM255.788 36.224H259.82V29.856H259.564L255.788 36V36.224Z" fill="white"/>
</svg>
