<svg width="64" height="64" viewBox="0 0 64 64" fill="none" xmlns="http://www.w3.org/2000/svg">
<path d="M28.6056 4.02759V18.3048H30.8164V4.02734L28.6056 4.02759ZM15.0743 4.10559C13.1359 4.10559 11.5626 5.67884 11.5626 7.61722C11.5626 9.55559 13.1359 11.1251 15.0743 11.1251C16.6562 11.1251 17.9918 10.0786 18.4298 8.64072H24.0469V18.3048H26.2579V6.42984H18.3788C17.8928 5.07522 16.5961 4.10559 15.0743 4.10559ZM39.2306 4.10559C37.2922 4.10559 35.7227 5.67884 35.7227 7.61722C35.7227 9.13272 36.6823 10.4235 38.0277 10.9142V18.3047H40.2346V10.9806C41.6841 10.5491 42.7424 9.20647 42.7424 7.61734C42.7424 5.67884 41.1689 4.10559 39.2306 4.10559ZM33.2656 11.5626V18.3048H35.4727V11.5626H33.2656ZM56.8321 12.0663C54.8937 12.0663 53.3203 13.6398 53.3203 15.5782C53.3203 17.2136 54.4388 18.5875 55.9532 18.9767V22.4102H44.3359V24.6173H58.1639V18.8246C59.4418 18.3006 60.3398 17.0455 60.3398 15.5783C60.3398 13.64 58.7704 12.0663 56.8321 12.0663ZM3.77344 15.4572V17.6682H12.0938V24.6175H19.9456V22.4101H14.3048V15.4571L3.77344 15.4572ZM22.1524 20.516V40.4807H42.1287V20.5157L22.1524 20.516ZM24.3474 22.4728H26.5546V32.2972L30.6054 36.348H40.0154V38.5552H29.6876L29.3633 38.231L28.0196 36.8872C27.8904 37.8103 27.0996 38.52 26.1408 38.52C25.0918 38.52 24.2421 37.6705 24.2421 36.6216C24.2421 35.6613 24.9541 34.8741 25.8789 34.7466L24.6721 33.5393L24.3478 33.2152L24.3474 22.4728ZM31.2149 22.4925H33.4257V29.4066H39.9919L39.9922 31.6176H31.2151L31.2149 22.4925ZM6.64056 27.172V38.4181C5.20431 38.8571 4.16006 40.1928 4.16006 41.7736C4.16006 43.7117 5.72969 45.2852 7.66806 45.2852C9.60644 45.2852 11.1797 43.7118 11.1797 41.7737C11.1797 40.2493 10.2059 38.9532 8.84769 38.469V29.379H19.9454V27.1721L6.64056 27.172ZM44.3359 27.172V29.379H51.0819V27.1721L44.3359 27.172ZM56.8319 29.9182C55.4697 29.9182 54.2892 30.6945 53.7069 31.8282H44.3357L44.3359 34.0392H53.3751C53.6657 35.6852 55.1031 36.9376 56.8321 36.9376C58.7704 36.9376 60.3399 35.3641 60.3399 33.4258C60.3399 31.4875 58.7703 29.9182 56.8319 29.9182ZM13.1992 31.8282V34.0392H19.9454V31.8282H13.1992ZM15.3437 36.387V46.9141C13.9064 47.3532 12.8593 48.6891 12.8593 50.2696C12.8593 52.2078 14.4327 53.7813 16.3711 53.7813C18.3093 53.7813 19.8786 52.2078 19.8786 50.2696C19.8786 48.7453 18.9078 47.4491 17.5506 46.965V38.5975H19.9451V36.3867L15.3437 36.387ZM44.3359 36.387V38.5977H49.9804V50.5081C48.5651 50.9611 47.5392 52.2906 47.5392 53.8556C47.5389 55.7938 49.1123 57.3635 51.0507 57.3635C52.9891 57.3635 54.5586 55.7938 54.5586 53.8557C54.5586 52.3157 53.5667 51.0085 52.1873 50.5353V36.387H44.3359ZM24.0469 42.6913V49.4455H26.2579V42.6913H24.0469ZM28.6057 42.6913V53.5118C27.2291 53.9861 26.2382 55.291 26.2382 56.8281C26.2382 58.7663 27.8117 60.34 29.7501 60.34C31.6884 60.34 33.2579 58.7662 33.2579 56.8281C33.2579 55.2618 32.2326 53.9356 30.8164 53.4843V42.6913H28.6057ZM33.2657 42.6913V49.4455H35.4767L35.4727 42.6915L33.2657 42.6913ZM38.0274 42.6913V60.1993H40.2343V42.6913H38.0274Z" fill="#FEFEFE"/>
</svg>
