<svg width="1459" height="1117" viewBox="0 0 1459 1117" fill="none" xmlns="http://www.w3.org/2000/svg">
<path opacity="0.38" d="M2078.07 988.925C2311.1 531.592 2129.26 -28.052 1671.93 -261.075C1214.59 -494.098 654.948 -312.258 421.925 145.075C188.902 602.408 370.742 1162.05 828.075 1395.07C1285.41 1628.1 1845.05 1446.26 2078.07 988.925Z" stroke="url(#paint0_linear_438_28541)" stroke-opacity="0.7" stroke-width="8" stroke-linecap="round" stroke-dasharray="28 17"/>
<path opacity="0.39" d="M1494.53 1419.76C1965.49 1284.71 2237.81 793.442 2102.76 322.475C1967.71 -148.491 1476.44 -420.808 1005.48 -285.76C534.509 -150.713 262.192 340.559 397.24 811.525C532.287 1282.49 1023.56 1554.81 1494.53 1419.76Z" stroke="url(#paint1_linear_438_28541)" stroke-opacity="0.7" stroke-width="7" stroke-linecap="round" stroke-dasharray="14 38"/>
<path opacity="0.27" d="M1966.5 119.281C1719.23 -276.431 1197.99 -396.769 802.28 -149.5C406.568 97.7683 286.231 619.007 533.499 1014.72C780.768 1410.43 1302.01 1530.77 1697.72 1283.5C2093.43 1036.23 2213.77 514.993 1966.5 119.281Z" stroke="url(#paint2_linear_438_28541)" stroke-opacity="0.7" stroke-width="7" stroke-linecap="round" stroke-dasharray="20 31"/>
<path opacity="0.77" d="M1988.83 880.616C2162.04 472.57 1971.66 1.37311 1563.62 -171.832C1155.57 -345.037 684.373 -154.661 511.168 253.384C337.963 661.43 528.339 1132.63 936.385 1305.83C1344.43 1479.04 1815.63 1288.66 1988.83 880.616Z" stroke="url(#paint3_linear_438_28541)" stroke-opacity="0.7" stroke-width="7" stroke-linecap="round" stroke-dasharray="41 35"/>
<path opacity="0.71" d="M503.577 421.91C423.446 834.148 692.672 1233.29 1104.91 1313.42C1517.15 1393.55 1916.29 1124.33 1996.42 712.09C2076.55 299.852 1807.33 -99.292 1395.09 -179.423C982.852 -259.554 583.708 9.67209 503.577 421.91Z" stroke="url(#paint4_linear_438_28541)" stroke-opacity="0.7" stroke-width="6" stroke-linecap="round" stroke-dasharray="20 22"/>
<path opacity="0.12" d="M1641.13 1169.29C1973.77 953.275 2068.31 508.504 1852.29 175.868C1636.27 -156.768 1191.5 -251.307 858.867 -35.2908C526.231 180.726 431.692 625.496 647.708 958.132C863.725 1290.77 1308.5 1385.31 1641.13 1169.29Z" stroke="url(#paint5_linear_438_28541)" stroke-opacity="0.7" stroke-width="6" stroke-linecap="round" stroke-dasharray="47 33"/>
<path opacity="0.85" d="M1535.65 1179.58C1873.97 1021.82 2020.34 619.667 1862.58 281.35C1704.82 -56.9681 1302.67 -203.339 964.35 -45.5787C626.032 112.181 479.661 514.332 637.422 852.65C795.182 1190.97 1197.33 1337.34 1535.65 1179.58Z" stroke="url(#paint6_linear_438_28541)" stroke-opacity="0.7" stroke-width="6" stroke-linecap="round" stroke-dasharray="22 14"/>
<path opacity="0.92" d="M621.062 489.776C578.412 837.129 825.423 1153.29 1172.78 1195.94C1520.13 1238.59 1836.29 991.577 1878.94 644.224C1921.59 296.871 1674.58 -19.2886 1327.22 -61.9382C979.871 -104.588 663.711 142.423 621.062 489.776Z" stroke="url(#paint7_linear_438_28541)" stroke-opacity="0.7" stroke-width="6" stroke-linecap="round" stroke-dasharray="20 33"/>
<path opacity="0.97" d="M1802.14 778.945C1919.19 474.009 1766.88 131.919 1461.95 14.8646C1157.01 -102.189 814.918 50.1191 697.864 355.055C580.81 659.991 733.119 1002.08 1038.06 1119.14C1342.99 1236.19 1685.08 1083.88 1802.14 778.945Z" stroke="url(#paint8_linear_438_28541)" stroke-opacity="0.7" stroke-width="5" stroke-linecap="round" stroke-dasharray="42 30"/>
<path opacity="0.29" d="M1428.79 1086.25C1715.57 987.509 1868 674.982 1769.25 388.207C1670.51 101.431 1357.98 -50.9984 1071.21 47.7465C784.431 146.491 632.002 459.017 730.746 745.793C829.491 1032.57 1142.02 1185 1428.79 1086.25Z" stroke="url(#paint9_linear_438_28541)" stroke-opacity="0.7" stroke-width="5" stroke-linecap="round" stroke-dasharray="53 13"/>
<path opacity="0.1" d="M1153.27 1064.62C1428.1 1118.04 1694.19 938.552 1747.62 663.727C1801.04 388.901 1621.55 122.805 1346.73 69.3846C1071.9 15.9639 805.805 195.448 752.385 470.273C698.964 745.099 878.448 1011.19 1153.27 1064.62Z" stroke="url(#paint10_linear_438_28541)" stroke-opacity="0.7" stroke-width="5" stroke-linecap="round" stroke-dasharray="18 41"/>
<path opacity="0.42" d="M1330.69 109.375C1077.95 64.8098 836.939 233.569 792.375 486.308C747.81 739.048 916.569 980.061 1169.31 1024.63C1422.05 1069.19 1663.06 900.431 1707.63 647.692C1752.19 394.952 1583.43 153.939 1330.69 109.375Z" stroke="url(#paint11_linear_438_28541)" stroke-opacity="0.7" stroke-width="4" stroke-linecap="round" stroke-dasharray="20 44"/>
<path opacity="0.59" d="M1126.49 163.018C903.377 231.23 777.805 467.396 846.017 690.51C914.23 913.623 1150.4 1039.19 1373.51 970.982C1596.62 902.77 1722.19 666.603 1653.98 443.49C1585.77 220.377 1349.6 94.8051 1126.49 163.018Z" stroke="url(#paint12_linear_438_28541)" stroke-opacity="0.7" stroke-width="4" stroke-linecap="round" stroke-dasharray="51 50"/>
<path opacity="0.18" d="M869.861 573.635C873.525 783.58 1046.69 950.804 1256.64 947.139C1466.58 943.474 1633.8 770.31 1630.14 560.365C1626.47 350.42 1453.31 183.196 1243.36 186.861C1033.42 190.526 866.196 363.69 869.861 573.635Z" stroke="url(#paint13_linear_438_28541)" stroke-opacity="0.7" stroke-width="4" stroke-linecap="round" stroke-dasharray="53 54"/>
<path opacity="0.3" d="M1011.03 805.969C1143.01 937.948 1356.99 937.948 1488.97 805.969C1620.95 673.99 1620.95 460.01 1488.97 328.031C1356.99 196.053 1143.01 196.053 1011.03 328.031C879.053 460.01 879.053 673.99 1011.03 805.969Z" stroke="url(#paint14_linear_438_28541)" stroke-opacity="0.7" stroke-width="4" stroke-linecap="round" stroke-dasharray="47 36"/>
<path opacity="0.25" d="M1518 691.972C1587.02 543.958 1522.99 368.017 1374.97 298.997C1226.96 229.977 1051.02 294.014 981.997 442.028C912.977 590.042 977.014 765.983 1125.03 835.003C1273.04 904.023 1448.98 839.986 1518 691.972Z" stroke="url(#paint15_linear_438_28541)" stroke-opacity="0.7" stroke-width="3" stroke-linecap="round" stroke-dasharray="36 47"/>
<path opacity="0.98" d="M1457.63 712.381C1537.92 597.712 1510.05 439.666 1395.38 359.374C1280.71 279.082 1122.67 306.95 1042.37 421.619C962.082 536.287 989.95 694.334 1104.62 774.626C1219.29 854.918 1377.33 827.05 1457.63 712.381Z" stroke="url(#paint16_linear_438_28541)" stroke-opacity="0.7" stroke-width="3" stroke-linecap="round" stroke-dasharray="16 49"/>
<path opacity="0.72" d="M1119.96 400.556C1028.04 472.375 1011.74 605.116 1083.56 697.04C1155.38 788.965 1288.12 805.263 1380.04 733.444C1471.96 661.624 1488.26 528.884 1416.44 436.959C1344.62 345.035 1211.88 328.736 1119.96 400.556Z" stroke="url(#paint17_linear_438_28541)" stroke-opacity="0.7" stroke-width="3" stroke-linecap="round" stroke-dasharray="53 53"/>
<path opacity="0.83" d="M1096.86 495.587C1057.42 580.167 1094.01 680.705 1178.59 720.145C1263.17 759.585 1363.7 722.992 1403.14 638.412C1442.58 553.833 1405.99 453.295 1321.41 413.855C1236.83 374.415 1136.3 411.008 1096.86 495.587Z" stroke="url(#paint18_linear_438_28541)" stroke-opacity="0.7" stroke-width="2" stroke-linecap="round" stroke-dasharray="17 51"/>
<path opacity="0.6" d="M1140.25 630.366C1175.24 690.981 1252.75 711.75 1313.37 676.753C1373.98 641.757 1394.75 564.249 1359.75 503.634C1324.76 443.019 1247.25 422.25 1186.63 457.247C1126.02 492.243 1105.25 569.751 1140.25 630.366Z" stroke="url(#paint19_linear_438_28541)" stroke-opacity="0.7" stroke-width="2" stroke-linecap="round" stroke-dasharray="37 16"/>
<path opacity="0.41" d="M1334.44 564.051C1332.81 517.418 1293.68 480.935 1247.05 482.563C1200.42 484.192 1163.93 523.315 1165.56 569.949C1167.19 616.582 1206.32 653.065 1252.95 651.437C1299.58 649.808 1336.07 610.684 1334.44 564.051Z" stroke="url(#paint20_linear_438_28541)" stroke-opacity="0.7" stroke-width="2" stroke-linecap="round" stroke-dasharray="52 32"/>
<path opacity="0.35" d="M1222.28 535.118C1204.68 550.424 1202.81 577.106 1218.12 594.714C1233.42 612.322 1260.11 614.188 1277.71 598.882C1295.32 583.575 1297.19 556.893 1281.88 539.285C1266.58 521.677 1239.89 519.811 1222.28 535.118Z" stroke="url(#paint21_linear_438_28541)" stroke-opacity="0.7" stroke-width="2" stroke-linecap="round" stroke-dasharray="24 31"/>
<defs>
<linearGradient id="paint0_linear_438_28541" x1="421.925" y1="145.075" x2="2078.07" y2="988.925" gradientUnits="userSpaceOnUse">
<stop stop-color="#1F89DB"/>
<stop offset="1" stop-color="#F42A8B"/>
</linearGradient>
<linearGradient id="paint1_linear_438_28541" x1="1005.48" y1="-285.76" x2="1494.53" y2="1419.76" gradientUnits="userSpaceOnUse">
<stop stop-color="#1F89DB"/>
<stop offset="1" stop-color="#F42A8B"/>
</linearGradient>
<linearGradient id="paint2_linear_438_28541" x1="533.499" y1="1014.72" x2="1966.5" y2="119.281" gradientUnits="userSpaceOnUse">
<stop stop-color="#1F89DB"/>
<stop offset="1" stop-color="#F42A8B"/>
</linearGradient>
<linearGradient id="paint3_linear_438_28541" x1="511.168" y1="253.384" x2="1988.83" y2="880.616" gradientUnits="userSpaceOnUse">
<stop stop-color="#1F89DB"/>
<stop offset="1" stop-color="#F42A8B"/>
</linearGradient>
<linearGradient id="paint4_linear_438_28541" x1="1996.42" y1="712.09" x2="503.577" y2="421.91" gradientUnits="userSpaceOnUse">
<stop stop-color="#1F89DB"/>
<stop offset="1" stop-color="#F42A8B"/>
</linearGradient>
<linearGradient id="paint5_linear_438_28541" x1="858.867" y1="-35.2908" x2="1641.13" y2="1169.29" gradientUnits="userSpaceOnUse">
<stop stop-color="#1F89DB"/>
<stop offset="1" stop-color="#F42A8B"/>
</linearGradient>
<linearGradient id="paint6_linear_438_28541" x1="964.35" y1="-45.5787" x2="1535.65" y2="1179.58" gradientUnits="userSpaceOnUse">
<stop stop-color="#1F89DB"/>
<stop offset="1" stop-color="#F42A8B"/>
</linearGradient>
<linearGradient id="paint7_linear_438_28541" x1="1878.94" y1="644.224" x2="621.062" y2="489.776" gradientUnits="userSpaceOnUse">
<stop stop-color="#1F89DB"/>
<stop offset="1" stop-color="#F42A8B"/>
</linearGradient>
<linearGradient id="paint8_linear_438_28541" x1="697.864" y1="355.055" x2="1802.14" y2="778.945" gradientUnits="userSpaceOnUse">
<stop stop-color="#1F89DB"/>
<stop offset="1" stop-color="#F42A8B"/>
</linearGradient>
<linearGradient id="paint9_linear_438_28541" x1="1071.21" y1="47.7465" x2="1428.79" y2="1086.25" gradientUnits="userSpaceOnUse">
<stop stop-color="#1F89DB"/>
<stop offset="1" stop-color="#F42A8B"/>
</linearGradient>
<linearGradient id="paint10_linear_438_28541" x1="1346.73" y1="69.3846" x2="1153.27" y2="1064.62" gradientUnits="userSpaceOnUse">
<stop stop-color="#1F89DB"/>
<stop offset="1" stop-color="#F42A8B"/>
</linearGradient>
<linearGradient id="paint11_linear_438_28541" x1="1169.31" y1="1024.63" x2="1330.69" y2="109.375" gradientUnits="userSpaceOnUse">
<stop stop-color="#1F89DB"/>
<stop offset="1" stop-color="#F42A8B"/>
</linearGradient>
<linearGradient id="paint12_linear_438_28541" x1="1373.51" y1="970.982" x2="1126.49" y2="163.018" gradientUnits="userSpaceOnUse">
<stop stop-color="#1F89DB"/>
<stop offset="1" stop-color="#F42A8B"/>
</linearGradient>
<linearGradient id="paint13_linear_438_28541" x1="1630.14" y1="560.365" x2="869.861" y2="573.635" gradientUnits="userSpaceOnUse">
<stop stop-color="#1F89DB"/>
<stop offset="1" stop-color="#F42A8B"/>
</linearGradient>
<linearGradient id="paint14_linear_438_28541" x1="1488.97" y1="328.031" x2="1011.03" y2="805.969" gradientUnits="userSpaceOnUse">
<stop stop-color="#1F89DB"/>
<stop offset="1" stop-color="#F42A8B"/>
</linearGradient>
<linearGradient id="paint15_linear_438_28541" x1="981.997" y1="442.028" x2="1518" y2="691.972" gradientUnits="userSpaceOnUse">
<stop stop-color="#1F89DB"/>
<stop offset="1" stop-color="#F42A8B"/>
</linearGradient>
<linearGradient id="paint16_linear_438_28541" x1="1042.37" y1="421.618" x2="1457.63" y2="712.381" gradientUnits="userSpaceOnUse">
<stop stop-color="#1F89DB"/>
<stop offset="1" stop-color="#F42A8B"/>
</linearGradient>
<linearGradient id="paint17_linear_438_28541" x1="1380.04" y1="733.444" x2="1119.96" y2="400.556" gradientUnits="userSpaceOnUse">
<stop stop-color="#1F89DB"/>
<stop offset="1" stop-color="#F42A8B"/>
</linearGradient>
<linearGradient id="paint18_linear_438_28541" x1="1403.14" y1="638.412" x2="1096.86" y2="495.587" gradientUnits="userSpaceOnUse">
<stop stop-color="#1F89DB"/>
<stop offset="1" stop-color="#F42A8B"/>
</linearGradient>
<linearGradient id="paint19_linear_438_28541" x1="1359.75" y1="503.634" x2="1140.25" y2="630.366" gradientUnits="userSpaceOnUse">
<stop stop-color="#1F89DB"/>
<stop offset="1" stop-color="#F42A8B"/>
</linearGradient>
<linearGradient id="paint20_linear_438_28541" x1="1165.56" y1="569.949" x2="1334.44" y2="564.051" gradientUnits="userSpaceOnUse">
<stop stop-color="#1F89DB"/>
<stop offset="1" stop-color="#F42A8B"/>
</linearGradient>
<linearGradient id="paint21_linear_438_28541" x1="1277.71" y1="598.882" x2="1222.28" y2="535.118" gradientUnits="userSpaceOnUse">
<stop stop-color="#1F89DB"/>
<stop offset="1" stop-color="#F42A8B"/>
</linearGradient>
</defs>
</svg>
