<svg width="247" height="264" viewBox="0 0 247 264" fill="none" xmlns="http://www.w3.org/2000/svg">
<path d="M58.7931 1L92.8307 30.3865H109.849L135.023 1L157.715 14.8081L191.753 5.6027L188.207 56.5865H210.899L217.635 89.5135L202.035 125.981L233.59 139.435L246 232.551H178.988L170.124 255.211H121.195L98.5036 239.278L46.3835 263L29.3647 246.005V201.749L12.3459 178.027L29.3647 139.435V100.843L1 89.5135V30.3865L58.7931 1Z" stroke="url(#paint0_linear_438_28806)" stroke-width="1.37062"/>
<path d="M110.694 121.127L116.85 117.982H124.969L130.634 123.93L132.106 131.356L135.467 132.796L136.789 142.76H129.652L121.079 143.48L115.528 146.019L113.715 144.2V139.464V128.666L110.694 127.454V121.127Z" stroke="url(#paint1_linear_438_28806)" stroke-width="1.37062"/>
<path d="M63.0222 9.99854L94.6783 37.0036H111.013L134.468 10.1064L155.632 23.0811L187.108 14.8694L183.891 62.217L205.096 62.3277L211.366 93.1052L197.016 127.151L225.87 139.57L237.05 225.523L174.864 225.551L166.352 246.495L120.759 246.69L99.7434 231.914L51.5628 253.741L35.8532 237.871V196.837L20.1435 174.109L35.737 138.439L35.6208 102.769L9.43799 92.0676V37.2455L63.0222 9.99854Z" stroke="url(#paint2_linear_438_28806)" stroke-width="1.37062"/>
<path d="M67.2513 18.9971L96.5259 43.6207H112.175L133.912 19.2127L153.548 31.3541L182.463 24.1361L179.576 67.8475L199.294 68.069L205.096 96.6968L191.997 128.32L218.149 139.705L228.1 218.495L170.739 218.551L162.579 237.779L120.323 238.17L100.983 224.549L56.7422 244.481L42.3417 229.737V191.924L27.9411 170.191L42.1093 137.443L41.8769 104.695L17.876 94.6217V44.1045L67.2513 18.9971Z" stroke="url(#paint3_linear_438_28806)" stroke-width="1.37062"/>
<path d="M71.4804 27.9961L98.3734 50.2382H113.338L133.356 28.3196L151.465 39.6276L177.818 33.4033L175.261 73.4785L193.491 73.8107L198.826 100.289L186.978 129.491L210.428 139.84L219.15 211.468L166.614 211.551L158.806 229.064L119.887 229.65L102.223 217.185L61.9215 235.222L48.8301 221.603V187.013L35.7387 166.274L48.4815 136.448L48.133 106.622L26.314 97.1763V50.9639L71.4804 27.9961Z" stroke="url(#paint4_linear_438_28806)" stroke-width="1.37062"/>
<path d="M75.7095 36.9941L100.221 56.8548H114.502L132.801 37.4255L149.382 47.9001L173.173 42.6696L170.945 79.1085L187.689 79.5515L192.556 103.88L181.959 130.66L202.707 139.974L210.2 204.439L162.489 204.55L155.034 220.348L119.451 221.129L103.463 209.819L67.1009 225.962L55.3186 213.468V182.1L43.5364 162.355L54.8538 135.451L54.389 108.547L34.752 99.73V57.8224L75.7095 36.9941Z" stroke="url(#paint5_linear_438_28806)" stroke-width="1.37062"/>
<path d="M79.9391 45.9932L102.069 63.4724H115.665L132.246 46.5323L147.299 56.1735L168.529 51.9368L166.63 84.7395L181.887 85.2932L186.287 107.472L176.941 131.83L194.987 140.109L201.251 197.412L158.365 197.55L151.261 211.633L119.016 212.609L104.703 202.455L72.2807 216.703L61.8076 205.334V177.188L51.3345 158.437L61.2266 134.455L60.6456 110.473L43.1904 102.285V64.6819L79.9391 45.9932Z" stroke="url(#paint6_linear_438_28806)" stroke-width="1.37062"/>
<path d="M84.1682 54.9912L103.917 70.089H116.828L131.69 55.6382L145.216 64.4461L163.884 61.203L162.315 90.3695L176.084 91.034L180.017 111.063L171.922 132.999L187.266 140.244L192.301 190.383L154.24 190.549L147.489 202.917L118.58 204.088L105.943 195.09L77.46 207.443L68.2961 197.199V172.276L59.1321 154.519L67.5989 133.459L66.9017 112.399L51.6284 104.838V71.5404L84.1682 54.9912Z" stroke="url(#paint7_linear_438_28806)" stroke-width="1.37062"/>
<path d="M88.3974 63.9902L105.764 76.7066H117.991L131.135 64.7451L143.133 72.7195L159.239 70.4702L157.999 96.0005L170.282 96.7757L173.747 114.656L166.903 134.169L179.545 140.379L183.351 183.356L150.115 183.55L143.716 194.202L118.144 195.568L107.183 187.725L82.6394 198.184L74.7845 189.066V167.364L66.9297 150.602L73.9712 132.463L73.1578 114.325L60.0664 107.393V78.3999L88.3974 63.9902Z" stroke="url(#paint8_linear_438_28806)" stroke-width="1.37062"/>
<path d="M92.6265 72.9883L107.612 83.3232H119.154L130.579 73.851L141.05 80.992L154.594 79.7364L153.684 101.63L164.48 102.516L167.477 118.247L161.884 135.339L171.824 140.513L174.401 176.327L145.99 176.549L139.943 185.485L117.708 187.048L108.423 180.36L87.8187 188.924L81.273 180.931V162.452L74.7273 146.683L80.3435 131.467L79.4139 116.251L68.5044 109.946V85.2584L92.6265 72.9883Z" stroke="url(#paint9_linear_438_28806)" stroke-width="1.37062"/>
<path d="M96.8556 81.9873L109.459 89.9408H120.317L130.024 82.9578L138.966 89.2655L149.949 89.0036L149.368 107.261L158.677 108.258L161.207 121.839L156.865 136.509L164.104 140.649L165.451 169.3L141.865 169.549L136.17 176.77L117.272 178.528L109.662 172.996L92.9981 179.665L87.7615 172.797V157.54L82.5249 142.765L86.7157 130.471L85.67 118.177L76.9424 112.501V92.1178L96.8556 81.9873Z" stroke="url(#paint10_linear_438_28806)" stroke-width="1.37062"/>
<path d="M101.085 90.9858L111.307 96.5578H121.48L129.468 92.0642L136.883 97.5385L145.304 98.2703L145.053 112.892L152.875 113.999L154.938 125.43L151.846 137.679L156.383 140.783L156.501 162.272L137.74 162.549L132.398 168.055L116.836 170.007L110.902 165.631L98.1774 170.406L94.25 164.662V152.628L90.3226 138.847L93.088 129.475L91.9261 120.103L85.3804 115.055V98.9768L101.085 90.9858Z" stroke="url(#paint11_linear_438_28806)" stroke-width="1.37062"/>
<path d="M105.314 99.9844L113.155 103.175H122.643L128.912 101.171L134.8 105.811L140.66 107.537L140.737 118.522L147.072 119.741L148.668 129.022L146.827 138.848L148.662 140.918L147.552 155.244L133.615 155.548L128.625 159.339L116.4 161.487L112.142 158.266L103.357 161.146L100.738 156.528V147.716L98.1202 134.929L99.4603 128.479L98.1822 122.029L93.8184 117.609V105.836L105.314 99.9844Z" stroke="url(#paint12_linear_438_28806)" stroke-width="1.37062"/>
<path d="M109.543 108.983L115.002 109.792H123.806L128.357 110.277L132.717 114.084L136.015 116.804L136.422 124.153L141.27 125.482L142.398 132.614L141.808 140.018L140.941 141.053L138.602 148.216L129.49 148.548L124.852 150.623L115.964 152.966L113.382 150.901L108.536 151.887L107.227 148.394V142.804L105.918 131.011L105.833 127.483L104.438 123.955L102.256 120.163V112.695L109.543 108.983Z" stroke="url(#paint13_linear_438_28806)" stroke-width="1.37062"/>
<defs>
<linearGradient id="paint0_linear_438_28806" x1="123.5" y1="1" x2="123.5" y2="263" gradientUnits="userSpaceOnUse">
<stop stop-color="#1F89DB"/>
<stop offset="1" stop-color="#F42A8B"/>
</linearGradient>
<linearGradient id="paint1_linear_438_28806" x1="123.742" y1="117.982" x2="123.742" y2="146.019" gradientUnits="userSpaceOnUse">
<stop stop-color="#1F89DB"/>
<stop offset="1" stop-color="#F42A8B"/>
</linearGradient>
<linearGradient id="paint2_linear_438_28806" x1="123.244" y1="9.99854" x2="123.244" y2="253.741" gradientUnits="userSpaceOnUse">
<stop stop-color="#1F89DB"/>
<stop offset="1" stop-color="#F42A8B"/>
</linearGradient>
<linearGradient id="paint3_linear_438_28806" x1="122.988" y1="18.9971" x2="122.988" y2="244.481" gradientUnits="userSpaceOnUse">
<stop stop-color="#1F89DB"/>
<stop offset="1" stop-color="#F42A8B"/>
</linearGradient>
<linearGradient id="paint4_linear_438_28806" x1="122.732" y1="27.9961" x2="122.732" y2="235.222" gradientUnits="userSpaceOnUse">
<stop stop-color="#1F89DB"/>
<stop offset="1" stop-color="#F42A8B"/>
</linearGradient>
<linearGradient id="paint5_linear_438_28806" x1="122.476" y1="36.9941" x2="122.476" y2="225.962" gradientUnits="userSpaceOnUse">
<stop stop-color="#1F89DB"/>
<stop offset="1" stop-color="#F42A8B"/>
</linearGradient>
<linearGradient id="paint6_linear_438_28806" x1="122.221" y1="45.9932" x2="122.221" y2="216.703" gradientUnits="userSpaceOnUse">
<stop stop-color="#1F89DB"/>
<stop offset="1" stop-color="#F42A8B"/>
</linearGradient>
<linearGradient id="paint7_linear_438_28806" x1="121.965" y1="54.9912" x2="121.965" y2="207.443" gradientUnits="userSpaceOnUse">
<stop stop-color="#1F89DB"/>
<stop offset="1" stop-color="#F42A8B"/>
</linearGradient>
<linearGradient id="paint8_linear_438_28806" x1="121.709" y1="63.9902" x2="121.709" y2="198.184" gradientUnits="userSpaceOnUse">
<stop stop-color="#1F89DB"/>
<stop offset="1" stop-color="#F42A8B"/>
</linearGradient>
<linearGradient id="paint9_linear_438_28806" x1="121.453" y1="72.9883" x2="121.453" y2="188.924" gradientUnits="userSpaceOnUse">
<stop stop-color="#1F89DB"/>
<stop offset="1" stop-color="#F42A8B"/>
</linearGradient>
<linearGradient id="paint10_linear_438_28806" x1="121.197" y1="81.9873" x2="121.197" y2="179.665" gradientUnits="userSpaceOnUse">
<stop stop-color="#1F89DB"/>
<stop offset="1" stop-color="#F42A8B"/>
</linearGradient>
<linearGradient id="paint11_linear_438_28806" x1="120.941" y1="90.9858" x2="120.941" y2="170.406" gradientUnits="userSpaceOnUse">
<stop stop-color="#1F89DB"/>
<stop offset="1" stop-color="#F42A8B"/>
</linearGradient>
<linearGradient id="paint12_linear_438_28806" x1="121.243" y1="99.9844" x2="121.243" y2="161.487" gradientUnits="userSpaceOnUse">
<stop stop-color="#1F89DB"/>
<stop offset="1" stop-color="#F42A8B"/>
</linearGradient>
<linearGradient id="paint13_linear_438_28806" x1="122.327" y1="108.983" x2="122.327" y2="152.966" gradientUnits="userSpaceOnUse">
<stop stop-color="#1F89DB"/>
<stop offset="1" stop-color="#F42A8B"/>
</linearGradient>
</defs>
</svg>
