<svg width="1728" height="1117" viewBox="0 0 1728 1117" fill="none" xmlns="http://www.w3.org/2000/svg">
<path opacity="0.05" d="M1500.66 769.932L454.941 -419.972L0.0894321 1277.56L1500.66 769.932Z" stroke="url(#paint0_linear_438_28472)" stroke-opacity="0.7" stroke-width="2.5"/>
<path opacity="0.08" d="M1490.3 732.468L415.352 -368.69L60.4051 1301.2L1490.3 732.468Z" stroke="url(#paint1_linear_438_28472)" stroke-opacity="0.7" stroke-width="2.5"/>
<path opacity="0.11" d="M1477.81 696.566L379.974 -316.136L120.763 1320.45L1477.81 696.566Z" stroke="url(#paint2_linear_438_28472)" stroke-opacity="0.7" stroke-width="2.5"/>
<path opacity="0.13" d="M1463.33 662.345L348.825 -262.608L180.871 1335.37L1463.33 662.345Z" stroke="url(#paint3_linear_438_28472)" stroke-opacity="0.7" stroke-width="2.5"/>
<path opacity="0.16" d="M1447 629.911L321.909 -208.403L240.444 1346.03L1447 629.911Z" stroke="url(#paint4_linear_438_28472)" stroke-opacity="0.7" stroke-width="2.5"/>
<path opacity="0.19" d="M1428.97 599.363L299.207 -153.815V1352.54L1428.97 599.363Z" stroke="url(#paint5_linear_438_28472)" stroke-opacity="0.7" stroke-width="2.5"/>
<path opacity="0.22" d="M1409.39 570.784L280.68 -99.1326L356.889 1355.01L1409.39 570.784Z" stroke="url(#paint6_linear_438_28472)" stroke-opacity="0.7" stroke-width="2.5"/>
<path opacity="0.25" d="M1388.42 544.252L266.273 -44.6421L413.233 1353.59L1388.42 544.252Z" stroke="url(#paint7_linear_438_28472)" stroke-opacity="0.7" stroke-width="2.5"/>
<path opacity="0.27" d="M1366.22 519.832L255.913 9.37926L467.994 1348.41L1366.22 519.832Z" stroke="url(#paint8_linear_438_28472)" stroke-opacity="0.7" stroke-width="2.5"/>
<path opacity="0.3" d="M1342.96 497.576L249.507 62.6598L520.937 1339.64L1342.96 497.576Z" stroke="url(#paint9_linear_438_28472)" stroke-opacity="0.7" stroke-width="2.5"/>
<path opacity="0.33" d="M1318.78 477.527L246.946 114.937L571.84 1327.46L1318.78 477.527Z" stroke="url(#paint10_linear_438_28472)" stroke-opacity="0.7" stroke-width="2.5"/>
<path opacity="0.36" d="M1293.88 459.716L248.105 165.958L620.497 1312.06L1293.88 459.716Z" stroke="url(#paint11_linear_438_28472)" stroke-opacity="0.7" stroke-width="2.5"/>
<path opacity="0.39" d="M1268.4 444.162L252.842 215.481L666.711 1293.65L1268.4 444.162Z" stroke="url(#paint12_linear_438_28472)" stroke-opacity="0.7" stroke-width="2.5"/>
<path opacity="0.41" d="M1242.41 430.834L260.885 263.235L710.191 1272.39L1242.41 430.834Z" stroke="url(#paint13_linear_438_28472)" stroke-opacity="0.7" stroke-width="2.5"/>
<path opacity="0.44" d="M1216.29 419.808L272.298 309.08L751.007 1248.6L1216.29 419.808Z" stroke="url(#paint14_linear_438_28472)" stroke-opacity="0.7" stroke-width="2.5"/>
<path opacity="0.47" d="M1190.11 411.029L286.778 352.771L788.896 1222.46L1190.11 411.029Z" stroke="url(#paint15_linear_438_28472)" stroke-opacity="0.7" stroke-width="2.5"/>
<path opacity="0.5" d="M1164.01 404.474L304.131 394.117L823.73 1194.23L1164.01 404.474Z" stroke="url(#paint16_linear_438_28472)" stroke-opacity="0.7" stroke-width="2.5"/>
<path opacity="0.53" d="M1138.17 400.106L324.149 432.942L855.397 1164.14L1138.17 400.106Z" stroke="url(#paint17_linear_438_28472)" stroke-opacity="0.7" stroke-width="2.5"/>
<path opacity="0.55" d="M1112.74 397.878L346.613 469.083L883.802 1132.46L1112.74 397.878Z" stroke="url(#paint18_linear_438_28472)" stroke-opacity="0.7" stroke-width="2.5"/>
<path opacity="0.58" d="M1087.86 397.734L371.3 502.396L908.872 1099.43L1087.86 397.734Z" stroke="url(#paint19_linear_438_28472)" stroke-opacity="0.7" stroke-width="2.5"/>
<path opacity="0.61" d="M1063.69 399.607L397.968 532.752L930.545 1065.33L1063.69 399.607Z" stroke="url(#paint20_linear_438_28472)" stroke-opacity="0.7" stroke-width="2.5"/>
<path opacity="0.64" d="M1040.36 403.422L426.379 560.038L948.784 1030.41L1040.36 403.422Z" stroke="url(#paint21_linear_438_28472)" stroke-opacity="0.7" stroke-width="2.5"/>
<path opacity="0.66" d="M1018.02 409.092L456.284 584.16L963.568 994.951L1018.02 409.092Z" stroke="url(#paint22_linear_438_28472)" stroke-opacity="0.7" stroke-width="2.5"/>
<path opacity="0.69" d="M996.785 416.524L487.428 605.041L974.894 959.206L996.785 416.524Z" stroke="url(#paint23_linear_438_28472)" stroke-opacity="0.7" stroke-width="2.5"/>
<path opacity="0.72" d="M976.78 425.615L519.554 622.622L982.776 923.442L976.78 425.615Z" stroke="url(#paint24_linear_438_28472)" stroke-opacity="0.7" stroke-width="2.5"/>
<path opacity="0.75" d="M958.12 436.256L552.403 636.862L987.249 887.921L958.12 436.256Z" stroke="url(#paint25_linear_438_28472)" stroke-opacity="0.7" stroke-width="2.5"/>
<path opacity="0.78" d="M940.908 448.33L585.711 647.738L988.363 852.899L940.908 448.33Z" stroke="url(#paint26_linear_438_28472)" stroke-opacity="0.7" stroke-width="2.5"/>
<path opacity="0.8" d="M925.242 461.711L619.221 655.244L986.187 818.628L925.242 461.711Z" stroke="url(#paint27_linear_438_28472)" stroke-opacity="0.7" stroke-width="2.5"/>
<path opacity="0.83" d="M911.208 476.272L652.669 659.395L980.806 785.355L911.208 476.272Z" stroke="url(#paint28_linear_438_28472)" stroke-opacity="0.7" stroke-width="2.5"/>
<path opacity="0.86" d="M898.884 491.877L685.798 660.222L972.323 753.32L898.884 491.877Z" stroke="url(#paint29_linear_438_28472)" stroke-opacity="0.7" stroke-width="2.5"/>
<path opacity="0.89" d="M888.34 508.385L718.354 657.774L960.858 722.752L888.34 508.385Z" stroke="url(#paint30_linear_438_28472)" stroke-opacity="0.7" stroke-width="2.5"/>
<path opacity="0.92" d="M879.632 525.652L750.084 652.116L946.543 693.875L879.632 525.652Z" stroke="url(#paint31_linear_438_28472)" stroke-opacity="0.7" stroke-width="2.5"/>
<path opacity="0.94" d="M872.81 543.531L780.746 643.334L929.527 666.899L872.81 543.531Z" stroke="url(#paint32_linear_438_28472)" stroke-opacity="0.7" stroke-width="2.5"/>
<path opacity="0.97" d="M867.909 561.871L810.099 631.528L909.973 642.025L867.909 561.871Z" stroke="url(#paint33_linear_438_28472)" stroke-opacity="0.7" stroke-width="2.5"/>
<path d="M864.958 580.52L837.916 616.813L888.059 619.441L864.958 580.52Z" stroke="url(#paint34_linear_438_28472)" stroke-opacity="0.7" stroke-width="2.5"/>
<defs>
<linearGradient id="paint0_linear_438_28472" x1="1500.66" y1="769.932" x2="227.515" y2="428.793" gradientUnits="userSpaceOnUse">
<stop stop-color="#1F89DB"/>
<stop offset="1" stop-color="#F42A8B"/>
</linearGradient>
<linearGradient id="paint1_linear_438_28472" x1="1490.3" y1="732.468" x2="237.879" y2="466.257" gradientUnits="userSpaceOnUse">
<stop stop-color="#1F89DB"/>
<stop offset="1" stop-color="#F42A8B"/>
</linearGradient>
<linearGradient id="paint2_linear_438_28472" x1="1477.81" y1="696.566" x2="250.368" y2="502.159" gradientUnits="userSpaceOnUse">
<stop stop-color="#1F89DB"/>
<stop offset="1" stop-color="#F42A8B"/>
</linearGradient>
<linearGradient id="paint3_linear_438_28472" x1="1463.33" y1="662.345" x2="264.848" y2="536.38" gradientUnits="userSpaceOnUse">
<stop stop-color="#1F89DB"/>
<stop offset="1" stop-color="#F42A8B"/>
</linearGradient>
<linearGradient id="paint4_linear_438_28472" x1="1447" y1="629.911" x2="281.176" y2="568.813" gradientUnits="userSpaceOnUse">
<stop stop-color="#1F89DB"/>
<stop offset="1" stop-color="#F42A8B"/>
</linearGradient>
<linearGradient id="paint5_linear_438_28472" x1="1428.97" y1="599.363" x2="299.207" y2="599.363" gradientUnits="userSpaceOnUse">
<stop stop-color="#1F89DB"/>
<stop offset="1" stop-color="#F42A8B"/>
</linearGradient>
<linearGradient id="paint6_linear_438_28472" x1="1409.39" y1="570.784" x2="318.784" y2="627.941" gradientUnits="userSpaceOnUse">
<stop stop-color="#1F89DB"/>
<stop offset="1" stop-color="#F42A8B"/>
</linearGradient>
<linearGradient id="paint7_linear_438_28472" x1="1388.42" y1="544.252" x2="339.753" y2="654.472" gradientUnits="userSpaceOnUse">
<stop stop-color="#1F89DB"/>
<stop offset="1" stop-color="#F42A8B"/>
</linearGradient>
<linearGradient id="paint8_linear_438_28472" x1="1366.22" y1="519.832" x2="361.953" y2="678.893" gradientUnits="userSpaceOnUse">
<stop stop-color="#1F89DB"/>
<stop offset="1" stop-color="#F42A8B"/>
</linearGradient>
<linearGradient id="paint9_linear_438_28472" x1="1342.96" y1="497.576" x2="385.222" y2="701.149" gradientUnits="userSpaceOnUse">
<stop stop-color="#1F89DB"/>
<stop offset="1" stop-color="#F42A8B"/>
</linearGradient>
<linearGradient id="paint10_linear_438_28472" x1="1318.78" y1="477.527" x2="409.393" y2="721.198" gradientUnits="userSpaceOnUse">
<stop stop-color="#1F89DB"/>
<stop offset="1" stop-color="#F42A8B"/>
</linearGradient>
<linearGradient id="paint11_linear_438_28472" x1="1293.88" y1="459.716" x2="434.301" y2="739.009" gradientUnits="userSpaceOnUse">
<stop stop-color="#1F89DB"/>
<stop offset="1" stop-color="#F42A8B"/>
</linearGradient>
<linearGradient id="paint12_linear_438_28472" x1="1268.4" y1="444.162" x2="459.777" y2="754.563" gradientUnits="userSpaceOnUse">
<stop stop-color="#1F89DB"/>
<stop offset="1" stop-color="#F42A8B"/>
</linearGradient>
<linearGradient id="paint13_linear_438_28472" x1="1242.41" y1="430.834" x2="485.538" y2="767.813" gradientUnits="userSpaceOnUse">
<stop stop-color="#1F89DB"/>
<stop offset="1" stop-color="#F42A8B"/>
</linearGradient>
<linearGradient id="paint14_linear_438_28472" x1="1216.29" y1="419.808" x2="511.653" y2="778.84" gradientUnits="userSpaceOnUse">
<stop stop-color="#1F89DB"/>
<stop offset="1" stop-color="#F42A8B"/>
</linearGradient>
<linearGradient id="paint15_linear_438_28472" x1="1190.11" y1="411.029" x2="537.837" y2="787.618" gradientUnits="userSpaceOnUse">
<stop stop-color="#1F89DB"/>
<stop offset="1" stop-color="#F42A8B"/>
</linearGradient>
<linearGradient id="paint16_linear_438_28472" x1="1164.01" y1="404.474" x2="563.931" y2="794.173" gradientUnits="userSpaceOnUse">
<stop stop-color="#1F89DB"/>
<stop offset="1" stop-color="#F42A8B"/>
</linearGradient>
<linearGradient id="paint17_linear_438_28472" x1="1138.17" y1="400.106" x2="589.773" y2="798.542" gradientUnits="userSpaceOnUse">
<stop stop-color="#1F89DB"/>
<stop offset="1" stop-color="#F42A8B"/>
</linearGradient>
<linearGradient id="paint18_linear_438_28472" x1="1112.74" y1="397.878" x2="615.207" y2="800.77" gradientUnits="userSpaceOnUse">
<stop stop-color="#1F89DB"/>
<stop offset="1" stop-color="#F42A8B"/>
</linearGradient>
<linearGradient id="paint19_linear_438_28472" x1="1087.86" y1="397.734" x2="640.086" y2="800.913" gradientUnits="userSpaceOnUse">
<stop stop-color="#1F89DB"/>
<stop offset="1" stop-color="#F42A8B"/>
</linearGradient>
<linearGradient id="paint20_linear_438_28472" x1="1063.69" y1="399.607" x2="664.257" y2="799.04" gradientUnits="userSpaceOnUse">
<stop stop-color="#1F89DB"/>
<stop offset="1" stop-color="#F42A8B"/>
</linearGradient>
<linearGradient id="paint21_linear_438_28472" x1="1040.36" y1="403.422" x2="687.582" y2="795.226" gradientUnits="userSpaceOnUse">
<stop stop-color="#1F89DB"/>
<stop offset="1" stop-color="#F42A8B"/>
</linearGradient>
<linearGradient id="paint22_linear_438_28472" x1="1018.02" y1="409.092" x2="709.926" y2="789.556" gradientUnits="userSpaceOnUse">
<stop stop-color="#1F89DB"/>
<stop offset="1" stop-color="#F42A8B"/>
</linearGradient>
<linearGradient id="paint23_linear_438_28472" x1="996.785" y1="416.524" x2="731.161" y2="782.124" gradientUnits="userSpaceOnUse">
<stop stop-color="#1F89DB"/>
<stop offset="1" stop-color="#F42A8B"/>
</linearGradient>
<linearGradient id="paint24_linear_438_28472" x1="976.78" y1="425.615" x2="751.165" y2="773.032" gradientUnits="userSpaceOnUse">
<stop stop-color="#1F89DB"/>
<stop offset="1" stop-color="#F42A8B"/>
</linearGradient>
<linearGradient id="paint25_linear_438_28472" x1="958.12" y1="436.256" x2="769.826" y2="762.391" gradientUnits="userSpaceOnUse">
<stop stop-color="#1F89DB"/>
<stop offset="1" stop-color="#F42A8B"/>
</linearGradient>
<linearGradient id="paint26_linear_438_28472" x1="940.908" y1="448.33" x2="787.037" y2="750.318" gradientUnits="userSpaceOnUse">
<stop stop-color="#1F89DB"/>
<stop offset="1" stop-color="#F42A8B"/>
</linearGradient>
<linearGradient id="paint27_linear_438_28472" x1="925.242" y1="461.711" x2="802.704" y2="736.936" gradientUnits="userSpaceOnUse">
<stop stop-color="#1F89DB"/>
<stop offset="1" stop-color="#F42A8B"/>
</linearGradient>
<linearGradient id="paint28_linear_438_28472" x1="911.208" y1="476.272" x2="816.738" y2="722.375" gradientUnits="userSpaceOnUse">
<stop stop-color="#1F89DB"/>
<stop offset="1" stop-color="#F42A8B"/>
</linearGradient>
<linearGradient id="paint29_linear_438_28472" x1="898.884" y1="491.877" x2="829.061" y2="706.771" gradientUnits="userSpaceOnUse">
<stop stop-color="#1F89DB"/>
<stop offset="1" stop-color="#F42A8B"/>
</linearGradient>
<linearGradient id="paint30_linear_438_28472" x1="888.34" y1="508.385" x2="839.606" y2="690.263" gradientUnits="userSpaceOnUse">
<stop stop-color="#1F89DB"/>
<stop offset="1" stop-color="#F42A8B"/>
</linearGradient>
<linearGradient id="paint31_linear_438_28472" x1="879.632" y1="525.652" x2="848.314" y2="672.996" gradientUnits="userSpaceOnUse">
<stop stop-color="#1F89DB"/>
<stop offset="1" stop-color="#F42A8B"/>
</linearGradient>
<linearGradient id="paint32_linear_438_28472" x1="872.81" y1="543.531" x2="855.136" y2="655.116" gradientUnits="userSpaceOnUse">
<stop stop-color="#1F89DB"/>
<stop offset="1" stop-color="#F42A8B"/>
</linearGradient>
<linearGradient id="paint33_linear_438_28472" x1="867.909" y1="561.871" x2="860.036" y2="636.776" gradientUnits="userSpaceOnUse">
<stop stop-color="#1F89DB"/>
<stop offset="1" stop-color="#F42A8B"/>
</linearGradient>
<linearGradient id="paint34_linear_438_28472" x1="864.958" y1="580.52" x2="862.987" y2="618.127" gradientUnits="userSpaceOnUse">
<stop stop-color="#1F89DB"/>
<stop offset="1" stop-color="#F42A8B"/>
</linearGradient>
</defs>
</svg>
