<svg width="1728" height="1456" viewBox="0 0 1728 1456" fill="none" xmlns="http://www.w3.org/2000/svg">
<path opacity="0.05" d="M1319.5 256.479L1500.25 886.803L1044.74 1358.49L408.495 1199.86L227.752 569.533L683.257 97.8445L1319.5 256.479Z" stroke="url(#paint0_linear_438_28748)" stroke-opacity="0.7" stroke-width="5"/>
<path opacity="0.1" d="M1282.82 263.02L1476.24 858.305L1057.42 1323.45L445.178 1193.32L251.758 598.032L670.579 132.883L1282.82 263.02Z" stroke="url(#paint1_linear_438_28748)" stroke-opacity="0.7" stroke-width="5"/>
<path opacity="0.14" d="M1247.17 271.519L1451.06 831.683L1067.88 1288.33L480.825 1184.82L276.942 624.654L660.116 168.004L1247.17 271.519Z" stroke="url(#paint2_linear_438_28748)" stroke-opacity="0.7" stroke-width="5"/>
<path opacity="0.19" d="M1212.65 281.912L1424.8 806.984L1076.14 1253.24L515.346 1174.43L303.203 649.353L651.857 203.097L1212.65 281.912Z" stroke="url(#paint3_linear_438_28748)" stroke-opacity="0.7" stroke-width="5"/>
<path opacity="0.23" d="M1179.35 294.129L1397.56 784.248L1082.22 1218.29L548.653 1162.21L330.437 672.088L645.785 238.049L1179.35 294.129Z" stroke="url(#paint4_linear_438_28748)" stroke-opacity="0.7" stroke-width="5"/>
<path opacity="0.28" d="M1147.34 308.098L1369.46 763.514L1086.12 1183.58L580.659 1148.24L358.538 692.822L641.879 272.752L1147.34 308.098Z" stroke="url(#paint5_linear_438_28748)" stroke-opacity="0.7" stroke-width="5"/>
<path opacity="0.32" d="M1116.71 323.742L1340.6 744.812L1087.89 1149.24L611.287 1132.59L387.4 711.525L640.113 307.098L1116.71 323.742Z" stroke="url(#paint6_linear_438_28748)" stroke-opacity="0.7" stroke-width="5"/>
<path opacity="0.37" d="M1087.54 340.981L1311.09 728.169L1087.54 1115.36L640.458 1115.36L416.915 728.168L640.457 340.981L1087.54 340.981Z" stroke="url(#paint7_linear_438_28748)" stroke-opacity="0.7" stroke-width="5"/>
<path opacity="0.41" d="M1059.9 359.732L1281.03 713.606L1085.12 1082.04L668.099 1096.6L446.974 742.731L642.875 374.295L1059.9 359.732Z" stroke="url(#paint8_linear_438_28748)" stroke-opacity="0.7" stroke-width="5"/>
<path opacity="0.46" d="M1033.86 379.909L1250.53 701.14L1080.67 1049.4L694.143 1076.43L477.47 755.197L647.327 406.938L1033.86 379.909Z" stroke="url(#paint9_linear_438_28748)" stroke-opacity="0.7" stroke-width="5"/>
<path opacity="0.5" d="M1009.48 401.422L1219.71 690.782L1074.23 1017.53L718.524 1054.91L508.291 765.555L653.768 438.809L1009.48 401.422Z" stroke="url(#paint10_linear_438_28748)" stroke-opacity="0.7" stroke-width="5"/>
<path opacity="0.55" d="M986.82 424.18L1188.67 682.539L1065.85 986.528L741.181 1032.16L539.328 773.798L662.147 469.809L986.82 424.18Z" stroke="url(#paint11_linear_438_28748)" stroke-opacity="0.7" stroke-width="5"/>
<path opacity="0.59" d="M965.942 448.086L1157.53 676.411L1055.59 956.493L762.059 1008.25L570.472 779.925L672.413 499.843L965.942 448.086Z" stroke="url(#paint12_linear_438_28748)" stroke-opacity="0.7" stroke-width="5"/>
<path opacity="0.64" d="M946.894 473.046L1126.39 672.396L1043.5 927.518L781.106 983.29L601.61 783.941L684.505 528.819L946.894 473.046Z" stroke="url(#paint13_linear_438_28748)" stroke-opacity="0.7" stroke-width="5"/>
<path opacity="0.68" d="M929.725 498.96L1095.36 670.483L1029.64 899.691L798.276 957.377L632.637 785.853L698.362 556.645L929.725 498.96Z" stroke="url(#paint14_linear_438_28748)" stroke-opacity="0.7" stroke-width="5"/>
<path opacity="0.73" d="M914.475 525.726L1064.56 670.659L1014.08 873.102L813.526 930.61L663.443 785.677L713.917 583.235L914.475 525.726Z" stroke="url(#paint15_linear_438_28748)" stroke-opacity="0.7" stroke-width="5"/>
<path opacity="0.77" d="M901.182 553.242L1034.08 672.905L996.9 847.831L826.818 903.094L693.918 783.431L731.1 608.505L901.182 553.242Z" stroke="url(#paint16_linear_438_28748)" stroke-opacity="0.7" stroke-width="5"/>
<path opacity="0.82" d="M889.879 581.404L1004.04 677.197L978.163 823.962L838.122 874.932L723.959 779.139L749.838 632.374L889.879 581.404Z" stroke="url(#paint17_linear_438_28748)" stroke-opacity="0.7" stroke-width="5"/>
<path opacity="0.86" d="M880.593 610.106L974.542 683.507L957.949 801.569L847.408 846.231L753.459 772.83L770.051 654.767L880.593 610.106Z" stroke="url(#paint18_linear_438_28748)" stroke-opacity="0.7" stroke-width="5"/>
<path opacity="0.91" d="M873.347 639.241L945.687 691.799L936.34 780.726L854.654 817.095L782.314 764.537L791.66 675.61L873.347 639.241Z" stroke="url(#paint19_linear_438_28748)" stroke-opacity="0.7" stroke-width="5"/>
<path opacity="0.95" d="M868.158 668.702L917.579 702.036L913.42 761.503L859.842 787.635L810.422 754.3L814.58 694.834L868.158 668.702Z" stroke="url(#paint20_linear_438_28748)" stroke-opacity="0.7" stroke-width="5"/>
<path d="M865.04 698.381L890.317 714.175L889.277 743.963L862.96 757.956L837.683 742.161L838.724 712.374L865.04 698.381Z" stroke="url(#paint21_linear_438_28748)" stroke-opacity="0.7" stroke-width="5"/>
<path d="M1599.2 976.1C1571.7 978.6 1555.9 980.9 1546.2 988.5C1534.8 997.4 1532.1 1013.7 1529.1 1046.3C1526 1012.5 1523.2 996.3 1510.7 987.6C1501 980.8 1485.3 978.6 1459 976.2C1486.4 973.7 1502.3 971.4 1511.9 963.9C1523.4 954.9 1526.1 938.7 1529.1 906C1531.9 936.1 1534.4 952.2 1543.7 961.5C1553 970.8 1569.2 973.4 1599.2 976.1Z" fill="#4E4E4E"/>
<g clip-path="url(#clip0_438_28748)">
<path d="M1228.5 1190C1206.6 1227.9 1194.5 1246.8 1182.3 1246.8C1170.1 1246.8 1158 1227.9 1136.2 1190C1158 1227.9 1168.4 1247.9 1162.3 1258.4C1156.2 1268.9 1133.7 1270 1090 1270C1135.3 1270 1157.8 1271.1 1162.9 1282.7C1167.7 1293.5 1157.3 1313.4 1136.2 1350C1158.1 1312.1 1170.2 1293.2 1182.4 1293.2C1194.6 1293.2 1206.7 1312.1 1228.6 1350C1205.4 1309.7 1195.2 1289.7 1203.8 1279.7C1211.4 1270.9 1233.8 1270 1274.8 1270C1228.6 1270 1206.1 1268.8 1201.6 1256.5C1197.5 1245.5 1207.9 1225.7 1228.5 1190Z" fill="#4E4E4E"/>
</g>
<path d="M1511 1174L1517.74 1245.74L1573.23 1199.77L1527.26 1255.26L1599 1262L1527.26 1268.74L1573.23 1324.23L1517.74 1278.26L1511 1350L1504.26 1278.26L1448.77 1324.23L1494.74 1268.74L1423 1262L1494.74 1255.26L1448.77 1199.77L1504.26 1245.74L1511 1174Z" fill="#4E4E4E"/>
<defs>
<linearGradient id="paint0_linear_438_28748" x1="1319.5" y1="256.479" x2="408.495" y2="1199.86" gradientUnits="userSpaceOnUse">
<stop stop-color="#1F89DB"/>
<stop offset="1" stop-color="#F42A8B"/>
</linearGradient>
<linearGradient id="paint1_linear_438_28748" x1="1282.82" y1="263.02" x2="445.178" y2="1193.32" gradientUnits="userSpaceOnUse">
<stop stop-color="#1F89DB"/>
<stop offset="1" stop-color="#F42A8B"/>
</linearGradient>
<linearGradient id="paint2_linear_438_28748" x1="1247.17" y1="271.519" x2="480.825" y2="1184.82" gradientUnits="userSpaceOnUse">
<stop stop-color="#1F89DB"/>
<stop offset="1" stop-color="#F42A8B"/>
</linearGradient>
<linearGradient id="paint3_linear_438_28748" x1="1212.65" y1="281.912" x2="515.346" y2="1174.43" gradientUnits="userSpaceOnUse">
<stop stop-color="#1F89DB"/>
<stop offset="1" stop-color="#F42A8B"/>
</linearGradient>
<linearGradient id="paint4_linear_438_28748" x1="1179.35" y1="294.129" x2="548.653" y2="1162.21" gradientUnits="userSpaceOnUse">
<stop stop-color="#1F89DB"/>
<stop offset="1" stop-color="#F42A8B"/>
</linearGradient>
<linearGradient id="paint5_linear_438_28748" x1="1147.34" y1="308.098" x2="580.659" y2="1148.24" gradientUnits="userSpaceOnUse">
<stop stop-color="#1F89DB"/>
<stop offset="1" stop-color="#F42A8B"/>
</linearGradient>
<linearGradient id="paint6_linear_438_28748" x1="1116.71" y1="323.742" x2="611.287" y2="1132.59" gradientUnits="userSpaceOnUse">
<stop stop-color="#1F89DB"/>
<stop offset="1" stop-color="#F42A8B"/>
</linearGradient>
<linearGradient id="paint7_linear_438_28748" x1="1087.54" y1="340.981" x2="640.458" y2="1115.36" gradientUnits="userSpaceOnUse">
<stop stop-color="#1F89DB"/>
<stop offset="1" stop-color="#F42A8B"/>
</linearGradient>
<linearGradient id="paint8_linear_438_28748" x1="1059.9" y1="359.732" x2="668.099" y2="1096.6" gradientUnits="userSpaceOnUse">
<stop stop-color="#1F89DB"/>
<stop offset="1" stop-color="#F42A8B"/>
</linearGradient>
<linearGradient id="paint9_linear_438_28748" x1="1033.86" y1="379.909" x2="694.143" y2="1076.43" gradientUnits="userSpaceOnUse">
<stop stop-color="#1F89DB"/>
<stop offset="1" stop-color="#F42A8B"/>
</linearGradient>
<linearGradient id="paint10_linear_438_28748" x1="1009.48" y1="401.422" x2="718.524" y2="1054.91" gradientUnits="userSpaceOnUse">
<stop stop-color="#1F89DB"/>
<stop offset="1" stop-color="#F42A8B"/>
</linearGradient>
<linearGradient id="paint11_linear_438_28748" x1="986.819" y1="424.18" x2="741.181" y2="1032.16" gradientUnits="userSpaceOnUse">
<stop stop-color="#1F89DB"/>
<stop offset="1" stop-color="#F42A8B"/>
</linearGradient>
<linearGradient id="paint12_linear_438_28748" x1="965.942" y1="448.086" x2="762.059" y2="1008.25" gradientUnits="userSpaceOnUse">
<stop stop-color="#1F89DB"/>
<stop offset="1" stop-color="#F42A8B"/>
</linearGradient>
<linearGradient id="paint13_linear_438_28748" x1="946.894" y1="473.046" x2="781.106" y2="983.29" gradientUnits="userSpaceOnUse">
<stop stop-color="#1F89DB"/>
<stop offset="1" stop-color="#F42A8B"/>
</linearGradient>
<linearGradient id="paint14_linear_438_28748" x1="929.725" y1="498.96" x2="798.276" y2="957.377" gradientUnits="userSpaceOnUse">
<stop stop-color="#1F89DB"/>
<stop offset="1" stop-color="#F42A8B"/>
</linearGradient>
<linearGradient id="paint15_linear_438_28748" x1="914.475" y1="525.726" x2="813.526" y2="930.61" gradientUnits="userSpaceOnUse">
<stop stop-color="#1F89DB"/>
<stop offset="1" stop-color="#F42A8B"/>
</linearGradient>
<linearGradient id="paint16_linear_438_28748" x1="901.182" y1="553.242" x2="826.818" y2="903.094" gradientUnits="userSpaceOnUse">
<stop stop-color="#1F89DB"/>
<stop offset="1" stop-color="#F42A8B"/>
</linearGradient>
<linearGradient id="paint17_linear_438_28748" x1="889.879" y1="581.404" x2="838.122" y2="874.932" gradientUnits="userSpaceOnUse">
<stop stop-color="#1F89DB"/>
<stop offset="1" stop-color="#F42A8B"/>
</linearGradient>
<linearGradient id="paint18_linear_438_28748" x1="880.593" y1="610.106" x2="847.408" y2="846.231" gradientUnits="userSpaceOnUse">
<stop stop-color="#1F89DB"/>
<stop offset="1" stop-color="#F42A8B"/>
</linearGradient>
<linearGradient id="paint19_linear_438_28748" x1="873.347" y1="639.241" x2="854.654" y2="817.095" gradientUnits="userSpaceOnUse">
<stop stop-color="#1F89DB"/>
<stop offset="1" stop-color="#F42A8B"/>
</linearGradient>
<linearGradient id="paint20_linear_438_28748" x1="868.158" y1="668.702" x2="859.842" y2="787.635" gradientUnits="userSpaceOnUse">
<stop stop-color="#1F89DB"/>
<stop offset="1" stop-color="#F42A8B"/>
</linearGradient>
<linearGradient id="paint21_linear_438_28748" x1="865.04" y1="698.381" x2="862.96" y2="757.956" gradientUnits="userSpaceOnUse">
<stop stop-color="#1F89DB"/>
<stop offset="1" stop-color="#F42A8B"/>
</linearGradient>
<clipPath id="clip0_438_28748">
<rect width="184.7" height="160" fill="white" transform="translate(1090 1190)"/>
</clipPath>
</defs>
</svg>
