<svg width="16" height="16" viewBox="0 0 16 16" fill="none" xmlns="http://www.w3.org/2000/svg">
<path d="M10.0002 15.1668H6.00016C2.38016 15.1668 0.833496 13.6202 0.833496 10.0002V6.00016C0.833496 2.38016 2.38016 0.833496 6.00016 0.833496H10.0002C13.6202 0.833496 15.1668 2.38016 15.1668 6.00016V10.0002C15.1668 13.6202 13.6202 15.1668 10.0002 15.1668ZM6.00016 1.8335C2.92683 1.8335 1.8335 2.92683 1.8335 6.00016V10.0002C1.8335 13.0735 2.92683 14.1668 6.00016 14.1668H10.0002C13.0735 14.1668 14.1668 13.0735 14.1668 10.0002V6.00016C14.1668 2.92683 13.0735 1.8335 10.0002 1.8335H6.00016Z" fill="#FEFEFE"/>
<path d="M7.99984 10.8332C6.43984 10.8332 5.1665 9.55984 5.1665 7.99984C5.1665 6.43984 6.43984 5.1665 7.99984 5.1665C9.55984 5.1665 10.8332 6.43984 10.8332 7.99984C10.8332 9.55984 9.55984 10.8332 7.99984 10.8332ZM7.99984 6.1665C6.9865 6.1665 6.1665 6.9865 6.1665 7.99984C6.1665 9.01317 6.9865 9.83317 7.99984 9.83317C9.01317 9.83317 9.83317 9.01317 9.83317 7.99984C9.83317 6.9865 9.01317 6.1665 7.99984 6.1665Z" fill="#FEFEFE"/>
<path d="M11.3332 4.99994C11.2465 4.99994 11.1598 4.97994 11.0798 4.9466C10.9998 4.91327 10.9265 4.8666 10.8598 4.8066C10.7998 4.73994 10.7465 4.6666 10.7132 4.5866C10.6798 4.5066 10.6665 4.41994 10.6665 4.33327C10.6665 4.2466 10.6798 4.15994 10.7132 4.07994C10.7532 3.99327 10.7998 3.9266 10.8598 3.85994C10.8932 3.83327 10.9265 3.79994 10.9598 3.77994C10.9998 3.75327 11.0398 3.73327 11.0798 3.71994C11.1198 3.69994 11.1598 3.6866 11.2065 3.67994C11.4198 3.63327 11.6465 3.7066 11.8065 3.85994C11.8665 3.9266 11.9132 3.99327 11.9465 4.07994C11.9798 4.15994 11.9998 4.2466 11.9998 4.33327C11.9998 4.41994 11.9798 4.5066 11.9465 4.5866C11.9132 4.6666 11.8665 4.73994 11.8065 4.8066C11.7398 4.8666 11.6665 4.91327 11.5865 4.9466C11.5065 4.97994 11.4198 4.99994 11.3332 4.99994Z" fill="#FEFEFE"/>
</svg>
