<svg width="56" height="56" viewBox="0 0 56 56" fill="none" xmlns="http://www.w3.org/2000/svg">
<g clip-path="url(#clip0_438_28854)">
<path d="M1.35713 16.1898L26.8349 27.7474C27.5787 28.0854 28.4198 28.0854 29.1635 27.7474L54.6414 16.1898C56.4515 15.3684 56.4515 12.6329 54.6414 11.8115L29.1646 0.25274C28.7992 0.0857147 28.4021 -0.000732422 28.0003 -0.000732422C27.5985 -0.000732422 27.2015 0.0857147 26.836 0.25274L1.35713 11.8104C-0.453027 12.6318 -0.453027 15.3684 1.35713 16.1898ZM54.6424 25.8454L48.2889 22.9656L30.6095 30.9795C29.7826 31.3546 28.9043 31.5449 27.9998 31.5449C27.0953 31.5449 26.2181 31.3546 25.3901 30.9795L7.71182 22.9656L1.35713 25.8454C-0.453027 26.6657 -0.453027 29.4001 1.35713 30.2204L26.8349 41.7693C27.5787 42.1062 28.4198 42.1062 29.1635 41.7693L54.6424 30.2204C56.4526 29.4001 56.4526 26.6657 54.6424 25.8454ZM54.6424 39.8235L48.3129 36.9546L30.6095 44.9795C29.7826 45.3546 28.9043 45.5449 27.9998 45.5449C27.0953 45.5449 26.2181 45.3546 25.3901 44.9795L7.68776 36.9546L1.35713 39.8235C-0.453027 40.6438 -0.453027 43.3782 1.35713 44.1985L26.8349 55.7474C27.5787 56.0843 28.4198 56.0843 29.1635 55.7474L54.6424 44.1985C56.4526 43.3782 56.4526 40.6438 54.6424 39.8235Z" fill="#FEFEFE"/>
</g>
<defs>
<clipPath id="clip0_438_28854">
<rect width="56" height="56" fill="white"/>
</clipPath>
</defs>
</svg>
