<svg width="227" height="48" viewBox="0 0 227 48" fill="none" xmlns="http://www.w3.org/2000/svg">
<path d="M17.0002 37.8L3.2002 24L17.1002 10.2" stroke="black" stroke-linecap="round" stroke-linejoin="round"/>
<path d="M31.2998 24L11.7998 4.5H25.2998L44.7998 24L25.2998 43.5H11.7998L31.2998 24Z" fill="#FEFEFE" stroke="black" stroke-linecap="round" stroke-linejoin="round"/>
<path d="M31.6 37.5L37.5999 43.5H25.2999L31.6 37.5Z" fill="#63D9B9"/>
<path d="M25.2999 4.5H37.5999L31.6 10.5L25.2999 4.5Z" fill="#63D9B9"/>
<path d="M23.7999 31.1L16.7 24L23.7999 16.9L17 10L3 24L17 38L23.7999 31.1Z" fill="#63D9B9"/>
<path d="M31.6 37.5L37.5999 43.5H25.2999L31.6 37.5Z" stroke="black" stroke-linecap="round" stroke-linejoin="round"/>
<path d="M25.2999 4.5H37.5999L31.6 10.5L25.2999 4.5Z" stroke="black" stroke-linecap="round" stroke-linejoin="round"/>
<path d="M23.7999 31.1L16.7 24L23.7999 16.9L17 10L3 24L17 38L23.7999 31.1Z" stroke="black" stroke-linecap="round" stroke-linejoin="round"/>
<path d="M67.792 36V12.992H86.512C87.3013 12.992 88.016 13.1947 88.656 13.6C89.3173 13.984 89.84 14.5067 90.224 15.168C90.6293 15.808 90.832 16.5227 90.832 17.312V23.648C90.832 24.416 90.6293 25.1307 90.224 25.792C89.84 26.4533 89.3173 26.976 88.656 27.36C88.016 27.744 87.3013 27.936 86.512 27.936L71.632 27.968V36H67.792ZM72.208 24.064H86.384C86.5333 24.064 86.6613 24.0107 86.768 23.904C86.896 23.7973 86.96 23.6587 86.96 23.488V17.408C86.96 17.2587 86.896 17.1307 86.768 17.024C86.6613 16.896 86.5333 16.832 86.384 16.832H72.208C72.0587 16.832 71.92 16.896 71.792 17.024C71.6853 17.1307 71.632 17.2587 71.632 17.408V23.488C71.632 23.6587 71.6853 23.7973 71.792 23.904C71.92 24.0107 72.0587 24.064 72.208 24.064ZM97.2645 36C96.4752 36 95.7498 35.808 95.0885 35.424C94.4485 35.0187 93.9365 34.496 93.5525 33.856C93.1685 33.216 92.9765 32.5013 92.9765 31.712V24.8H108.017V21.856C108.017 21.6853 107.953 21.5467 107.825 21.44C107.718 21.312 107.579 21.248 107.409 21.248H92.9765V17.44H107.537C108.347 17.44 109.073 17.6427 109.713 18.048C110.353 18.432 110.865 18.944 111.249 19.584C111.633 20.224 111.825 20.9387 111.825 21.728V36H97.2645ZM97.3925 32.192H108.017V28.288H96.7845V31.584C96.7845 31.7547 96.8378 31.904 96.9445 32.032C97.0725 32.1387 97.2218 32.192 97.3925 32.192ZM118.043 42.976V39.136H129.339C129.489 39.136 129.617 39.072 129.723 38.944C129.851 38.8373 129.915 38.7093 129.915 38.56V36H119.163C118.395 36 117.681 35.808 117.019 35.424C116.379 35.0187 115.857 34.496 115.451 33.856C115.067 33.216 114.875 32.5013 114.875 31.712V17.504H118.683V31.584C118.683 31.7547 118.737 31.904 118.843 32.032C118.971 32.1387 119.121 32.192 119.291 32.192H129.339C129.489 32.192 129.617 32.1387 129.723 32.032C129.851 31.904 129.915 31.7547 129.915 31.584V17.504H133.723V38.688C133.723 39.4987 133.531 40.224 133.147 40.864C132.785 41.504 132.273 42.016 131.611 42.4C130.971 42.784 130.257 42.976 129.467 42.976H118.043ZM140.639 36C139.849 36 139.135 35.808 138.495 35.424C137.855 35.0187 137.332 34.496 136.927 33.856C136.543 33.216 136.351 32.5013 136.351 31.712V21.728C136.351 20.9387 136.543 20.224 136.927 19.584C137.332 18.944 137.855 18.432 138.495 18.048C139.135 17.6427 139.849 17.44 140.639 17.44H155.167V21.248H140.767C140.596 21.248 140.447 21.312 140.319 21.44C140.212 21.5467 140.159 21.6853 140.159 21.856V31.584C140.159 31.7547 140.212 31.904 140.319 32.032C140.447 32.1387 140.596 32.192 140.767 32.192H155.199V36H140.639ZM162.921 36C162.131 36 161.417 35.808 160.777 35.424C160.137 35.0187 159.614 34.496 159.209 33.856C158.825 33.216 158.633 32.5013 158.633 31.712V11.328H162.473V31.584C162.473 31.7547 162.526 31.904 162.633 32.032C162.761 32.1387 162.899 32.192 163.049 32.192H166.505V36H162.921ZM169.383 36V17.44H173.191V36H169.383ZM169.383 15.2V11.36H173.191V15.2H169.383ZM180.576 36C179.787 36 179.072 35.808 178.432 35.424C177.792 35.0187 177.27 34.496 176.864 33.856C176.48 33.216 176.288 32.5013 176.288 31.712V21.728C176.288 20.9387 176.48 20.224 176.864 19.584C177.27 18.944 177.792 18.432 178.432 18.048C179.072 17.6427 179.787 17.44 180.576 17.44H195.104V21.248H180.704C180.534 21.248 180.384 21.312 180.256 21.44C180.15 21.5467 180.096 21.6853 180.096 21.856V31.584C180.096 31.7547 180.15 31.904 180.256 32.032C180.384 32.1387 180.534 32.192 180.704 32.192H195.136V36H180.576ZM197.853 36V11.36H201.661V24.8H205.405L212.189 17.44H216.413V18.336L208.797 26.72L216.413 35.104V36H212.189L205.405 28.64H201.661V36H197.853Z" fill="#FEFEFE"/>
</svg>
