<svg width="279" height="271" viewBox="0 0 279 271" fill="none" xmlns="http://www.w3.org/2000/svg">
<path opacity="0.0526316" d="M21.6049 218.595C27.4723 226.401 46.2248 239.463 74.2965 229.265C109.386 216.517 122.957 182.725 154.275 165.204C177.39 152.272 239.501 132.86 275.216 154.31" stroke="url(#paint0_linear_438_28822)" stroke-width="1.45842"/>
<path opacity="0.105263" d="M15.8175 202.23C20.8367 210.607 38.1211 225.557 67.1051 218.349C103.335 209.339 120.364 177.151 153.342 162.999C177.682 152.554 241.482 139.741 274.759 164.807" stroke="url(#paint1_linear_438_28822)" stroke-width="1.45842"/>
<path opacity="0.157895" d="M11.4454 185.645C15.5615 194.5 31.1884 211.176 60.7671 207.037C97.7404 201.863 118.041 171.632 152.317 161.005C177.616 153.161 242.405 147.087 272.88 175.494" stroke="url(#paint2_linear_438_28822)" stroke-width="1.45842"/>
<path opacity="0.210526" d="M8.50391 168.988C11.6719 178.225 25.4701 196.443 55.3194 195.418C92.6309 194.137 115.98 166.194 151.18 159.208C177.16 154.051 242.229 154.783 269.568 186.22" stroke="url(#paint3_linear_438_28822)" stroke-width="1.45842"/>
<path opacity="0.263158" d="M6.99214 152.41C9.17722 161.927 20.9956 181.488 50.7884 183.589C88.0295 186.215 114.172 160.865 149.909 157.597C176.285 155.184 240.922 162.714 264.824 196.836" stroke="url(#paint4_linear_438_28822)" stroke-width="1.45842"/>
<path opacity="0.315789" d="M6.89489 136.058C8.07315 145.752 17.7822 166.441 47.1922 171.645C83.9547 178.149 112.603 155.671 148.486 156.156C174.97 156.514 238.466 170.758 258.671 207.192" stroke="url(#paint5_linear_438_28822)" stroke-width="1.45842"/>
<path opacity="0.368421" d="M8.18021 120.081C8.33873 129.845 15.832 151.435 44.537 159.684C80.4182 169.996 111.26 150.635 146.895 154.869C173.197 157.993 234.856 178.797 251.142 217.143" stroke="url(#paint6_linear_438_28822)" stroke-width="1.45842"/>
<path opacity="0.421053" d="M10.8012 104.62C9.93825 114.347 15.1337 136.602 42.8191 147.807C77.4258 161.813 110.122 145.782 145.12 153.717C170.951 159.573 230.097 186.708 242.286 226.547" stroke="url(#paint7_linear_438_28822)" stroke-width="1.45842"/>
<path opacity="0.473684" d="M14.6973 89.8126C12.8223 99.3961 15.663 122.072 42.0255 136.11C74.9787 153.656 109.172 141.131 143.148 152.68C168.226 161.205 224.212 194.374 232.169 235.268" stroke="url(#paint8_linear_438_28822)" stroke-width="1.45842"/>
<path opacity="0.526316" d="M19.7926 75.7876C16.9262 85.1225 17.381 107.971 42.1318 124.688C73.0703 145.583 108.385 136.7 140.968 151.738C165.017 162.837 217.23 201.676 220.869 243.178" stroke="url(#paint9_linear_438_28822)" stroke-width="1.45842"/>
<path opacity="0.578947" d="M25.9987 62.6666C22.1722 71.6508 20.2361 94.4221 43.1041 113.634C71.689 137.648 107.739 132.505 138.572 150.867C161.329 164.419 209.195 208.503 208.476 250.158" stroke="url(#paint10_linear_438_28822)" stroke-width="1.45842"/>
<path opacity="0.631579" d="M33.2153 50.5609C28.4706 59.0959 24.165 81.5401 44.8994 103.037C70.8175 129.908 107.207 128.561 135.952 150.045C157.168 165.902 200.164 214.748 195.095 256.099" stroke="url(#paint11_linear_438_28822)" stroke-width="1.45842"/>
<path opacity="0.684211" d="M41.3306 39.5702C35.7198 47.5625 29.0917 69.4337 47.4655 92.98C70.4329 122.413 106.764 124.878 133.106 149.249C152.548 167.236 190.203 220.309 180.839 260.904" stroke="url(#paint12_linear_438_28822)" stroke-width="1.45842"/>
<path opacity="0.736842" d="M50.2235 29.7825C43.808 37.1445 34.93 58.203 50.742 83.541C70.5069 115.213 106.382 121.462 130.031 148.453C147.487 168.374 179.388 225.092 165.832 264.486" stroke="url(#paint13_linear_438_28822)" stroke-width="1.45842"/>
<path opacity="0.789474" d="M59.7632 21.2728C52.6133 27.9239 41.5827 47.9391 54.6595 74.791C71.0055 108.356 106.03 118.32 126.729 147.635C142.007 169.272 167.805 229.014 150.205 266.775" stroke="url(#paint14_linear_438_28822)" stroke-width="1.45842"/>
<path opacity="0.842105" d="M69.8133 14.101C62.0073 19.9683 48.945 38.7209 59.1434 66.7926C71.8914 101.882 105.683 115.453 123.204 146.771C136.136 169.886 155.548 231.997 134.098 267.712" stroke="url(#paint15_linear_438_28822)" stroke-width="1.45842"/>
<path opacity="0.894737" d="M80.2311 8.31385C71.8546 13.3331 56.9037 30.6175 64.1119 59.6014C73.1222 95.8314 105.31 112.86 119.462 145.838C129.907 170.178 142.72 233.978 117.654 267.255" stroke="url(#paint16_linear_438_28822)" stroke-width="1.45842"/>
<path opacity="0.947368" d="M90.8697 3.94169C82.0144 8.05783 65.3387 23.6848 69.4778 53.2634C74.6516 90.2367 104.883 110.537 115.51 144.813C123.354 170.112 129.428 234.902 101.021 265.376" stroke="url(#paint17_linear_438_28822)" stroke-width="1.45842"/>
<path d="M101.58 1C92.3426 4.16796 74.1248 17.9662 75.1494 47.8155C76.4301 85.127 104.374 108.476 111.36 143.676C116.516 169.656 115.784 234.725 84.3476 262.064" stroke="url(#paint18_linear_438_28822)" stroke-width="1.45842"/>
<defs>
<linearGradient id="paint0_linear_438_28822" x1="23.8128" y1="225.39" x2="272.099" y2="144.717" gradientUnits="userSpaceOnUse">
<stop stop-color="#1F89DB"/>
<stop offset="1" stop-color="#F42A8B"/>
</linearGradient>
<linearGradient id="paint1_linear_438_28822" x1="17.303" y1="209.219" x2="272.662" y2="154.94" gradientUnits="userSpaceOnUse">
<stop stop-color="#1F89DB"/>
<stop offset="1" stop-color="#F42A8B"/>
</linearGradient>
<linearGradient id="paint2_linear_438_28822" x1="12.1922" y1="192.751" x2="271.826" y2="165.462" gradientUnits="userSpaceOnUse">
<stop stop-color="#1F89DB"/>
<stop offset="1" stop-color="#F42A8B"/>
</linearGradient>
<linearGradient id="paint3_linear_438_28822" x1="8.50391" y1="176.133" x2="269.568" y2="176.133" gradientUnits="userSpaceOnUse">
<stop stop-color="#1F89DB"/>
<stop offset="1" stop-color="#F42A8B"/>
</linearGradient>
<linearGradient id="paint4_linear_438_28822" x1="6.24532" y1="159.515" x2="265.879" y2="186.804" gradientUnits="userSpaceOnUse">
<stop stop-color="#1F89DB"/>
<stop offset="1" stop-color="#F42A8B"/>
</linearGradient>
<linearGradient id="paint5_linear_438_28822" x1="5.40943" y1="143.047" x2="260.768" y2="197.325" gradientUnits="userSpaceOnUse">
<stop stop-color="#1F89DB"/>
<stop offset="1" stop-color="#F42A8B"/>
</linearGradient>
<linearGradient id="paint6_linear_438_28822" x1="5.97238" y1="126.876" x2="254.259" y2="207.549" gradientUnits="userSpaceOnUse">
<stop stop-color="#1F89DB"/>
<stop offset="1" stop-color="#F42A8B"/>
</linearGradient>
<linearGradient id="paint7_linear_438_28822" x1="7.89519" y1="111.147" x2="246.389" y2="217.331" gradientUnits="userSpaceOnUse">
<stop stop-color="#1F89DB"/>
<stop offset="1" stop-color="#F42A8B"/>
</linearGradient>
<linearGradient id="paint8_linear_438_28822" x1="11.1249" y1="96.0001" x2="237.213" y2="226.532" gradientUnits="userSpaceOnUse">
<stop stop-color="#1F89DB"/>
<stop offset="1" stop-color="#F42A8B"/>
</linearGradient>
<linearGradient id="paint9_linear_438_28822" x1="15.5931" y1="81.5677" x2="226.798" y2="235.017" gradientUnits="userSpaceOnUse">
<stop stop-color="#1F89DB"/>
<stop offset="1" stop-color="#F42A8B"/>
</linearGradient>
<linearGradient id="paint10_linear_438_28822" x1="21.218" y1="67.9761" x2="215.226" y2="242.662" gradientUnits="userSpaceOnUse">
<stop stop-color="#1F89DB"/>
<stop offset="1" stop-color="#F42A8B"/>
</linearGradient>
<linearGradient id="paint11_linear_438_28822" x1="27.9058" y1="55.3416" x2="202.591" y2="249.35" gradientUnits="userSpaceOnUse">
<stop stop-color="#1F89DB"/>
<stop offset="1" stop-color="#F42A8B"/>
</linearGradient>
<linearGradient id="paint12_linear_438_28822" x1="35.5505" y1="43.7697" x2="189" y2="254.975" gradientUnits="userSpaceOnUse">
<stop stop-color="#1F89DB"/>
<stop offset="1" stop-color="#F42A8B"/>
</linearGradient>
<linearGradient id="paint13_linear_438_28822" x1="44.036" y1="33.3548" x2="174.568" y2="259.443" gradientUnits="userSpaceOnUse">
<stop stop-color="#1F89DB"/>
<stop offset="1" stop-color="#F42A8B"/>
</linearGradient>
<linearGradient id="paint14_linear_438_28822" x1="53.2362" y1="24.1788" x2="159.42" y2="262.672" gradientUnits="userSpaceOnUse">
<stop stop-color="#1F89DB"/>
<stop offset="1" stop-color="#F42A8B"/>
</linearGradient>
<linearGradient id="paint15_linear_438_28822" x1="63.0183" y1="16.3089" x2="143.691" y2="264.595" gradientUnits="userSpaceOnUse">
<stop stop-color="#1F89DB"/>
<stop offset="1" stop-color="#F42A8B"/>
</linearGradient>
<linearGradient id="paint16_linear_438_28822" x1="73.2426" y1="9.79931" x2="127.521" y2="265.158" gradientUnits="userSpaceOnUse">
<stop stop-color="#1F89DB"/>
<stop offset="1" stop-color="#F42A8B"/>
</linearGradient>
<linearGradient id="paint17_linear_438_28822" x1="83.7641" y1="4.68851" x2="111.053" y2="264.322" gradientUnits="userSpaceOnUse">
<stop stop-color="#1F89DB"/>
<stop offset="1" stop-color="#F42A8B"/>
</linearGradient>
<linearGradient id="paint18_linear_438_28822" x1="94.4349" y1="1" x2="94.4349" y2="262.064" gradientUnits="userSpaceOnUse">
<stop stop-color="#1F89DB"/>
<stop offset="1" stop-color="#F42A8B"/>
</linearGradient>
</defs>
</svg>
