<svg width="64" height="64" viewBox="0 0 64 64" fill="none" xmlns="http://www.w3.org/2000/svg">
<path d="M32 50H20.8889L12 30C16.4444 28.666 25.3333 22 25.3333 6H38.6667C38.6667 21.2 47.5556 28.334 52 30L43.1111 50H32ZM32 50V38M32 26V6M16.4444 50H47.5556V58H16.4444V50ZM36.4444 32C36.4444 33.0609 35.9762 34.0783 35.1427 34.8284C34.3092 35.5786 33.1787 36 32 36C30.8213 36 29.6908 35.5786 28.8573 34.8284C28.0238 34.0783 27.5556 33.0609 27.5556 32C27.5556 30.9391 28.0238 29.9217 28.8573 29.1716C29.6908 28.4214 30.8213 28 32 28C33.1787 28 34.3092 28.4214 35.1427 29.1716C35.9762 29.9217 36.4444 30.9391 36.4444 32Z" stroke="#FEFEFE" stroke-width="4" stroke-linecap="round" stroke-linejoin="round"/>
</svg>
